G04*
G04 #@! TF.GenerationSoftware,Altium Limited,Altium Designer,19.1.5 (86)*
G04*
G04 Layer_Color=2752767*
%FSLAX44Y44*%
%MOMM*%
G71*
G01*
G75*
%ADD101C,0.0508*%
%ADD102C,0.0677*%
D101*
X201168Y725678D02*
Y729742D01*
X205232D01*
Y725678D01*
X201168D01*
Y801878D02*
Y805942D01*
X205232D01*
Y801878D01*
X201168D01*
Y751078D02*
Y755142D01*
X205232D01*
Y751078D01*
X201168D01*
Y776478D02*
Y780542D01*
X205232D01*
Y776478D01*
X201168D01*
X175768D02*
Y780542D01*
X179832D01*
Y776478D01*
X175768D01*
Y751078D02*
Y755142D01*
X179832D01*
Y751078D01*
X175768D01*
Y725678D02*
Y729742D01*
X179832D01*
Y725678D01*
X175768D01*
Y801878D02*
Y805942D01*
X179832D01*
Y801878D01*
X175768D01*
X482893Y442468D02*
X480861Y446532D01*
X484925D01*
X482893Y442468D01*
X457493D02*
X455461Y446532D01*
X459525D01*
X457493Y442468D01*
X432093D02*
X430061Y446532D01*
X434125D01*
X432093Y442468D01*
X381293D02*
X379261Y446532D01*
X383325D01*
X381293Y442468D01*
X406693D02*
X404661Y446532D01*
X408725D01*
X406693Y442468D01*
X355693D02*
X353661Y446532D01*
X357725D01*
X355693Y442468D01*
X330493D02*
X328461Y446532D01*
X332525D01*
X330493Y442468D01*
X305093D02*
X303061Y446532D01*
X307125D01*
X305093Y442468D01*
X279693D02*
X277661Y446532D01*
X281725D01*
X279693Y442468D01*
X254293D02*
X252261Y446532D01*
X256325D01*
X254293Y442468D01*
Y594868D02*
X252261Y598932D01*
X256325D01*
X254293Y594868D01*
X279693D02*
X277661Y598932D01*
X281725D01*
X279693Y594868D01*
X305093D02*
X303061Y598932D01*
X307125D01*
X305093Y594868D01*
X330493D02*
X328461Y598932D01*
X332525D01*
X330493Y594868D01*
X355693D02*
X353661Y598932D01*
X357725D01*
X355693Y594868D01*
X406693D02*
X404661Y598932D01*
X408725D01*
X406693Y594868D01*
X381293D02*
X379261Y598932D01*
X383325D01*
X381293Y594868D01*
X432093D02*
X430061Y598932D01*
X434125D01*
X432093Y594868D01*
X457493D02*
X455461Y598932D01*
X459525D01*
X457493Y594868D01*
X482893D02*
X480861Y598932D01*
X484925D01*
X482893Y594868D01*
X508293Y442468D02*
X506261Y446532D01*
X510325D01*
X508293Y442468D01*
X533693D02*
X531661Y446532D01*
X535725D01*
X533693Y442468D01*
X559093D02*
X557061Y446532D01*
X561125D01*
X559093Y442468D01*
X584493D02*
X582461Y446532D01*
X586525D01*
X584493Y442468D01*
X609893D02*
X607861Y446532D01*
X611925D01*
X609893Y442468D01*
X660693D02*
X658661Y446532D01*
X662725D01*
X660693Y442468D01*
X635293D02*
X633261Y446532D01*
X637325D01*
X635293Y442468D01*
X686093D02*
X684061Y446532D01*
X688125D01*
X686093Y442468D01*
X711493D02*
X709461Y446532D01*
X713525D01*
X711493Y442468D01*
X736893D02*
X734861Y446532D01*
X738925D01*
X736893Y442468D01*
Y594868D02*
X734861Y598932D01*
X738925D01*
X736893Y594868D01*
X711493D02*
X709461Y598932D01*
X713525D01*
X711493Y594868D01*
X686093D02*
X684061Y598932D01*
X688125D01*
X686093Y594868D01*
X635293D02*
X633261Y598932D01*
X637325D01*
X635293Y594868D01*
X660693D02*
X658661Y598932D01*
X662725D01*
X660693Y594868D01*
X609693D02*
X607661Y598932D01*
X611725D01*
X609693Y594868D01*
X584493D02*
X582461Y598932D01*
X586525D01*
X584493Y594868D01*
X559093D02*
X557061Y598932D01*
X561125D01*
X559093Y594868D01*
X533693D02*
X531661Y598932D01*
X535725D01*
X533693Y594868D01*
X508293D02*
X506261Y598932D01*
X510325D01*
X508293Y594868D01*
X491490Y314198D02*
X492506Y315214D01*
X493522D01*
X492506Y316230D01*
X493522Y317246D01*
X492506D01*
X491490Y318262D01*
X490474Y317246D01*
X489458D01*
X490474Y316230D01*
X489458Y315214D01*
X490474D01*
X491490Y314198D01*
X505460Y177038D02*
X506476Y178054D01*
X507492D01*
X506476Y179070D01*
X507492Y180086D01*
X506476D01*
X505460Y181102D01*
X504444Y180086D01*
X503428D01*
X504444Y179070D01*
X503428Y178054D01*
X504444D01*
X505460Y177038D01*
X538480Y345948D02*
X539496Y346964D01*
X540512D01*
X539496Y347980D01*
X540512Y348996D01*
X539496D01*
X538480Y350012D01*
X537464Y348996D01*
X536448D01*
X537464Y347980D01*
X536448Y346964D01*
X537464D01*
X538480Y345948D01*
Y202438D02*
X539496Y203454D01*
X540512D01*
X539496Y204470D01*
X540512Y205486D01*
X539496D01*
X538480Y206502D01*
X537464Y205486D01*
X536448D01*
X537464Y204470D01*
X536448Y203454D01*
X537464D01*
X538480Y202438D01*
X554990Y119888D02*
X556006Y120904D01*
X557022D01*
X556006Y121920D01*
X557022Y122936D01*
X556006D01*
X554990Y123952D01*
X553974Y122936D01*
X552958D01*
X553974Y121920D01*
X552958Y120904D01*
X553974D01*
X554990Y119888D01*
X487680Y10668D02*
X488696Y11684D01*
X489712D01*
X488696Y12700D01*
X489712Y13716D01*
X488696D01*
X487680Y14732D01*
X486664Y13716D01*
X485648D01*
X486664Y12700D01*
X485648Y11684D01*
X486664D01*
X487680Y10668D01*
X476250Y109728D02*
X477266Y110744D01*
X478282D01*
X477266Y111760D01*
X478282Y112776D01*
X477266D01*
X476250Y113792D01*
X475234Y112776D01*
X474218D01*
X475234Y111760D01*
X474218Y110744D01*
X475234D01*
X476250Y109728D01*
X495300Y122428D02*
X496316Y123444D01*
X497332D01*
X496316Y124460D01*
X497332Y125476D01*
X496316D01*
X495300Y126492D01*
X494284Y125476D01*
X493268D01*
X494284Y124460D01*
X493268Y123444D01*
X494284D01*
X495300Y122428D01*
X383540Y201168D02*
X384556Y202184D01*
X385572D01*
X384556Y203200D01*
X385572Y204216D01*
X384556D01*
X383540Y205232D01*
X382524Y204216D01*
X381508D01*
X382524Y203200D01*
X381508Y202184D01*
X382524D01*
X383540Y201168D01*
X326898Y33528D02*
X327914Y35560D01*
X326898Y37592D01*
X328930Y36576D01*
X330962Y37592D01*
X329946Y35560D01*
X330962Y33528D01*
X328930Y34544D01*
X326898Y33528D01*
X347980Y800608D02*
X348996Y801624D01*
X350012D01*
X348996Y802640D01*
X350012Y803656D01*
X348996D01*
X347980Y804672D01*
X346964Y803656D01*
X345948D01*
X346964Y802640D01*
X345948Y801624D01*
X346964D01*
X347980Y800608D01*
X505968Y533908D02*
X506984Y535940D01*
X505968Y537972D01*
X508000Y536956D01*
X510032Y537972D01*
X509016Y535940D01*
X510032Y533908D01*
X508000Y534924D01*
X505968Y533908D01*
X624840Y650748D02*
X625856Y651764D01*
X626872D01*
X625856Y652780D01*
X626872Y653796D01*
X625856D01*
X624840Y654812D01*
X623824Y653796D01*
X622808D01*
X623824Y652780D01*
X622808Y651764D01*
X623824D01*
X624840Y650748D01*
X662940Y681228D02*
X663956Y682244D01*
X664972D01*
X663956Y683260D01*
X664972Y684276D01*
X663956D01*
X662940Y685292D01*
X661924Y684276D01*
X660908D01*
X661924Y683260D01*
X660908Y682244D01*
X661924D01*
X662940Y681228D01*
X725170Y645668D02*
X726186Y646684D01*
X727202D01*
X726186Y647700D01*
X727202Y648716D01*
X726186D01*
X725170Y649732D01*
X724154Y648716D01*
X723138D01*
X724154Y647700D01*
X723138Y646684D01*
X724154D01*
X725170Y645668D01*
X671970Y632828D02*
X672986Y633844D01*
X674002D01*
X672986Y634860D01*
X674002Y635876D01*
X672986D01*
X671970Y636892D01*
X670954Y635876D01*
X669938D01*
X670954Y634860D01*
X669938Y633844D01*
X670954D01*
X671970Y632828D01*
X326390Y630428D02*
X327406Y631444D01*
X328422D01*
X327406Y632460D01*
X328422Y633476D01*
X327406D01*
X326390Y634492D01*
X325374Y633476D01*
X324358D01*
X325374Y632460D01*
X324358Y631444D01*
X325374D01*
X326390Y630428D01*
X621030Y629158D02*
X622046Y630174D01*
X623062D01*
X622046Y631190D01*
X623062Y632206D01*
X622046D01*
X621030Y633222D01*
X620014Y632206D01*
X618998D01*
X620014Y631190D01*
X618998Y630174D01*
X620014D01*
X621030Y629158D01*
X396522Y713260D02*
X397538Y714276D01*
X398554D01*
X397538Y715292D01*
X398554Y716308D01*
X397538D01*
X396522Y717324D01*
X395506Y716308D01*
X394490D01*
X395506Y715292D01*
X394490Y714276D01*
X395506D01*
X396522Y713260D01*
X345440Y700278D02*
X346456Y701294D01*
X347472D01*
X346456Y702310D01*
X347472Y703326D01*
X346456D01*
X345440Y704342D01*
X344424Y703326D01*
X343408D01*
X344424Y702310D01*
X343408Y701294D01*
X344424D01*
X345440Y700278D01*
X410210Y669798D02*
X411226Y670814D01*
X412242D01*
X411226Y671830D01*
X412242Y672846D01*
X411226D01*
X410210Y673862D01*
X409194Y672846D01*
X408178D01*
X409194Y671830D01*
X408178Y670814D01*
X409194D01*
X410210Y669798D01*
X414020Y733298D02*
X415036Y734314D01*
X416052D01*
X415036Y735330D01*
X416052Y736346D01*
X415036D01*
X414020Y737362D01*
X413004Y736346D01*
X411988D01*
X413004Y735330D01*
X411988Y734314D01*
X413004D01*
X414020Y733298D01*
X574040Y535178D02*
X575056Y536194D01*
X576072D01*
X575056Y537210D01*
X576072Y538226D01*
X575056D01*
X574040Y539242D01*
X573024Y538226D01*
X572008D01*
X573024Y537210D01*
X572008Y536194D01*
X573024D01*
X574040Y535178D01*
X201676Y558546D02*
X202692Y559562D01*
X203708D01*
X202692Y560578D01*
X203708Y561594D01*
X202692D01*
X201676Y562610D01*
X200660Y561594D01*
X199644D01*
X200660Y560578D01*
X199644Y559562D01*
X200660D01*
X201676Y558546D01*
X548640Y25908D02*
X549656Y26924D01*
X550672D01*
X549656Y27940D01*
X550672Y28956D01*
X549656D01*
X548640Y29972D01*
X547624Y28956D01*
X546608D01*
X547624Y27940D01*
X546608Y26924D01*
X547624D01*
X548640Y25908D01*
X486410Y60198D02*
X487426Y61214D01*
X488442D01*
X487426Y62230D01*
X488442Y63246D01*
X487426D01*
X486410Y64262D01*
X485394Y63246D01*
X484378D01*
X485394Y62230D01*
X484378Y61214D01*
X485394D01*
X486410Y60198D01*
X455168Y546608D02*
X456184Y548640D01*
X455168Y550672D01*
X457200Y549656D01*
X459232Y550672D01*
X458216Y548640D01*
X459232Y546608D01*
X457200Y547624D01*
X455168Y546608D01*
X137795Y133223D02*
X138811Y134239D01*
X139827D01*
X138811Y135255D01*
X139827Y136271D01*
X138811D01*
X137795Y137287D01*
X136779Y136271D01*
X135763D01*
X136779Y135255D01*
X135763Y134239D01*
X136779D01*
X137795Y133223D01*
X190500Y282448D02*
X191516Y283464D01*
X192532D01*
X191516Y284480D01*
X192532Y285496D01*
X191516D01*
X190500Y286512D01*
X189484Y285496D01*
X188468D01*
X189484Y284480D01*
X188468Y283464D01*
X189484D01*
X190500Y282448D01*
Y378968D02*
X191516Y379984D01*
X192532D01*
X191516Y381000D01*
X192532Y382016D01*
X191516D01*
X190500Y383032D01*
X189484Y382016D01*
X188468D01*
X189484Y381000D01*
X188468Y379984D01*
X189484D01*
X190500Y378968D01*
X170180Y429768D02*
X171196Y430784D01*
X172212D01*
X171196Y431800D01*
X172212Y432816D01*
X171196D01*
X170180Y433832D01*
X169164Y432816D01*
X168148D01*
X169164Y431800D01*
X168148Y430784D01*
X169164D01*
X170180Y429768D01*
X209550Y334518D02*
X210566Y335534D01*
X211582D01*
X210566Y336550D01*
X211582Y337566D01*
X210566D01*
X209550Y338582D01*
X208534Y337566D01*
X207518D01*
X208534Y336550D01*
X207518Y335534D01*
X208534D01*
X209550Y334518D01*
X138430Y246888D02*
X139446Y247904D01*
X140462D01*
X139446Y248920D01*
X140462Y249936D01*
X139446D01*
X138430Y250952D01*
X137414Y249936D01*
X136398D01*
X137414Y248920D01*
X136398Y247904D01*
X137414D01*
X138430Y246888D01*
X57150Y127508D02*
X58166Y128524D01*
X59182D01*
X58166Y129540D01*
X59182Y130556D01*
X58166D01*
X57150Y131572D01*
X56134Y130556D01*
X55118D01*
X56134Y129540D01*
X55118Y128524D01*
X56134D01*
X57150Y127508D01*
X389128Y114808D02*
X390144Y116840D01*
X389128Y118872D01*
X391160Y117856D01*
X393192Y118872D01*
X392176Y116840D01*
X393192Y114808D01*
X391160Y115824D01*
X389128Y114808D01*
X285750Y100838D02*
X286766Y101854D01*
X287782D01*
X286766Y102870D01*
X287782Y103886D01*
X286766D01*
X285750Y104902D01*
X284734Y103886D01*
X283718D01*
X284734Y102870D01*
X283718Y101854D01*
X284734D01*
X285750Y100838D01*
X334010Y187198D02*
X335026Y188214D01*
X336042D01*
X335026Y189230D01*
X336042Y190246D01*
X335026D01*
X334010Y191262D01*
X332994Y190246D01*
X331978D01*
X332994Y189230D01*
X331978Y188214D01*
X332994D01*
X334010Y187198D01*
X378198Y397248D02*
Y396232D01*
X380230D01*
Y397248D01*
X381246D01*
Y399280D01*
X380230D01*
Y400296D01*
X378198D01*
Y399280D01*
X377182D01*
Y397248D01*
X378198D01*
X364744Y406654D02*
Y405638D01*
X366776D01*
Y406654D01*
X367792D01*
Y408686D01*
X366776D01*
Y409702D01*
X364744D01*
Y408686D01*
X363728D01*
Y406654D01*
X364744D01*
X332740Y309118D02*
X333756Y310134D01*
X334772D01*
X333756Y311150D01*
X334772Y312166D01*
X333756D01*
X332740Y313182D01*
X331724Y312166D01*
X330708D01*
X331724Y311150D01*
X330708Y310134D01*
X331724D01*
X332740Y309118D01*
X667258Y337058D02*
X668274Y339090D01*
X667258Y341122D01*
X669290Y340106D01*
X671322Y341122D01*
X670306Y339090D01*
X671322Y337058D01*
X669290Y338074D01*
X667258Y337058D01*
X115570Y612648D02*
X116586Y613664D01*
X117602D01*
X116586Y614680D01*
X117602Y615696D01*
X116586D01*
X115570Y616712D01*
X114554Y615696D01*
X113538D01*
X114554Y614680D01*
X113538Y613664D01*
X114554D01*
X115570Y612648D01*
X46990Y545338D02*
X48006Y546354D01*
X49022D01*
X48006Y547370D01*
X49022Y548386D01*
X48006D01*
X46990Y549402D01*
X45974Y548386D01*
X44958D01*
X45974Y547370D01*
X44958Y546354D01*
X45974D01*
X46990Y545338D01*
X626110Y314198D02*
X627126Y315214D01*
X628142D01*
X627126Y316230D01*
X628142Y317246D01*
X627126D01*
X626110Y318262D01*
X625094Y317246D01*
X624078D01*
X625094Y316230D01*
X624078Y315214D01*
X625094D01*
X626110Y314198D01*
X87919Y498868D02*
X88935Y499884D01*
X89951D01*
X88935Y500900D01*
X89951Y501916D01*
X88935D01*
X87919Y502932D01*
X86903Y501916D01*
X85887D01*
X86903Y500900D01*
X85887Y499884D01*
X86903D01*
X87919Y498868D01*
X410718Y333248D02*
X411734D01*
X412750Y334264D01*
X413766Y333248D01*
X414782D01*
Y334264D01*
X413766Y335280D01*
X414782Y336296D01*
Y337312D01*
X413766D01*
X412750Y336296D01*
X411734Y337312D01*
X410718D01*
Y336296D01*
X411734Y335280D01*
X410718Y334264D01*
Y333248D01*
X410464Y396494D02*
Y395478D01*
X412496D01*
Y396494D01*
X413512D01*
Y398526D01*
X412496D01*
Y399542D01*
X410464D01*
Y398526D01*
X409448D01*
Y396494D01*
X410464D01*
X83058Y531368D02*
X84074Y533400D01*
X83058Y535432D01*
X85090Y534416D01*
X87122Y535432D01*
X86106Y533400D01*
X87122Y531368D01*
X85090Y532384D01*
X83058Y531368D01*
X364998Y58928D02*
X366014Y60960D01*
X364998Y62992D01*
X367030Y61976D01*
X369062Y62992D01*
X368046Y60960D01*
X369062Y58928D01*
X367030Y59944D01*
X364998Y58928D01*
X687070Y399288D02*
X688086Y400304D01*
X689102D01*
X688086Y401320D01*
X689102Y402336D01*
X688086D01*
X687070Y403352D01*
X686054Y402336D01*
X685038D01*
X686054Y401320D01*
X685038Y400304D01*
X686054D01*
X687070Y399288D01*
X699770Y384048D02*
X700786Y385064D01*
X701802D01*
X700786Y386080D01*
X701802Y387096D01*
X700786D01*
X699770Y388112D01*
X698754Y387096D01*
X697738D01*
X698754Y386080D01*
X697738Y385064D01*
X698754D01*
X699770Y384048D01*
X614774Y408084D02*
X615790Y409100D01*
X616806D01*
X615790Y410116D01*
X616806Y411132D01*
X615790D01*
X614774Y412148D01*
X613758Y411132D01*
X612742D01*
X613758Y410116D01*
X612742Y409100D01*
X613758D01*
X614774Y408084D01*
X626110Y389128D02*
X627126Y390144D01*
X628142D01*
X627126Y391160D01*
X628142Y392176D01*
X627126D01*
X626110Y393192D01*
X625094Y392176D01*
X624078D01*
X625094Y391160D01*
X624078Y390144D01*
X625094D01*
X626110Y389128D01*
X614680Y375158D02*
X615696Y376174D01*
X616712D01*
X615696Y377190D01*
X616712Y378206D01*
X615696D01*
X614680Y379222D01*
X613664Y378206D01*
X612648D01*
X613664Y377190D01*
X612648Y376174D01*
X613664D01*
X614680Y375158D01*
X340614Y360934D02*
Y359918D01*
X342646D01*
Y360934D01*
X343662D01*
Y362966D01*
X342646D01*
Y363982D01*
X340614D01*
Y362966D01*
X339598D01*
Y360934D01*
X340614D01*
X428244Y336804D02*
Y335788D01*
X430276D01*
Y336804D01*
X431292D01*
Y338836D01*
X430276D01*
Y339852D01*
X428244D01*
Y338836D01*
X427228D01*
Y336804D01*
X428244D01*
X434848Y480568D02*
X435864Y482600D01*
X434848Y484632D01*
X436880Y483616D01*
X438912Y484632D01*
X437896Y482600D01*
X438912Y480568D01*
X436880Y481584D01*
X434848Y480568D01*
X455168Y503428D02*
X456184Y505460D01*
X455168Y507492D01*
X457200Y506476D01*
X459232Y507492D01*
X458216Y505460D01*
X459232Y503428D01*
X457200Y504444D01*
X455168Y503428D01*
X409448Y531368D02*
X410464Y533400D01*
X409448Y535432D01*
X411480Y534416D01*
X413512Y535432D01*
X412496Y533400D01*
X413512Y531368D01*
X411480Y532384D01*
X409448Y531368D01*
X359918Y514858D02*
X360934Y516890D01*
X359918Y518922D01*
X361950Y517906D01*
X363982Y518922D01*
X362966Y516890D01*
X363982Y514858D01*
X361950Y515874D01*
X359918Y514858D01*
X367284Y462534D02*
Y461518D01*
X369316D01*
Y462534D01*
X370332D01*
Y464566D01*
X369316D01*
Y465582D01*
X367284D01*
Y464566D01*
X366268D01*
Y462534D01*
X367284D01*
X13970Y104648D02*
X14986Y105664D01*
X16002D01*
X14986Y106680D01*
X16002Y107696D01*
X14986D01*
X13970Y108712D01*
X12954Y107696D01*
X11938D01*
X12954Y106680D01*
X11938Y105664D01*
X12954D01*
X13970Y104648D01*
X661670Y410718D02*
X662686Y411734D01*
X663702D01*
X662686Y412750D01*
X663702Y413766D01*
X662686D01*
X661670Y414782D01*
X660654Y413766D01*
X659638D01*
X660654Y412750D01*
X659638Y411734D01*
X660654D01*
X661670Y410718D01*
X128270Y518668D02*
X129286Y519684D01*
X130302D01*
X129286Y520700D01*
X130302Y521716D01*
X129286D01*
X128270Y522732D01*
X127254Y521716D01*
X126238D01*
X127254Y520700D01*
X126238Y519684D01*
X127254D01*
X128270Y518668D01*
X612140Y493268D02*
X613156Y494284D01*
X614172D01*
X613156Y495300D01*
X614172Y496316D01*
X613156D01*
X612140Y497332D01*
X611124Y496316D01*
X610108D01*
X611124Y495300D01*
X610108Y494284D01*
X611124D01*
X612140Y493268D01*
X579120Y330708D02*
X580136Y331724D01*
X581152D01*
X580136Y332740D01*
X581152Y333756D01*
X580136D01*
X579120Y334772D01*
X578104Y333756D01*
X577088D01*
X578104Y332740D01*
X577088Y331724D01*
X578104D01*
X579120Y330708D01*
Y160528D02*
X580136Y161544D01*
X581152D01*
X580136Y162560D01*
X581152Y163576D01*
X580136D01*
X579120Y164592D01*
X578104Y163576D01*
X577088D01*
X578104Y162560D01*
X577088Y161544D01*
X578104D01*
X579120Y160528D01*
X466090Y309118D02*
X467106Y310134D01*
X468122D01*
X467106Y311150D01*
X468122Y312166D01*
X467106D01*
X466090Y313182D01*
X465074Y312166D01*
X464058D01*
X465074Y311150D01*
X464058Y310134D01*
X465074D01*
X466090Y309118D01*
X504190Y349758D02*
X505206Y350774D01*
X506222D01*
X505206Y351790D01*
X506222Y352806D01*
X505206D01*
X504190Y353822D01*
X503174Y352806D01*
X502158D01*
X503174Y351790D01*
X502158Y350774D01*
X503174D01*
X504190Y349758D01*
X562610Y493268D02*
X563626Y494284D01*
X564642D01*
X563626Y495300D01*
X564642Y496316D01*
X563626D01*
X562610Y497332D01*
X561594Y496316D01*
X560578D01*
X561594Y495300D01*
X560578Y494284D01*
X561594D01*
X562610Y493268D01*
X487680Y415798D02*
X488696Y416814D01*
X489712D01*
X488696Y417830D01*
X489712Y418846D01*
X488696D01*
X487680Y419862D01*
X486664Y418846D01*
X485648D01*
X486664Y417830D01*
X485648Y416814D01*
X486664D01*
X487680Y415798D01*
X13970Y314198D02*
X14986Y315214D01*
X16002D01*
X14986Y316230D01*
X16002Y317246D01*
X14986D01*
X13970Y318262D01*
X12954Y317246D01*
X11938D01*
X12954Y316230D01*
X11938Y315214D01*
X12954D01*
X13970Y314198D01*
X242446Y753742D02*
X243462Y754758D01*
X244478D01*
X243462Y755774D01*
X244478Y756790D01*
X243462D01*
X242446Y757806D01*
X241430Y756790D01*
X240414D01*
X241430Y755774D01*
X240414Y754758D01*
X241430D01*
X242446Y753742D01*
X201930Y464058D02*
X202946Y465074D01*
X203962D01*
X202946Y466090D01*
X203962Y467106D01*
X202946D01*
X201930Y468122D01*
X200914Y467106D01*
X199898D01*
X200914Y466090D01*
X199898Y465074D01*
X200914D01*
X201930Y464058D01*
X174498Y466598D02*
X175514Y468630D01*
X174498Y470662D01*
X176530Y469646D01*
X178562Y470662D01*
X177546Y468630D01*
X178562Y466598D01*
X176530Y467614D01*
X174498Y466598D01*
Y503428D02*
X175514Y505460D01*
X174498Y507492D01*
X176530Y506476D01*
X178562Y507492D01*
X177546Y505460D01*
X178562Y503428D01*
X176530Y504444D01*
X174498Y503428D01*
X415798Y495808D02*
X416814Y497840D01*
X415798Y499872D01*
X417830Y498856D01*
X419862Y499872D01*
X418846Y497840D01*
X419862Y495808D01*
X417830Y496824D01*
X415798Y495808D01*
X545338Y513588D02*
X546354Y515620D01*
X545338Y517652D01*
X547370Y516636D01*
X549402Y517652D01*
X548386Y515620D01*
X549402Y513588D01*
X547370Y514604D01*
X545338Y513588D01*
D102*
X129032Y53340D02*
G03*
X129032Y53340I-2032J0D01*
G01*
X57402D02*
G03*
X57402Y53340I-2032J0D01*
G01*
M02*
