G04*
G04 #@! TF.GenerationSoftware,Altium Limited,Altium Designer,19.1.5 (86)*
G04*
G04 Layer_Physical_Order=2*
G04 Layer_Color=16711680*
%FSLAX44Y44*%
%MOMM*%
G71*
G01*
G75*
%ADD11C,0.2540*%
%ADD88C,0.3998*%
%ADD89C,0.6424*%
%ADD90C,0.1778*%
%ADD92R,1.1620X1.1620*%
%ADD93C,1.2002*%
%ADD94C,5.1000*%
%ADD95R,5.1000X5.1000*%
%ADD96C,1.5000*%
%ADD97C,1.2700*%
%ADD98C,0.7996*%
G36*
X403554Y850236D02*
X777967Y633533D01*
X777967Y307340D01*
X648790D01*
X595450Y254000D01*
Y0D01*
X0D01*
Y545010D01*
X43000Y588010D01*
X148410Y693420D01*
Y849677D01*
X149309Y850574D01*
X403554Y850236D01*
D02*
G37*
%LPC*%
G36*
X347980Y810838D02*
X345858Y810559D01*
X343881Y809740D01*
X343119Y809155D01*
X253876D01*
X253876Y809155D01*
X252402Y808862D01*
X251153Y808027D01*
X239723Y796597D01*
X238888Y795348D01*
X238595Y793874D01*
X238595Y793874D01*
Y762977D01*
X238347Y762874D01*
X236649Y761571D01*
X235346Y759873D01*
X234527Y757896D01*
X234248Y755774D01*
X234527Y753652D01*
X235346Y751675D01*
X236649Y749977D01*
X238347Y748674D01*
X238595Y748572D01*
Y637741D01*
X129580Y528726D01*
X128270Y528898D01*
X126148Y528619D01*
X124171Y527800D01*
X122473Y526497D01*
X121170Y524799D01*
X120351Y522822D01*
X120072Y520700D01*
X120351Y518578D01*
X121170Y516601D01*
X122473Y514903D01*
X124171Y513600D01*
X126148Y512781D01*
X128270Y512502D01*
X130392Y512781D01*
X132369Y513600D01*
X134067Y514903D01*
X135370Y516601D01*
X136189Y518578D01*
X136468Y520700D01*
X136189Y522822D01*
X135714Y523968D01*
X245169Y633423D01*
X245169Y633423D01*
X246004Y634672D01*
X246297Y636146D01*
Y748572D01*
X246545Y748674D01*
X248243Y749977D01*
X249546Y751675D01*
X250365Y753652D01*
X250644Y755774D01*
X250365Y757896D01*
X249546Y759873D01*
X248243Y761571D01*
X246545Y762874D01*
X246297Y762977D01*
Y792279D01*
X255471Y801453D01*
X339938D01*
X340061Y800518D01*
X340880Y798541D01*
X342183Y796843D01*
X343881Y795540D01*
X345858Y794721D01*
X347980Y794442D01*
X350102Y794721D01*
X352079Y795540D01*
X353777Y796843D01*
X355080Y798541D01*
X355899Y800518D01*
X356178Y802640D01*
X355899Y804762D01*
X355080Y806739D01*
X353777Y808437D01*
X352079Y809740D01*
X350102Y810559D01*
X347980Y810838D01*
D02*
G37*
G36*
X210788Y811498D02*
X195612D01*
Y796322D01*
X210788D01*
Y811498D01*
D02*
G37*
G36*
X177800Y811756D02*
X175769Y811489D01*
X173877Y810705D01*
X172252Y809458D01*
X171005Y807833D01*
X170222Y805941D01*
X169954Y803910D01*
X170222Y801879D01*
X171005Y799987D01*
X172252Y798362D01*
X173877Y797115D01*
X175769Y796331D01*
X177800Y796064D01*
X179831Y796331D01*
X181723Y797115D01*
X183348Y798362D01*
X184595Y799987D01*
X185379Y801879D01*
X185646Y803910D01*
X185379Y805941D01*
X184595Y807833D01*
X183348Y809458D01*
X181723Y810705D01*
X179831Y811489D01*
X177800Y811756D01*
D02*
G37*
G36*
X383536Y792577D02*
X367036D01*
X366342Y792439D01*
X365754Y792046D01*
X365361Y791458D01*
X365223Y790764D01*
Y774764D01*
X365361Y774071D01*
X365754Y773482D01*
X366342Y773090D01*
X367036Y772952D01*
X383536D01*
X384230Y773090D01*
X384818Y773482D01*
X385211Y774071D01*
X385349Y774764D01*
Y790764D01*
X385211Y791458D01*
X384818Y792046D01*
X384230Y792439D01*
X383536Y792577D01*
D02*
G37*
G36*
X288036D02*
X271536D01*
X270842Y792439D01*
X270254Y792046D01*
X269861Y791458D01*
X269723Y790764D01*
Y774764D01*
X269861Y774071D01*
X270254Y773482D01*
X270842Y773090D01*
X271536Y772952D01*
X288036D01*
X288730Y773090D01*
X289318Y773482D01*
X289711Y774071D01*
X289849Y774764D01*
Y790764D01*
X289711Y791458D01*
X289318Y792046D01*
X288730Y792439D01*
X288036Y792577D01*
D02*
G37*
G36*
X203200Y786356D02*
X201169Y786089D01*
X199277Y785305D01*
X197652Y784058D01*
X196405Y782433D01*
X195621Y780541D01*
X195354Y778510D01*
X195621Y776479D01*
X196405Y774587D01*
X197652Y772962D01*
X199277Y771715D01*
X201169Y770931D01*
X203200Y770664D01*
X205231Y770931D01*
X207123Y771715D01*
X208748Y772962D01*
X209995Y774587D01*
X210779Y776479D01*
X211046Y778510D01*
X210779Y780541D01*
X209995Y782433D01*
X208748Y784058D01*
X207123Y785305D01*
X205231Y786089D01*
X203200Y786356D01*
D02*
G37*
G36*
X177800D02*
X175769Y786089D01*
X173877Y785305D01*
X172252Y784058D01*
X171005Y782433D01*
X170222Y780541D01*
X169954Y778510D01*
X170222Y776479D01*
X171005Y774587D01*
X172252Y772962D01*
X173877Y771715D01*
X175769Y770931D01*
X177800Y770664D01*
X179831Y770931D01*
X181723Y771715D01*
X183348Y772962D01*
X184595Y774587D01*
X185379Y776479D01*
X185646Y778510D01*
X185379Y780541D01*
X184595Y782433D01*
X183348Y784058D01*
X181723Y785305D01*
X179831Y786089D01*
X177800Y786356D01*
D02*
G37*
G36*
X203200Y760956D02*
X201169Y760689D01*
X199277Y759905D01*
X197652Y758658D01*
X196405Y757033D01*
X195621Y755141D01*
X195354Y753110D01*
X195621Y751079D01*
X196405Y749187D01*
X197652Y747562D01*
X199277Y746315D01*
X201169Y745531D01*
X203200Y745264D01*
X205231Y745531D01*
X207123Y746315D01*
X208748Y747562D01*
X209995Y749187D01*
X210779Y751079D01*
X211046Y753110D01*
X210779Y755141D01*
X209995Y757033D01*
X208748Y758658D01*
X207123Y759905D01*
X205231Y760689D01*
X203200Y760956D01*
D02*
G37*
G36*
X177800D02*
X175769Y760689D01*
X173877Y759905D01*
X172252Y758658D01*
X171005Y757033D01*
X170222Y755141D01*
X169954Y753110D01*
X170222Y751079D01*
X171005Y749187D01*
X172252Y747562D01*
X173877Y746315D01*
X175769Y745531D01*
X177800Y745264D01*
X179831Y745531D01*
X181723Y746315D01*
X183348Y747562D01*
X184595Y749187D01*
X185379Y751079D01*
X185646Y753110D01*
X185379Y755141D01*
X184595Y757033D01*
X183348Y758658D01*
X181723Y759905D01*
X179831Y760689D01*
X177800Y760956D01*
D02*
G37*
G36*
X211550Y736060D02*
X204470D01*
Y728980D01*
X211550D01*
Y736060D01*
D02*
G37*
G36*
X201930D02*
X194850D01*
Y728980D01*
X201930D01*
Y736060D01*
D02*
G37*
G36*
X177800Y735556D02*
X175769Y735289D01*
X173877Y734505D01*
X172252Y733258D01*
X171005Y731633D01*
X170222Y729741D01*
X169954Y727710D01*
X170222Y725679D01*
X171005Y723787D01*
X172252Y722162D01*
X173877Y720915D01*
X175769Y720132D01*
X177800Y719864D01*
X179831Y720132D01*
X181723Y720915D01*
X183348Y722162D01*
X184595Y723787D01*
X185379Y725679D01*
X185646Y727710D01*
X185379Y729741D01*
X184595Y731633D01*
X183348Y733258D01*
X181723Y734505D01*
X179831Y735289D01*
X177800Y735556D01*
D02*
G37*
G36*
X211550Y726440D02*
X204470D01*
Y719360D01*
X211550D01*
Y726440D01*
D02*
G37*
G36*
X201930D02*
X194850D01*
Y719360D01*
X201930D01*
Y726440D01*
D02*
G37*
G36*
X414020Y743528D02*
X411898Y743249D01*
X409921Y742430D01*
X408223Y741127D01*
X406920Y739429D01*
X406101Y737452D01*
X405822Y735330D01*
X406101Y733208D01*
X406920Y731231D01*
X408223Y729533D01*
X409921Y728230D01*
X411898Y727411D01*
X414020Y727132D01*
X416142Y727411D01*
X418119Y728230D01*
X419817Y729533D01*
X421120Y731231D01*
X421223Y731479D01*
X460685D01*
X511403Y680761D01*
X511185Y679888D01*
X510915Y679491D01*
X509595D01*
X468117Y720969D01*
X466868Y721804D01*
X465394Y722097D01*
X465394Y722097D01*
X401005D01*
X400621Y722392D01*
X398644Y723211D01*
X396522Y723490D01*
X394400Y723211D01*
X392423Y722392D01*
X390725Y721089D01*
X389422Y719391D01*
X388603Y717414D01*
X388324Y715292D01*
X388603Y713170D01*
X389422Y711193D01*
X390725Y709495D01*
X392423Y708192D01*
X394400Y707373D01*
X394153Y706161D01*
X352643D01*
X352540Y706409D01*
X351237Y708107D01*
X349539Y709410D01*
X347562Y710229D01*
X345440Y710508D01*
X343318Y710229D01*
X341341Y709410D01*
X339643Y708107D01*
X338340Y706409D01*
X337521Y704432D01*
X337242Y702310D01*
X337521Y700188D01*
X338340Y698211D01*
X339643Y696513D01*
X341341Y695210D01*
X343318Y694391D01*
X345440Y694112D01*
X347562Y694391D01*
X349539Y695210D01*
X351237Y696513D01*
X352540Y698211D01*
X352643Y698459D01*
X405130D01*
X405130Y698459D01*
X406604Y698752D01*
X407853Y699587D01*
X416885Y708619D01*
X430383D01*
X431168Y707441D01*
X431158Y707349D01*
X430667Y707021D01*
X430274Y706433D01*
X430136Y705739D01*
Y689739D01*
X430274Y689045D01*
X430667Y688457D01*
X431255Y688064D01*
X431949Y687926D01*
X448449D01*
X449142Y688064D01*
X449730Y688457D01*
X450123Y689045D01*
X450261Y689739D01*
Y705739D01*
X450123Y706433D01*
X449730Y707021D01*
X449239Y707349D01*
X449229Y707441D01*
X450014Y708619D01*
X458145D01*
X502737Y664027D01*
X502737Y664027D01*
X503986Y663192D01*
X505460Y662899D01*
X635786D01*
X663778Y634907D01*
X663772Y634860D01*
X664051Y632738D01*
X664870Y630761D01*
X666173Y629063D01*
X667871Y627761D01*
X669848Y626942D01*
X671970Y626662D01*
X674091Y626942D01*
X676069Y627761D01*
X677767Y629063D01*
X679069Y630761D01*
X679888Y632738D01*
X680168Y634860D01*
X679888Y636982D01*
X679069Y638959D01*
X677767Y640657D01*
X676069Y641960D01*
X674091Y642779D01*
X671970Y643058D01*
X669848Y642779D01*
X667871Y641960D01*
X667727Y641850D01*
X640104Y669473D01*
X638855Y670308D01*
X637793Y670519D01*
X637918Y671789D01*
X642295D01*
X662757Y651327D01*
X662757Y651327D01*
X664006Y650492D01*
X665480Y650199D01*
X665480Y650199D01*
X716078D01*
X716127Y650183D01*
X717134Y648929D01*
X716972Y647700D01*
X717251Y645578D01*
X718070Y643601D01*
X719373Y641903D01*
X721071Y640600D01*
X723048Y639781D01*
X725170Y639502D01*
X727292Y639781D01*
X729269Y640600D01*
X730967Y641903D01*
X732270Y643601D01*
X733089Y645578D01*
X733368Y647700D01*
X733089Y649822D01*
X732270Y651799D01*
X730967Y653497D01*
X729269Y654800D01*
X727292Y655619D01*
X725170Y655898D01*
X723048Y655619D01*
X722800Y655516D01*
X721543Y656773D01*
X720294Y657608D01*
X718820Y657901D01*
X718820Y657901D01*
X667075D01*
X646837Y678139D01*
X647055Y679012D01*
X647325Y679409D01*
X655737D01*
X655840Y679161D01*
X657143Y677463D01*
X658841Y676160D01*
X660818Y675341D01*
X662940Y675062D01*
X665062Y675341D01*
X667039Y676160D01*
X668737Y677463D01*
X670040Y679161D01*
X670859Y681138D01*
X671138Y683260D01*
X670859Y685382D01*
X670040Y687359D01*
X668737Y689057D01*
X667039Y690360D01*
X665062Y691179D01*
X662940Y691458D01*
X660818Y691179D01*
X658841Y690360D01*
X657143Y689057D01*
X655840Y687359D01*
X655737Y687111D01*
X545502D01*
X545117Y688381D01*
X545230Y688457D01*
X545623Y689045D01*
X545761Y689739D01*
Y705739D01*
X545623Y706433D01*
X545230Y707021D01*
X544642Y707414D01*
X543949Y707552D01*
X527449D01*
X526755Y707414D01*
X526167Y707021D01*
X525774Y706433D01*
X525636Y705739D01*
Y689739D01*
X525774Y689045D01*
X526167Y688457D01*
X526281Y688381D01*
X525895Y687111D01*
X515945D01*
X465003Y738053D01*
X463754Y738888D01*
X462280Y739181D01*
X462280Y739181D01*
X421223D01*
X421120Y739429D01*
X419817Y741127D01*
X418119Y742430D01*
X416142Y743249D01*
X414020Y743528D01*
D02*
G37*
G36*
X410210Y680028D02*
X408088Y679749D01*
X406111Y678930D01*
X404413Y677627D01*
X403110Y675929D01*
X402291Y673952D01*
X402012Y671830D01*
X402291Y669708D01*
X403110Y667731D01*
X404413Y666033D01*
X406111Y664730D01*
X408088Y663911D01*
X410210Y663632D01*
X412332Y663911D01*
X414309Y664730D01*
X416007Y666033D01*
X417310Y667731D01*
X417413Y667979D01*
X441635D01*
X459557Y650057D01*
X459557Y650057D01*
X460806Y649222D01*
X462280Y648929D01*
X617637D01*
X617740Y648681D01*
X619043Y646983D01*
X620741Y645680D01*
X622718Y644861D01*
X624840Y644582D01*
X626962Y644861D01*
X628939Y645680D01*
X630637Y646983D01*
X631940Y648681D01*
X632759Y650658D01*
X633038Y652780D01*
X632759Y654902D01*
X631940Y656879D01*
X630637Y658577D01*
X628939Y659880D01*
X626962Y660699D01*
X624840Y660978D01*
X622718Y660699D01*
X620741Y659880D01*
X619043Y658577D01*
X617740Y656879D01*
X617637Y656631D01*
X463875D01*
X445953Y674553D01*
X444704Y675388D01*
X443230Y675681D01*
X443230Y675681D01*
X417413D01*
X417310Y675929D01*
X416007Y677627D01*
X414309Y678930D01*
X412332Y679749D01*
X410210Y680028D01*
D02*
G37*
G36*
X326390Y640658D02*
X324268Y640379D01*
X322291Y639560D01*
X320593Y638257D01*
X319290Y636559D01*
X318471Y634582D01*
X318192Y632460D01*
X318471Y630338D01*
X319290Y628361D01*
X320593Y626663D01*
X322291Y625360D01*
X324268Y624541D01*
X326390Y624262D01*
X328512Y624541D01*
X330489Y625360D01*
X332187Y626663D01*
X333490Y628361D01*
X333593Y628609D01*
X613301D01*
X613930Y627091D01*
X615233Y625393D01*
X616931Y624090D01*
X618908Y623271D01*
X621030Y622992D01*
X623152Y623271D01*
X625129Y624090D01*
X626827Y625393D01*
X628130Y627091D01*
X628949Y629068D01*
X629228Y631190D01*
X628949Y633312D01*
X628130Y635289D01*
X626827Y636987D01*
X625129Y638290D01*
X623152Y639109D01*
X621030Y639388D01*
X618908Y639109D01*
X616931Y638290D01*
X615233Y636987D01*
X614714Y636311D01*
X333593D01*
X333490Y636559D01*
X332187Y638257D01*
X330489Y639560D01*
X328512Y640379D01*
X326390Y640658D01*
D02*
G37*
G36*
X115570Y622878D02*
X113448Y622599D01*
X111471Y621780D01*
X109773Y620477D01*
X108470Y618779D01*
X107651Y616802D01*
X107372Y614680D01*
X107415Y614355D01*
X48437Y555378D01*
X46990Y555568D01*
X44868Y555289D01*
X42891Y554470D01*
X41193Y553167D01*
X39890Y551469D01*
X39071Y549492D01*
X38792Y547370D01*
X39071Y545248D01*
X39890Y543271D01*
X41193Y541573D01*
X42891Y540270D01*
X44868Y539451D01*
X46990Y539172D01*
X49112Y539451D01*
X51089Y540270D01*
X52787Y541573D01*
X54090Y543271D01*
X54909Y545248D01*
X55188Y547370D01*
X55145Y547695D01*
X114123Y606672D01*
X115570Y606482D01*
X117692Y606761D01*
X119669Y607580D01*
X121367Y608883D01*
X122670Y610581D01*
X123489Y612558D01*
X123768Y614680D01*
X123489Y616802D01*
X122670Y618779D01*
X121367Y620477D01*
X119669Y621780D01*
X117692Y622599D01*
X115570Y622878D01*
D02*
G37*
G36*
X738163Y606860D02*
Y598170D01*
X746852D01*
X746674Y599521D01*
X745663Y601963D01*
X744053Y604061D01*
X741956Y605670D01*
X739514Y606682D01*
X738163Y606860D01*
D02*
G37*
G36*
X712763D02*
Y598170D01*
X721452D01*
X721274Y599521D01*
X720263Y601963D01*
X718653Y604061D01*
X716556Y605670D01*
X714114Y606682D01*
X712763Y606860D01*
D02*
G37*
G36*
X735623D02*
X734272Y606682D01*
X731829Y605670D01*
X729732Y604061D01*
X728123Y601963D01*
X727111Y599521D01*
X726933Y598170D01*
X735623D01*
Y606860D01*
D02*
G37*
G36*
X710223D02*
X708872Y606682D01*
X706429Y605670D01*
X704332Y604061D01*
X702723Y601963D01*
X701711Y599521D01*
X701533Y598170D01*
X710223D01*
Y606860D01*
D02*
G37*
G36*
X686093Y606258D02*
X683671Y605939D01*
X681414Y605004D01*
X679475Y603517D01*
X677988Y601579D01*
X677054Y599322D01*
X676735Y596900D01*
X677054Y594478D01*
X677988Y592221D01*
X679475Y590283D01*
X681414Y588796D01*
X683671Y587861D01*
X686093Y587542D01*
X688515Y587861D01*
X690772Y588796D01*
X692710Y590283D01*
X694197Y592221D01*
X695132Y594478D01*
X695451Y596900D01*
X695132Y599322D01*
X694197Y601579D01*
X692710Y603517D01*
X690772Y605004D01*
X688515Y605939D01*
X686093Y606258D01*
D02*
G37*
G36*
X660693D02*
X658271Y605939D01*
X656014Y605004D01*
X654075Y603517D01*
X652588Y601579D01*
X651654Y599322D01*
X651335Y596900D01*
X651654Y594478D01*
X652588Y592221D01*
X654075Y590283D01*
X656014Y588796D01*
X658271Y587861D01*
X660693Y587542D01*
X663115Y587861D01*
X665372Y588796D01*
X667310Y590283D01*
X668797Y592221D01*
X669732Y594478D01*
X670051Y596900D01*
X669732Y599322D01*
X668797Y601579D01*
X667310Y603517D01*
X665372Y605004D01*
X663115Y605939D01*
X660693Y606258D01*
D02*
G37*
G36*
X635293D02*
X632871Y605939D01*
X630614Y605004D01*
X628675Y603517D01*
X627188Y601579D01*
X626254Y599322D01*
X625935Y596900D01*
X626254Y594478D01*
X627188Y592221D01*
X628675Y590283D01*
X630614Y588796D01*
X632871Y587861D01*
X635293Y587542D01*
X637715Y587861D01*
X639972Y588796D01*
X641910Y590283D01*
X643397Y592221D01*
X644332Y594478D01*
X644651Y596900D01*
X644332Y599322D01*
X643397Y601579D01*
X641910Y603517D01*
X639972Y605004D01*
X637715Y605939D01*
X635293Y606258D01*
D02*
G37*
G36*
X609693D02*
X607271Y605939D01*
X605014Y605004D01*
X603075Y603517D01*
X601588Y601579D01*
X600653Y599322D01*
X600335Y596900D01*
X600653Y594478D01*
X601588Y592221D01*
X603075Y590283D01*
X605014Y588796D01*
X607271Y587861D01*
X609693Y587542D01*
X612115Y587861D01*
X614372Y588796D01*
X616310Y590283D01*
X617797Y592221D01*
X618732Y594478D01*
X619051Y596900D01*
X618732Y599322D01*
X617797Y601579D01*
X616310Y603517D01*
X614372Y605004D01*
X612115Y605939D01*
X609693Y606258D01*
D02*
G37*
G36*
X584493D02*
X582071Y605939D01*
X579814Y605004D01*
X577876Y603517D01*
X576388Y601579D01*
X575453Y599322D01*
X575135Y596900D01*
X575453Y594478D01*
X576388Y592221D01*
X577876Y590283D01*
X579814Y588796D01*
X582071Y587861D01*
X584493Y587542D01*
X586915Y587861D01*
X589172Y588796D01*
X591110Y590283D01*
X592597Y592221D01*
X593532Y594478D01*
X593851Y596900D01*
X593532Y599322D01*
X592597Y601579D01*
X591110Y603517D01*
X589172Y605004D01*
X586915Y605939D01*
X584493Y606258D01*
D02*
G37*
G36*
X508293D02*
X505871Y605939D01*
X503614Y605004D01*
X501675Y603517D01*
X500188Y601579D01*
X499254Y599322D01*
X498935Y596900D01*
X499254Y594478D01*
X500188Y592221D01*
X501675Y590283D01*
X503614Y588796D01*
X505871Y587861D01*
X508293Y587542D01*
X510715Y587861D01*
X512972Y588796D01*
X514910Y590283D01*
X516397Y592221D01*
X517332Y594478D01*
X517651Y596900D01*
X517332Y599322D01*
X516397Y601579D01*
X514910Y603517D01*
X512972Y605004D01*
X510715Y605939D01*
X508293Y606258D01*
D02*
G37*
G36*
X482893D02*
X480471Y605939D01*
X478214Y605004D01*
X476275Y603517D01*
X474788Y601579D01*
X473853Y599322D01*
X473535Y596900D01*
X473853Y594478D01*
X474788Y592221D01*
X476275Y590283D01*
X478214Y588796D01*
X480471Y587861D01*
X482893Y587542D01*
X485315Y587861D01*
X487572Y588796D01*
X489510Y590283D01*
X490997Y592221D01*
X491932Y594478D01*
X492251Y596900D01*
X491932Y599322D01*
X490997Y601579D01*
X489510Y603517D01*
X487572Y605004D01*
X485315Y605939D01*
X482893Y606258D01*
D02*
G37*
G36*
X457493D02*
X455071Y605939D01*
X452814Y605004D01*
X450876Y603517D01*
X449388Y601579D01*
X448453Y599322D01*
X448135Y596900D01*
X448453Y594478D01*
X449388Y592221D01*
X450876Y590283D01*
X452814Y588796D01*
X455071Y587861D01*
X457493Y587542D01*
X459915Y587861D01*
X462172Y588796D01*
X464110Y590283D01*
X465597Y592221D01*
X466532Y594478D01*
X466851Y596900D01*
X466532Y599322D01*
X465597Y601579D01*
X464110Y603517D01*
X462172Y605004D01*
X459915Y605939D01*
X457493Y606258D01*
D02*
G37*
G36*
X432093D02*
X429671Y605939D01*
X427414Y605004D01*
X425476Y603517D01*
X423988Y601579D01*
X423054Y599322D01*
X422735Y596900D01*
X423054Y594478D01*
X423988Y592221D01*
X425476Y590283D01*
X427414Y588796D01*
X429671Y587861D01*
X432093Y587542D01*
X434515Y587861D01*
X436772Y588796D01*
X438710Y590283D01*
X440197Y592221D01*
X441132Y594478D01*
X441451Y596900D01*
X441132Y599322D01*
X440197Y601579D01*
X438710Y603517D01*
X436772Y605004D01*
X434515Y605939D01*
X432093Y606258D01*
D02*
G37*
G36*
X406693D02*
X404271Y605939D01*
X402014Y605004D01*
X400075Y603517D01*
X398588Y601579D01*
X397654Y599322D01*
X397335Y596900D01*
X397654Y594478D01*
X398588Y592221D01*
X400075Y590283D01*
X402014Y588796D01*
X404271Y587861D01*
X406693Y587542D01*
X409115Y587861D01*
X411372Y588796D01*
X413310Y590283D01*
X414797Y592221D01*
X415732Y594478D01*
X416051Y596900D01*
X415732Y599322D01*
X414797Y601579D01*
X413310Y603517D01*
X411372Y605004D01*
X409115Y605939D01*
X406693Y606258D01*
D02*
G37*
G36*
X381293D02*
X378871Y605939D01*
X376614Y605004D01*
X374675Y603517D01*
X373188Y601579D01*
X372253Y599322D01*
X371935Y596900D01*
X372253Y594478D01*
X373188Y592221D01*
X374675Y590283D01*
X376614Y588796D01*
X378871Y587861D01*
X381293Y587542D01*
X383715Y587861D01*
X385972Y588796D01*
X387910Y590283D01*
X389397Y592221D01*
X390332Y594478D01*
X390651Y596900D01*
X390332Y599322D01*
X389397Y601579D01*
X387910Y603517D01*
X385972Y605004D01*
X383715Y605939D01*
X381293Y606258D01*
D02*
G37*
G36*
X355693D02*
X353271Y605939D01*
X351014Y605004D01*
X349076Y603517D01*
X347588Y601579D01*
X346654Y599322D01*
X346335Y596900D01*
X346654Y594478D01*
X347588Y592221D01*
X349076Y590283D01*
X351014Y588796D01*
X353271Y587861D01*
X355693Y587542D01*
X358115Y587861D01*
X360372Y588796D01*
X362310Y590283D01*
X363797Y592221D01*
X364732Y594478D01*
X365051Y596900D01*
X364732Y599322D01*
X363797Y601579D01*
X362310Y603517D01*
X360372Y605004D01*
X358115Y605939D01*
X355693Y606258D01*
D02*
G37*
G36*
X305093D02*
X302671Y605939D01*
X300414Y605004D01*
X298475Y603517D01*
X296988Y601579D01*
X296054Y599322D01*
X295735Y596900D01*
X296054Y594478D01*
X296988Y592221D01*
X298475Y590283D01*
X300414Y588796D01*
X302671Y587861D01*
X305093Y587542D01*
X307515Y587861D01*
X309772Y588796D01*
X311710Y590283D01*
X313197Y592221D01*
X314132Y594478D01*
X314451Y596900D01*
X314132Y599322D01*
X313197Y601579D01*
X311710Y603517D01*
X309772Y605004D01*
X307515Y605939D01*
X305093Y606258D01*
D02*
G37*
G36*
X279693D02*
X277271Y605939D01*
X275014Y605004D01*
X273076Y603517D01*
X271588Y601579D01*
X270653Y599322D01*
X270335Y596900D01*
X270653Y594478D01*
X271588Y592221D01*
X273076Y590283D01*
X275014Y588796D01*
X277271Y587861D01*
X279693Y587542D01*
X282115Y587861D01*
X284372Y588796D01*
X286310Y590283D01*
X287797Y592221D01*
X288732Y594478D01*
X289051Y596900D01*
X288732Y599322D01*
X287797Y601579D01*
X286310Y603517D01*
X284372Y605004D01*
X282115Y605939D01*
X279693Y606258D01*
D02*
G37*
G36*
X254293D02*
X251871Y605939D01*
X249614Y605004D01*
X247675Y603517D01*
X246188Y601579D01*
X245254Y599322D01*
X244935Y596900D01*
X245254Y594478D01*
X246188Y592221D01*
X247675Y590283D01*
X249614Y588796D01*
X251871Y587861D01*
X254293Y587542D01*
X256715Y587861D01*
X258972Y588796D01*
X260910Y590283D01*
X262397Y592221D01*
X263332Y594478D01*
X263651Y596900D01*
X263332Y599322D01*
X262397Y601579D01*
X260910Y603517D01*
X258972Y605004D01*
X256715Y605939D01*
X254293Y606258D01*
D02*
G37*
G36*
X721452Y595630D02*
X712763D01*
Y586941D01*
X714114Y587118D01*
X716556Y588130D01*
X718653Y589739D01*
X720263Y591837D01*
X721274Y594279D01*
X721452Y595630D01*
D02*
G37*
G36*
X746852D02*
X738163D01*
Y586941D01*
X739514Y587118D01*
X741956Y588130D01*
X744053Y589739D01*
X745663Y591837D01*
X746674Y594279D01*
X746852Y595630D01*
D02*
G37*
G36*
X735623D02*
X726933D01*
X727111Y594279D01*
X728123Y591837D01*
X729732Y589739D01*
X731829Y588130D01*
X734272Y587118D01*
X735623Y586941D01*
Y595630D01*
D02*
G37*
G36*
X710223D02*
X701533D01*
X701711Y594279D01*
X702723Y591837D01*
X704332Y589739D01*
X706429Y588130D01*
X708872Y587118D01*
X710223Y586941D01*
Y595630D01*
D02*
G37*
G36*
X533693Y606258D02*
X531271Y605939D01*
X529014Y605004D01*
X527076Y603517D01*
X525588Y601579D01*
X524654Y599322D01*
X524335Y596900D01*
X524654Y594478D01*
X525588Y592221D01*
X527076Y590283D01*
X529014Y588796D01*
X529842Y588453D01*
Y563228D01*
X519105Y552491D01*
X464403D01*
X464300Y552739D01*
X462997Y554437D01*
X461299Y555740D01*
X459322Y556559D01*
X457200Y556838D01*
X455078Y556559D01*
X453101Y555740D01*
X451403Y554437D01*
X450100Y552739D01*
X449281Y550762D01*
X449002Y548640D01*
X449281Y546518D01*
X450100Y544541D01*
X451403Y542843D01*
X453101Y541540D01*
X454760Y540853D01*
X454708Y539548D01*
X454456Y539498D01*
X453207Y538663D01*
X420200Y505656D01*
X419952Y505759D01*
X417830Y506038D01*
X415708Y505759D01*
X413731Y504940D01*
X412033Y503637D01*
X410730Y501939D01*
X409911Y499962D01*
X409632Y497840D01*
X409911Y495718D01*
X410730Y493741D01*
X412033Y492043D01*
X413731Y490740D01*
X415708Y489921D01*
X417830Y489642D01*
X419952Y489921D01*
X421929Y490740D01*
X423627Y492043D01*
X424930Y493741D01*
X425749Y495718D01*
X426028Y497840D01*
X425749Y499962D01*
X425646Y500210D01*
X457525Y532089D01*
X500797D01*
X500900Y531841D01*
X502203Y530143D01*
X503901Y528840D01*
X505878Y528021D01*
X508000Y527742D01*
X510122Y528021D01*
X512099Y528840D01*
X513797Y530143D01*
X515100Y531841D01*
X515919Y533818D01*
X516198Y535940D01*
X515919Y538062D01*
X515100Y540039D01*
X513797Y541737D01*
X512099Y543040D01*
X510942Y543519D01*
X511195Y544789D01*
X520700D01*
X520700Y544789D01*
X522174Y545082D01*
X523423Y545917D01*
X536416Y558910D01*
X536416Y558910D01*
X537251Y560159D01*
X537544Y561633D01*
Y588453D01*
X538372Y588796D01*
X540310Y590283D01*
X541797Y592221D01*
X542732Y594478D01*
X543051Y596900D01*
X542732Y599322D01*
X541797Y601579D01*
X540310Y603517D01*
X538372Y605004D01*
X536115Y605939D01*
X533693Y606258D01*
D02*
G37*
G36*
X86360Y542200D02*
Y534670D01*
X93890D01*
X93751Y535721D01*
X92855Y537883D01*
X91430Y539740D01*
X89573Y541165D01*
X87411Y542061D01*
X86360Y542200D01*
D02*
G37*
G36*
X83820D02*
X82769Y542061D01*
X80607Y541165D01*
X78750Y539740D01*
X77325Y537883D01*
X76429Y535721D01*
X76290Y534670D01*
X83820D01*
Y542200D01*
D02*
G37*
G36*
X411480Y541598D02*
X409358Y541319D01*
X407381Y540500D01*
X405683Y539197D01*
X404380Y537499D01*
X403561Y535522D01*
X403282Y533400D01*
X403561Y531278D01*
X403664Y531030D01*
X393375Y520741D01*
X369153D01*
X369050Y520989D01*
X367747Y522687D01*
X366049Y523990D01*
X364072Y524809D01*
X361950Y525088D01*
X359828Y524809D01*
X357851Y523990D01*
X356153Y522687D01*
X354850Y520989D01*
X354031Y519012D01*
X353752Y516890D01*
X354031Y514768D01*
X354850Y512791D01*
X356153Y511093D01*
X357851Y509790D01*
X359828Y508971D01*
X361950Y508692D01*
X364072Y508971D01*
X366049Y509790D01*
X367747Y511093D01*
X369050Y512791D01*
X369153Y513039D01*
X394970D01*
X394970Y513039D01*
X396444Y513332D01*
X397693Y514167D01*
X409110Y525584D01*
X409358Y525481D01*
X411480Y525202D01*
X413602Y525481D01*
X415579Y526300D01*
X417277Y527603D01*
X418580Y529301D01*
X419399Y531278D01*
X419678Y533400D01*
X419399Y535522D01*
X418580Y537499D01*
X417277Y539197D01*
X415579Y540500D01*
X413602Y541319D01*
X411480Y541598D01*
D02*
G37*
G36*
X93890Y532130D02*
X86360D01*
Y524600D01*
X87411Y524739D01*
X89573Y525635D01*
X91430Y527060D01*
X92855Y528917D01*
X93751Y531079D01*
X93890Y532130D01*
D02*
G37*
G36*
X83820D02*
X76290D01*
X76429Y531079D01*
X77325Y528917D01*
X78750Y527060D01*
X80607Y525635D01*
X82769Y524739D01*
X83820Y524600D01*
Y532130D01*
D02*
G37*
G36*
X547370Y523818D02*
X545248Y523539D01*
X543271Y522720D01*
X541573Y521417D01*
X540270Y519719D01*
X539451Y517742D01*
X539172Y515620D01*
X539451Y513498D01*
X539554Y513250D01*
X535615Y509311D01*
X464403D01*
X464300Y509559D01*
X462997Y511257D01*
X461299Y512560D01*
X459322Y513379D01*
X457200Y513658D01*
X455078Y513379D01*
X453101Y512560D01*
X451403Y511257D01*
X450100Y509559D01*
X449281Y507582D01*
X449002Y505460D01*
X449281Y503338D01*
X450100Y501361D01*
X451403Y499663D01*
X453101Y498360D01*
X455078Y497541D01*
X457200Y497262D01*
X459322Y497541D01*
X461299Y498360D01*
X462997Y499663D01*
X464300Y501361D01*
X464403Y501609D01*
X537210D01*
X537210Y501609D01*
X538684Y501902D01*
X539933Y502737D01*
X545000Y507804D01*
X545248Y507701D01*
X547370Y507422D01*
X549492Y507701D01*
X551469Y508520D01*
X553167Y509823D01*
X554470Y511521D01*
X555289Y513498D01*
X555568Y515620D01*
X555289Y517742D01*
X554470Y519719D01*
X553167Y521417D01*
X551469Y522720D01*
X549492Y523539D01*
X547370Y523818D01*
D02*
G37*
G36*
X176530Y513658D02*
X174408Y513379D01*
X172431Y512560D01*
X170733Y511257D01*
X169430Y509559D01*
X168611Y507582D01*
X168332Y505460D01*
X168611Y503338D01*
X169430Y501361D01*
X170733Y499663D01*
X172431Y498360D01*
X172679Y498257D01*
Y475833D01*
X172431Y475730D01*
X170733Y474427D01*
X169430Y472729D01*
X168611Y470752D01*
X168332Y468630D01*
X168611Y466508D01*
X169430Y464531D01*
X170733Y462833D01*
X172431Y461530D01*
X174408Y460711D01*
X176530Y460432D01*
X178652Y460711D01*
X180629Y461530D01*
X182327Y462833D01*
X183630Y464531D01*
X184449Y466508D01*
X184728Y468630D01*
X184449Y470752D01*
X183630Y472729D01*
X182327Y474427D01*
X180629Y475730D01*
X180381Y475833D01*
Y498257D01*
X180629Y498360D01*
X182327Y499663D01*
X183630Y501361D01*
X184449Y503338D01*
X184728Y505460D01*
X184449Y507582D01*
X183630Y509559D01*
X182327Y511257D01*
X180629Y512560D01*
X178652Y513379D01*
X176530Y513658D01*
D02*
G37*
G36*
X201676Y568776D02*
X199554Y568497D01*
X197577Y567678D01*
X195879Y566375D01*
X194576Y564677D01*
X193757Y562700D01*
X193478Y560578D01*
X193757Y558456D01*
X194576Y556479D01*
X195879Y554781D01*
X197577Y553478D01*
X198079Y553270D01*
Y473293D01*
X197831Y473190D01*
X196133Y471887D01*
X194830Y470189D01*
X194011Y468212D01*
X193732Y466090D01*
X194011Y463968D01*
X194830Y461991D01*
X196133Y460293D01*
X197831Y458990D01*
X199808Y458171D01*
X201930Y457892D01*
X204052Y458171D01*
X206029Y458990D01*
X207727Y460293D01*
X209030Y461991D01*
X209849Y463968D01*
X210128Y466090D01*
X209849Y468212D01*
X209030Y470189D01*
X207727Y471887D01*
X206029Y473190D01*
X205781Y473293D01*
Y553483D01*
X207473Y554781D01*
X208776Y556479D01*
X209595Y558456D01*
X209874Y560578D01*
X209595Y562700D01*
X208776Y564677D01*
X207473Y566375D01*
X205775Y567678D01*
X203798Y568497D01*
X201676Y568776D01*
D02*
G37*
G36*
X330493Y606258D02*
X328071Y605939D01*
X325814Y605004D01*
X323876Y603517D01*
X322388Y601579D01*
X321454Y599322D01*
X321135Y596900D01*
X321454Y594478D01*
X322388Y592221D01*
X323876Y590283D01*
X325814Y588796D01*
X327481Y588105D01*
Y501650D01*
X327688Y500610D01*
X328277Y499727D01*
X362750Y465255D01*
X362411Y463550D01*
X362859Y461296D01*
X364136Y459386D01*
X366046Y458109D01*
X368300Y457661D01*
X370554Y458109D01*
X372464Y459386D01*
X373741Y461296D01*
X374189Y463550D01*
X373741Y465804D01*
X372464Y467714D01*
X370554Y468991D01*
X368300Y469439D01*
X366596Y469100D01*
X332919Y502776D01*
Y587863D01*
X335172Y588796D01*
X337110Y590283D01*
X338597Y592221D01*
X339532Y594478D01*
X339851Y596900D01*
X339532Y599322D01*
X338597Y601579D01*
X337110Y603517D01*
X335172Y605004D01*
X332915Y605939D01*
X330493Y606258D01*
D02*
G37*
G36*
X559093D02*
X556671Y605939D01*
X554414Y605004D01*
X552476Y603517D01*
X550988Y601579D01*
X550053Y599322D01*
X549735Y596900D01*
X550053Y594478D01*
X550988Y592221D01*
X552476Y590283D01*
X554414Y588796D01*
X556671Y587861D01*
X559093Y587542D01*
X561515Y587861D01*
X562343Y588204D01*
X593684Y556862D01*
Y501015D01*
X593684Y501015D01*
X593977Y499541D01*
X594003Y499503D01*
Y449104D01*
X592733Y448851D01*
X592597Y449179D01*
X591110Y451117D01*
X589172Y452604D01*
X586915Y453539D01*
X584493Y453858D01*
X582071Y453539D01*
X579814Y452604D01*
X579161Y452104D01*
X577891Y452730D01*
Y530007D01*
X578139Y530110D01*
X579837Y531413D01*
X581140Y533111D01*
X581959Y535088D01*
X582238Y537210D01*
X581959Y539332D01*
X581140Y541309D01*
X579837Y543007D01*
X578139Y544310D01*
X576162Y545129D01*
X574040Y545408D01*
X571918Y545129D01*
X569941Y544310D01*
X568243Y543007D01*
X566940Y541309D01*
X566121Y539332D01*
X565842Y537210D01*
X566121Y535088D01*
X566940Y533111D01*
X568243Y531413D01*
X569941Y530110D01*
X570189Y530007D01*
Y500861D01*
X568919Y500430D01*
X568407Y501097D01*
X566709Y502400D01*
X564732Y503219D01*
X562610Y503498D01*
X560488Y503219D01*
X558511Y502400D01*
X556813Y501097D01*
X555510Y499399D01*
X554691Y497422D01*
X554412Y495300D01*
X554691Y493178D01*
X554794Y492930D01*
X548315Y486451D01*
X444083D01*
X443980Y486699D01*
X442677Y488397D01*
X440979Y489700D01*
X439002Y490519D01*
X436880Y490798D01*
X434758Y490519D01*
X432781Y489700D01*
X431083Y488397D01*
X429780Y486699D01*
X428961Y484722D01*
X428682Y482600D01*
X428961Y480478D01*
X429780Y478501D01*
X431083Y476803D01*
X432781Y475500D01*
X434758Y474681D01*
X436880Y474402D01*
X439002Y474681D01*
X440979Y475500D01*
X442677Y476803D01*
X443980Y478501D01*
X444083Y478749D01*
X549910D01*
X549910Y478749D01*
X551384Y479042D01*
X552633Y479877D01*
X560240Y487484D01*
X560488Y487381D01*
X562610Y487102D01*
X564732Y487381D01*
X566709Y488200D01*
X568407Y489503D01*
X568919Y490170D01*
X570189Y489739D01*
Y453608D01*
X569731Y453150D01*
X568896Y451900D01*
X568603Y450427D01*
X568603Y450427D01*
Y449104D01*
X567333Y448851D01*
X567197Y449179D01*
X565710Y451117D01*
X563772Y452604D01*
X561515Y453539D01*
X559093Y453858D01*
X556671Y453539D01*
X554414Y452604D01*
X552476Y451117D01*
X550988Y449179D01*
X550053Y446922D01*
X549735Y444500D01*
X550053Y442078D01*
X550988Y439821D01*
X552476Y437883D01*
X554414Y436396D01*
X556671Y435461D01*
X559093Y435142D01*
X561515Y435461D01*
X563772Y436396D01*
X565710Y437883D01*
X567197Y439821D01*
X567333Y440149D01*
X568603Y439896D01*
Y401329D01*
X535757Y368483D01*
X534922Y367234D01*
X534629Y365760D01*
X534629Y365760D01*
Y355183D01*
X534381Y355080D01*
X532683Y353777D01*
X531380Y352079D01*
X530561Y350102D01*
X530282Y347980D01*
X530561Y345858D01*
X531380Y343881D01*
X532683Y342183D01*
X534381Y340880D01*
X536358Y340061D01*
X538480Y339782D01*
X540602Y340061D01*
X542579Y340880D01*
X544277Y342183D01*
X545580Y343881D01*
X546399Y345858D01*
X546678Y347980D01*
X546399Y350102D01*
X545580Y352079D01*
X544277Y353777D01*
X542579Y355080D01*
X542331Y355183D01*
Y364165D01*
X575177Y397011D01*
X575177Y397011D01*
X576012Y398260D01*
X576305Y399734D01*
X576305Y399734D01*
Y437844D01*
X577575Y438275D01*
X577876Y437883D01*
X579814Y436396D01*
X582071Y435461D01*
X584493Y435142D01*
X586915Y435461D01*
X589172Y436396D01*
X591110Y437883D01*
X592597Y439821D01*
X592733Y440149D01*
X594003Y439896D01*
Y392280D01*
X575604Y373881D01*
X574769Y372631D01*
X574476Y371158D01*
X574476Y371157D01*
Y339422D01*
X573323Y338537D01*
X572020Y336839D01*
X571201Y334862D01*
X570922Y332740D01*
X571201Y330618D01*
X572020Y328641D01*
X573323Y326943D01*
X575021Y325640D01*
X576998Y324821D01*
X579120Y324542D01*
X581242Y324821D01*
X583219Y325640D01*
X584917Y326943D01*
X586220Y328641D01*
X587039Y330618D01*
X587318Y332740D01*
X587039Y334862D01*
X586220Y336839D01*
X584917Y338537D01*
X583219Y339840D01*
X582178Y340271D01*
Y369562D01*
X600577Y387961D01*
X600577Y387961D01*
X601412Y389211D01*
X601705Y390684D01*
X601705Y390685D01*
Y437844D01*
X602975Y438275D01*
X603275Y437883D01*
X605214Y436396D01*
X607471Y435461D01*
X609893Y435142D01*
X612315Y435461D01*
X614572Y436396D01*
X616510Y437883D01*
X617997Y439821D01*
X618932Y442078D01*
X619251Y444500D01*
X618932Y446922D01*
X617997Y449179D01*
X616510Y451117D01*
X614572Y452604D01*
X612315Y453539D01*
X609893Y453858D01*
X607471Y453539D01*
X605214Y452604D01*
X603275Y451117D01*
X602975Y450725D01*
X601705Y451156D01*
Y500696D01*
X601705Y500696D01*
X601412Y502170D01*
X601386Y502208D01*
Y558458D01*
X601386Y558458D01*
X601093Y559931D01*
X600258Y561181D01*
X567789Y593650D01*
X568132Y594478D01*
X568451Y596900D01*
X568132Y599322D01*
X567197Y601579D01*
X565710Y603517D01*
X563772Y605004D01*
X561515Y605939D01*
X559093Y606258D01*
D02*
G37*
G36*
X712763Y454459D02*
Y445770D01*
X721452D01*
X721274Y447121D01*
X720263Y449563D01*
X718653Y451661D01*
X716556Y453270D01*
X714114Y454282D01*
X712763Y454459D01*
D02*
G37*
G36*
X710223D02*
X708872Y454282D01*
X706429Y453270D01*
X704332Y451661D01*
X702723Y449563D01*
X701711Y447121D01*
X701533Y445770D01*
X710223D01*
Y454459D01*
D02*
G37*
G36*
X612140Y503498D02*
X610018Y503219D01*
X608041Y502400D01*
X606343Y501097D01*
X605040Y499399D01*
X604221Y497422D01*
X603942Y495300D01*
X604221Y493178D01*
X605040Y491201D01*
X606343Y489503D01*
X608041Y488200D01*
X610018Y487381D01*
X612140Y487102D01*
X614262Y487381D01*
X616239Y488200D01*
X617937Y489503D01*
X619240Y491201D01*
X619343Y491449D01*
X700715D01*
X733042Y459122D01*
Y452947D01*
X732214Y452604D01*
X730275Y451117D01*
X728788Y449179D01*
X727853Y446922D01*
X727535Y444500D01*
X727853Y442078D01*
X728788Y439821D01*
X730275Y437883D01*
X732214Y436396D01*
X734471Y435461D01*
X736893Y435142D01*
X739315Y435461D01*
X741572Y436396D01*
X743510Y437883D01*
X744997Y439821D01*
X745932Y442078D01*
X746251Y444500D01*
X745932Y446922D01*
X744997Y449179D01*
X743510Y451117D01*
X741572Y452604D01*
X740744Y452947D01*
Y460717D01*
X740744Y460717D01*
X740451Y462191D01*
X739616Y463441D01*
X739616Y463441D01*
X705033Y498023D01*
X703784Y498858D01*
X702310Y499151D01*
X702310Y499151D01*
X619343D01*
X619240Y499399D01*
X617937Y501097D01*
X616239Y502400D01*
X614262Y503219D01*
X612140Y503498D01*
D02*
G37*
G36*
X686093Y453858D02*
X683671Y453539D01*
X681414Y452604D01*
X679475Y451117D01*
X677988Y449179D01*
X677054Y446922D01*
X676735Y444500D01*
X677054Y442078D01*
X677988Y439821D01*
X679475Y437883D01*
X681414Y436396D01*
X683671Y435461D01*
X686093Y435142D01*
X688515Y435461D01*
X690772Y436396D01*
X692710Y437883D01*
X694197Y439821D01*
X695132Y442078D01*
X695451Y444500D01*
X695132Y446922D01*
X694197Y449179D01*
X692710Y451117D01*
X690772Y452604D01*
X688515Y453539D01*
X686093Y453858D01*
D02*
G37*
G36*
X660693D02*
X658271Y453539D01*
X656014Y452604D01*
X654075Y451117D01*
X652588Y449179D01*
X651654Y446922D01*
X651335Y444500D01*
X651654Y442078D01*
X652588Y439821D01*
X654075Y437883D01*
X656014Y436396D01*
X658271Y435461D01*
X660693Y435142D01*
X663115Y435461D01*
X665372Y436396D01*
X667310Y437883D01*
X668797Y439821D01*
X669732Y442078D01*
X670051Y444500D01*
X669732Y446922D01*
X668797Y449179D01*
X667310Y451117D01*
X665372Y452604D01*
X663115Y453539D01*
X660693Y453858D01*
D02*
G37*
G36*
X635293D02*
X632871Y453539D01*
X630614Y452604D01*
X628675Y451117D01*
X627188Y449179D01*
X626254Y446922D01*
X625935Y444500D01*
X626254Y442078D01*
X627188Y439821D01*
X628675Y437883D01*
X630614Y436396D01*
X632871Y435461D01*
X635293Y435142D01*
X637715Y435461D01*
X639972Y436396D01*
X641910Y437883D01*
X643397Y439821D01*
X644332Y442078D01*
X644651Y444500D01*
X644332Y446922D01*
X643397Y449179D01*
X641910Y451117D01*
X639972Y452604D01*
X637715Y453539D01*
X635293Y453858D01*
D02*
G37*
G36*
X533693D02*
X531271Y453539D01*
X529014Y452604D01*
X527076Y451117D01*
X525588Y449179D01*
X524654Y446922D01*
X524335Y444500D01*
X524654Y442078D01*
X525588Y439821D01*
X527076Y437883D01*
X529014Y436396D01*
X531271Y435461D01*
X533693Y435142D01*
X536115Y435461D01*
X538372Y436396D01*
X540310Y437883D01*
X541797Y439821D01*
X542732Y442078D01*
X543051Y444500D01*
X542732Y446922D01*
X541797Y449179D01*
X540310Y451117D01*
X538372Y452604D01*
X536115Y453539D01*
X533693Y453858D01*
D02*
G37*
G36*
X508293D02*
X505871Y453539D01*
X503614Y452604D01*
X501675Y451117D01*
X500188Y449179D01*
X499254Y446922D01*
X498935Y444500D01*
X499254Y442078D01*
X500188Y439821D01*
X501675Y437883D01*
X503614Y436396D01*
X505871Y435461D01*
X508293Y435142D01*
X510715Y435461D01*
X512972Y436396D01*
X514910Y437883D01*
X516397Y439821D01*
X517332Y442078D01*
X517651Y444500D01*
X517332Y446922D01*
X516397Y449179D01*
X514910Y451117D01*
X512972Y452604D01*
X510715Y453539D01*
X508293Y453858D01*
D02*
G37*
G36*
X482893D02*
X480471Y453539D01*
X478214Y452604D01*
X476275Y451117D01*
X474788Y449179D01*
X473853Y446922D01*
X473535Y444500D01*
X473853Y442078D01*
X474788Y439821D01*
X476275Y437883D01*
X478214Y436396D01*
X480471Y435461D01*
X482893Y435142D01*
X485315Y435461D01*
X487572Y436396D01*
X489510Y437883D01*
X490997Y439821D01*
X491932Y442078D01*
X492251Y444500D01*
X491932Y446922D01*
X490997Y449179D01*
X489510Y451117D01*
X487572Y452604D01*
X485315Y453539D01*
X482893Y453858D01*
D02*
G37*
G36*
X457493D02*
X455071Y453539D01*
X452814Y452604D01*
X450876Y451117D01*
X449388Y449179D01*
X448453Y446922D01*
X448135Y444500D01*
X448453Y442078D01*
X449388Y439821D01*
X450876Y437883D01*
X452814Y436396D01*
X455071Y435461D01*
X457493Y435142D01*
X459915Y435461D01*
X462172Y436396D01*
X464110Y437883D01*
X465597Y439821D01*
X466532Y442078D01*
X466851Y444500D01*
X466532Y446922D01*
X465597Y449179D01*
X464110Y451117D01*
X462172Y452604D01*
X459915Y453539D01*
X457493Y453858D01*
D02*
G37*
G36*
X432093D02*
X429671Y453539D01*
X427414Y452604D01*
X425476Y451117D01*
X423988Y449179D01*
X423054Y446922D01*
X422735Y444500D01*
X423054Y442078D01*
X423988Y439821D01*
X425476Y437883D01*
X427414Y436396D01*
X429671Y435461D01*
X432093Y435142D01*
X434515Y435461D01*
X436772Y436396D01*
X438710Y437883D01*
X440197Y439821D01*
X441132Y442078D01*
X441451Y444500D01*
X441132Y446922D01*
X440197Y449179D01*
X438710Y451117D01*
X436772Y452604D01*
X434515Y453539D01*
X432093Y453858D01*
D02*
G37*
G36*
X406693D02*
X404271Y453539D01*
X402014Y452604D01*
X400075Y451117D01*
X398588Y449179D01*
X397654Y446922D01*
X397335Y444500D01*
X397654Y442078D01*
X398588Y439821D01*
X400075Y437883D01*
X402014Y436396D01*
X404271Y435461D01*
X406693Y435142D01*
X409115Y435461D01*
X411372Y436396D01*
X413310Y437883D01*
X414797Y439821D01*
X415732Y442078D01*
X416051Y444500D01*
X415732Y446922D01*
X414797Y449179D01*
X413310Y451117D01*
X411372Y452604D01*
X409115Y453539D01*
X406693Y453858D01*
D02*
G37*
G36*
X381293D02*
X378871Y453539D01*
X376614Y452604D01*
X374675Y451117D01*
X373188Y449179D01*
X372253Y446922D01*
X371935Y444500D01*
X372253Y442078D01*
X373188Y439821D01*
X374675Y437883D01*
X376614Y436396D01*
X378871Y435461D01*
X381293Y435142D01*
X383715Y435461D01*
X385972Y436396D01*
X387910Y437883D01*
X389397Y439821D01*
X390332Y442078D01*
X390651Y444500D01*
X390332Y446922D01*
X389397Y449179D01*
X387910Y451117D01*
X385972Y452604D01*
X383715Y453539D01*
X381293Y453858D01*
D02*
G37*
G36*
X330493D02*
X328071Y453539D01*
X325814Y452604D01*
X323876Y451117D01*
X322388Y449179D01*
X321454Y446922D01*
X321135Y444500D01*
X321454Y442078D01*
X322388Y439821D01*
X323876Y437883D01*
X325814Y436396D01*
X328071Y435461D01*
X330493Y435142D01*
X332915Y435461D01*
X335172Y436396D01*
X337110Y437883D01*
X338597Y439821D01*
X339532Y442078D01*
X339851Y444500D01*
X339532Y446922D01*
X338597Y449179D01*
X337110Y451117D01*
X335172Y452604D01*
X332915Y453539D01*
X330493Y453858D01*
D02*
G37*
G36*
X305093D02*
X302671Y453539D01*
X300414Y452604D01*
X298475Y451117D01*
X296988Y449179D01*
X296054Y446922D01*
X295735Y444500D01*
X296054Y442078D01*
X296988Y439821D01*
X298475Y437883D01*
X300414Y436396D01*
X302671Y435461D01*
X305093Y435142D01*
X307515Y435461D01*
X309772Y436396D01*
X311710Y437883D01*
X313197Y439821D01*
X314132Y442078D01*
X314451Y444500D01*
X314132Y446922D01*
X313197Y449179D01*
X311710Y451117D01*
X309772Y452604D01*
X307515Y453539D01*
X305093Y453858D01*
D02*
G37*
G36*
X721452Y443230D02*
X712763D01*
Y434541D01*
X714114Y434719D01*
X716556Y435730D01*
X718653Y437340D01*
X720263Y439437D01*
X721274Y441879D01*
X721452Y443230D01*
D02*
G37*
G36*
X710223D02*
X701533D01*
X701711Y441879D01*
X702723Y439437D01*
X704332Y437340D01*
X706429Y435730D01*
X708872Y434719D01*
X710223Y434541D01*
Y443230D01*
D02*
G37*
G36*
X661670Y420948D02*
X659548Y420669D01*
X657571Y419850D01*
X655873Y418547D01*
X654570Y416849D01*
X653751Y414872D01*
X653632Y413967D01*
X621977D01*
X621874Y414215D01*
X620571Y415913D01*
X618873Y417216D01*
X616896Y418035D01*
X614774Y418314D01*
X612652Y418035D01*
X610675Y417216D01*
X608977Y415913D01*
X607674Y414215D01*
X606855Y412238D01*
X606576Y410116D01*
X606855Y407994D01*
X607674Y406017D01*
X608977Y404319D01*
X610675Y403016D01*
X612652Y402197D01*
X614774Y401918D01*
X616896Y402197D01*
X618873Y403016D01*
X620571Y404319D01*
X621874Y406017D01*
X621977Y406265D01*
X656770D01*
X657571Y405650D01*
X659548Y404831D01*
X661670Y404552D01*
X663792Y404831D01*
X665769Y405650D01*
X667467Y406953D01*
X668770Y408651D01*
X669589Y410628D01*
X669868Y412750D01*
X669589Y414872D01*
X668770Y416849D01*
X667467Y418547D01*
X665769Y419850D01*
X663792Y420669D01*
X661670Y420948D01*
D02*
G37*
G36*
X355693Y453858D02*
X353271Y453539D01*
X351014Y452604D01*
X349076Y451117D01*
X347588Y449179D01*
X346654Y446922D01*
X346335Y444500D01*
X346654Y442078D01*
X347588Y439821D01*
X349076Y437883D01*
X351014Y436396D01*
X353271Y435461D01*
X355693Y435142D01*
X358115Y435461D01*
X358943Y435804D01*
X379640Y415107D01*
X379640Y415107D01*
X380889Y414272D01*
X382363Y413979D01*
X480477D01*
X480580Y413731D01*
X481883Y412033D01*
X483581Y410730D01*
X485558Y409911D01*
X487680Y409632D01*
X489802Y409911D01*
X491779Y410730D01*
X493477Y412033D01*
X494780Y413731D01*
X495599Y415708D01*
X495878Y417830D01*
X495599Y419952D01*
X494780Y421929D01*
X493477Y423627D01*
X491779Y424930D01*
X489802Y425749D01*
X487680Y426028D01*
X485558Y425749D01*
X483581Y424930D01*
X481883Y423627D01*
X480580Y421929D01*
X480477Y421681D01*
X383958D01*
X364389Y441250D01*
X364732Y442078D01*
X365051Y444500D01*
X364732Y446922D01*
X363797Y449179D01*
X362310Y451117D01*
X360372Y452604D01*
X358115Y453539D01*
X355693Y453858D01*
D02*
G37*
G36*
X279693D02*
X277271Y453539D01*
X275014Y452604D01*
X273076Y451117D01*
X271588Y449179D01*
X270653Y446922D01*
X270335Y444500D01*
X270653Y442078D01*
X271588Y439821D01*
X273076Y437883D01*
X275014Y436396D01*
X277271Y435461D01*
X279693Y435142D01*
X282115Y435461D01*
X284074Y436273D01*
X313965Y406382D01*
X313965Y406382D01*
X314847Y405793D01*
X315888Y405586D01*
X315888Y405586D01*
X360285D01*
X360319Y405416D01*
X361596Y403506D01*
X363169Y402454D01*
X362784Y401184D01*
X301454D01*
X262520Y440118D01*
X263332Y442078D01*
X263651Y444500D01*
X263332Y446922D01*
X262397Y449179D01*
X260910Y451117D01*
X258972Y452604D01*
X256715Y453539D01*
X254293Y453858D01*
X251871Y453539D01*
X249614Y452604D01*
X247675Y451117D01*
X246188Y449179D01*
X245254Y446922D01*
X244935Y444500D01*
X245254Y442078D01*
X246188Y439821D01*
X247675Y437883D01*
X249614Y436396D01*
X251871Y435461D01*
X254293Y435142D01*
X256715Y435461D01*
X258675Y436273D01*
X298405Y396542D01*
X299287Y395953D01*
X300328Y395746D01*
X373951D01*
X375050Y394100D01*
X376961Y392824D01*
X379214Y392375D01*
X381468Y392824D01*
X383379Y394100D01*
X384655Y396011D01*
X385103Y398264D01*
X384655Y400518D01*
X383379Y402429D01*
X381468Y403705D01*
X379214Y404154D01*
X376961Y403705D01*
X375050Y402429D01*
X374219Y401184D01*
X368736D01*
X368351Y402454D01*
X369924Y403506D01*
X371201Y405416D01*
X371649Y407670D01*
X371201Y409924D01*
X369924Y411834D01*
X368014Y413111D01*
X365760Y413559D01*
X363506Y413111D01*
X361596Y411834D01*
X361054Y411024D01*
X317014D01*
X287920Y440118D01*
X288732Y442078D01*
X289051Y444500D01*
X288732Y446922D01*
X287797Y449179D01*
X286310Y451117D01*
X284372Y452604D01*
X282115Y453539D01*
X279693Y453858D01*
D02*
G37*
G36*
X687070Y409518D02*
X684948Y409239D01*
X682971Y408420D01*
X681273Y407117D01*
X679970Y405419D01*
X679151Y403442D01*
X678872Y401320D01*
X679151Y399198D01*
X679254Y398950D01*
X675315Y395011D01*
X633313D01*
X633210Y395259D01*
X631907Y396957D01*
X630209Y398260D01*
X628232Y399079D01*
X626110Y399358D01*
X623988Y399079D01*
X622011Y398260D01*
X620313Y396957D01*
X619010Y395259D01*
X618191Y393282D01*
X617912Y391160D01*
X618191Y389038D01*
X619010Y387061D01*
X620313Y385363D01*
X622011Y384060D01*
X623988Y383241D01*
X626110Y382962D01*
X628232Y383241D01*
X630209Y384060D01*
X631907Y385363D01*
X633210Y387061D01*
X633313Y387309D01*
X676910D01*
X676910Y387309D01*
X678384Y387602D01*
X679633Y388437D01*
X684700Y393504D01*
X684948Y393401D01*
X687070Y393122D01*
X689192Y393401D01*
X691169Y394220D01*
X692867Y395523D01*
X694170Y397221D01*
X694989Y399198D01*
X695268Y401320D01*
X694989Y403442D01*
X694170Y405419D01*
X692867Y407117D01*
X691169Y408420D01*
X689192Y409239D01*
X687070Y409518D01*
D02*
G37*
G36*
X699770Y394278D02*
X697648Y393999D01*
X695671Y393180D01*
X693973Y391877D01*
X692670Y390179D01*
X691851Y388202D01*
X691572Y386080D01*
X691851Y383958D01*
X691954Y383710D01*
X689285Y381041D01*
X621883D01*
X621780Y381289D01*
X620477Y382987D01*
X618779Y384290D01*
X616802Y385109D01*
X614680Y385388D01*
X612558Y385109D01*
X610581Y384290D01*
X608883Y382987D01*
X607580Y381289D01*
X606761Y379312D01*
X606482Y377190D01*
X606761Y375068D01*
X607580Y373091D01*
X608883Y371393D01*
X610581Y370090D01*
X612558Y369271D01*
X614680Y368992D01*
X616802Y369271D01*
X618779Y370090D01*
X620477Y371393D01*
X621780Y373091D01*
X621883Y373339D01*
X690880D01*
X690880Y373339D01*
X692354Y373632D01*
X693603Y374467D01*
X697400Y378264D01*
X697648Y378161D01*
X699770Y377882D01*
X701892Y378161D01*
X703869Y378980D01*
X705567Y380283D01*
X706870Y381981D01*
X707689Y383958D01*
X707968Y386080D01*
X707689Y388202D01*
X706870Y390179D01*
X705567Y391877D01*
X703869Y393180D01*
X701892Y393999D01*
X699770Y394278D01*
D02*
G37*
G36*
X170180Y439998D02*
X168058Y439719D01*
X166081Y438900D01*
X164383Y437597D01*
X163080Y435899D01*
X162261Y433922D01*
X161982Y431800D01*
X162261Y429678D01*
X163080Y427701D01*
X164383Y426003D01*
X166081Y424700D01*
X166329Y424598D01*
Y401320D01*
X166329Y401320D01*
X166622Y399846D01*
X167457Y398597D01*
X182684Y383370D01*
X182581Y383122D01*
X182302Y381000D01*
X182581Y378878D01*
X183400Y376901D01*
X184703Y375203D01*
X186401Y373900D01*
X188378Y373081D01*
X190500Y372802D01*
X192622Y373081D01*
X194599Y373900D01*
X196297Y375203D01*
X197600Y376901D01*
X198419Y378878D01*
X198698Y381000D01*
X198419Y383122D01*
X197600Y385099D01*
X196297Y386797D01*
X194599Y388100D01*
X192622Y388919D01*
X190500Y389198D01*
X188378Y388919D01*
X188130Y388816D01*
X174031Y402915D01*
Y424598D01*
X174279Y424700D01*
X175977Y426003D01*
X177280Y427701D01*
X178099Y429678D01*
X178378Y431800D01*
X178099Y433922D01*
X177280Y435899D01*
X175977Y437597D01*
X174279Y438900D01*
X172302Y439719D01*
X170180Y439998D01*
D02*
G37*
G36*
X504190Y359988D02*
X502068Y359709D01*
X500091Y358890D01*
X498393Y357587D01*
X497090Y355889D01*
X496271Y353912D01*
X495992Y351790D01*
X496271Y349668D01*
X496746Y348522D01*
X467400Y319176D01*
X466090Y319348D01*
X463968Y319069D01*
X461991Y318250D01*
X460293Y316947D01*
X458990Y315249D01*
X458171Y313272D01*
X457892Y311150D01*
X458171Y309028D01*
X458990Y307051D01*
X460293Y305353D01*
X461991Y304050D01*
X463968Y303231D01*
X466090Y302952D01*
X468212Y303231D01*
X470189Y304050D01*
X471887Y305353D01*
X473190Y307051D01*
X474009Y309028D01*
X474288Y311150D01*
X474009Y313272D01*
X473534Y314418D01*
X502881Y343764D01*
X504190Y343592D01*
X506312Y343871D01*
X508289Y344690D01*
X509987Y345993D01*
X511290Y347691D01*
X512109Y349668D01*
X512388Y351790D01*
X512109Y353912D01*
X511290Y355889D01*
X509987Y357587D01*
X508289Y358890D01*
X506312Y359709D01*
X504190Y359988D01*
D02*
G37*
G36*
X670560Y347890D02*
Y340360D01*
X678090D01*
X677951Y341411D01*
X677055Y343573D01*
X675630Y345430D01*
X673773Y346855D01*
X671611Y347751D01*
X670560Y347890D01*
D02*
G37*
G36*
X668020D02*
X666969Y347751D01*
X664807Y346855D01*
X662950Y345430D01*
X661525Y343573D01*
X660629Y341411D01*
X660490Y340360D01*
X668020D01*
Y347890D01*
D02*
G37*
G36*
X341630Y367839D02*
X339376Y367391D01*
X337466Y366114D01*
X336189Y364204D01*
X335741Y361950D01*
X336189Y359696D01*
X337466Y357786D01*
X338911Y356820D01*
Y325374D01*
X339118Y324333D01*
X339236Y324156D01*
X338557Y322886D01*
X178669D01*
X177628Y322679D01*
X176746Y322090D01*
X173605Y318949D01*
X21641D01*
X21070Y320329D01*
X19767Y322027D01*
X18069Y323330D01*
X16092Y324149D01*
X13970Y324428D01*
X11848Y324149D01*
X9871Y323330D01*
X8173Y322027D01*
X6870Y320329D01*
X6051Y318352D01*
X5772Y316230D01*
X6051Y314108D01*
X6870Y312131D01*
X8173Y310433D01*
X9871Y309130D01*
X10119Y309028D01*
Y113883D01*
X9871Y113780D01*
X8173Y112477D01*
X6870Y110779D01*
X6051Y108802D01*
X5772Y106680D01*
X6051Y104558D01*
X6870Y102581D01*
X8173Y100883D01*
X9871Y99580D01*
X11848Y98761D01*
X13970Y98482D01*
X16092Y98761D01*
X18069Y99580D01*
X19767Y100883D01*
X21070Y102581D01*
X21889Y104558D01*
X22168Y106680D01*
X21889Y108802D01*
X21070Y110779D01*
X19767Y112477D01*
X18069Y113780D01*
X17821Y113883D01*
Y309028D01*
X18069Y309130D01*
X19767Y310433D01*
X21070Y312131D01*
X21641Y313511D01*
X174732D01*
X175772Y313718D01*
X176655Y314307D01*
X179795Y317448D01*
X325727D01*
X326353Y316178D01*
X325640Y315249D01*
X324821Y313272D01*
X324542Y311150D01*
X324821Y309028D01*
X325640Y307051D01*
X326943Y305353D01*
X328641Y304050D01*
X328922Y303934D01*
Y195571D01*
X328213Y195027D01*
X326910Y193329D01*
X326091Y191352D01*
X325812Y189230D01*
X326091Y187108D01*
X326910Y185131D01*
X328213Y183433D01*
X329911Y182130D01*
X331888Y181311D01*
X334010Y181032D01*
X336132Y181311D01*
X338109Y182130D01*
X339807Y183433D01*
X341110Y185131D01*
X341929Y187108D01*
X342208Y189230D01*
X341929Y191352D01*
X341110Y193329D01*
X339807Y195027D01*
X339098Y195571D01*
Y306084D01*
X339840Y307051D01*
X340659Y309028D01*
X340938Y311150D01*
X340659Y313272D01*
X339840Y315249D01*
X339127Y316178D01*
X339753Y317448D01*
X411607D01*
X412648Y317655D01*
X413530Y318244D01*
X427556Y332270D01*
X429260Y331931D01*
X431514Y332379D01*
X433424Y333656D01*
X434701Y335566D01*
X435149Y337820D01*
X434701Y340074D01*
X433424Y341984D01*
X431514Y343261D01*
X429260Y343709D01*
X427006Y343261D01*
X425096Y341984D01*
X423819Y340074D01*
X423371Y337820D01*
X423710Y336116D01*
X410481Y322886D01*
X347963D01*
X344349Y326500D01*
Y356820D01*
X345794Y357786D01*
X347071Y359696D01*
X347519Y361950D01*
X347071Y364204D01*
X345794Y366114D01*
X343884Y367391D01*
X341630Y367839D01*
D02*
G37*
G36*
X678090Y337820D02*
X670560D01*
Y330290D01*
X671611Y330429D01*
X673773Y331325D01*
X675630Y332750D01*
X677055Y334607D01*
X677951Y336769D01*
X678090Y337820D01*
D02*
G37*
G36*
X668020D02*
X660490D01*
X660629Y336769D01*
X661525Y334607D01*
X662950Y332750D01*
X664807Y331325D01*
X666969Y330429D01*
X668020Y330290D01*
Y337820D01*
D02*
G37*
G36*
X411480Y403399D02*
X409226Y402951D01*
X407316Y401674D01*
X406039Y399764D01*
X405591Y397510D01*
X406039Y395256D01*
X407316Y393346D01*
X409226Y392069D01*
X410031Y391909D01*
Y340410D01*
X408586Y339444D01*
X407309Y337534D01*
X406861Y335280D01*
X407309Y333026D01*
X408586Y331116D01*
X410496Y329839D01*
X412750Y329391D01*
X415004Y329839D01*
X416914Y331116D01*
X418191Y333026D01*
X418639Y335280D01*
X418191Y337534D01*
X416914Y339444D01*
X415469Y340410D01*
Y393229D01*
X415644Y393346D01*
X416921Y395256D01*
X417369Y397510D01*
X416921Y399764D01*
X415644Y401674D01*
X413734Y402951D01*
X411480Y403399D01*
D02*
G37*
G36*
X87919Y509098D02*
X85797Y508819D01*
X83820Y508000D01*
X82122Y506697D01*
X80819Y504999D01*
X80000Y503022D01*
X79721Y500900D01*
X80000Y498778D01*
X80819Y496801D01*
X82122Y495103D01*
X83820Y493801D01*
X84068Y493698D01*
Y459451D01*
X84068Y459451D01*
X84361Y457977D01*
X85196Y456728D01*
X202106Y339818D01*
X201631Y338672D01*
X201352Y336550D01*
X201631Y334428D01*
X202450Y332451D01*
X203753Y330753D01*
X205451Y329450D01*
X207428Y328631D01*
X209550Y328352D01*
X211672Y328631D01*
X213649Y329450D01*
X215347Y330753D01*
X216650Y332451D01*
X217469Y334428D01*
X217748Y336550D01*
X217469Y338672D01*
X216650Y340649D01*
X215347Y342347D01*
X213649Y343650D01*
X211672Y344469D01*
X209550Y344748D01*
X208241Y344576D01*
X91770Y461046D01*
Y493698D01*
X92018Y493801D01*
X93716Y495103D01*
X95019Y496801D01*
X95838Y498778D01*
X96117Y500900D01*
X95838Y503022D01*
X95019Y504999D01*
X93716Y506697D01*
X92018Y508000D01*
X90041Y508819D01*
X87919Y509098D01*
D02*
G37*
G36*
X626110Y324428D02*
X623988Y324149D01*
X622011Y323330D01*
X620313Y322027D01*
X619010Y320329D01*
X618907Y320081D01*
X498693D01*
X498590Y320329D01*
X497287Y322027D01*
X495589Y323330D01*
X493612Y324149D01*
X491490Y324428D01*
X489368Y324149D01*
X487391Y323330D01*
X485693Y322027D01*
X484390Y320329D01*
X483571Y318352D01*
X483292Y316230D01*
X483571Y314108D01*
X484390Y312131D01*
X485693Y310433D01*
X487391Y309130D01*
X489368Y308311D01*
X491490Y308032D01*
X493612Y308311D01*
X495589Y309130D01*
X497287Y310433D01*
X498590Y312131D01*
X498693Y312379D01*
X618907D01*
X619010Y312131D01*
X620313Y310433D01*
X622011Y309130D01*
X623988Y308311D01*
X626110Y308032D01*
X628232Y308311D01*
X630209Y309130D01*
X631907Y310433D01*
X633210Y312131D01*
X634029Y314108D01*
X634308Y316230D01*
X634029Y318352D01*
X633210Y320329D01*
X631907Y322027D01*
X630209Y323330D01*
X628232Y324149D01*
X626110Y324428D01*
D02*
G37*
G36*
X138430Y257118D02*
X136308Y256839D01*
X134331Y256020D01*
X132633Y254717D01*
X132089Y254008D01*
X96520D01*
X94573Y253620D01*
X92922Y252518D01*
X49742Y209338D01*
X48640Y207687D01*
X48252Y205740D01*
Y133350D01*
X48640Y131403D01*
X49105Y130706D01*
X48952Y129540D01*
X49231Y127418D01*
X50050Y125441D01*
X51353Y123743D01*
X53051Y122440D01*
X55028Y121621D01*
X57150Y121342D01*
X59272Y121621D01*
X61249Y122440D01*
X62947Y123743D01*
X64250Y125441D01*
X65069Y127418D01*
X65348Y129540D01*
X65069Y131662D01*
X64250Y133639D01*
X62947Y135337D01*
X61249Y136640D01*
X59272Y137459D01*
X58428Y137570D01*
Y203633D01*
X98627Y243832D01*
X132089D01*
X132633Y243123D01*
X134331Y241820D01*
X136308Y241001D01*
X138430Y240722D01*
X140552Y241001D01*
X142529Y241820D01*
X144227Y243123D01*
X145530Y244821D01*
X146349Y246798D01*
X146628Y248920D01*
X146349Y251042D01*
X145530Y253019D01*
X144227Y254717D01*
X142529Y256020D01*
X140552Y256839D01*
X138430Y257118D01*
D02*
G37*
G36*
X538480Y212668D02*
X536358Y212389D01*
X534381Y211570D01*
X532683Y210267D01*
X531380Y208569D01*
X531277Y208321D01*
X389856D01*
X389337Y208997D01*
X387639Y210300D01*
X385662Y211119D01*
X383540Y211398D01*
X381418Y211119D01*
X379441Y210300D01*
X377743Y208997D01*
X376440Y207299D01*
X375621Y205322D01*
X375342Y203200D01*
X375621Y201078D01*
X376440Y199101D01*
X377743Y197403D01*
X379441Y196100D01*
X381418Y195281D01*
X383540Y195002D01*
X385662Y195281D01*
X387639Y196100D01*
X389337Y197403D01*
X390640Y199101D01*
X391269Y200619D01*
X531277D01*
X531380Y200371D01*
X532683Y198673D01*
X534381Y197370D01*
X536358Y196551D01*
X538480Y196272D01*
X540602Y196551D01*
X542579Y197370D01*
X544277Y198673D01*
X545580Y200371D01*
X546399Y202348D01*
X546678Y204470D01*
X546399Y206592D01*
X545580Y208569D01*
X544277Y210267D01*
X542579Y211570D01*
X540602Y212389D01*
X538480Y212668D01*
D02*
G37*
G36*
X505460Y187268D02*
X503338Y186989D01*
X501361Y186170D01*
X499663Y184867D01*
X498360Y183169D01*
X497541Y181192D01*
X497262Y179070D01*
X497541Y176948D01*
X498360Y174971D01*
X499663Y173273D01*
X501361Y171970D01*
X501609Y171867D01*
Y136215D01*
X497670Y132276D01*
X497422Y132379D01*
X495300Y132658D01*
X493178Y132379D01*
X491201Y131560D01*
X489503Y130257D01*
X488200Y128559D01*
X487381Y126582D01*
X487102Y124460D01*
X487381Y122338D01*
X488200Y120361D01*
X489503Y118663D01*
X491201Y117360D01*
X492358Y116881D01*
X492105Y115611D01*
X483453D01*
X483350Y115859D01*
X482047Y117557D01*
X480349Y118860D01*
X478372Y119679D01*
X476250Y119958D01*
X474128Y119679D01*
X472151Y118860D01*
X470453Y117557D01*
X469150Y115859D01*
X468331Y113882D01*
X468052Y111760D01*
X468331Y109638D01*
X469150Y107661D01*
X470453Y105963D01*
X472151Y104660D01*
X474128Y103841D01*
X476250Y103562D01*
X478372Y103841D01*
X480349Y104660D01*
X482047Y105963D01*
X483350Y107661D01*
X483453Y107909D01*
X510540D01*
X510540Y107909D01*
X512014Y108202D01*
X513263Y109037D01*
X562935Y158709D01*
X571917D01*
X572020Y158461D01*
X573323Y156763D01*
X575021Y155460D01*
X576998Y154641D01*
X579120Y154362D01*
X581242Y154641D01*
X583219Y155460D01*
X584917Y156763D01*
X586220Y158461D01*
X587039Y160438D01*
X587318Y162560D01*
X587039Y164682D01*
X586220Y166659D01*
X584917Y168357D01*
X583219Y169660D01*
X581242Y170479D01*
X579120Y170758D01*
X576998Y170479D01*
X575021Y169660D01*
X573323Y168357D01*
X572020Y166659D01*
X571917Y166411D01*
X561340D01*
X559866Y166118D01*
X558617Y165283D01*
X558617Y165283D01*
X508945Y115611D01*
X498495D01*
X498242Y116881D01*
X499399Y117360D01*
X501097Y118663D01*
X502400Y120361D01*
X503219Y122338D01*
X503498Y124460D01*
X503219Y126582D01*
X503116Y126830D01*
X508183Y131897D01*
X508183Y131897D01*
X509018Y133146D01*
X509311Y134620D01*
Y171867D01*
X509559Y171970D01*
X511257Y173273D01*
X512560Y174971D01*
X513379Y176948D01*
X513658Y179070D01*
X513379Y181192D01*
X512560Y183169D01*
X511257Y184867D01*
X509559Y186170D01*
X507582Y186989D01*
X505460Y187268D01*
D02*
G37*
G36*
X190500Y292678D02*
X188378Y292399D01*
X186401Y291580D01*
X184703Y290277D01*
X183400Y288579D01*
X182581Y286602D01*
X182302Y284480D01*
X182581Y282358D01*
X183400Y280381D01*
X184703Y278683D01*
X186401Y277380D01*
X186649Y277277D01*
Y189555D01*
X140165Y143071D01*
X139917Y143174D01*
X137795Y143453D01*
X135673Y143174D01*
X133696Y142355D01*
X131998Y141052D01*
X130695Y139354D01*
X129876Y137377D01*
X129597Y135255D01*
X129876Y133133D01*
X130695Y131156D01*
X131998Y129458D01*
X133696Y128155D01*
X135673Y127336D01*
X137795Y127057D01*
X139917Y127336D01*
X141894Y128155D01*
X143592Y129458D01*
X144895Y131156D01*
X145714Y133133D01*
X145993Y135255D01*
X145714Y137377D01*
X145611Y137625D01*
X193223Y185237D01*
X193223Y185237D01*
X194058Y186486D01*
X194351Y187960D01*
X194351Y187960D01*
Y277277D01*
X194599Y277380D01*
X196297Y278683D01*
X197600Y280381D01*
X198419Y282358D01*
X198698Y284480D01*
X198419Y286602D01*
X197600Y288579D01*
X196297Y290277D01*
X194599Y291580D01*
X192622Y292399D01*
X190500Y292678D01*
D02*
G37*
G36*
X554990Y130118D02*
X552868Y129839D01*
X550891Y129020D01*
X549193Y127717D01*
X547890Y126019D01*
X547071Y124042D01*
X546792Y121920D01*
X547071Y119798D01*
X547864Y117885D01*
X544810Y114831D01*
X543975Y113582D01*
X543682Y112108D01*
X543682Y112108D01*
Y34381D01*
X542843Y33737D01*
X541540Y32039D01*
X540721Y30062D01*
X540442Y27940D01*
X540721Y25818D01*
X541540Y23841D01*
X542843Y22143D01*
X544541Y20840D01*
X546518Y20021D01*
X548640Y19742D01*
X550762Y20021D01*
X552739Y20840D01*
X554437Y22143D01*
X555740Y23841D01*
X556559Y25818D01*
X556838Y27940D01*
X556559Y30062D01*
X555740Y32039D01*
X554437Y33737D01*
X552739Y35040D01*
X551384Y35601D01*
Y55907D01*
X567810D01*
X568504Y56045D01*
X569092Y56438D01*
X569485Y57026D01*
X569623Y57720D01*
Y73720D01*
X569485Y74414D01*
X569092Y75002D01*
X568504Y75395D01*
X567810Y75533D01*
X551384D01*
Y110513D01*
X554639Y113768D01*
X554990Y113722D01*
X557112Y114001D01*
X559089Y114820D01*
X560787Y116123D01*
X562090Y117821D01*
X562909Y119798D01*
X563188Y121920D01*
X562909Y124042D01*
X562090Y126019D01*
X560787Y127717D01*
X559089Y129020D01*
X557112Y129839D01*
X554990Y130118D01*
D02*
G37*
G36*
X391160Y125038D02*
X389038Y124759D01*
X387061Y123940D01*
X385363Y122637D01*
X384060Y120939D01*
X383241Y118962D01*
X382962Y116840D01*
X383079Y115954D01*
X378893Y111768D01*
X289560D01*
X287613Y111380D01*
X286916Y110915D01*
X285750Y111068D01*
X283628Y110789D01*
X281651Y109970D01*
X279953Y108667D01*
X278650Y106969D01*
X277831Y104992D01*
X277552Y102870D01*
X277831Y100748D01*
X278650Y98771D01*
X279953Y97073D01*
X281651Y95770D01*
X283628Y94951D01*
X285750Y94672D01*
X287872Y94951D01*
X289849Y95770D01*
X291547Y97073D01*
X292850Y98771D01*
X293669Y100748D01*
X293780Y101592D01*
X381000D01*
X382947Y101980D01*
X384598Y103082D01*
X390274Y108759D01*
X391160Y108642D01*
X393282Y108921D01*
X395259Y109740D01*
X396957Y111043D01*
X398260Y112741D01*
X399079Y114718D01*
X399358Y116840D01*
X399079Y118962D01*
X398260Y120939D01*
X396957Y122637D01*
X395259Y123940D01*
X393282Y124759D01*
X391160Y125038D01*
D02*
G37*
G36*
X368300Y69759D02*
Y62230D01*
X375830D01*
X375691Y63281D01*
X374795Y65443D01*
X373370Y67300D01*
X371513Y68725D01*
X369351Y69621D01*
X368300Y69759D01*
D02*
G37*
G36*
X365760D02*
X364709Y69621D01*
X362547Y68725D01*
X360690Y67300D01*
X359265Y65443D01*
X358369Y63281D01*
X358231Y62230D01*
X365760D01*
Y69759D01*
D02*
G37*
G36*
X472310Y75533D02*
X455810D01*
X455116Y75395D01*
X454528Y75002D01*
X454135Y74414D01*
X453997Y73720D01*
Y57720D01*
X454135Y57026D01*
X454528Y56438D01*
X455116Y56045D01*
X455810Y55907D01*
X472310D01*
X473004Y56045D01*
X473592Y56438D01*
X473985Y57026D01*
X474123Y57720D01*
Y73720D01*
X473985Y74414D01*
X473592Y75002D01*
X473004Y75395D01*
X472310Y75533D01*
D02*
G37*
G36*
X405250Y74263D02*
X388750D01*
X388056Y74125D01*
X387468Y73732D01*
X387075Y73144D01*
X386937Y72450D01*
Y56450D01*
X387075Y55756D01*
X387468Y55168D01*
X388056Y54775D01*
X388750Y54637D01*
X405250D01*
X405944Y54775D01*
X406532Y55168D01*
X406925Y55756D01*
X407063Y56450D01*
Y72450D01*
X406925Y73144D01*
X406532Y73732D01*
X405944Y74125D01*
X405250Y74263D01*
D02*
G37*
G36*
X309750D02*
X293250D01*
X292556Y74125D01*
X291968Y73732D01*
X291575Y73144D01*
X291437Y72450D01*
Y56450D01*
X291575Y55756D01*
X291968Y55168D01*
X292556Y54775D01*
X293250Y54637D01*
X309750D01*
X310444Y54775D01*
X311032Y55168D01*
X311425Y55756D01*
X311563Y56450D01*
Y72450D01*
X311425Y73144D01*
X311032Y73732D01*
X310444Y74125D01*
X309750Y74263D01*
D02*
G37*
G36*
X83410Y81380D02*
X56640D01*
Y54610D01*
X83410D01*
Y81380D01*
D02*
G37*
G36*
X54100D02*
X27330D01*
Y54610D01*
X54100D01*
Y81380D01*
D02*
G37*
G36*
X375830Y59690D02*
X368300D01*
Y52161D01*
X369351Y52299D01*
X371513Y53195D01*
X373370Y54620D01*
X374795Y56477D01*
X375691Y58639D01*
X375830Y59690D01*
D02*
G37*
G36*
X365760D02*
X358231D01*
X358369Y58639D01*
X359265Y56477D01*
X360690Y54620D01*
X362547Y53195D01*
X364709Y52299D01*
X365760Y52161D01*
Y59690D01*
D02*
G37*
G36*
X330200Y44359D02*
Y36830D01*
X337729D01*
X337591Y37881D01*
X336695Y40043D01*
X335270Y41900D01*
X333413Y43325D01*
X331251Y44221D01*
X330200Y44359D01*
D02*
G37*
G36*
X327660D02*
X326609Y44221D01*
X324447Y43325D01*
X322590Y41900D01*
X321165Y40043D01*
X320269Y37881D01*
X320131Y36830D01*
X327660D01*
Y44359D01*
D02*
G37*
G36*
X337729Y34290D02*
X330200D01*
Y26760D01*
X331251Y26899D01*
X333413Y27795D01*
X335270Y29220D01*
X336695Y31077D01*
X337591Y33239D01*
X337729Y34290D01*
D02*
G37*
G36*
X327660D02*
X320131D01*
X320269Y33239D01*
X321165Y31077D01*
X322590Y29220D01*
X324447Y27795D01*
X326609Y26899D01*
X327660Y26760D01*
Y34290D01*
D02*
G37*
G36*
X127000Y80702D02*
X122720Y80365D01*
X118545Y79363D01*
X114578Y77720D01*
X110917Y75477D01*
X107652Y72688D01*
X104863Y69423D01*
X102620Y65762D01*
X100977Y61796D01*
X99975Y57621D01*
X99638Y53340D01*
X99975Y49060D01*
X100977Y44885D01*
X102620Y40918D01*
X104863Y37257D01*
X107652Y33992D01*
X110917Y31203D01*
X114578Y28960D01*
X118545Y27317D01*
X122720Y26315D01*
X127000Y25978D01*
X131280Y26315D01*
X135456Y27317D01*
X139422Y28960D01*
X143083Y31203D01*
X146348Y33992D01*
X149137Y37257D01*
X151380Y40918D01*
X153023Y44885D01*
X154025Y49060D01*
X154362Y53340D01*
X154025Y57621D01*
X153023Y61796D01*
X151380Y65762D01*
X149137Y69423D01*
X146348Y72688D01*
X143083Y75477D01*
X139422Y77720D01*
X135456Y79363D01*
X131280Y80365D01*
X127000Y80702D01*
D02*
G37*
G36*
X83410Y52070D02*
X56640D01*
Y25300D01*
X83410D01*
Y52070D01*
D02*
G37*
G36*
X54100D02*
X27330D01*
Y25300D01*
X54100D01*
Y52070D01*
D02*
G37*
G36*
X486410Y70428D02*
X484288Y70149D01*
X482311Y69330D01*
X480613Y68027D01*
X479310Y66329D01*
X478491Y64352D01*
X478212Y62230D01*
X478491Y60108D01*
X479310Y58131D01*
X480613Y56433D01*
X482311Y55130D01*
X483829Y54501D01*
Y19903D01*
X483581Y19800D01*
X481883Y18497D01*
X480580Y16799D01*
X479761Y14822D01*
X479482Y12700D01*
X479761Y10578D01*
X480580Y8601D01*
X481883Y6903D01*
X483581Y5600D01*
X485558Y4781D01*
X487680Y4502D01*
X489802Y4781D01*
X491779Y5600D01*
X493477Y6903D01*
X494780Y8601D01*
X495599Y10578D01*
X495878Y12700D01*
X495599Y14822D01*
X494780Y16799D01*
X493477Y18497D01*
X491779Y19800D01*
X491531Y19903D01*
Y55914D01*
X492207Y56433D01*
X493510Y58131D01*
X494329Y60108D01*
X494608Y62230D01*
X494329Y64352D01*
X493510Y66329D01*
X492207Y68027D01*
X490509Y69330D01*
X488532Y70149D01*
X486410Y70428D01*
D02*
G37*
%LPD*%
D11*
X126365Y52705D02*
X127000Y53340D01*
D88*
X491490Y316230D02*
X626110D01*
X495300Y124460D02*
X505460Y134620D01*
Y179070D01*
X538480Y347980D02*
Y365760D01*
X572454Y399734D01*
X384810Y204470D02*
X538480D01*
X383540Y203200D02*
X384810Y204470D01*
X547533Y29047D02*
Y112108D01*
X554990Y119565D01*
Y121920D01*
X487680Y12700D02*
Y60960D01*
X486410Y62230D02*
X487680Y60960D01*
X561340Y162560D02*
X579120D01*
X510540Y111760D02*
X561340Y162560D01*
X476250Y111760D02*
X510540D01*
X347980Y802640D02*
Y805180D01*
X347856Y805304D02*
X347980Y805180D01*
X455930Y535940D02*
X508000D01*
X417830Y497840D02*
X455930Y535940D01*
X465394Y718246D02*
X508000Y675640D01*
X399476Y718246D02*
X465394D01*
X396522Y715292D02*
X399476Y718246D01*
X443230Y671830D02*
X462280Y652780D01*
X624840D01*
X718820Y654050D02*
X725170Y647700D01*
X665480Y654050D02*
X718820D01*
X643890Y675640D02*
X665480Y654050D01*
X508000Y675640D02*
X643890D01*
X637381Y666750D02*
X669270Y634860D01*
X505460Y666750D02*
X637381D01*
X459740Y712470D02*
X505460Y666750D01*
X415290Y712470D02*
X459740D01*
X514350Y683260D02*
X662940D01*
X462280Y735330D02*
X514350Y683260D01*
X414020Y735330D02*
X462280D01*
X669270Y634860D02*
X671970D01*
X326390Y632460D02*
X619760D01*
X621030Y631190D01*
X405130Y702310D02*
X415290Y712470D01*
X345440Y702310D02*
X405130D01*
X410210Y671830D02*
X443230D01*
X128270Y521970D02*
X242446Y636146D01*
X253876Y805304D02*
X344046D01*
X128270Y520700D02*
Y521970D01*
X574040Y452013D02*
Y537210D01*
X572454Y450427D02*
X574040Y452013D01*
X201930Y466090D02*
Y560324D01*
X201676Y560578D02*
X201930Y560324D01*
X382363Y417830D02*
X487680D01*
X355693Y444500D02*
X382363Y417830D01*
X612140Y495300D02*
X702310D01*
X736893Y444500D02*
Y460717D01*
X702310Y495300D02*
X736893Y460717D01*
X559093Y596900D02*
X597535Y558458D01*
Y501015D02*
Y558458D01*
X457200Y548640D02*
X520700D01*
X533693Y561633D01*
Y596900D01*
X190500Y187960D02*
Y284480D01*
X137795Y135255D02*
X190500Y187960D01*
X170180Y401320D02*
X190500Y381000D01*
X170180Y401320D02*
Y431800D01*
X209550Y336550D02*
Y337820D01*
X87919Y459451D02*
X209550Y337820D01*
X87919Y459451D02*
Y500900D01*
X547533Y29047D02*
X548640Y27940D01*
X687070Y401320D02*
X687070D01*
X676910Y391160D02*
X687070Y401320D01*
X690880Y377190D02*
X699770Y386080D01*
X614680Y377190D02*
X690880D01*
X614774Y410116D02*
X659036D01*
X661670Y412750D01*
X626110Y391160D02*
X676910D01*
X436880Y482600D02*
X549910D01*
X562610Y495300D01*
X457200Y505460D02*
X537210D01*
X547370Y515620D01*
X394970Y516890D02*
X411480Y533400D01*
X361950Y516890D02*
X394970D01*
X13970Y106680D02*
Y316230D01*
X597854Y390684D02*
Y500696D01*
X578327Y371158D02*
X597854Y390684D01*
X578327Y333533D02*
Y371158D01*
X242446Y636146D02*
Y755774D01*
X597535Y501015D02*
X597854Y500696D01*
X578327Y333533D02*
X579120Y332740D01*
X572454Y399734D02*
Y450427D01*
X466090Y311150D02*
Y312420D01*
X504190Y350520D02*
Y351790D01*
X466090Y312420D02*
X504190Y350520D01*
X242446Y793874D02*
X253876Y805304D01*
X242446Y755774D02*
Y793874D01*
X176530Y468630D02*
Y505460D01*
D89*
X53340Y205740D02*
X96520Y248920D01*
X53340Y133350D02*
Y205740D01*
Y133350D02*
X57150Y129540D01*
X96520Y248920D02*
X138430D01*
X381000Y106680D02*
X391160Y116840D01*
X289560Y106680D02*
X381000D01*
X285750Y102870D02*
X289560Y106680D01*
X334010Y189230D02*
Y309880D01*
X114935Y614680D02*
X115570D01*
X47625Y547370D02*
X114935Y614680D01*
X46990Y547370D02*
X47625D01*
D90*
X315888Y408305D02*
X365125D01*
X279693Y444500D02*
X315888Y408305D01*
X254293Y444500D02*
X300328Y398465D01*
X330200Y501650D02*
Y596608D01*
X330493Y596900D01*
X178669Y320167D02*
X346837D01*
X174732Y316230D02*
X178669Y320167D01*
X13970Y316230D02*
X174732D01*
X365125Y408305D02*
X365760Y407670D01*
X379014Y398465D02*
X379214Y398264D01*
X300328Y398465D02*
X379014D01*
X341630Y325374D02*
Y361950D01*
Y325374D02*
X346837Y320167D01*
X411607D02*
X429260Y337820D01*
X346837Y320167D02*
X411607D01*
X412750Y335280D02*
Y396240D01*
X411480Y397510D02*
X412750Y396240D01*
X330200Y501650D02*
X368300Y463550D01*
D92*
X203200Y727710D02*
D03*
Y803910D02*
D03*
D93*
Y753110D02*
D03*
Y778510D02*
D03*
X177800D02*
D03*
Y753110D02*
D03*
Y727710D02*
D03*
Y803910D02*
D03*
D94*
X127000Y53340D02*
D03*
D95*
X55370D02*
D03*
D96*
X482893Y444500D02*
D03*
X457493D02*
D03*
X432093D02*
D03*
X381293D02*
D03*
X406693D02*
D03*
X355693D02*
D03*
X330493D02*
D03*
X305093D02*
D03*
X279693D02*
D03*
X254293D02*
D03*
Y596900D02*
D03*
X279693D02*
D03*
X305093D02*
D03*
X330493D02*
D03*
X355693D02*
D03*
X406693D02*
D03*
X381293D02*
D03*
X432093D02*
D03*
X457493D02*
D03*
X482893D02*
D03*
X508293Y444500D02*
D03*
X533693D02*
D03*
X559093D02*
D03*
X584493D02*
D03*
X609893D02*
D03*
X660693D02*
D03*
X635293D02*
D03*
X686093D02*
D03*
X711493D02*
D03*
X736893D02*
D03*
Y596900D02*
D03*
X711493D02*
D03*
X686093D02*
D03*
X635293D02*
D03*
X660693D02*
D03*
X609693D02*
D03*
X584493D02*
D03*
X559093D02*
D03*
X533693D02*
D03*
X508293D02*
D03*
D97*
X491490Y316230D02*
D03*
X505460Y179070D02*
D03*
X538480Y347980D02*
D03*
Y204470D02*
D03*
X554990Y121920D02*
D03*
X487680Y12700D02*
D03*
X476250Y111760D02*
D03*
X495300Y124460D02*
D03*
X383540Y203200D02*
D03*
X328930Y35560D02*
D03*
X347980Y802640D02*
D03*
X508000Y535940D02*
D03*
X624840Y652780D02*
D03*
X662940Y683260D02*
D03*
X725170Y647700D02*
D03*
X671970Y634860D02*
D03*
X326390Y632460D02*
D03*
X621030Y631190D02*
D03*
X396522Y715292D02*
D03*
X345440Y702310D02*
D03*
X410210Y671830D02*
D03*
X414020Y735330D02*
D03*
X574040Y537210D02*
D03*
X201676Y560578D02*
D03*
X548640Y27940D02*
D03*
X486410Y62230D02*
D03*
X457200Y548640D02*
D03*
X137795Y135255D02*
D03*
X190500Y284480D02*
D03*
Y381000D02*
D03*
X170180Y431800D02*
D03*
X209550Y336550D02*
D03*
X138430Y248920D02*
D03*
X57150Y129540D02*
D03*
X391160Y116840D02*
D03*
X285750Y102870D02*
D03*
X334010Y189230D02*
D03*
X332740Y311150D02*
D03*
X669290Y339090D02*
D03*
X115570Y614680D02*
D03*
X46990Y547370D02*
D03*
X626110Y316230D02*
D03*
X87919Y500900D02*
D03*
X85090Y533400D02*
D03*
X367030Y60960D02*
D03*
X687070Y401320D02*
D03*
X699770Y386080D02*
D03*
X614774Y410116D02*
D03*
X626110Y391160D02*
D03*
X614680Y377190D02*
D03*
X436880Y482600D02*
D03*
X457200Y505460D02*
D03*
X411480Y533400D02*
D03*
X361950Y516890D02*
D03*
X13970Y106680D02*
D03*
X661670Y412750D02*
D03*
X128270Y520700D02*
D03*
X612140Y495300D02*
D03*
X579120Y332740D02*
D03*
Y162560D02*
D03*
X466090Y311150D02*
D03*
X504190Y351790D02*
D03*
X562610Y495300D02*
D03*
X487680Y417830D02*
D03*
X13970Y316230D02*
D03*
X242446Y755774D02*
D03*
X201930Y466090D02*
D03*
X176530Y468630D02*
D03*
Y505460D02*
D03*
X417830Y497840D02*
D03*
X547370Y515620D02*
D03*
D98*
X379214Y398264D02*
D03*
X365760Y407670D02*
D03*
X412750Y335280D02*
D03*
X411480Y397510D02*
D03*
X341630Y361950D02*
D03*
X429260Y337820D02*
D03*
X368300Y463550D02*
D03*
M02*
