G04*
G04 #@! TF.GenerationSoftware,Altium Limited,Altium Designer,19.1.5 (86)*
G04*
G04 Layer_Color=128*
%FSLAX44Y44*%
%MOMM*%
G71*
G01*
G75*
%ADD101C,0.0508*%
D101*
X199200Y727710D02*
X207201D01*
X203200Y723710D02*
Y731711D01*
X199200Y803910D02*
X207201D01*
X203200Y799910D02*
Y807911D01*
X199200Y753110D02*
X207201D01*
X203200Y749110D02*
Y757111D01*
X199200Y778510D02*
X207201D01*
X203200Y774510D02*
Y782511D01*
X173800Y778510D02*
X181801D01*
X177800Y774510D02*
Y782511D01*
X173800Y753110D02*
X181801D01*
X177800Y749110D02*
Y757111D01*
X173800Y727710D02*
X181801D01*
X177800Y723710D02*
Y731711D01*
X173800Y803910D02*
X181801D01*
X177800Y799910D02*
Y807911D01*
X110000Y53340D02*
X144000D01*
X127000Y36340D02*
Y70340D01*
X38370Y53340D02*
X72370D01*
X55370Y36340D02*
Y70340D01*
X478393Y444500D02*
X487393D01*
X482893Y440000D02*
Y449000D01*
X452993Y444500D02*
X461993D01*
X457493Y440000D02*
Y449000D01*
X427593Y444500D02*
X436593D01*
X432093Y440000D02*
Y449000D01*
X376793Y444500D02*
X385793D01*
X381293Y440000D02*
Y449000D01*
X402193Y444500D02*
X411193D01*
X406693Y440000D02*
Y449000D01*
X351193Y444500D02*
X360193D01*
X355693Y440000D02*
Y449000D01*
X325993Y444500D02*
X334993D01*
X330493Y440000D02*
Y449000D01*
X300593Y444500D02*
X309593D01*
X305093Y440000D02*
Y449000D01*
X275193Y444500D02*
X284193D01*
X279693Y440000D02*
Y449000D01*
X249793Y444500D02*
X258793D01*
X254293Y440000D02*
Y449000D01*
X249793Y596900D02*
X258793D01*
X254293Y592400D02*
Y601400D01*
X275193Y596900D02*
X284193D01*
X279693Y592400D02*
Y601400D01*
X300593Y596900D02*
X309593D01*
X305093Y592400D02*
Y601400D01*
X325993Y596900D02*
X334993D01*
X330493Y592400D02*
Y601400D01*
X351193Y596900D02*
X360193D01*
X355693Y592400D02*
Y601400D01*
X402193Y596900D02*
X411193D01*
X406693Y592400D02*
Y601400D01*
X376793Y596900D02*
X385793D01*
X381293Y592400D02*
Y601400D01*
X427593Y596900D02*
X436593D01*
X432093Y592400D02*
Y601400D01*
X452993Y596900D02*
X461993D01*
X457493Y592400D02*
Y601400D01*
X478393Y596900D02*
X487393D01*
X482893Y592400D02*
Y601400D01*
X503793Y444500D02*
X512793D01*
X508293Y440000D02*
Y449000D01*
X529193Y444500D02*
X538193D01*
X533693Y440000D02*
Y449000D01*
X554593Y444500D02*
X563593D01*
X559093Y440000D02*
Y449000D01*
X579993Y444500D02*
X588993D01*
X584493Y440000D02*
Y449000D01*
X605393Y444500D02*
X614393D01*
X609893Y440000D02*
Y449000D01*
X656193Y444500D02*
X665193D01*
X660693Y440000D02*
Y449000D01*
X630793Y444500D02*
X639793D01*
X635293Y440000D02*
Y449000D01*
X681593Y444500D02*
X690593D01*
X686093Y440000D02*
Y449000D01*
X706993Y444500D02*
X715993D01*
X711493Y440000D02*
Y449000D01*
X732393Y444500D02*
X741393D01*
X736893Y440000D02*
Y449000D01*
X732393Y596900D02*
X741393D01*
X736893Y592400D02*
Y601400D01*
X706993Y596900D02*
X715993D01*
X711493Y592400D02*
Y601400D01*
X681593Y596900D02*
X690593D01*
X686093Y592400D02*
Y601400D01*
X630793Y596900D02*
X639793D01*
X635293Y592400D02*
Y601400D01*
X656193Y596900D02*
X665193D01*
X660693Y592400D02*
Y601400D01*
X605193Y596900D02*
X614193D01*
X609693Y592400D02*
Y601400D01*
X579993Y596900D02*
X588993D01*
X584493Y592400D02*
Y601400D01*
X554593Y596900D02*
X563593D01*
X559093Y592400D02*
Y601400D01*
X529193Y596900D02*
X538193D01*
X533693Y592400D02*
Y601400D01*
X503793Y596900D02*
X512793D01*
X508293Y592400D02*
Y601400D01*
X488278Y316230D02*
X494702D01*
X491490Y313018D02*
Y319442D01*
X502248Y179070D02*
X508672D01*
X505460Y175858D02*
Y182282D01*
X535268Y347980D02*
X541692D01*
X538480Y344768D02*
Y351192D01*
X535268Y204470D02*
X541692D01*
X538480Y201258D02*
Y207682D01*
X551778Y121920D02*
X558202D01*
X554990Y118708D02*
Y125132D01*
X484468Y12700D02*
X490892D01*
X487680Y9488D02*
Y15912D01*
X473038Y111760D02*
X479462D01*
X476250Y108548D02*
Y114972D01*
X492088Y124460D02*
X498512D01*
X495300Y121248D02*
Y127672D01*
X380328Y203200D02*
X386752D01*
X383540Y199988D02*
Y206412D01*
X325374Y35560D02*
X332486D01*
X328930Y32004D02*
Y39116D01*
X344768Y802640D02*
X351192D01*
X347980Y799428D02*
Y805852D01*
X504444Y535940D02*
X511556D01*
X508000Y532384D02*
Y539496D01*
X621628Y652780D02*
X628052D01*
X624840Y649568D02*
Y655992D01*
X659728Y683260D02*
X666152D01*
X662940Y680048D02*
Y686472D01*
X721958Y647700D02*
X728382D01*
X725170Y644488D02*
Y650912D01*
X668758Y634860D02*
X675182D01*
X671970Y631648D02*
Y638072D01*
X323178Y632460D02*
X329602D01*
X326390Y629248D02*
Y635672D01*
X617818Y631190D02*
X624242D01*
X621030Y627978D02*
Y634402D01*
X393310Y715292D02*
X399734D01*
X396522Y712080D02*
Y718504D01*
X342228Y702310D02*
X348652D01*
X345440Y699098D02*
Y705522D01*
X406998Y671830D02*
X413422D01*
X410210Y668618D02*
Y675042D01*
X410808Y735330D02*
X417232D01*
X414020Y732118D02*
Y738542D01*
X570828Y537210D02*
X577252D01*
X574040Y533998D02*
Y540422D01*
X198464Y560578D02*
X204888D01*
X201676Y557366D02*
Y563790D01*
X545428Y27940D02*
X551852D01*
X548640Y24728D02*
Y31152D01*
X483198Y62230D02*
X489622D01*
X486410Y59018D02*
Y65442D01*
X453644Y548640D02*
X460756D01*
X457200Y545084D02*
Y552196D01*
X134583Y135255D02*
X141007D01*
X137795Y132043D02*
Y138467D01*
X187288Y284480D02*
X193712D01*
X190500Y281268D02*
Y287692D01*
X187288Y381000D02*
X193712D01*
X190500Y377788D02*
Y384212D01*
X166968Y431800D02*
X173392D01*
X170180Y428588D02*
Y435012D01*
X206338Y336550D02*
X212762D01*
X209550Y333338D02*
Y339762D01*
X135218Y248920D02*
X141642D01*
X138430Y245708D02*
Y252132D01*
X53938Y129540D02*
X60362D01*
X57150Y126328D02*
Y132752D01*
X387604Y116840D02*
X394716D01*
X391160Y113284D02*
Y120396D01*
X282538Y102870D02*
X288962D01*
X285750Y99658D02*
Y106082D01*
X330798Y189230D02*
X337222D01*
X334010Y186018D02*
Y192442D01*
X377215Y398264D02*
X381213D01*
X379214Y396265D02*
Y400263D01*
X363761Y407670D02*
X367759D01*
X365760Y405671D02*
Y409669D01*
X329528Y311150D02*
X335952D01*
X332740Y307938D02*
Y314362D01*
X665734Y339090D02*
X672846D01*
X669290Y335534D02*
Y342646D01*
X112358Y614680D02*
X118782D01*
X115570Y611468D02*
Y617892D01*
X43778Y547370D02*
X50202D01*
X46990Y544158D02*
Y550582D01*
X622898Y316230D02*
X629322D01*
X626110Y313018D02*
Y319442D01*
X84707Y500900D02*
X91131D01*
X87919Y497688D02*
Y504112D01*
X410878Y335280D02*
X414622D01*
X412750Y333408D02*
Y337152D01*
X409481Y397510D02*
X413479D01*
X411480Y395511D02*
Y399509D01*
X81534Y533400D02*
X88646D01*
X85090Y529844D02*
Y536956D01*
X363474Y60960D02*
X370586D01*
X367030Y57404D02*
Y64516D01*
X683858Y401320D02*
X690282D01*
X687070Y398108D02*
Y404532D01*
X696558Y386080D02*
X702982D01*
X699770Y382868D02*
Y389292D01*
X611562Y410116D02*
X617986D01*
X614774Y406904D02*
Y413328D01*
X622898Y391160D02*
X629322D01*
X626110Y387948D02*
Y394372D01*
X611468Y377190D02*
X617892D01*
X614680Y373978D02*
Y380402D01*
X339631Y361950D02*
X343629D01*
X341630Y359951D02*
Y363949D01*
X427261Y337820D02*
X431259D01*
X429260Y335821D02*
Y339819D01*
X433324Y482600D02*
X440436D01*
X436880Y479044D02*
Y486156D01*
X453644Y505460D02*
X460756D01*
X457200Y501904D02*
Y509016D01*
X407924Y533400D02*
X415036D01*
X411480Y529844D02*
Y536956D01*
X358394Y516890D02*
X365506D01*
X361950Y513334D02*
Y520446D01*
X366301Y463550D02*
X370299D01*
X368300Y461551D02*
Y465549D01*
X10758Y106680D02*
X17182D01*
X13970Y103468D02*
Y109892D01*
X658458Y412750D02*
X664882D01*
X661670Y409538D02*
Y415962D01*
X125058Y520700D02*
X131482D01*
X128270Y517488D02*
Y523912D01*
X608928Y495300D02*
X615352D01*
X612140Y492088D02*
Y498512D01*
X575908Y332740D02*
X582332D01*
X579120Y329528D02*
Y335952D01*
X575908Y162560D02*
X582332D01*
X579120Y159348D02*
Y165772D01*
X462878Y311150D02*
X469302D01*
X466090Y307938D02*
Y314362D01*
X500978Y351790D02*
X507402D01*
X504190Y348578D02*
Y355002D01*
X559398Y495300D02*
X565822D01*
X562610Y492088D02*
Y498512D01*
X484468Y417830D02*
X490892D01*
X487680Y414618D02*
Y421042D01*
X10758Y316230D02*
X17182D01*
X13970Y313018D02*
Y319442D01*
X239234Y755774D02*
X245658D01*
X242446Y752562D02*
Y758986D01*
X198718Y466090D02*
X205142D01*
X201930Y462878D02*
Y469302D01*
X172974Y468630D02*
X180086D01*
X176530Y465074D02*
Y472186D01*
X172974Y505460D02*
X180086D01*
X176530Y501904D02*
Y509016D01*
X414274Y497840D02*
X421386D01*
X417830Y494284D02*
Y501396D01*
X543814Y515620D02*
X550926D01*
X547370Y512064D02*
Y519176D01*
M02*
