G04*
G04 #@! TF.GenerationSoftware,Altium Limited,Altium Designer,19.1.5 (86)*
G04*
G04 Layer_Color=32768*
%FSLAX44Y44*%
%MOMM*%
G71*
G01*
G75*
%ADD11C,0.2540*%
%ADD15C,0.1270*%
%ADD16C,0.1000*%
%ADD99C,0.0500*%
D11*
X607070Y363807D02*
X742070D01*
Y326807D02*
Y363807D01*
X607070Y326807D02*
X742070D01*
X607070D02*
Y363807D01*
X70950Y575310D02*
X107950D01*
X70950Y440310D02*
Y575310D01*
Y440310D02*
X107950D01*
Y575310D01*
D15*
X145820Y393930D02*
X275820D01*
Y263930D02*
Y393930D01*
X145820Y263930D02*
X275820D01*
X145820D02*
Y393930D01*
D16*
X327536Y766014D02*
Y776014D01*
X322536Y771014D02*
X332536D01*
X250190Y29140D02*
Y38140D01*
X245690Y33640D02*
X254690D01*
X17090Y401320D02*
X26090D01*
X21590Y396820D02*
Y405820D01*
X20320Y378250D02*
Y383750D01*
X17570Y381000D02*
X23070D01*
X338966Y701244D02*
Y711244D01*
X333966Y706244D02*
X343966D01*
X254936Y734184D02*
X260436D01*
X257686Y731434D02*
Y736934D01*
X474770Y140970D02*
X480270D01*
X477520Y138220D02*
Y143720D01*
X458470Y136470D02*
Y145470D01*
X453970Y140970D02*
X462970D01*
X425450Y136470D02*
Y145470D01*
X420950Y140970D02*
X429950D01*
X403650Y139700D02*
X409150D01*
X406400Y136950D02*
Y142450D01*
X355600Y136470D02*
Y145470D01*
X351100Y140970D02*
X360100D01*
X333800Y141830D02*
X339300D01*
X336550Y139080D02*
Y144580D01*
X274320Y205780D02*
Y210780D01*
X271820Y208280D02*
X276820D01*
X250190Y66080D02*
Y71080D01*
X247690Y68580D02*
X252690D01*
X218440Y66080D02*
Y71080D01*
X215940Y68580D02*
X220940D01*
X218440Y29290D02*
Y39290D01*
X213440Y34290D02*
X223440D01*
X198200Y248920D02*
X208200D01*
X203200Y243920D02*
Y253920D01*
X312420Y136840D02*
Y145840D01*
X307920Y141340D02*
X316920D01*
X96520Y318560D02*
Y324060D01*
X93770Y321310D02*
X99270D01*
X63580Y225350D02*
X73580D01*
X68580Y220350D02*
Y230350D01*
X511810Y72470D02*
Y82470D01*
X506810Y77470D02*
X516810D01*
X349250Y71200D02*
Y81200D01*
X344250Y76200D02*
X354250D01*
X203280Y170830D02*
X213280D01*
X208280Y165830D02*
Y175830D01*
X127580Y330200D02*
X136580D01*
X132080Y325700D02*
Y334700D01*
X312560Y353060D02*
X318060D01*
X315310Y350310D02*
Y355810D01*
X421640Y363010D02*
Y368510D01*
X418890Y365760D02*
X424390D01*
X287740Y303780D02*
X377740D01*
Y160980D02*
Y303780D01*
X287740Y160980D02*
X377740D01*
X287740D02*
Y303780D01*
X293370Y138220D02*
Y143720D01*
X290620Y140970D02*
X296120D01*
X381000Y363300D02*
Y373300D01*
X376000Y368300D02*
X386000D01*
X482949Y685989D02*
X492949D01*
X487949Y680989D02*
Y690989D01*
X394420Y304080D02*
X484420D01*
Y161280D02*
Y304080D01*
X394420Y161280D02*
X484420D01*
X394420D02*
Y304080D01*
D99*
X249536Y748764D02*
Y840764D01*
X405536Y748764D02*
Y840764D01*
X249536D02*
X405536D01*
X249536Y748764D02*
X405536D01*
X337400Y377460D02*
Y395660D01*
X346600D01*
Y377460D02*
Y395660D01*
X337400Y377460D02*
X346600D01*
X243190Y46640D02*
X257190D01*
X243190Y20640D02*
X257190D01*
Y46640D01*
X243190Y20640D02*
Y46640D01*
X38590Y390820D02*
Y411820D01*
X4590Y390820D02*
Y411820D01*
Y390820D02*
X38590D01*
X4590Y411820D02*
X38590D01*
X9320Y387000D02*
X31320D01*
X9320Y375000D02*
X31320D01*
X9320D02*
Y387000D01*
X31320Y375000D02*
Y387000D01*
X455720Y571500D02*
X461220D01*
X458470Y568750D02*
Y574250D01*
X462470Y563500D02*
Y579500D01*
X454470Y563500D02*
Y579500D01*
X462470D01*
X454470Y563500D02*
X462470D01*
X429050Y571500D02*
X434550D01*
X431800Y568750D02*
Y574250D01*
X435800Y563500D02*
Y579500D01*
X427800Y563500D02*
Y579500D01*
X435800D01*
X427800Y563500D02*
X435800D01*
X404920Y571500D02*
X410420D01*
X407670Y568750D02*
Y574250D01*
X411670Y563500D02*
Y579500D01*
X403670Y563500D02*
Y579500D01*
X411670D01*
X403670Y563500D02*
X411670D01*
X378250Y571500D02*
X383750D01*
X381000Y568750D02*
Y574250D01*
X385000Y563500D02*
Y579500D01*
X377000Y563500D02*
Y579500D01*
X385000D01*
X377000Y563500D02*
X385000D01*
X352850Y571500D02*
X358350D01*
X355600Y568750D02*
Y574250D01*
X359600Y563500D02*
Y579500D01*
X351600Y563500D02*
Y579500D01*
X359600D01*
X351600Y563500D02*
X359600D01*
X287966Y672744D02*
X389966D01*
X287966Y739744D02*
X389966D01*
X287966Y672744D02*
Y739744D01*
X389966Y672744D02*
Y739744D01*
X246686Y728184D02*
Y740184D01*
X268686Y728184D02*
Y740184D01*
X246686D02*
X268686D01*
X246686Y728184D02*
X268686D01*
X483520Y129970D02*
Y151970D01*
X471520Y129970D02*
Y151970D01*
X483520D01*
X471520Y129970D02*
X483520D01*
X447970Y123970D02*
X468970D01*
X447970Y157970D02*
X468970D01*
X447970Y123970D02*
Y157970D01*
X468970Y123970D02*
Y157970D01*
X414950Y123970D02*
X435950D01*
X414950Y157970D02*
X435950D01*
X414950Y123970D02*
Y157970D01*
X435950Y123970D02*
Y157970D01*
X412400Y128700D02*
Y150700D01*
X400400Y128700D02*
Y150700D01*
X412400D01*
X400400Y128700D02*
X412400D01*
X345100Y123970D02*
X366100D01*
X345100Y157970D02*
X366100D01*
X345100Y123970D02*
Y157970D01*
X366100Y123970D02*
Y157970D01*
X342550Y130830D02*
Y152830D01*
X330550Y130830D02*
Y152830D01*
X342550D01*
X330550Y130830D02*
X342550D01*
X269320Y197030D02*
Y219530D01*
Y197030D02*
X279320D01*
Y219530D01*
X269320D02*
X279320D01*
X15740Y134470D02*
X40140D01*
Y122070D02*
Y134470D01*
X15740Y122070D02*
X40140D01*
X15740D02*
Y134470D01*
X245190Y57330D02*
Y79830D01*
X255190D01*
Y57330D02*
Y79830D01*
X245190Y57330D02*
X255190D01*
X213440D02*
Y79830D01*
X223440D01*
Y57330D02*
Y79830D01*
X213440Y57330D02*
X223440D01*
X208940Y51790D02*
X227940D01*
X208940Y16790D02*
X227940D01*
Y51790D01*
X208940Y16790D02*
Y51790D01*
X181300Y257920D02*
X225100D01*
Y239920D02*
Y257920D01*
X181300Y239920D02*
Y257920D01*
Y239920D02*
X225100D01*
X301920Y124340D02*
X322920D01*
X301920Y158340D02*
X322920D01*
X301920Y124340D02*
Y158340D01*
X322920Y124340D02*
Y158340D01*
X156210Y448100D02*
Y453600D01*
X153460Y450850D02*
X158960D01*
X146710Y455850D02*
X165710D01*
X146710Y445850D02*
X165710D01*
X146710D02*
Y455850D01*
X165710Y445850D02*
Y455850D01*
X44010Y332400D02*
Y416900D01*
X116010D01*
Y332400D02*
Y416900D01*
X44010Y332400D02*
X116010D01*
X85520Y315310D02*
X107520D01*
X85520Y327310D02*
X107520D01*
Y315310D02*
Y327310D01*
X85520Y315310D02*
Y327310D01*
X126080Y142350D02*
Y308350D01*
X11080Y142350D02*
Y308350D01*
X126080D01*
X11080Y142350D02*
X126080D01*
X134410Y113030D02*
X139910D01*
X137160Y110280D02*
Y115780D01*
X142160Y103530D02*
Y122530D01*
X132160Y103530D02*
Y122530D01*
X142160D01*
X132160Y103530D02*
X142160D01*
X589810Y7720D02*
Y99720D01*
X433810Y7720D02*
Y99720D01*
Y7720D02*
X589810D01*
X433810Y99720D02*
X589810D01*
X427250Y6450D02*
Y98450D01*
X271250Y6450D02*
Y98450D01*
Y6450D02*
X427250D01*
X271250Y98450D02*
X427250D01*
X153280Y107830D02*
Y233830D01*
X263280Y107830D02*
Y233830D01*
X153280Y107830D02*
X263280D01*
X153280Y233830D02*
X263280D01*
X17050Y10200D02*
Y96480D01*
Y10200D02*
X179400D01*
Y96480D01*
X17050D02*
X179400D01*
X142580Y313200D02*
Y347200D01*
X121580Y313200D02*
Y347200D01*
X142580D01*
X121580Y313200D02*
X142580D01*
X304310Y347060D02*
Y359060D01*
X326310Y347060D02*
Y359060D01*
X304310D02*
X326310D01*
X304310Y347060D02*
X326310D01*
X415640Y376760D02*
X427640D01*
X415640Y354760D02*
X427640D01*
Y376760D01*
X415640Y354760D02*
Y376760D01*
X350693Y615340D02*
X360693D01*
X350693Y634340D02*
X360693D01*
X350693Y615340D02*
Y634340D01*
X360693Y615340D02*
Y634340D01*
X355693Y622090D02*
Y627590D01*
X352943Y624840D02*
X358443D01*
X287370Y129970D02*
X299370D01*
X287370Y151970D02*
X299370D01*
X287370Y129970D02*
Y151970D01*
X299370Y129970D02*
Y151970D01*
X361180Y348480D02*
X400820D01*
X361180Y388120D02*
X400820D01*
Y348480D02*
Y388120D01*
X361180Y348480D02*
Y388120D01*
X142050Y543180D02*
X150050D01*
X142050Y559180D02*
X150050D01*
X142050Y543180D02*
Y559180D01*
X150050Y543180D02*
Y559180D01*
X146050Y548430D02*
Y553930D01*
X143300Y551180D02*
X148800D01*
X143320Y493140D02*
X151320D01*
X143320Y477140D02*
X151320D01*
Y493140D01*
X143320Y477140D02*
Y493140D01*
X147320Y482390D02*
Y487890D01*
X144570Y485140D02*
X150070D01*
X143320Y503810D02*
X151320D01*
X143320Y519810D02*
X151320D01*
X143320Y503810D02*
Y519810D01*
X151320Y503810D02*
Y519810D01*
X147320Y509060D02*
Y514560D01*
X144570Y511810D02*
X150070D01*
X409949Y663739D02*
X565949D01*
X409949Y755739D02*
X565949D01*
Y663739D02*
Y755739D01*
X409949Y663739D02*
Y755739D01*
X376293Y615340D02*
X386293D01*
X376293Y634340D02*
X386293D01*
X376293Y615340D02*
Y634340D01*
X386293Y615340D02*
Y634340D01*
X381293Y622090D02*
Y627590D01*
X378543Y624840D02*
X384043D01*
X401693Y615340D02*
X411693D01*
X401693Y634340D02*
X411693D01*
X401693Y615340D02*
Y634340D01*
X411693Y615340D02*
Y634340D01*
X406693Y622090D02*
Y627590D01*
X403943Y624840D02*
X409443D01*
X427093Y615340D02*
X437093D01*
X427093Y634340D02*
X437093D01*
X427093Y615340D02*
Y634340D01*
X437093Y615340D02*
Y634340D01*
X432093Y622090D02*
Y627590D01*
X429343Y624840D02*
X434843D01*
X452493Y615340D02*
X462493D01*
X452493Y634340D02*
X462493D01*
X452493Y615340D02*
Y634340D01*
X462493Y615340D02*
Y634340D01*
X457493Y622090D02*
Y627590D01*
X454743Y624840D02*
X460243D01*
X197540Y409020D02*
Y419020D01*
X178540Y409020D02*
Y419020D01*
Y409020D02*
X197540D01*
X178540Y419020D02*
X197540D01*
X185290Y414020D02*
X190790D01*
X188040Y411270D02*
Y416770D01*
X155630Y426800D02*
Y436800D01*
X136630Y426800D02*
Y436800D01*
Y426800D02*
X155630D01*
X136630Y436800D02*
X155630D01*
X143380Y431800D02*
X148880D01*
X146130Y429050D02*
Y434550D01*
X269320Y229260D02*
X279320D01*
X269320Y248260D02*
X279320D01*
X269320Y229260D02*
Y248260D01*
X279320Y229260D02*
Y248260D01*
X274320Y236010D02*
Y241510D01*
X271570Y238760D02*
X277070D01*
M02*
