G04*
G04 #@! TF.GenerationSoftware,Altium Limited,Altium Designer,18.1.11 (251)*
G04*
G04 Layer_Color=8388736*
%FSLAX44Y44*%
%MOMM*%
G71*
G01*
G75*
%ADD21R,2.1032X0.8032*%
%ADD22R,3.0032X2.3032*%
%ADD23R,1.5532X1.7532*%
%ADD24O,0.8032X1.8032*%
%ADD25R,1.0032X0.8032*%
G04:AMPARAMS|DCode=26|XSize=1.2032mm|YSize=1.1032mm|CornerRadius=0.2141mm|HoleSize=0mm|Usage=FLASHONLY|Rotation=90.000|XOffset=0mm|YOffset=0mm|HoleType=Round|Shape=RoundedRectangle|*
%AMROUNDEDRECTD26*
21,1,1.2032,0.6750,0,0,90.0*
21,1,0.7750,1.1032,0,0,90.0*
1,1,0.4282,0.3375,0.3875*
1,1,0.4282,0.3375,-0.3875*
1,1,0.4282,-0.3375,-0.3875*
1,1,0.4282,-0.3375,0.3875*
%
%ADD26ROUNDEDRECTD26*%
G04:AMPARAMS|DCode=27|XSize=1.2032mm|YSize=1.1032mm|CornerRadius=0.2141mm|HoleSize=0mm|Usage=FLASHONLY|Rotation=0.000|XOffset=0mm|YOffset=0mm|HoleType=Round|Shape=RoundedRectangle|*
%AMROUNDEDRECTD27*
21,1,1.2032,0.6750,0,0,0.0*
21,1,0.7750,1.1032,0,0,0.0*
1,1,0.4282,0.3875,-0.3375*
1,1,0.4282,-0.3875,-0.3375*
1,1,0.4282,-0.3875,0.3375*
1,1,0.4282,0.3875,0.3375*
%
%ADD27ROUNDEDRECTD27*%
%ADD28R,1.0532X1.0532*%
%ADD29R,1.7532X1.5532*%
%ADD30R,1.2032X1.0032*%
%ADD31R,0.8032X1.0032*%
%ADD32R,2.6532X2.7532*%
G04:AMPARAMS|DCode=33|XSize=0.8032mm|YSize=1.2032mm|CornerRadius=0.1766mm|HoleSize=0mm|Usage=FLASHONLY|Rotation=270.000|XOffset=0mm|YOffset=0mm|HoleType=Round|Shape=RoundedRectangle|*
%AMROUNDEDRECTD33*
21,1,0.8032,0.8500,0,0,270.0*
21,1,0.4500,1.2032,0,0,270.0*
1,1,0.3532,-0.4250,-0.2250*
1,1,0.3532,-0.4250,0.2250*
1,1,0.3532,0.4250,0.2250*
1,1,0.3532,0.4250,-0.2250*
%
%ADD33ROUNDEDRECTD33*%
G04:AMPARAMS|DCode=34|XSize=4.2032mm|YSize=1.8032mm|CornerRadius=0.3016mm|HoleSize=0mm|Usage=FLASHONLY|Rotation=90.000|XOffset=0mm|YOffset=0mm|HoleType=Round|Shape=RoundedRectangle|*
%AMROUNDEDRECTD34*
21,1,4.2032,1.2000,0,0,90.0*
21,1,3.6000,1.8032,0,0,90.0*
1,1,0.6032,0.6000,1.8000*
1,1,0.6032,0.6000,-1.8000*
1,1,0.6032,-0.6000,-1.8000*
1,1,0.6032,-0.6000,1.8000*
%
%ADD34ROUNDEDRECTD34*%
%ADD35C,5.2032*%
D21*
X70170Y226620D02*
D03*
Y236620D02*
D03*
Y246620D02*
D03*
Y256620D02*
D03*
Y266620D02*
D03*
Y276620D02*
D03*
Y286620D02*
D03*
Y296620D02*
D03*
D22*
X46670Y195120D02*
D03*
Y328120D02*
D03*
D23*
X303280Y215880D02*
D03*
X323280D02*
D03*
X161250Y161270D02*
D03*
X141250D02*
D03*
D24*
X251300Y306380D02*
D03*
X238600D02*
D03*
X225900D02*
D03*
X213200D02*
D03*
X251300Y252380D02*
D03*
X238600D02*
D03*
X225900D02*
D03*
X213200D02*
D03*
X213230Y70770D02*
D03*
X225930D02*
D03*
X238630D02*
D03*
X251330D02*
D03*
X213230Y124770D02*
D03*
X225930D02*
D03*
X238630D02*
D03*
X251330D02*
D03*
D25*
X88900Y259450D02*
D03*
Y273950D02*
D03*
X20323Y93092D02*
D03*
Y107592D02*
D03*
D26*
X106290Y289560D02*
D03*
X89290D02*
D03*
X163440Y205740D02*
D03*
X146440D02*
D03*
X300110Y171450D02*
D03*
X317110D02*
D03*
D27*
X206440Y15610D02*
D03*
Y32610D02*
D03*
X35560Y90592D02*
D03*
Y107592D02*
D03*
X202050Y176120D02*
D03*
Y159120D02*
D03*
X262480Y218030D02*
D03*
Y201030D02*
D03*
X258090Y361540D02*
D03*
Y344540D02*
D03*
D28*
X187353Y15610D02*
D03*
Y31110D02*
D03*
X106005Y152530D02*
D03*
Y137030D02*
D03*
Y105540D02*
D03*
Y90040D02*
D03*
X85390D02*
D03*
Y105540D02*
D03*
X59390D02*
D03*
Y90040D02*
D03*
X20323Y137720D02*
D03*
Y153220D02*
D03*
X35560Y137720D02*
D03*
Y153220D02*
D03*
X276860Y361540D02*
D03*
Y346040D02*
D03*
X207078Y199260D02*
D03*
Y214760D02*
D03*
X258090Y177740D02*
D03*
Y162240D02*
D03*
X223640Y47610D02*
D03*
Y14110D02*
D03*
X239454Y144120D02*
D03*
Y177620D02*
D03*
X226383Y233030D02*
D03*
Y199530D02*
D03*
X240890Y363040D02*
D03*
Y329540D02*
D03*
D29*
X191890Y77290D02*
D03*
Y57290D02*
D03*
X272640Y299860D02*
D03*
Y319860D02*
D03*
D30*
X191890Y98080D02*
D03*
Y130480D02*
D03*
X242690Y13860D02*
D03*
Y46260D02*
D03*
X272640Y279070D02*
D03*
Y246670D02*
D03*
X219830Y177870D02*
D03*
Y145470D02*
D03*
X244700Y199280D02*
D03*
Y231680D02*
D03*
X221840Y330890D02*
D03*
Y363290D02*
D03*
D31*
X122290Y205740D02*
D03*
X136790D02*
D03*
X341260Y171450D02*
D03*
X326760D02*
D03*
D32*
X151250Y128645D02*
D03*
Y68145D02*
D03*
X313280Y309005D02*
D03*
Y248505D02*
D03*
D33*
X85390Y124940D02*
D03*
X59390Y143940D02*
D03*
Y134440D02*
D03*
Y124940D02*
D03*
X85390Y143940D02*
D03*
D34*
X308730Y128770D02*
D03*
Y66770D02*
D03*
X155800Y248380D02*
D03*
Y310380D02*
D03*
D35*
X29210Y29210D02*
D03*
Y369570D02*
D03*
X415290D02*
D03*
Y29210D02*
D03*
X386080Y149860D02*
D03*
Y255270D02*
D03*
M02*
