G04*
G04 #@! TF.GenerationSoftware,Altium Limited,Altium Designer,18.1.11 (251)*
G04*
G04 Layer_Physical_Order=1*
G04 Layer_Color=255*
%FSLAX44Y44*%
%MOMM*%
G71*
G01*
G75*
%ADD10C,0.2500*%
%ADD11C,0.2000*%
%ADD13C,0.4000*%
%ADD16C,0.2540*%
%ADD17C,0.1000*%
%ADD36R,1.9000X0.6000*%
%ADD37R,2.8000X2.1000*%
%ADD38R,1.3500X1.5500*%
%ADD39O,0.6000X1.6000*%
%ADD40R,0.8000X0.6000*%
G04:AMPARAMS|DCode=41|XSize=1mm|YSize=0.9mm|CornerRadius=0.1125mm|HoleSize=0mm|Usage=FLASHONLY|Rotation=90.000|XOffset=0mm|YOffset=0mm|HoleType=Round|Shape=RoundedRectangle|*
%AMROUNDEDRECTD41*
21,1,1.0000,0.6750,0,0,90.0*
21,1,0.7750,0.9000,0,0,90.0*
1,1,0.2250,0.3375,0.3875*
1,1,0.2250,0.3375,-0.3875*
1,1,0.2250,-0.3375,-0.3875*
1,1,0.2250,-0.3375,0.3875*
%
%ADD41ROUNDEDRECTD41*%
G04:AMPARAMS|DCode=42|XSize=1mm|YSize=0.9mm|CornerRadius=0.1125mm|HoleSize=0mm|Usage=FLASHONLY|Rotation=0.000|XOffset=0mm|YOffset=0mm|HoleType=Round|Shape=RoundedRectangle|*
%AMROUNDEDRECTD42*
21,1,1.0000,0.6750,0,0,0.0*
21,1,0.7750,0.9000,0,0,0.0*
1,1,0.2250,0.3875,-0.3375*
1,1,0.2250,-0.3875,-0.3375*
1,1,0.2250,-0.3875,0.3375*
1,1,0.2250,0.3875,0.3375*
%
%ADD42ROUNDEDRECTD42*%
%ADD43R,0.8500X0.8500*%
%ADD44R,1.5500X1.3500*%
%ADD45R,1.0000X0.8000*%
%ADD46R,0.6000X0.8000*%
%ADD47R,2.4500X2.5500*%
G04:AMPARAMS|DCode=48|XSize=0.6mm|YSize=1mm|CornerRadius=0.075mm|HoleSize=0mm|Usage=FLASHONLY|Rotation=270.000|XOffset=0mm|YOffset=0mm|HoleType=Round|Shape=RoundedRectangle|*
%AMROUNDEDRECTD48*
21,1,0.6000,0.8500,0,0,270.0*
21,1,0.4500,1.0000,0,0,270.0*
1,1,0.1500,-0.4250,-0.2250*
1,1,0.1500,-0.4250,0.2250*
1,1,0.1500,0.4250,0.2250*
1,1,0.1500,0.4250,-0.2250*
%
%ADD48ROUNDEDRECTD48*%
G04:AMPARAMS|DCode=49|XSize=4mm|YSize=1.6mm|CornerRadius=0.2mm|HoleSize=0mm|Usage=FLASHONLY|Rotation=90.000|XOffset=0mm|YOffset=0mm|HoleType=Round|Shape=RoundedRectangle|*
%AMROUNDEDRECTD49*
21,1,4.0000,1.2000,0,0,90.0*
21,1,3.6000,1.6000,0,0,90.0*
1,1,0.4000,0.6000,1.8000*
1,1,0.4000,0.6000,-1.8000*
1,1,0.4000,-0.6000,-1.8000*
1,1,0.4000,-0.6000,1.8000*
%
%ADD49ROUNDEDRECTD49*%
%ADD50C,0.3000*%
%ADD51C,1.0000*%
%ADD52C,5.0000*%
G36*
X440707Y3793D02*
X42700D01*
X42341Y5063D01*
X45395Y6934D01*
X48680Y9740D01*
X51486Y13025D01*
X53744Y16709D01*
X55397Y20701D01*
X56406Y24903D01*
X56745Y29210D01*
X56406Y33517D01*
X55397Y37719D01*
X53744Y41711D01*
X51486Y45395D01*
X48680Y48680D01*
X45395Y51486D01*
X41711Y53744D01*
X37719Y55397D01*
X33517Y56406D01*
X29210Y56745D01*
X25999Y56492D01*
X24729Y57634D01*
Y87642D01*
X26773D01*
Y98542D01*
X13873D01*
Y87642D01*
X16674D01*
Y53722D01*
X13025Y51486D01*
X9740Y48680D01*
X6934Y45395D01*
X5063Y42342D01*
X3793Y42700D01*
Y394987D01*
X440707D01*
Y3793D01*
D02*
G37*
%LPC*%
G36*
X366158Y373848D02*
X362348D01*
X361484Y373676D01*
X360621Y373848D01*
X359470Y373619D01*
X358716Y373115D01*
X357962Y373619D01*
X356811Y373848D01*
X355875Y373662D01*
X354939Y373848D01*
X351129D01*
X350160Y373655D01*
X349191Y373848D01*
X348040Y373619D01*
X347286Y373115D01*
X346532Y373619D01*
X345381Y373848D01*
X344230Y373619D01*
X343916Y373409D01*
X343602Y373619D01*
X342451Y373848D01*
X339450D01*
X339416Y373841D01*
X339381Y373848D01*
X338230Y373619D01*
X337936Y373422D01*
X337642Y373619D01*
X336491Y373848D01*
X333490D01*
X332450Y373641D01*
X331411Y373848D01*
X327601D01*
X326565Y373642D01*
X325528Y373848D01*
X324377Y373619D01*
X323402Y372967D01*
X322605Y372170D01*
X321808Y372967D01*
X320832Y373619D01*
X319681Y373848D01*
X318530Y373619D01*
X317554Y372967D01*
X316902Y371991D01*
X316673Y370840D01*
Y363220D01*
X316902Y362069D01*
X317554Y361093D01*
X318530Y360441D01*
X319681Y360212D01*
X320832Y360441D01*
X321808Y361093D01*
X321841Y361143D01*
X323368D01*
X323402Y361093D01*
X324377Y360441D01*
X325528Y360212D01*
X326565Y360418D01*
X327601Y360212D01*
X330273D01*
X330484Y359955D01*
Y357415D01*
X330713Y356264D01*
X331365Y355288D01*
X335175Y351478D01*
X336151Y350826D01*
X337302Y350597D01*
X338453Y350826D01*
X338496Y350855D01*
X339381Y350679D01*
X340532Y350908D01*
X340784Y351076D01*
X341843Y351414D01*
X342691Y351045D01*
X343019Y350826D01*
X344170Y350597D01*
X344230D01*
X345381Y350826D01*
X345499Y350905D01*
X345617Y350826D01*
X346768Y350597D01*
X350578D01*
X351729Y350826D01*
X352705Y351478D01*
X353357Y352454D01*
X353586Y353605D01*
Y360212D01*
X354939D01*
X355875Y360398D01*
X356811Y360212D01*
X360621D01*
X361484Y360384D01*
X362348Y360212D01*
X366158D01*
X367309Y360441D01*
X368285Y361093D01*
X368937Y362069D01*
X369166Y363220D01*
Y367030D01*
X368937Y368181D01*
X368433Y368935D01*
X368937Y369689D01*
X369166Y370840D01*
X368937Y371991D01*
X368285Y372967D01*
X367309Y373619D01*
X366158Y373848D01*
D02*
G37*
G36*
X291147Y375814D02*
X289203Y375558D01*
X287390Y374808D01*
X285834Y373613D01*
X284640Y372057D01*
X283889Y370245D01*
X283780Y369419D01*
X283571Y368297D01*
X282402Y368240D01*
X275048D01*
X274610Y368327D01*
X263135D01*
X261965Y368560D01*
X254215D01*
X252820Y368283D01*
X251764Y367577D01*
X247590D01*
Y369740D01*
X234190D01*
Y367827D01*
X229290D01*
Y369740D01*
X214390D01*
Y356840D01*
X229290D01*
Y358753D01*
X234190D01*
Y356340D01*
X247590D01*
Y358503D01*
X250570D01*
Y358165D01*
X250847Y356770D01*
X251090Y356407D01*
Y349673D01*
X250847Y349310D01*
X250801Y349077D01*
X235490D01*
X233754Y348732D01*
X232282Y347748D01*
X221873Y337340D01*
X214390D01*
Y329856D01*
X209992Y325458D01*
X209008Y323986D01*
X208663Y322250D01*
Y314399D01*
X208066Y313507D01*
X207643Y311380D01*
Y301380D01*
X208066Y299254D01*
X209271Y297451D01*
X211073Y296246D01*
X213200Y295823D01*
X215326Y296246D01*
X217129Y297451D01*
X218334Y299254D01*
X218757Y301380D01*
Y311380D01*
X218334Y313507D01*
X217737Y314399D01*
Y320371D01*
X221806Y324440D01*
X229290D01*
Y331923D01*
X237369Y340003D01*
X250801D01*
X250847Y339770D01*
X251637Y338588D01*
X252820Y337797D01*
X254215Y337520D01*
X261965D01*
X263360Y337797D01*
X264542Y338588D01*
X265332Y339770D01*
X265610Y341165D01*
Y347915D01*
X265332Y349310D01*
X265090Y349673D01*
Y356407D01*
X265332Y356770D01*
X265610Y358165D01*
Y359253D01*
X270160D01*
Y354840D01*
X283560D01*
Y357003D01*
X284387D01*
X286124Y357348D01*
X287596Y358332D01*
X290177Y360913D01*
X291147Y360786D01*
X293092Y361042D01*
X294905Y361792D01*
X296461Y362987D01*
X297655Y364543D01*
X298406Y366355D01*
X298662Y368300D01*
X298406Y370245D01*
X297655Y372057D01*
X296461Y373613D01*
X294905Y374808D01*
X293092Y375558D01*
X291147Y375814D01*
D02*
G37*
G36*
X348880Y333837D02*
X299840D01*
X298104Y333492D01*
X296632Y332508D01*
X296632Y332508D01*
X290162Y326038D01*
X289178Y324566D01*
X288833Y322830D01*
Y309659D01*
X284110Y304936D01*
X282840Y305462D01*
Y309060D01*
X262440D01*
Y290660D01*
X268103D01*
Y285520D01*
X265190D01*
Y282147D01*
X252312D01*
X251826Y283321D01*
X253967Y285462D01*
X253967Y285462D01*
X254785Y286686D01*
X255072Y288130D01*
X255072Y288130D01*
Y297346D01*
X255229Y297451D01*
X256434Y299254D01*
X256857Y301380D01*
Y311380D01*
X256434Y313507D01*
X255229Y315309D01*
X253426Y316514D01*
X251300Y316937D01*
X249173Y316514D01*
X247371Y315309D01*
X246166Y313507D01*
X245743Y311380D01*
Y301380D01*
X246166Y299254D01*
X247371Y297451D01*
X247527Y297346D01*
Y289692D01*
X244917Y287083D01*
X212738D01*
X198793Y301028D01*
X197569Y301845D01*
X196125Y302132D01*
X196125Y302132D01*
X179809D01*
X179809Y302132D01*
X178365Y301845D01*
X177141Y301028D01*
X161581Y285467D01*
X148584D01*
X147141Y285180D01*
X145917Y284362D01*
X137660Y276105D01*
X136842Y274881D01*
X136555Y273437D01*
X136555Y273437D01*
Y226703D01*
X136555Y226703D01*
X136842Y225259D01*
X137660Y224035D01*
X143455Y218240D01*
X143455Y218240D01*
X144679Y217422D01*
X146123Y217135D01*
X162340D01*
X170368Y209106D01*
Y200266D01*
X166533Y196431D01*
X125693D01*
Y199290D01*
X127740D01*
Y212190D01*
X116840D01*
Y199290D01*
X118147D01*
Y196431D01*
X113364D01*
X111920Y196143D01*
X110696Y195326D01*
X97963Y182593D01*
X63120D01*
Y208070D01*
X57168D01*
Y222120D01*
X56978Y223076D01*
X56437Y223887D01*
X55626Y224428D01*
X54670Y224618D01*
X38783D01*
X38565Y224879D01*
X38186Y225817D01*
X55216Y242847D01*
X58220D01*
Y241170D01*
X82120D01*
Y253102D01*
X83820D01*
X85166Y253370D01*
X86109Y254000D01*
X95350D01*
Y264900D01*
X82450D01*
X82120Y266033D01*
Y267367D01*
X82450Y268500D01*
X83390Y268500D01*
X95350D01*
Y279400D01*
X92418D01*
Y282040D01*
X92665D01*
X94060Y282317D01*
X94423Y282560D01*
X101790D01*
X103790Y284560D01*
Y294560D01*
X101790Y296560D01*
X94423D01*
X94060Y296803D01*
X92665Y297080D01*
X85915D01*
X84520Y296803D01*
X83338Y296012D01*
X82548Y294830D01*
X82270Y293435D01*
Y293278D01*
X82120Y292070D01*
X81000Y292070D01*
X58220D01*
Y290138D01*
X49730D01*
X49730Y290138D01*
X48384Y289870D01*
X47243Y289107D01*
X6252Y248117D01*
X5490Y246976D01*
X5222Y245630D01*
Y143714D01*
X5490Y142367D01*
X6252Y141226D01*
X12246Y135233D01*
X13387Y134470D01*
X13623Y134423D01*
Y131020D01*
X27023D01*
Y134202D01*
X28860D01*
Y131020D01*
X42260D01*
Y140147D01*
X52322D01*
X52833Y139383D01*
X53891Y138676D01*
X55140Y138427D01*
X63640D01*
X64889Y138676D01*
X65947Y139383D01*
X66654Y140441D01*
X66903Y141690D01*
Y146190D01*
X66654Y147439D01*
X65947Y148497D01*
X64889Y149204D01*
X63640Y149453D01*
X55140D01*
X53891Y149204D01*
X52833Y148497D01*
X52322Y147733D01*
X39800D01*
X38349Y147444D01*
X37118Y146622D01*
X34916Y144420D01*
X28860D01*
Y141238D01*
X27023D01*
Y144420D01*
X13623D01*
X13623Y144420D01*
Y144420D01*
X12536Y144892D01*
X12257Y145170D01*
Y170077D01*
X13431Y170563D01*
X22122Y161872D01*
X23428Y160999D01*
X24970Y160693D01*
X98718D01*
X99509Y159723D01*
X99305Y159230D01*
X99305D01*
Y151526D01*
X95747Y147967D01*
X92301D01*
X91947Y148497D01*
X90889Y149204D01*
X89640Y149453D01*
X81140D01*
X79891Y149204D01*
X78833Y148497D01*
X78126Y147439D01*
X77877Y146190D01*
Y141690D01*
X78126Y140441D01*
X78833Y139383D01*
X79891Y138676D01*
X81140Y138427D01*
X89640D01*
X90889Y138676D01*
X91947Y139383D01*
X92301Y139913D01*
X97415D01*
X98956Y140219D01*
X100263Y141092D01*
X105001Y145830D01*
X112472D01*
Y112240D01*
X99305D01*
Y109567D01*
X92090D01*
Y112240D01*
X89417D01*
Y119427D01*
X89640D01*
X90889Y119676D01*
X91947Y120383D01*
X92654Y121441D01*
X92903Y122690D01*
Y127190D01*
X92654Y128439D01*
X91947Y129497D01*
X90889Y130204D01*
X89640Y130453D01*
X81140D01*
X79891Y130204D01*
X78833Y129497D01*
X78126Y128439D01*
X77877Y127190D01*
Y122690D01*
X78126Y121441D01*
X78833Y120383D01*
X79891Y119676D01*
X81140Y119427D01*
X81363D01*
Y112240D01*
X78690D01*
Y100472D01*
X77420Y99946D01*
X68978Y108388D01*
X67671Y109261D01*
X66130Y109567D01*
X66090D01*
Y112240D01*
X63417D01*
Y119427D01*
X63640D01*
X64889Y119676D01*
X65947Y120383D01*
X66654Y121441D01*
X66903Y122690D01*
Y127190D01*
X66654Y128439D01*
X65947Y129497D01*
X64889Y130204D01*
X63640Y130453D01*
X55140D01*
X53891Y130204D01*
X52833Y129497D01*
X52126Y128439D01*
X51877Y127190D01*
Y122690D01*
X52126Y121441D01*
X52833Y120383D01*
X53891Y119676D01*
X55140Y119427D01*
X55363D01*
Y112240D01*
X52690D01*
Y98840D01*
X66090D01*
Y98840D01*
X66828Y99146D01*
X78690Y87284D01*
Y83340D01*
X92090D01*
Y96740D01*
X80626D01*
X79796Y97570D01*
X80322Y98840D01*
X92090D01*
Y101513D01*
X99305D01*
Y98840D01*
X112472D01*
Y96740D01*
X99305D01*
Y83340D01*
X101508D01*
Y49530D01*
X101853Y47794D01*
X102837Y46322D01*
X107414Y41745D01*
X106959Y40404D01*
X106005Y40278D01*
X104193Y39528D01*
X102637Y38333D01*
X101483Y36830D01*
X94496D01*
X63537Y67789D01*
Y83340D01*
X66090D01*
Y96740D01*
X52690D01*
Y83340D01*
X54463D01*
Y65910D01*
X54808Y64174D01*
X55792Y62702D01*
X89409Y29084D01*
X90881Y28101D01*
X92617Y27756D01*
X102599D01*
X102637Y27707D01*
X104193Y26512D01*
X106005Y25762D01*
X107950Y25506D01*
X109895Y25762D01*
X111707Y26512D01*
X113263Y27707D01*
X113665Y28230D01*
X114935D01*
X115337Y27707D01*
X116893Y26512D01*
X118705Y25762D01*
X120650Y25506D01*
X122595Y25762D01*
X124407Y26512D01*
X125963Y27707D01*
X127158Y29263D01*
X127908Y31075D01*
X128164Y33020D01*
X127908Y34965D01*
X127158Y36777D01*
X125963Y38333D01*
X124407Y39528D01*
X122595Y40278D01*
X121580Y40412D01*
X110582Y51409D01*
Y83340D01*
X112472D01*
Y57570D01*
X112740Y56224D01*
X113503Y55083D01*
X124813Y43773D01*
X125954Y43010D01*
X127300Y42742D01*
X203740D01*
X205086Y43010D01*
X206227Y43773D01*
X215717Y53263D01*
X216480Y54404D01*
X216747Y55750D01*
X216747Y55750D01*
Y61566D01*
X217159Y61841D01*
X218364Y63643D01*
X218787Y65770D01*
Y75770D01*
X218364Y77896D01*
X218083Y78316D01*
X224129Y84363D01*
X284121D01*
X285857Y84708D01*
X287329Y85692D01*
X293620Y91983D01*
X321680D01*
X323416Y92328D01*
X324888Y93312D01*
X333408Y101832D01*
X334392Y103304D01*
X334737Y105040D01*
Y158511D01*
X341227Y165000D01*
X346710D01*
Y177900D01*
X335810D01*
Y172416D01*
X333383Y169990D01*
X332210Y170476D01*
Y177900D01*
X323064D01*
X323062Y177902D01*
X321880Y178693D01*
X320485Y178970D01*
X313735D01*
X312340Y178693D01*
X311977Y178450D01*
X304610D01*
X302610Y176450D01*
Y166450D01*
X304610Y164450D01*
X311977D01*
X312340Y164207D01*
X313735Y163930D01*
X320485D01*
X321880Y164207D01*
X323062Y164998D01*
X323064Y165000D01*
X326734D01*
X327220Y163827D01*
X326992Y163598D01*
X326008Y162126D01*
X325663Y160390D01*
Y106919D01*
X319801Y101057D01*
X291741D01*
X290005Y100712D01*
X288533Y99728D01*
X282242Y93437D01*
X222250D01*
X220514Y93092D01*
X219042Y92108D01*
X210022Y83088D01*
X209038Y81616D01*
X208693Y79880D01*
Y78789D01*
X208096Y77896D01*
X207673Y75770D01*
Y65770D01*
X208096Y63643D01*
X209301Y61841D01*
X209712Y61566D01*
Y57207D01*
X202283Y49778D01*
X128757D01*
X119508Y59027D01*
Y156183D01*
X119240Y157529D01*
X118477Y158670D01*
X104990Y172157D01*
X104989Y172166D01*
X117264Y184441D01*
X170042D01*
X171388Y184708D01*
X172530Y185471D01*
X181328Y194270D01*
X182091Y195411D01*
X182359Y196757D01*
Y225339D01*
X182359Y225339D01*
X182091Y226685D01*
X181328Y227826D01*
X181328Y227826D01*
X166337Y242817D01*
Y266380D01*
X165992Y268116D01*
X165211Y269284D01*
X181418Y285492D01*
X181563Y285450D01*
X182548Y284826D01*
X182336Y283210D01*
X182592Y281265D01*
X183342Y279453D01*
X184536Y277897D01*
X185313Y277301D01*
Y208930D01*
X185658Y207194D01*
X186642Y205722D01*
X196792Y195572D01*
X198264Y194588D01*
X200000Y194243D01*
X200378Y193084D01*
Y192560D01*
X213778D01*
Y194743D01*
X219683D01*
Y192830D01*
X233083D01*
Y194743D01*
X237250D01*
Y192830D01*
X252150D01*
Y194743D01*
X256528D01*
X257210Y194287D01*
X258605Y194010D01*
X266355D01*
X267750Y194287D01*
X268932Y195078D01*
X269722Y196260D01*
X270000Y197655D01*
Y204405D01*
X269722Y205800D01*
X269480Y206163D01*
Y212897D01*
X269722Y213260D01*
X270000Y214655D01*
Y221405D01*
X269722Y222800D01*
X268932Y223982D01*
X267750Y224773D01*
X266355Y225050D01*
X261876D01*
X252150Y234777D01*
Y238130D01*
X244666D01*
X243137Y239659D01*
Y244361D01*
X243734Y245254D01*
X244157Y247380D01*
Y257380D01*
X243734Y259506D01*
X242529Y261309D01*
X242240Y261502D01*
X242625Y262772D01*
X247274D01*
X247660Y261502D01*
X247371Y261309D01*
X246166Y259506D01*
X245743Y257380D01*
Y247380D01*
X246166Y245254D01*
X247371Y243451D01*
X249173Y242246D01*
X251300Y241823D01*
X253426Y242246D01*
X255229Y243451D01*
X256434Y245254D01*
X256857Y247380D01*
Y247843D01*
X265051D01*
X265190Y247703D01*
Y240220D01*
X280090D01*
Y242133D01*
X298580D01*
Y233305D01*
X298743D01*
Y226080D01*
X294080D01*
Y205680D01*
X312480D01*
Y226080D01*
X307817D01*
Y233305D01*
X326933D01*
Y226080D01*
X314080D01*
Y205680D01*
X332480D01*
Y218663D01*
X333380Y219563D01*
X334553Y219077D01*
Y201686D01*
X330984Y198117D01*
X303302D01*
X301566Y197772D01*
X300094Y196788D01*
X281774Y178468D01*
X280791Y176996D01*
X280445Y175260D01*
Y152517D01*
X280791Y150781D01*
X281774Y149309D01*
X298193Y132891D01*
Y129307D01*
X256887D01*
Y129770D01*
X256464Y131896D01*
X255259Y133699D01*
X253456Y134904D01*
X251330Y135327D01*
X249203Y134904D01*
X247401Y133699D01*
X246196Y131896D01*
X245773Y129770D01*
Y119770D01*
X246196Y117643D01*
X246793Y116751D01*
Y113639D01*
X240996Y107843D01*
X240585Y107913D01*
X240152Y109275D01*
X241838Y110962D01*
X242822Y112434D01*
X243167Y114170D01*
Y116751D01*
X243764Y117643D01*
X244187Y119770D01*
Y129770D01*
X243764Y131896D01*
X243417Y132415D01*
Y137420D01*
X246154D01*
Y150820D01*
X243417D01*
Y152251D01*
X248749Y157583D01*
X251390D01*
Y155540D01*
X264790D01*
Y168940D01*
X251390D01*
Y166657D01*
X246870D01*
X245133Y166312D01*
X243662Y165328D01*
X235672Y157338D01*
X234688Y155866D01*
X234343Y154130D01*
Y150820D01*
X232754D01*
Y137420D01*
X234343D01*
Y133163D01*
X233496Y131896D01*
X233073Y129770D01*
Y119770D01*
X233496Y117643D01*
X234093Y116751D01*
Y116049D01*
X231801Y113757D01*
X229027D01*
X228641Y115027D01*
X229859Y115841D01*
X231064Y117643D01*
X231487Y119770D01*
Y129770D01*
X231064Y131896D01*
X230467Y132789D01*
Y139370D01*
X230467Y139370D01*
X230122Y141106D01*
X229138Y142578D01*
X227280Y144437D01*
Y151920D01*
X219796D01*
X209570Y162146D01*
Y162495D01*
X209292Y163890D01*
X209050Y164253D01*
Y170987D01*
X209292Y171350D01*
X209570Y172745D01*
Y173333D01*
X212380D01*
Y171420D01*
X227280D01*
Y173333D01*
X232754D01*
Y170920D01*
X246154D01*
Y173083D01*
X251390D01*
Y171040D01*
X264790D01*
Y184440D01*
X251390D01*
Y182157D01*
X246154D01*
Y184320D01*
X232754D01*
Y182407D01*
X227280D01*
Y184320D01*
X212380D01*
Y182407D01*
X208001D01*
X207320Y182863D01*
X205925Y183140D01*
X201446D01*
X198498Y186088D01*
X197026Y187072D01*
X195290Y187417D01*
X190059D01*
X189463Y188193D01*
X187907Y189388D01*
X186095Y190138D01*
X184150Y190394D01*
X182205Y190138D01*
X180393Y189388D01*
X178837Y188193D01*
X177642Y186637D01*
X176892Y184825D01*
X176636Y182880D01*
X176892Y180935D01*
X177642Y179123D01*
X178837Y177567D01*
X180393Y176372D01*
X182205Y175622D01*
X184150Y175366D01*
X186095Y175622D01*
X187907Y176372D01*
X189463Y177567D01*
X190059Y178343D01*
X193410D01*
X194530Y177223D01*
Y172745D01*
X194807Y171350D01*
X195050Y170987D01*
Y164253D01*
X194807Y163890D01*
X194530Y162495D01*
Y155745D01*
X194807Y154350D01*
X195597Y153168D01*
X196780Y152377D01*
X198175Y152100D01*
X205925D01*
X206641Y152242D01*
X212380Y146503D01*
Y139020D01*
X219863D01*
X221393Y137491D01*
Y132789D01*
X220796Y131896D01*
X220373Y129770D01*
Y119770D01*
X220796Y117643D01*
X222001Y115841D01*
X223218Y115027D01*
X222833Y113757D01*
X216327D01*
X215942Y115027D01*
X217159Y115841D01*
X218364Y117643D01*
X218787Y119770D01*
Y129770D01*
X218364Y131896D01*
X217159Y133699D01*
X215356Y134904D01*
X213230Y135327D01*
X211103Y134904D01*
X210006Y134171D01*
X209256Y134672D01*
X207520Y135017D01*
X199340D01*
Y136930D01*
X190739D01*
X190308Y138200D01*
X190733Y138527D01*
X191928Y140083D01*
X192678Y141895D01*
X192934Y143840D01*
X192678Y145785D01*
X191928Y147597D01*
X190733Y149153D01*
X189957Y149749D01*
Y161960D01*
X189957Y161960D01*
X189612Y163696D01*
X188628Y165168D01*
X188628Y165168D01*
X175328Y178468D01*
X173856Y179452D01*
X172120Y179797D01*
X149860D01*
X149860Y179797D01*
X148124Y179452D01*
X146652Y178468D01*
X146652Y178468D01*
X139653Y171470D01*
X132050D01*
Y158486D01*
X127642Y154078D01*
X126658Y152606D01*
X126313Y150870D01*
Y109220D01*
Y88545D01*
X126658Y86809D01*
X127642Y85337D01*
X136550Y76428D01*
Y52945D01*
X165950D01*
Y83345D01*
X142466D01*
X135387Y90424D01*
Y104683D01*
X183233D01*
X184440Y104530D01*
Y91630D01*
X187353D01*
Y86490D01*
X181690D01*
Y68090D01*
X202090D01*
Y86490D01*
X196427D01*
Y91630D01*
X199340D01*
Y98233D01*
X242340D01*
X244076Y98578D01*
X245548Y99562D01*
X254538Y108552D01*
X254538Y108552D01*
X255522Y110024D01*
X255867Y111760D01*
X255867Y111760D01*
Y116751D01*
X256464Y117643D01*
X256887Y119770D01*
Y120233D01*
X298193D01*
Y110770D01*
X298538Y109034D01*
X299522Y107562D01*
X300994Y106578D01*
X302730Y106233D01*
X314730D01*
X316466Y106578D01*
X317938Y107562D01*
X318922Y109034D01*
X319267Y110770D01*
Y146770D01*
X318922Y148506D01*
X317938Y149978D01*
X316466Y150962D01*
X314730Y151307D01*
X302730D01*
X300994Y150962D01*
X299522Y149978D01*
X298538Y148506D01*
X298317Y147395D01*
X296959Y146957D01*
X289520Y154397D01*
Y173381D01*
X305182Y189043D01*
X332863D01*
X334600Y189388D01*
X336072Y190372D01*
X342298Y196598D01*
X343282Y198070D01*
X343627Y199806D01*
Y288282D01*
X346108Y290763D01*
X352450D01*
X354187Y291109D01*
X355659Y292092D01*
X362618Y299052D01*
X363602Y300524D01*
X363947Y302260D01*
X363947Y302260D01*
Y318770D01*
X363947Y318770D01*
X363602Y320506D01*
X362618Y321978D01*
X352088Y332508D01*
X350616Y333492D01*
X348880Y333837D01*
D02*
G37*
G36*
X63120Y341070D02*
X30220D01*
Y315170D01*
X36172D01*
Y301120D01*
X36362Y300164D01*
X36904Y299354D01*
X37714Y298812D01*
X38670Y298622D01*
X54670D01*
X55626Y298812D01*
X56437Y299354D01*
X56978Y300164D01*
X57168Y301120D01*
Y315170D01*
X63120D01*
Y341070D01*
D02*
G37*
G36*
X238600Y316937D02*
X236473Y316514D01*
X234671Y315309D01*
X233466Y313507D01*
X233043Y311380D01*
Y301380D01*
X233466Y299254D01*
X234671Y297451D01*
X236473Y296246D01*
X238600Y295823D01*
X240726Y296246D01*
X242529Y297451D01*
X243734Y299254D01*
X244157Y301380D01*
Y311380D01*
X243734Y313507D01*
X242529Y315309D01*
X240726Y316514D01*
X238600Y316937D01*
D02*
G37*
G36*
X386080Y282805D02*
X381773Y282466D01*
X377571Y281457D01*
X373579Y279804D01*
X369895Y277546D01*
X366610Y274740D01*
X363804Y271455D01*
X361546Y267771D01*
X359893Y263779D01*
X358884Y259577D01*
X358545Y255270D01*
X358884Y250963D01*
X359893Y246761D01*
X361546Y242769D01*
X363804Y239085D01*
X366610Y235800D01*
X369895Y232994D01*
X373579Y230736D01*
X377571Y229083D01*
X381773Y228074D01*
X386080Y227735D01*
X390387Y228074D01*
X394589Y229083D01*
X398581Y230736D01*
X402265Y232994D01*
X405550Y235800D01*
X408356Y239085D01*
X410614Y242769D01*
X412267Y246761D01*
X413276Y250963D01*
X413615Y255270D01*
X413276Y259577D01*
X412267Y263779D01*
X410614Y267771D01*
X408356Y271455D01*
X405550Y274740D01*
X402265Y277546D01*
X398581Y279804D01*
X394589Y281457D01*
X390387Y282466D01*
X386080Y282805D01*
D02*
G37*
G36*
X149815Y213260D02*
X143065D01*
X141670Y212983D01*
X140488Y212192D01*
X140486Y212190D01*
X131340D01*
Y199290D01*
X140486D01*
X140488Y199288D01*
X141670Y198497D01*
X143065Y198220D01*
X149815D01*
X151210Y198497D01*
X151573Y198740D01*
X158940D01*
X160940Y200740D01*
Y210740D01*
X158940Y212740D01*
X151573D01*
X151210Y212983D01*
X149815Y213260D01*
D02*
G37*
G36*
X386080Y177395D02*
X381773Y177056D01*
X377571Y176047D01*
X373579Y174394D01*
X369895Y172136D01*
X366610Y169330D01*
X363804Y166045D01*
X361546Y162361D01*
X359893Y158369D01*
X358884Y154167D01*
X358545Y149860D01*
X358884Y145553D01*
X359893Y141351D01*
X361546Y137359D01*
X363804Y133675D01*
X366610Y130390D01*
X369895Y127584D01*
X373579Y125326D01*
X377571Y123673D01*
X381773Y122664D01*
X386080Y122325D01*
X390387Y122664D01*
X394589Y123673D01*
X398581Y125326D01*
X402265Y127584D01*
X405550Y130390D01*
X408356Y133675D01*
X410614Y137359D01*
X412267Y141351D01*
X413276Y145553D01*
X413615Y149860D01*
X413276Y154167D01*
X412267Y158369D01*
X410614Y162361D01*
X408356Y166045D01*
X405550Y169330D01*
X402265Y172136D01*
X398581Y174394D01*
X394589Y176047D01*
X390387Y177056D01*
X386080Y177395D01*
D02*
G37*
G36*
X39435Y114612D02*
X31685D01*
X30290Y114334D01*
X29108Y113544D01*
X28317Y112362D01*
X28170Y111619D01*
X26773D01*
Y113042D01*
X13873D01*
Y102142D01*
X26773D01*
Y103564D01*
X28170D01*
X28317Y102822D01*
X28560Y102459D01*
Y95092D01*
X30560Y93092D01*
X40560D01*
X42560Y95092D01*
Y102459D01*
X42803Y102822D01*
X43080Y104217D01*
Y110967D01*
X42803Y112362D01*
X42012Y113544D01*
X40830Y114334D01*
X39435Y114612D01*
D02*
G37*
G36*
X225930Y81327D02*
X223803Y80904D01*
X222001Y79699D01*
X220796Y77896D01*
X220373Y75770D01*
Y65770D01*
X220796Y63643D01*
X222001Y61841D01*
X223803Y60636D01*
X225930Y60213D01*
X228056Y60636D01*
X229859Y61841D01*
X231064Y63643D01*
X231487Y65770D01*
Y75770D01*
X231064Y77896D01*
X229859Y79699D01*
X228056Y80904D01*
X225930Y81327D01*
D02*
G37*
G36*
X251330D02*
X249203Y80904D01*
X247401Y79699D01*
X246196Y77896D01*
X245773Y75770D01*
Y65770D01*
X246196Y63643D01*
X246793Y62751D01*
Y56779D01*
X242723Y52710D01*
X235240D01*
Y45226D01*
X227160Y37147D01*
X213729D01*
X213682Y37380D01*
X212892Y38562D01*
X211710Y39353D01*
X210315Y39630D01*
X202565D01*
X201170Y39353D01*
X199988Y38562D01*
X199197Y37380D01*
X198920Y35985D01*
Y29235D01*
X199197Y27840D01*
X199440Y27477D01*
Y20743D01*
X199197Y20380D01*
X198920Y18985D01*
Y17897D01*
X194053D01*
Y22310D01*
X180653D01*
Y8910D01*
X189164D01*
X189603Y8823D01*
X201394D01*
X202565Y8590D01*
X210315D01*
X211710Y8867D01*
X212765Y9573D01*
X216940D01*
Y7410D01*
X230340D01*
Y9573D01*
X235240D01*
Y7410D01*
X250140D01*
Y9323D01*
X278020D01*
X279756Y9668D01*
X281228Y10652D01*
X300020Y29443D01*
X300990Y29316D01*
X302935Y29572D01*
X304747Y30322D01*
X306303Y31517D01*
X307498Y33073D01*
X308248Y34885D01*
X308504Y36830D01*
X308248Y38775D01*
X307498Y40587D01*
X306303Y42143D01*
X304747Y43338D01*
X302935Y44088D01*
X300990Y44344D01*
X299045Y44088D01*
X297233Y43338D01*
X295677Y42143D01*
X294482Y40587D01*
X293732Y38775D01*
X293476Y36830D01*
X293603Y35860D01*
X276141Y18397D01*
X250140D01*
Y20310D01*
X235240D01*
Y18647D01*
X230340D01*
Y20810D01*
X216940D01*
Y18647D01*
X213960D01*
Y18985D01*
X213682Y20380D01*
X213440Y20743D01*
Y27477D01*
X213682Y27840D01*
X213729Y28073D01*
X229040D01*
X230776Y28418D01*
X232248Y29402D01*
X242656Y39810D01*
X250140D01*
Y47293D01*
X254538Y51692D01*
X255522Y53164D01*
X255867Y54900D01*
Y62751D01*
X256464Y63643D01*
X256887Y65770D01*
Y75770D01*
X256464Y77896D01*
X255259Y79699D01*
X253456Y80904D01*
X251330Y81327D01*
D02*
G37*
%LPD*%
G36*
X354873Y316891D02*
Y304139D01*
X353517Y302784D01*
X352441Y303503D01*
X352698Y304125D01*
X352954Y306070D01*
X352698Y308015D01*
X351948Y309827D01*
X350753Y311383D01*
X349197Y312578D01*
X347385Y313328D01*
X345440Y313584D01*
X343495Y313328D01*
X341683Y312578D01*
X340127Y311383D01*
X339531Y310607D01*
X327980D01*
Y324205D01*
X329019Y324763D01*
X347001D01*
X354873Y316891D01*
D02*
G37*
G36*
X298580Y305281D02*
Y293805D01*
X305150D01*
X305636Y292632D01*
X282812Y269807D01*
X233413D01*
X232067Y269540D01*
X230926Y268777D01*
X224883Y262735D01*
X223773Y262514D01*
X221971Y261309D01*
X220766Y259506D01*
X220343Y257380D01*
Y247380D01*
X220766Y245254D01*
X221363Y244361D01*
Y239730D01*
X219683D01*
Y233479D01*
X207663Y221460D01*
X200378D01*
Y208060D01*
X213778D01*
Y214741D01*
X225366Y226330D01*
X233083D01*
Y236196D01*
X234353Y236321D01*
X234408Y236044D01*
X235392Y234572D01*
X237250Y232714D01*
Y225230D01*
X248863D01*
X254960Y219133D01*
Y214655D01*
X255237Y213260D01*
X255480Y212897D01*
Y206163D01*
X255237Y205800D01*
X254960Y204405D01*
Y203817D01*
X252150D01*
Y205730D01*
X237250D01*
Y203817D01*
X233083D01*
Y206230D01*
X219683D01*
Y203817D01*
X213778D01*
Y205960D01*
X200378D01*
Y205960D01*
X199571Y205626D01*
X194387Y210809D01*
Y277301D01*
X195163Y277897D01*
X196357Y279453D01*
X197061Y281151D01*
X197956Y281573D01*
X198314Y281694D01*
X205606Y274402D01*
X207078Y273418D01*
X208663Y273103D01*
Y260399D01*
X208066Y259506D01*
X207643Y257380D01*
Y247380D01*
X208066Y245254D01*
X209271Y243451D01*
X211073Y242246D01*
X213200Y241823D01*
X215326Y242246D01*
X217129Y243451D01*
X218334Y245254D01*
X218757Y247380D01*
Y257380D01*
X218334Y259506D01*
X217737Y260399D01*
Y273073D01*
X265190D01*
Y272620D01*
X280090D01*
Y285520D01*
X277177D01*
Y290660D01*
X282840D01*
Y295323D01*
X285450D01*
X287186Y295668D01*
X288658Y296652D01*
X296578Y304572D01*
X297310Y305667D01*
X298580Y305281D01*
D02*
G37*
G36*
X326933Y288936D02*
Y263705D01*
X298580D01*
Y251207D01*
X280090D01*
Y253120D01*
X272606D01*
X270138Y255588D01*
X268666Y256572D01*
X266930Y256917D01*
X256857D01*
Y257380D01*
X256434Y259506D01*
X255229Y261309D01*
X254940Y261502D01*
X255325Y262772D01*
X284269D01*
X285615Y263040D01*
X286757Y263803D01*
X315767Y292813D01*
X316430Y293805D01*
X322063D01*
X326933Y288936D01*
D02*
G37*
G36*
X152050Y168067D02*
Y151070D01*
X156713D01*
Y143845D01*
X136550D01*
Y143845D01*
X135387Y144104D01*
Y148991D01*
X137466Y151070D01*
X150450D01*
Y168525D01*
X150780Y168746D01*
X152050Y168067D01*
D02*
G37*
G36*
X180883Y160081D02*
Y149749D01*
X180107Y149153D01*
X178912Y147597D01*
X178162Y145785D01*
X177906Y143840D01*
X178162Y141895D01*
X178912Y140083D01*
X180107Y138527D01*
X181663Y137332D01*
X183475Y136582D01*
X184440Y136455D01*
Y135017D01*
X165950D01*
Y143845D01*
X165787D01*
Y151070D01*
X170450D01*
Y168854D01*
X171623Y169340D01*
X180883Y160081D01*
D02*
G37*
G36*
X207673Y123910D02*
Y119770D01*
X208096Y117643D01*
X209301Y115841D01*
X210518Y115027D01*
X210133Y113757D01*
X165950D01*
Y125943D01*
X184440D01*
Y124030D01*
X199340D01*
Y125943D01*
X205641D01*
X207673Y123910D01*
D02*
G37*
D10*
X113364Y192658D02*
X121920D01*
X99525Y178820D02*
X113364Y192658D01*
X30810Y178820D02*
X99525D01*
X53654Y246620D02*
X70170D01*
X27790Y220756D02*
X53654Y246620D01*
X27790Y181840D02*
Y220756D01*
Y181840D02*
X30810Y178820D01*
X140327Y273437D02*
X148584Y281694D01*
X140327Y226703D02*
Y273437D01*
X146123Y220907D02*
X163902D01*
X140327Y226703D02*
X146123Y220907D01*
X163902D02*
X174141Y210669D01*
X121920Y192658D02*
X168095D01*
X121920Y205370D02*
X122290Y205740D01*
X121920Y192658D02*
Y205370D01*
X148584Y281694D02*
X163143D01*
X168095Y192658D02*
X174141Y198704D01*
Y210669D01*
X70170Y246620D02*
X70410Y246380D01*
X163143Y281694D02*
X179809Y298360D01*
X196125D01*
X211175Y283310D02*
X246480D01*
X196125Y298360D02*
X211175Y283310D01*
X251300Y288130D02*
Y306380D01*
X246480Y283310D02*
X251300Y288130D01*
D11*
X20323Y137720D02*
X35560D01*
X14733D02*
X20323D01*
X8740Y143714D02*
X14733Y137720D01*
X8740Y143714D02*
Y245630D01*
X35560Y137720D02*
X36270D01*
X115807Y187958D02*
X170042D01*
X101969Y174120D02*
X115807Y187958D01*
X28863Y174120D02*
X101969D01*
X115990Y57570D02*
Y156183D01*
X102503Y169670D02*
X115990Y156183D01*
X27020Y169670D02*
X102503D01*
X48452Y256620D02*
X70170D01*
X23090Y231257D02*
X48452Y256620D01*
X23090Y179893D02*
Y231257D01*
X18640Y178050D02*
Y241529D01*
X43731Y266620D01*
X70170D01*
X8740Y245630D02*
X49730Y286620D01*
X70170D01*
X18640Y178050D02*
X27020Y169670D01*
X23090Y179893D02*
X28863Y174120D01*
X203740Y46260D02*
X213230Y55750D01*
X127300Y46260D02*
X203740D01*
X115990Y57570D02*
X127300Y46260D01*
X213230Y55750D02*
Y70770D01*
X70170Y256620D02*
X83820D01*
X86240Y259040D01*
X88900Y289170D02*
X89290Y289560D01*
X88900Y273950D02*
Y289170D01*
X170042Y187958D02*
X178841Y196757D01*
Y225339D01*
X155800Y248380D02*
X178841Y225339D01*
X284269Y266290D02*
X313280Y295301D01*
X233413Y266290D02*
X284269D01*
X225900Y258776D02*
X233413Y266290D01*
X313280Y295301D02*
Y309005D01*
X225900Y252380D02*
Y258776D01*
D13*
X92617Y32293D02*
X107950D01*
X106045Y49530D02*
X120650Y34925D01*
X106005Y90040D02*
X106045Y90000D01*
Y49530D02*
Y90000D01*
X59000Y89650D02*
X59390Y90040D01*
X59000Y65910D02*
Y89650D01*
X239454Y177620D02*
X258605D01*
X238630Y177870D02*
X238880Y177620D01*
X219830Y177870D02*
X238630D01*
X238880Y177620D02*
X239454D01*
X210910Y199280D02*
X244700D01*
X200000Y198780D02*
X210410D01*
X210910Y199280D01*
X244700D02*
X260730D01*
X189850Y208930D02*
X200000Y198780D01*
X189850Y208930D02*
Y283210D01*
X207229Y214609D02*
X225900Y233280D01*
Y252380D01*
X246870Y162120D02*
X258605D01*
X238880Y154130D02*
X246870Y162120D01*
X284982Y175260D02*
X303302Y193580D01*
X284982Y152517D02*
X308730Y128770D01*
X284982Y152517D02*
Y175260D01*
X303302Y193580D02*
X332863D01*
X284387Y361540D02*
X291147Y368300D01*
X276860Y361540D02*
X284387D01*
X274610Y363790D02*
X276860Y361540D01*
X260340Y363790D02*
X274610D01*
X193160Y13360D02*
X204190D01*
X189603D02*
X193160D01*
X187353Y15610D02*
X189603Y13360D01*
X59000Y65910D02*
X92617Y32293D01*
X120650Y33020D02*
Y34925D01*
Y30480D02*
Y33020D01*
X278020Y13860D02*
X300990Y36830D01*
X321680Y96520D02*
X330200Y105040D01*
X291741Y96520D02*
X321680D01*
X284121Y88900D02*
X291741Y96520D01*
X222250Y88900D02*
X284121D01*
X332863Y193580D02*
X339090Y199806D01*
Y290162D01*
X213230Y79880D02*
X222250Y88900D01*
X195290Y182880D02*
X202050Y176120D01*
X184150Y182880D02*
X195290D01*
X182880D02*
X184150D01*
X344229Y295301D02*
X352450D01*
X339090Y290162D02*
X344229Y295301D01*
X330200Y160390D02*
X341260Y171450D01*
X330200Y105040D02*
Y160390D01*
X359410Y302260D02*
Y318770D01*
X352450Y295301D02*
X359410Y302260D01*
X304730Y124770D02*
X308730Y128770D01*
X251330Y124770D02*
X304730D01*
X196580Y102770D02*
X242340D01*
X191890Y98080D02*
X196580Y102770D01*
X242340D02*
X251330Y111760D01*
X299840Y329300D02*
X348880D01*
X271180Y277610D02*
X272640Y279070D01*
X208814Y277610D02*
X271180D01*
X193764Y292660D02*
X208814Y277610D01*
X182170Y292660D02*
X193764D01*
X213200Y252380D02*
Y276860D01*
X155800Y266290D02*
X182170Y292660D01*
X155800Y248380D02*
Y266290D01*
X316215Y306070D02*
X345440D01*
X316215D02*
X331470Y290815D01*
X248830Y231680D02*
X262480Y218030D01*
X348880Y329300D02*
X359410Y318770D01*
X293370Y322830D02*
X299840Y329300D01*
X213230Y70770D02*
Y79880D01*
X317110Y171450D02*
X326760D01*
X323280Y215880D02*
X331470Y224070D01*
Y290815D01*
X136790Y205740D02*
X146440D01*
X313280Y309005D02*
X316215Y306070D01*
X242690Y13860D02*
X278020D01*
X172120Y175260D02*
X185420Y161960D01*
Y143840D02*
Y161960D01*
X149860Y175260D02*
X172120D01*
X141250Y166650D02*
X149860Y175260D01*
X141250Y161270D02*
Y166650D01*
X260730Y199280D02*
X262480Y201030D01*
X238600Y237780D02*
X244700Y231680D01*
X238600Y237780D02*
Y252380D01*
X293370Y307780D02*
Y322830D01*
X285450Y299860D02*
X293370Y307780D01*
X272640Y299860D02*
X285450D01*
X207520Y130480D02*
X213230Y124770D01*
X191890Y130480D02*
X207520D01*
X191890Y77290D02*
Y98080D01*
X130850Y109220D02*
X233680D01*
X219830Y145470D02*
X225930Y139370D01*
Y124770D02*
Y139370D01*
X206180Y159120D02*
X219830Y145470D01*
X202050Y159120D02*
X206180D01*
X251330Y111760D02*
Y124770D01*
X238630Y114170D02*
Y124770D01*
X233680Y109220D02*
X238630Y114170D01*
X130850Y109220D02*
Y150870D01*
Y88545D02*
Y109220D01*
X238630Y124770D02*
X238880Y125020D01*
Y144120D01*
Y154130D01*
X203800Y177870D02*
X219830D01*
X202050Y176120D02*
X203800Y177870D01*
X207940Y14110D02*
X223640D01*
X206440Y15610D02*
X207940Y14110D01*
X242440D02*
X242690Y13860D01*
X223640Y14110D02*
X242440D01*
X204190Y13360D02*
X206440Y15610D01*
X229040Y32610D02*
X242690Y46260D01*
X206440Y32610D02*
X229040D01*
X242690Y46260D02*
X251330Y54900D01*
Y70770D01*
X153085Y130480D02*
X161250Y138645D01*
X151250Y128645D02*
X153085Y130480D01*
X191890D01*
X161250Y138645D02*
Y161270D01*
X130850Y88545D02*
X151250Y68145D01*
X130850Y150870D02*
X141250Y161270D01*
X244700Y231680D02*
X248830D01*
X311445Y246670D02*
X313280Y248505D01*
X303280Y238505D02*
X311445Y246670D01*
X303280Y215880D02*
Y238505D01*
X313280Y248505D02*
X323280Y238505D01*
X272640Y246670D02*
X311445D01*
X266930Y252380D02*
X272640Y246670D01*
X251300Y252380D02*
X266930D01*
X272640Y279070D02*
Y299860D01*
X258090Y361540D02*
X260340Y363790D01*
X240890Y363040D02*
X256590D01*
X240640Y363290D02*
X240890Y363040D01*
X221840Y363290D02*
X240640D01*
X235490Y344540D02*
X258090D01*
X221840Y330890D02*
X235490Y344540D01*
X213200Y322250D02*
X221840Y330890D01*
X213200Y306380D02*
Y322250D01*
D16*
X36270Y137720D02*
Y140410D01*
X39800Y143940D02*
X59390D01*
X36270Y140410D02*
X39800Y143940D01*
X85280Y124830D02*
X85390Y124940D01*
D17*
X343017Y360625D02*
Y361225D01*
X350578Y353605D02*
Y357415D01*
X346768Y361225D02*
X350578Y357415D01*
X346768Y353605D02*
X350578D01*
X346768Y357415D02*
Y361225D01*
Y353605D02*
Y361225D01*
X339381Y353687D02*
Y355732D01*
Y356989D01*
X343017Y360625D01*
X337302Y353605D02*
Y359955D01*
X333492Y357415D02*
Y359955D01*
Y357415D02*
X337302Y353605D01*
X350578Y357415D02*
Y361225D01*
X366158Y363220D02*
Y367030D01*
X362348D02*
Y370840D01*
Y363220D02*
X366158D01*
X363726Y370840D02*
X366158D01*
X362348Y367030D02*
X366158D01*
X351129D02*
X354939D01*
X348146Y361225D02*
X350578D01*
X346768D02*
X348146D01*
X344170Y353605D02*
X344230D01*
X340585Y361225D02*
X343017D01*
X339207D02*
X340585D01*
X362348Y370840D02*
X363726D01*
X356811Y363220D02*
Y370840D01*
Y363220D02*
X360621D01*
Y370840D01*
X352507D02*
X354939D01*
X351129D02*
X352507D01*
X351129Y363220D02*
X354939D01*
X345381Y367030D02*
X349191D01*
X345381Y363220D02*
Y370840D01*
X349191Y363220D02*
Y370840D01*
X339450Y363220D02*
Y370840D01*
X342451D01*
X343471Y369820D01*
Y367916D02*
Y369820D01*
Y367030D02*
Y367916D01*
X342900Y367030D02*
X343471D01*
X339450D02*
X342900D01*
X335221Y365760D02*
X337761Y363220D01*
X335221Y365760D02*
Y367030D01*
X336940D01*
X337511D01*
Y367916D01*
Y369820D01*
X336491Y370840D02*
X337511Y369820D01*
X333490Y370840D02*
X336491D01*
X333490Y363220D02*
Y370840D01*
X331411Y363220D02*
Y370840D01*
X327601Y363220D02*
X331411D01*
X327601D02*
Y370840D01*
X339381Y363220D02*
Y364490D01*
Y370840D01*
X327601D02*
X328978D01*
X331411D01*
X325528Y363220D02*
Y370840D01*
X322605Y367916D02*
X325528Y370840D01*
X322605Y365760D02*
Y367916D01*
X319681Y370840D02*
X322605Y367916D01*
X319681Y363220D02*
Y370840D01*
D36*
X70170Y226620D02*
D03*
Y236620D02*
D03*
Y246620D02*
D03*
Y256620D02*
D03*
Y266620D02*
D03*
Y276620D02*
D03*
Y286620D02*
D03*
Y296620D02*
D03*
D37*
X46670Y195120D02*
D03*
Y328120D02*
D03*
D38*
X303280Y215880D02*
D03*
X323280D02*
D03*
X161250Y161270D02*
D03*
X141250D02*
D03*
D39*
X251300Y306380D02*
D03*
X238600D02*
D03*
X225900D02*
D03*
X213200D02*
D03*
X251300Y252380D02*
D03*
X238600D02*
D03*
X225900D02*
D03*
X213200D02*
D03*
X213230Y70770D02*
D03*
X225930D02*
D03*
X238630D02*
D03*
X251330D02*
D03*
X213230Y124770D02*
D03*
X225930D02*
D03*
X238630D02*
D03*
X251330D02*
D03*
D40*
X88900Y259450D02*
D03*
Y273950D02*
D03*
X20323Y93092D02*
D03*
Y107592D02*
D03*
D41*
X106290Y289560D02*
D03*
X89290D02*
D03*
X163440Y205740D02*
D03*
X146440D02*
D03*
X300110Y171450D02*
D03*
X317110D02*
D03*
D42*
X206440Y15610D02*
D03*
Y32610D02*
D03*
X35560Y90592D02*
D03*
Y107592D02*
D03*
X202050Y176120D02*
D03*
Y159120D02*
D03*
X262480Y218030D02*
D03*
Y201030D02*
D03*
X258090Y361540D02*
D03*
Y344540D02*
D03*
D43*
X187353Y15610D02*
D03*
Y31110D02*
D03*
X106005Y152530D02*
D03*
Y137030D02*
D03*
Y105540D02*
D03*
Y90040D02*
D03*
X85390D02*
D03*
Y105540D02*
D03*
X59390D02*
D03*
Y90040D02*
D03*
X20323Y137720D02*
D03*
Y153220D02*
D03*
X35560Y137720D02*
D03*
Y153220D02*
D03*
X276860Y361540D02*
D03*
Y346040D02*
D03*
X207078Y199260D02*
D03*
Y214760D02*
D03*
X258090Y177740D02*
D03*
Y162240D02*
D03*
X223640Y47610D02*
D03*
Y14110D02*
D03*
X239454Y144120D02*
D03*
Y177620D02*
D03*
X226383Y233030D02*
D03*
Y199530D02*
D03*
X240890Y363040D02*
D03*
Y329540D02*
D03*
D44*
X191890Y77290D02*
D03*
Y57290D02*
D03*
X272640Y299860D02*
D03*
Y319860D02*
D03*
D45*
X191890Y98080D02*
D03*
Y130480D02*
D03*
X242690Y13860D02*
D03*
Y46260D02*
D03*
X272640Y279070D02*
D03*
Y246670D02*
D03*
X219830Y177870D02*
D03*
Y145470D02*
D03*
X244700Y199280D02*
D03*
Y231680D02*
D03*
X221840Y330890D02*
D03*
Y363290D02*
D03*
D46*
X122290Y205740D02*
D03*
X136790D02*
D03*
X341260Y171450D02*
D03*
X326760D02*
D03*
D47*
X151250Y128645D02*
D03*
Y68145D02*
D03*
X313280Y309005D02*
D03*
Y248505D02*
D03*
D48*
X85390Y124940D02*
D03*
X59390Y143940D02*
D03*
Y134440D02*
D03*
Y124940D02*
D03*
X85390Y143940D02*
D03*
D49*
X308730Y128770D02*
D03*
Y66770D02*
D03*
X155800Y248380D02*
D03*
Y310380D02*
D03*
D50*
X19050Y93980D02*
X20701Y92329D01*
Y37719D02*
Y92329D01*
Y37719D02*
X29210Y29210D01*
X91740Y143940D02*
X97415D01*
X106005Y152530D01*
Y159167D01*
X100452Y164720D02*
X106005Y159167D01*
X88140Y164720D02*
X100452D01*
X85390Y143940D02*
X91740D01*
X46731Y276620D02*
X70170D01*
X13690Y243579D02*
X46731Y276620D01*
X13690Y176000D02*
Y243579D01*
Y176000D02*
X24970Y164720D01*
X88140D01*
X85390Y105540D02*
X106005D01*
X81630Y90040D02*
X85390D01*
X66130Y105540D02*
X81630Y90040D01*
X59390Y105540D02*
X66130D01*
X85390D02*
Y124940D01*
X59390Y105540D02*
Y124940D01*
X20323Y107592D02*
X35560D01*
D51*
X107950Y33020D02*
D03*
X120650D02*
D03*
X184150Y182880D02*
D03*
X345440Y306070D02*
D03*
X189850Y283210D02*
D03*
X185420Y143840D02*
D03*
X291147Y368300D02*
D03*
X300990Y36830D02*
D03*
D52*
X29210Y29210D02*
D03*
Y369570D02*
D03*
X415290D02*
D03*
Y29210D02*
D03*
X386080Y149860D02*
D03*
Y255270D02*
D03*
M02*
