G04*
G04 #@! TF.GenerationSoftware,Altium Limited,Altium Designer,18.1.11 (251)*
G04*
G04 Layer_Physical_Order=2*
G04 Layer_Color=16711680*
%FSLAX44Y44*%
%MOMM*%
G71*
G01*
G75*
%ADD13C,0.4000*%
%ADD17C,0.1000*%
%ADD50C,0.3000*%
%ADD51C,1.0000*%
%ADD52C,5.0000*%
G04:AMPARAMS|DCode=53|XSize=8.382mm|YSize=10.668mm|CornerRadius=1.0478mm|HoleSize=0mm|Usage=FLASHONLY|Rotation=90.000|XOffset=0mm|YOffset=0mm|HoleType=Round|Shape=RoundedRectangle|*
%AMROUNDEDRECTD53*
21,1,8.3820,8.5725,0,0,90.0*
21,1,6.2865,10.6680,0,0,90.0*
1,1,2.0955,4.2863,3.1433*
1,1,2.0955,4.2863,-3.1433*
1,1,2.0955,-4.2863,-3.1433*
1,1,2.0955,-4.2863,3.1433*
%
%ADD53ROUNDEDRECTD53*%
G04:AMPARAMS|DCode=54|XSize=3.048mm|YSize=1.016mm|CornerRadius=0.127mm|HoleSize=0mm|Usage=FLASHONLY|Rotation=90.000|XOffset=0mm|YOffset=0mm|HoleType=Round|Shape=RoundedRectangle|*
%AMROUNDEDRECTD54*
21,1,3.0480,0.7620,0,0,90.0*
21,1,2.7940,1.0160,0,0,90.0*
1,1,0.2540,0.3810,1.3970*
1,1,0.2540,0.3810,-1.3970*
1,1,0.2540,-0.3810,-1.3970*
1,1,0.2540,-0.3810,1.3970*
%
%ADD54ROUNDEDRECTD54*%
%ADD55R,1.8500X3.5500*%
G04:AMPARAMS|DCode=56|XSize=8.382mm|YSize=10.668mm|CornerRadius=1.0478mm|HoleSize=0mm|Usage=FLASHONLY|Rotation=0.000|XOffset=0mm|YOffset=0mm|HoleType=Round|Shape=RoundedRectangle|*
%AMROUNDEDRECTD56*
21,1,8.3820,8.5725,0,0,0.0*
21,1,6.2865,10.6680,0,0,0.0*
1,1,2.0955,3.1433,-4.2863*
1,1,2.0955,-3.1433,-4.2863*
1,1,2.0955,-3.1433,4.2863*
1,1,2.0955,3.1433,4.2863*
%
%ADD56ROUNDEDRECTD56*%
G04:AMPARAMS|DCode=57|XSize=3.048mm|YSize=1.016mm|CornerRadius=0.127mm|HoleSize=0mm|Usage=FLASHONLY|Rotation=0.000|XOffset=0mm|YOffset=0mm|HoleType=Round|Shape=RoundedRectangle|*
%AMROUNDEDRECTD57*
21,1,3.0480,0.7620,0,0,0.0*
21,1,2.7940,1.0160,0,0,0.0*
1,1,0.2540,1.3970,-0.3810*
1,1,0.2540,-1.3970,-0.3810*
1,1,0.2540,-1.3970,0.3810*
1,1,0.2540,1.3970,0.3810*
%
%ADD57ROUNDEDRECTD57*%
G36*
X393153Y318770D02*
X411480Y300443D01*
X411480Y212090D01*
X402590Y203200D01*
X167005Y203200D01*
X157480Y212725D01*
X157480Y267970D01*
X162560Y273050D01*
X190500Y273050D01*
X236220Y318770D01*
X393153Y318770D01*
D02*
G37*
G36*
X411480Y190658D02*
Y97790D01*
X397510Y83820D01*
X177800Y83820D01*
X157480Y104140D01*
Y143510D01*
X164465Y150495D01*
X200025Y150495D01*
X204470Y154940D01*
X204470Y190500D01*
X213360Y199390D01*
X402748D01*
X411480Y190658D01*
D02*
G37*
G36*
X444500Y0D02*
X198078D01*
Y59690D01*
X197888Y60646D01*
X197346Y61456D01*
X178751Y80052D01*
X179277Y81322D01*
X397510Y81322D01*
X398466Y81512D01*
X399276Y82054D01*
X413246Y96024D01*
X413788Y96834D01*
X413978Y97790D01*
Y190658D01*
X413788Y191614D01*
X413246Y192424D01*
X405154Y200516D01*
X404548Y201213D01*
X405169Y202246D01*
X413246Y210324D01*
X413788Y211134D01*
X413978Y212090D01*
X413978Y300443D01*
X413788Y301399D01*
X413246Y302210D01*
X394920Y320536D01*
X394109Y321078D01*
X393153Y321268D01*
X236220Y321268D01*
X235264Y321078D01*
X234454Y320536D01*
X198352Y284435D01*
X197149Y284843D01*
X197108Y285155D01*
X196357Y286967D01*
X195163Y288523D01*
X194387Y289119D01*
Y292115D01*
X194329Y292405D01*
X195135Y293387D01*
X196215D01*
X197666Y293676D01*
X198897Y294498D01*
X199719Y295728D01*
X200008Y297180D01*
Y304800D01*
X199719Y306252D01*
X198897Y307482D01*
X197666Y308304D01*
X196215Y308593D01*
X168275D01*
X166824Y308304D01*
X165593Y307482D01*
X164771Y306252D01*
X164482Y304800D01*
Y297180D01*
X164771Y295728D01*
X165593Y294498D01*
X166824Y293676D01*
X168275Y293387D01*
X182161D01*
X185235Y290313D01*
X185183Y289020D01*
X184536Y288523D01*
X183342Y286967D01*
X182592Y285155D01*
X182336Y283210D01*
X182592Y281265D01*
X183342Y279453D01*
X184536Y277897D01*
X185942Y276818D01*
X185911Y276287D01*
X185588Y275548D01*
X162560Y275548D01*
X161604Y275358D01*
X160794Y274816D01*
X155714Y269736D01*
X155172Y268926D01*
X154982Y267970D01*
X154982Y212725D01*
X155172Y211769D01*
X155714Y210959D01*
X165239Y201434D01*
X166049Y200892D01*
X167005Y200702D01*
X209480D01*
X209966Y199529D01*
X202704Y192266D01*
X202162Y191456D01*
X201972Y190500D01*
X201972Y155975D01*
X198990Y152993D01*
X164465Y152993D01*
X163509Y152803D01*
X162699Y152261D01*
X155714Y145276D01*
X155172Y144466D01*
X154982Y143510D01*
Y107053D01*
X153712Y106375D01*
X153628Y106431D01*
X153628Y303530D01*
X153438Y304486D01*
X152896Y305296D01*
X121146Y337046D01*
X120336Y337588D01*
X119380Y337778D01*
X0Y337778D01*
Y398780D01*
X444500D01*
Y0D01*
D02*
G37*
G36*
X122704Y41545D02*
X122111Y40342D01*
X120650Y40534D01*
X118705Y40278D01*
X116893Y39528D01*
X115337Y38333D01*
X114935Y37810D01*
X113665D01*
X113263Y38333D01*
X111707Y39528D01*
X109895Y40278D01*
X107950Y40534D01*
X106005Y40278D01*
X105206Y39947D01*
X103936Y40796D01*
X103936Y58654D01*
X105109Y59140D01*
X122704Y41545D01*
D02*
G37*
G36*
X119380Y335280D02*
X151130Y303530D01*
X151130Y104140D01*
X195580Y59690D01*
Y0D01*
X127000D01*
Y28993D01*
X138706D01*
X139133Y28353D01*
X140109Y27701D01*
X141260Y27472D01*
X142411Y27701D01*
X143387Y28353D01*
X144082Y29049D01*
X145341Y29299D01*
X146648Y30172D01*
X147521Y31479D01*
X147827Y33020D01*
X147521Y34561D01*
X146648Y35868D01*
X145341Y36741D01*
X143800Y37047D01*
X127000D01*
Y40782D01*
X101742Y66040D01*
X-0Y66040D01*
X-0Y335280D01*
X119380Y335280D01*
D02*
G37*
G36*
X115337Y27707D02*
X116893Y26512D01*
X118705Y25762D01*
X120650Y25506D01*
X122595Y25762D01*
X123232Y26026D01*
X124502Y25177D01*
Y0D01*
X103936D01*
X103936Y25244D01*
X105206Y26093D01*
X106005Y25762D01*
X107950Y25506D01*
X109895Y25762D01*
X111707Y26512D01*
X113263Y27707D01*
X113665Y28230D01*
X114935D01*
X115337Y27707D01*
D02*
G37*
G36*
X101438Y62230D02*
X101438Y37047D01*
X84800D01*
X83259Y36741D01*
X81952Y35868D01*
X81079Y34561D01*
X80773Y33020D01*
X81079Y31479D01*
X81952Y30172D01*
X83259Y29299D01*
X84517Y29049D01*
X85213Y28353D01*
X86189Y27701D01*
X87340Y27472D01*
X88491Y27701D01*
X89467Y28353D01*
X90106Y28993D01*
X101438D01*
X101438Y-0D01*
X-0Y0D01*
X-0Y62230D01*
X101438Y62230D01*
D02*
G37*
%LPC*%
G36*
X274320Y386063D02*
X266700D01*
X265249Y385774D01*
X264018Y384952D01*
X263196Y383722D01*
X262907Y382270D01*
Y354330D01*
X263196Y352878D01*
X264018Y351648D01*
X265249Y350826D01*
X266700Y350537D01*
X274320D01*
X275772Y350826D01*
X277002Y351648D01*
X277824Y352878D01*
X278113Y354330D01*
Y363763D01*
X285238D01*
X285834Y362987D01*
X287390Y361792D01*
X289203Y361042D01*
X291147Y360786D01*
X293092Y361042D01*
X294905Y361792D01*
X296461Y362987D01*
X297655Y364543D01*
X298406Y366355D01*
X298662Y368300D01*
X298406Y370245D01*
X297655Y372057D01*
X296461Y373613D01*
X294905Y374808D01*
X293092Y375558D01*
X291147Y375814D01*
X289203Y375558D01*
X287390Y374808D01*
X285834Y373613D01*
X285238Y372837D01*
X278113D01*
Y382270D01*
X277824Y383722D01*
X277002Y384952D01*
X275772Y385774D01*
X274320Y386063D01*
D02*
G37*
G36*
X184150Y190394D02*
X182205Y190138D01*
X180393Y189388D01*
X178837Y188193D01*
X177642Y186637D01*
X176892Y184825D01*
X176636Y182880D01*
X176892Y180935D01*
X177642Y179123D01*
X178837Y177567D01*
X179613Y176971D01*
Y173973D01*
X168275D01*
X166824Y173684D01*
X165593Y172862D01*
X164771Y171632D01*
X164482Y170180D01*
Y162560D01*
X164771Y161108D01*
X165593Y159878D01*
X166824Y159056D01*
X168275Y158767D01*
X196215D01*
X197666Y159056D01*
X198897Y159878D01*
X199719Y161108D01*
X200008Y162560D01*
Y170180D01*
X199719Y171632D01*
X198897Y172862D01*
X197666Y173684D01*
X196215Y173973D01*
X188687D01*
Y176971D01*
X189463Y177567D01*
X190658Y179123D01*
X191408Y180935D01*
X191664Y182880D01*
X191408Y184825D01*
X190658Y186637D01*
X189463Y188193D01*
X187907Y189388D01*
X186095Y190138D01*
X184150Y190394D01*
D02*
G37*
G36*
X323850Y55228D02*
X316230D01*
X314778Y54939D01*
X313548Y54117D01*
X312726Y52887D01*
X312437Y51435D01*
Y41367D01*
X306899D01*
X306303Y42143D01*
X304747Y43338D01*
X302935Y44088D01*
X300990Y44344D01*
X299045Y44088D01*
X297233Y43338D01*
X295677Y42143D01*
X294482Y40587D01*
X293732Y38775D01*
X293476Y36830D01*
X293732Y34885D01*
X294482Y33073D01*
X295677Y31517D01*
X297233Y30322D01*
X299045Y29572D01*
X300990Y29316D01*
X302935Y29572D01*
X304747Y30322D01*
X306303Y31517D01*
X306899Y32293D01*
X312437D01*
Y23495D01*
X312726Y22043D01*
X313548Y20813D01*
X314778Y19991D01*
X316230Y19702D01*
X323850D01*
X325302Y19991D01*
X326532Y20813D01*
X327354Y22043D01*
X327643Y23495D01*
Y51435D01*
X327354Y52887D01*
X326532Y54117D01*
X325302Y54939D01*
X323850Y55228D01*
D02*
G37*
G36*
X54670Y320118D02*
X38670D01*
X37714Y319928D01*
X36904Y319386D01*
X36362Y318576D01*
X36172Y317620D01*
Y301120D01*
X36362Y300164D01*
X36904Y299354D01*
X37714Y298812D01*
X38670Y298622D01*
X54670D01*
X55626Y298812D01*
X56437Y299354D01*
X56978Y300164D01*
X57168Y301120D01*
Y317620D01*
X56978Y318576D01*
X56437Y319386D01*
X55626Y319928D01*
X54670Y320118D01*
D02*
G37*
G36*
Y224618D02*
X38670D01*
X37714Y224428D01*
X36904Y223887D01*
X36362Y223076D01*
X36172Y222120D01*
Y205620D01*
X36362Y204664D01*
X36904Y203854D01*
X37714Y203312D01*
X38670Y203122D01*
X54670D01*
X55626Y203312D01*
X56437Y203854D01*
X56978Y204664D01*
X57168Y205620D01*
Y222120D01*
X56978Y223076D01*
X56437Y223887D01*
X55626Y224428D01*
X54670Y224618D01*
D02*
G37*
%LPD*%
D13*
X181610Y300355D02*
X189850Y292115D01*
X182245Y166370D02*
X184150Y168275D01*
Y182880D01*
X270510Y368300D02*
X291147D01*
X189850Y283210D02*
Y292115D01*
X181610Y300355D02*
X182245Y300990D01*
X319405Y36830D02*
X320040Y37465D01*
X300990Y36830D02*
X319405D01*
D17*
X87340Y30480D02*
X89153Y32293D01*
X84800Y33020D02*
X87340Y30480D01*
X141260D02*
X143800Y33020D01*
D50*
X84800D02*
X107950D01*
X120650D02*
X143800D01*
D51*
X107950D02*
D03*
X120650D02*
D03*
X184150Y182880D02*
D03*
X345440Y306070D02*
D03*
X189850Y283210D02*
D03*
X185420Y143840D02*
D03*
X291147Y368300D02*
D03*
X300990Y36830D02*
D03*
D52*
X29210Y29210D02*
D03*
Y369570D02*
D03*
X415290D02*
D03*
Y29210D02*
D03*
X386080Y149860D02*
D03*
Y255270D02*
D03*
D53*
X295910D02*
D03*
X294640Y150495D02*
D03*
D54*
X321310Y368300D02*
D03*
X270510D02*
D03*
X269240Y37465D02*
D03*
X320040D02*
D03*
D55*
X84800Y33020D02*
D03*
X143800D02*
D03*
D56*
X69215Y140970D02*
D03*
Y275590D02*
D03*
D57*
X182245Y115570D02*
D03*
Y166370D02*
D03*
Y250190D02*
D03*
Y300990D02*
D03*
M02*
