G04*
G04 #@! TF.GenerationSoftware,Altium Limited,Altium Designer,18.1.11 (251)*
G04*
G04 Layer_Color=32896*
%FSLAX44Y44*%
%MOMM*%
G71*
G01*
G75*
%ADD10C,0.2500*%
%ADD11C,0.2000*%
%ADD12C,0.1270*%
%ADD16C,0.2540*%
D10*
X272310Y345770D02*
G03*
X272310Y345770I-1250J0D01*
G01*
X160965Y165820D02*
G03*
X160965Y165820I-1250J0D01*
G01*
X320740Y59995D02*
G03*
X320740Y59995I-1250J0D01*
G01*
X160965Y300440D02*
G03*
X160965Y300440I-1250J0D01*
G01*
D11*
X97800Y16270D02*
X130800D01*
X97800Y49770D02*
X130800D01*
D12*
X236910Y231785D02*
Y326785D01*
X355910Y231785D02*
Y326785D01*
X262910D02*
Y344785D01*
Y326785D02*
X278910D01*
Y344785D01*
X288910Y334785D02*
X302910D01*
Y326785D02*
Y334785D01*
X288910Y326785D02*
X302910D01*
X288910D02*
Y334785D01*
X328910Y326785D02*
Y344785D01*
X312910Y326785D02*
X328910D01*
X312910D02*
Y344785D01*
X236910Y326785D02*
X355910D01*
X236910Y231785D02*
X240910Y227785D01*
X350910Y226785D02*
X355910Y231785D01*
X45730Y199970D02*
X140730D01*
X45730Y80970D02*
X140730D01*
Y173970D02*
X158730D01*
X140730Y157970D02*
Y173970D01*
Y157970D02*
X158730D01*
X148730Y133970D02*
Y147970D01*
X140730Y133970D02*
X148730D01*
X140730D02*
Y147970D01*
X148730D01*
X140730Y107970D02*
X158730D01*
X140730D02*
Y123970D01*
X158730D01*
X140730Y80970D02*
Y199970D01*
X41730Y195970D02*
X45730Y199970D01*
X40730Y85970D02*
X45730Y80970D01*
X353640Y78980D02*
Y173980D01*
X234640Y78980D02*
Y173980D01*
X327640Y60980D02*
Y78980D01*
X311640D02*
X327640D01*
X311640Y60980D02*
Y78980D01*
X287640Y70980D02*
X301640D01*
X287640D02*
Y78980D01*
X301640D01*
Y70980D02*
Y78980D01*
X261640Y60980D02*
Y78980D01*
X277640D01*
Y60980D02*
Y78980D01*
X234640D02*
X353640D01*
X349640Y177980D02*
X353640Y173980D01*
X234640D02*
X239640Y178980D01*
X45730Y334590D02*
X140730D01*
X45730Y215590D02*
X140730D01*
Y308590D02*
X158730D01*
X140730Y292590D02*
Y308590D01*
Y292590D02*
X158730D01*
X148730Y268590D02*
Y282590D01*
X140730Y268590D02*
X148730D01*
X140730D02*
Y282590D01*
X148730D01*
X140730Y242590D02*
X158730D01*
X140730D02*
Y258590D01*
X158730D01*
X140730Y215590D02*
Y334590D01*
X41730Y330590D02*
X45730Y334590D01*
X40730Y220590D02*
X45730Y215590D01*
D16*
X383543Y330199D02*
Y340356D01*
X386082Y342895D01*
X391161D01*
X393700Y340356D01*
Y330199D01*
X391161Y327660D01*
X386082D01*
X388622Y332738D02*
X383543Y327660D01*
X386082D02*
X383543Y330199D01*
X370847Y327660D02*
Y342895D01*
X378465Y335277D01*
X368308D01*
X210820Y24130D02*
Y39365D01*
X203202D01*
X200663Y36826D01*
Y31748D01*
X203202Y29208D01*
X210820D01*
X205742D02*
X200663Y24130D01*
X185428D02*
X195585D01*
X185428Y34287D01*
Y36826D01*
X187967Y39365D01*
X193046D01*
X195585Y36826D01*
X180350D02*
X177811Y39365D01*
X172732D01*
X170193Y36826D01*
Y26669D01*
X172732Y24130D01*
X177811D01*
X180350Y26669D01*
Y36826D01*
X173993Y73659D02*
Y83816D01*
X176532Y86355D01*
X181611D01*
X184150Y83816D01*
Y73659D01*
X181611Y71120D01*
X176532D01*
X179072Y76198D02*
X173993Y71120D01*
X176532D02*
X173993Y73659D01*
X168915Y71120D02*
X163837D01*
X166376D01*
Y86355D01*
X168915Y83816D01*
X383543Y73659D02*
Y83816D01*
X386082Y86355D01*
X391161D01*
X393700Y83816D01*
Y73659D01*
X391161Y71120D01*
X386082D01*
X388622Y76198D02*
X383543Y71120D01*
X386082D02*
X383543Y73659D01*
X378465Y83816D02*
X375926Y86355D01*
X370847D01*
X368308Y83816D01*
Y81277D01*
X370847Y78738D01*
X373387D01*
X370847D01*
X368308Y76198D01*
Y73659D01*
X370847Y71120D01*
X375926D01*
X378465Y73659D01*
X176532Y330199D02*
Y340356D01*
X179072Y342895D01*
X184150D01*
X186689Y340356D01*
Y330199D01*
X184150Y327660D01*
X179072D01*
X181611Y332738D02*
X176532Y327660D01*
X179072D02*
X176532Y330199D01*
X161297Y327660D02*
X171454D01*
X161297Y337817D01*
Y340356D01*
X163837Y342895D01*
X168915D01*
X171454Y340356D01*
M02*
