G04*
G04 #@! TF.GenerationSoftware,Altium Limited,Altium Designer,19.1.5 (86)*
G04*
G04 Layer_Color=255*
%FSLAX44Y44*%
%MOMM*%
G71*
G01*
G75*
%ADD92R,1.1620X1.1620*%
%ADD93C,1.2002*%
%ADD94C,5.1000*%
%ADD95R,5.1000X5.1000*%
%ADD96C,1.5000*%
D92*
X203200Y727710D02*
D03*
Y803910D02*
D03*
D93*
Y753110D02*
D03*
Y778510D02*
D03*
X177800D02*
D03*
Y753110D02*
D03*
Y727710D02*
D03*
Y803910D02*
D03*
D94*
X127000Y53340D02*
D03*
D95*
X55370D02*
D03*
D96*
X482893Y444500D02*
D03*
X457493D02*
D03*
X432093D02*
D03*
X381293D02*
D03*
X406693D02*
D03*
X355693D02*
D03*
X330493D02*
D03*
X305093D02*
D03*
X279693D02*
D03*
X254293D02*
D03*
Y596900D02*
D03*
X279693D02*
D03*
X305093D02*
D03*
X330493D02*
D03*
X355693D02*
D03*
X406693D02*
D03*
X381293D02*
D03*
X432093D02*
D03*
X457493D02*
D03*
X482893D02*
D03*
X508293Y444500D02*
D03*
X533693D02*
D03*
X559093D02*
D03*
X584493D02*
D03*
X609893D02*
D03*
X660693D02*
D03*
X635293D02*
D03*
X686093D02*
D03*
X711493D02*
D03*
X736893D02*
D03*
Y596900D02*
D03*
X711493D02*
D03*
X686093D02*
D03*
X635293D02*
D03*
X660693D02*
D03*
X609693D02*
D03*
X584493D02*
D03*
X559093D02*
D03*
X533693D02*
D03*
X508293D02*
D03*
M02*
