G04*
G04 #@! TF.GenerationSoftware,Altium Limited,Altium Designer,19.1.5 (86)*
G04*
G04 Layer_Color=32896*
%FSLAX44Y44*%
%MOMM*%
G71*
G01*
G75*
%ADD10C,0.2540*%
G36*
X155383Y718872D02*
X155477Y718858D01*
X155566Y718839D01*
X155646Y718815D01*
X155721Y718783D01*
X155792Y718750D01*
X155857Y718717D01*
X155914Y718679D01*
X155965Y718642D01*
X156012Y718609D01*
X156050Y718571D01*
X156083Y718543D01*
X156106Y718519D01*
X156125Y718501D01*
X156135Y718486D01*
X156139Y718482D01*
X156186Y718421D01*
X156224Y718355D01*
X156261Y718294D01*
X156290Y718228D01*
X156336Y718101D01*
X156365Y717979D01*
X156374Y717927D01*
X156383Y717876D01*
X156388Y717833D01*
X156393Y717796D01*
X156398Y717763D01*
Y717739D01*
Y717725D01*
Y717720D01*
X156393Y717636D01*
X156383Y717556D01*
X156369Y717476D01*
X156351Y717406D01*
X156327Y717340D01*
X156304Y717274D01*
X156276Y717218D01*
X156252Y717166D01*
X156224Y717119D01*
X156196Y717077D01*
X156172Y717044D01*
X156149Y717011D01*
X156130Y716988D01*
X156116Y716973D01*
X156106Y716964D01*
X156102Y716959D01*
X156045Y716908D01*
X155989Y716861D01*
X155928Y716823D01*
X155867Y716790D01*
X155806Y716757D01*
X155744Y716734D01*
X155632Y716701D01*
X155580Y716687D01*
X155533Y716677D01*
X155491Y716673D01*
X155453Y716668D01*
X155425Y716663D01*
X155322D01*
X155265Y716673D01*
X155152Y716696D01*
X155049Y716729D01*
X154955Y716767D01*
X154880Y716804D01*
X154847Y716823D01*
X154819Y716837D01*
X154795Y716851D01*
X154781Y716861D01*
X154772Y716865D01*
X154767Y716870D01*
X154941Y715991D01*
X156243D01*
Y715611D01*
X154626D01*
X154311Y717283D01*
X154687Y717335D01*
X154720Y717283D01*
X154762Y717241D01*
X154800Y717199D01*
X154838Y717166D01*
X154875Y717142D01*
X154903Y717119D01*
X154922Y717110D01*
X154927Y717105D01*
X154988Y717077D01*
X155049Y717053D01*
X155105Y717039D01*
X155162Y717025D01*
X155209Y717020D01*
X155246Y717016D01*
X155336D01*
X155392Y717025D01*
X155491Y717049D01*
X155575Y717081D01*
X155651Y717114D01*
X155707Y717152D01*
X155749Y717185D01*
X155773Y717208D01*
X155782Y717213D01*
Y717218D01*
X155848Y717298D01*
X155895Y717382D01*
X155928Y717471D01*
X155951Y717561D01*
X155965Y717636D01*
X155970Y717669D01*
Y717697D01*
X155975Y717720D01*
Y717739D01*
Y717749D01*
Y717753D01*
Y717819D01*
X155965Y717880D01*
X155942Y717998D01*
X155909Y718096D01*
X155876Y718176D01*
X155838Y718242D01*
X155806Y718294D01*
X155792Y718308D01*
X155782Y718322D01*
X155777Y718327D01*
X155773Y718331D01*
X155735Y718369D01*
X155697Y718402D01*
X155613Y718458D01*
X155533Y718496D01*
X155453Y718519D01*
X155387Y718538D01*
X155331Y718543D01*
X155312Y718548D01*
X155284D01*
X155195Y718543D01*
X155115Y718524D01*
X155044Y718501D01*
X154988Y718472D01*
X154936Y718444D01*
X154899Y718421D01*
X154880Y718402D01*
X154871Y718397D01*
X154814Y718331D01*
X154767Y718261D01*
X154729Y718181D01*
X154701Y718111D01*
X154683Y718040D01*
X154668Y717988D01*
X154664Y717965D01*
X154659Y717951D01*
Y717941D01*
Y717937D01*
X154241Y717970D01*
X154250Y718045D01*
X154264Y718115D01*
X154307Y718247D01*
X154358Y718360D01*
X154387Y718411D01*
X154415Y718454D01*
X154438Y718496D01*
X154466Y718533D01*
X154490Y718562D01*
X154513Y718585D01*
X154532Y718604D01*
X154542Y718623D01*
X154551Y718627D01*
X154556Y718632D01*
X154612Y718674D01*
X154668Y718712D01*
X154729Y718745D01*
X154791Y718773D01*
X154908Y718815D01*
X155026Y718844D01*
X155077Y718858D01*
X155129Y718862D01*
X155171Y718867D01*
X155209Y718872D01*
X155242Y718876D01*
X155284D01*
X155383Y718872D01*
D02*
G37*
G36*
X152582Y718867D02*
X152657Y718858D01*
X152728Y718848D01*
X152798Y718834D01*
X152859Y718820D01*
X152916Y718806D01*
X152967Y718787D01*
X153014Y718768D01*
X153052Y718754D01*
X153090Y718740D01*
X153118Y718726D01*
X153141Y718712D01*
X153155Y718707D01*
X153165Y718698D01*
X153169D01*
X153273Y718627D01*
X153357Y718548D01*
X153423Y718472D01*
X153480Y718397D01*
X153522Y718331D01*
X153550Y718280D01*
X153559Y718261D01*
X153569Y718247D01*
X153574Y718237D01*
Y718233D01*
X153592Y718176D01*
X153611Y718115D01*
X153639Y717988D01*
X153658Y717857D01*
X153672Y717730D01*
X153677Y717673D01*
X153682Y717617D01*
Y717570D01*
X153686Y717528D01*
Y717495D01*
Y717471D01*
Y717453D01*
Y717448D01*
Y715568D01*
X153254D01*
Y717448D01*
Y717556D01*
X153245Y717659D01*
X153235Y717749D01*
X153221Y717833D01*
X153207Y717908D01*
X153188Y717979D01*
X153174Y718040D01*
X153155Y718092D01*
X153137Y718134D01*
X153118Y718176D01*
X153099Y718204D01*
X153085Y718233D01*
X153071Y718251D01*
X153061Y718266D01*
X153057Y718270D01*
X153052Y718275D01*
X153010Y718313D01*
X152963Y718345D01*
X152859Y718397D01*
X152751Y718435D01*
X152638Y718458D01*
X152535Y718477D01*
X152493Y718482D01*
X152451D01*
X152422Y718486D01*
X152375D01*
X152277Y718482D01*
X152187Y718468D01*
X152103Y718454D01*
X152037Y718430D01*
X151981Y718411D01*
X151938Y718397D01*
X151915Y718383D01*
X151905Y718378D01*
X151840Y718336D01*
X151783Y718284D01*
X151736Y718233D01*
X151703Y718186D01*
X151675Y718139D01*
X151652Y718106D01*
X151642Y718082D01*
X151637Y718073D01*
X151623Y718031D01*
X151614Y717988D01*
X151595Y717890D01*
X151581Y717786D01*
X151572Y717683D01*
X151567Y717594D01*
Y717551D01*
X151562Y717518D01*
Y717490D01*
Y717467D01*
Y717453D01*
Y717448D01*
Y715568D01*
X151130D01*
Y717448D01*
Y717542D01*
X151135Y717631D01*
X151139Y717716D01*
X151149Y717796D01*
X151158Y717866D01*
X151168Y717932D01*
X151182Y717993D01*
X151191Y718049D01*
X151201Y718101D01*
X151215Y718143D01*
X151224Y718181D01*
X151233Y718209D01*
X151243Y718233D01*
X151248Y718251D01*
X151252Y718261D01*
Y718266D01*
X151304Y718369D01*
X151370Y718463D01*
X151435Y718538D01*
X151506Y718604D01*
X151567Y718656D01*
X151619Y718693D01*
X151637Y718703D01*
X151652Y718712D01*
X151661Y718721D01*
X151666D01*
X151783Y718773D01*
X151905Y718811D01*
X152032Y718839D01*
X152150Y718858D01*
X152201Y718862D01*
X152253Y718867D01*
X152300Y718872D01*
X152338D01*
X152371Y718876D01*
X152413D01*
X152582Y718867D01*
D02*
G37*
G36*
X195650Y647147D02*
X195777Y647123D01*
X195885Y647085D01*
X195979Y647048D01*
X196021Y647024D01*
X196054Y647005D01*
X196087Y646987D01*
X196110Y646968D01*
X196129Y646954D01*
X196143Y646944D01*
X196153Y646940D01*
X196157Y646935D01*
X196247Y646846D01*
X196317Y646747D01*
X196374Y646644D01*
X196420Y646540D01*
X196449Y646451D01*
X196463Y646413D01*
X196472Y646380D01*
X196477Y646352D01*
X196482Y646334D01*
X196486Y646320D01*
Y646315D01*
X196087Y646244D01*
X196068Y646348D01*
X196040Y646437D01*
X196007Y646512D01*
X195974Y646573D01*
X195941Y646620D01*
X195913Y646653D01*
X195894Y646677D01*
X195889Y646681D01*
X195828Y646728D01*
X195763Y646766D01*
X195702Y646789D01*
X195641Y646808D01*
X195584Y646818D01*
X195542Y646827D01*
X195504D01*
X195420Y646822D01*
X195345Y646804D01*
X195279Y646780D01*
X195222Y646757D01*
X195180Y646728D01*
X195147Y646705D01*
X195124Y646686D01*
X195119Y646681D01*
X195067Y646625D01*
X195030Y646564D01*
X195006Y646503D01*
X194987Y646446D01*
X194978Y646395D01*
X194968Y646357D01*
Y646329D01*
Y646324D01*
Y646320D01*
Y646268D01*
X194978Y646221D01*
X195001Y646141D01*
X195034Y646070D01*
X195072Y646009D01*
X195110Y645967D01*
X195142Y645934D01*
X195166Y645915D01*
X195171Y645911D01*
X195175D01*
X195255Y645868D01*
X195330Y645835D01*
X195410Y645812D01*
X195481Y645798D01*
X195542Y645788D01*
X195593Y645779D01*
X195655D01*
X195673Y645784D01*
X195697D01*
X195744Y645431D01*
X195683Y645445D01*
X195626Y645455D01*
X195579Y645464D01*
X195537Y645469D01*
X195504Y645474D01*
X195462D01*
X195363Y645464D01*
X195274Y645445D01*
X195194Y645417D01*
X195128Y645384D01*
X195077Y645351D01*
X195039Y645323D01*
X195016Y645304D01*
X195006Y645295D01*
X194945Y645225D01*
X194898Y645149D01*
X194865Y645074D01*
X194846Y644999D01*
X194832Y644938D01*
X194828Y644886D01*
X194823Y644867D01*
Y644853D01*
Y644844D01*
Y644839D01*
X194832Y644736D01*
X194856Y644642D01*
X194884Y644562D01*
X194922Y644492D01*
X194959Y644435D01*
X194987Y644393D01*
X195011Y644365D01*
X195020Y644355D01*
X195095Y644289D01*
X195175Y644242D01*
X195255Y644210D01*
X195330Y644186D01*
X195396Y644172D01*
X195448Y644167D01*
X195467Y644163D01*
X195495D01*
X195579Y644167D01*
X195659Y644186D01*
X195730Y644210D01*
X195786Y644238D01*
X195833Y644261D01*
X195871Y644285D01*
X195889Y644304D01*
X195899Y644308D01*
X195955Y644374D01*
X196002Y644449D01*
X196045Y644529D01*
X196077Y644614D01*
X196101Y644684D01*
X196110Y644717D01*
X196115Y644745D01*
X196120Y644769D01*
X196124Y644788D01*
X196129Y644797D01*
Y644802D01*
X196529Y644750D01*
X196519Y644675D01*
X196505Y644604D01*
X196463Y644473D01*
X196411Y644360D01*
X196383Y644313D01*
X196355Y644266D01*
X196327Y644224D01*
X196298Y644191D01*
X196275Y644158D01*
X196251Y644134D01*
X196237Y644116D01*
X196223Y644101D01*
X196214Y644092D01*
X196209Y644087D01*
X196153Y644045D01*
X196096Y644003D01*
X196040Y643970D01*
X195979Y643942D01*
X195861Y643895D01*
X195749Y643867D01*
X195697Y643857D01*
X195650Y643848D01*
X195608Y643843D01*
X195570Y643838D01*
X195542Y643834D01*
X195499D01*
X195410Y643838D01*
X195330Y643848D01*
X195250Y643862D01*
X195175Y643881D01*
X195105Y643904D01*
X195044Y643928D01*
X194983Y643956D01*
X194931Y643984D01*
X194879Y644008D01*
X194837Y644036D01*
X194799Y644059D01*
X194771Y644083D01*
X194748Y644101D01*
X194729Y644116D01*
X194720Y644125D01*
X194715Y644130D01*
X194658Y644186D01*
X194611Y644247D01*
X194569Y644308D01*
X194531Y644369D01*
X194503Y644426D01*
X194475Y644487D01*
X194438Y644600D01*
X194428Y644651D01*
X194419Y644698D01*
X194409Y644741D01*
X194405Y644778D01*
X194400Y644806D01*
Y644830D01*
Y644844D01*
Y644849D01*
X194405Y644961D01*
X194424Y645065D01*
X194452Y645154D01*
X194480Y645229D01*
X194508Y645290D01*
X194536Y645337D01*
X194555Y645366D01*
X194560Y645375D01*
X194625Y645445D01*
X194696Y645507D01*
X194771Y645554D01*
X194846Y645591D01*
X194912Y645619D01*
X194964Y645638D01*
X194983Y645643D01*
X194997Y645648D01*
X195006Y645652D01*
X195011D01*
X194931Y645695D01*
X194865Y645737D01*
X194809Y645784D01*
X194762Y645826D01*
X194724Y645864D01*
X194696Y645897D01*
X194682Y645915D01*
X194677Y645925D01*
X194640Y645991D01*
X194611Y646056D01*
X194588Y646122D01*
X194574Y646183D01*
X194564Y646235D01*
X194560Y646273D01*
Y646301D01*
Y646310D01*
X194564Y646390D01*
X194578Y646470D01*
X194597Y646540D01*
X194621Y646601D01*
X194644Y646653D01*
X194663Y646695D01*
X194677Y646719D01*
X194682Y646728D01*
X194729Y646799D01*
X194785Y646860D01*
X194842Y646911D01*
X194898Y646958D01*
X194945Y646991D01*
X194987Y647020D01*
X195016Y647034D01*
X195020Y647038D01*
X195025D01*
X195110Y647076D01*
X195194Y647104D01*
X195279Y647128D01*
X195354Y647142D01*
X195415Y647151D01*
X195467Y647156D01*
X195584D01*
X195650Y647147D01*
D02*
G37*
G36*
X199644Y645262D02*
Y645168D01*
X199639Y645079D01*
X199635Y644994D01*
X199625Y644914D01*
X199616Y644844D01*
X199606Y644778D01*
X199592Y644717D01*
X199583Y644661D01*
X199574Y644609D01*
X199559Y644567D01*
X199550Y644529D01*
X199541Y644501D01*
X199531Y644477D01*
X199527Y644459D01*
X199522Y644449D01*
Y644445D01*
X199470Y644341D01*
X199404Y644247D01*
X199339Y644172D01*
X199268Y644106D01*
X199207Y644054D01*
X199155Y644017D01*
X199137Y644008D01*
X199123Y643998D01*
X199113Y643989D01*
X199108D01*
X198991Y643937D01*
X198869Y643900D01*
X198742Y643871D01*
X198624Y643852D01*
X198573Y643848D01*
X198521Y643843D01*
X198474Y643838D01*
X198436D01*
X198403Y643834D01*
X198361D01*
X198192Y643843D01*
X198117Y643852D01*
X198046Y643862D01*
X197976Y643876D01*
X197915Y643890D01*
X197858Y643904D01*
X197807Y643923D01*
X197760Y643942D01*
X197722Y643956D01*
X197685Y643970D01*
X197656Y643984D01*
X197633Y643998D01*
X197619Y644003D01*
X197609Y644012D01*
X197605D01*
X197501Y644083D01*
X197417Y644163D01*
X197351Y644238D01*
X197295Y644313D01*
X197252Y644379D01*
X197224Y644430D01*
X197215Y644449D01*
X197205Y644463D01*
X197201Y644473D01*
Y644477D01*
X197182Y644534D01*
X197163Y644595D01*
X197135Y644722D01*
X197116Y644853D01*
X197102Y644980D01*
X197097Y645037D01*
X197092Y645093D01*
Y645140D01*
X197088Y645182D01*
Y645215D01*
Y645239D01*
Y645257D01*
Y645262D01*
Y647142D01*
X197520D01*
Y645262D01*
Y645154D01*
X197530Y645051D01*
X197539Y644961D01*
X197553Y644877D01*
X197567Y644802D01*
X197586Y644731D01*
X197600Y644670D01*
X197619Y644618D01*
X197638Y644576D01*
X197656Y644534D01*
X197675Y644506D01*
X197689Y644477D01*
X197703Y644459D01*
X197713Y644445D01*
X197717Y644440D01*
X197722Y644435D01*
X197764Y644398D01*
X197811Y644365D01*
X197915Y644313D01*
X198023Y644275D01*
X198136Y644252D01*
X198239Y644233D01*
X198281Y644228D01*
X198324D01*
X198352Y644224D01*
X198399D01*
X198498Y644228D01*
X198587Y644242D01*
X198671Y644257D01*
X198737Y644280D01*
X198794Y644299D01*
X198836Y644313D01*
X198859Y644327D01*
X198869Y644332D01*
X198934Y644374D01*
X198991Y644426D01*
X199038Y644477D01*
X199071Y644524D01*
X199099Y644571D01*
X199123Y644604D01*
X199132Y644628D01*
X199137Y644637D01*
X199151Y644679D01*
X199160Y644722D01*
X199179Y644820D01*
X199193Y644924D01*
X199202Y645027D01*
X199207Y645117D01*
Y645159D01*
X199212Y645192D01*
Y645220D01*
Y645243D01*
Y645257D01*
Y645262D01*
Y647142D01*
X199644D01*
Y645262D01*
D02*
G37*
D10*
X228893Y405130D02*
Y457200D01*
Y584200D02*
Y637540D01*
Y483870D02*
X266993D01*
Y557530D01*
X228893D02*
X266993D01*
X762293Y405130D02*
Y637540D01*
X228893Y405130D02*
X762293Y405130D01*
X228893Y457200D02*
Y584200D01*
Y637540D02*
X762293Y637540D01*
M02*
