G04*
G04 #@! TF.GenerationSoftware,Altium Limited,Altium Designer,19.1.5 (86)*
G04*
G04 Layer_Physical_Order=1*
G04 Layer_Color=255*
%FSLAX44Y44*%
%MOMM*%
G71*
G01*
G75*
%ADD10C,0.2540*%
%ADD17R,0.6200X0.6000*%
%ADD18R,0.9000X0.7000*%
%ADD19R,0.9500X1.0500*%
%ADD20R,0.5200X0.7200*%
%ADD21R,0.5500X0.4500*%
%ADD22O,0.5500X1.2500*%
%ADD23R,0.7200X0.5200*%
%ADD24R,1.0500X0.9500*%
%ADD25R,0.8000X0.6000*%
%ADD26R,0.5400X0.9400*%
%ADD27R,0.8000X0.6000*%
%ADD28R,1.4000X1.0500*%
%ADD29R,0.9100X1.2200*%
%ADD30R,0.5500X0.6500*%
%ADD31R,0.9500X1.6500*%
%ADD32R,3.2500X1.6500*%
%ADD33R,0.8000X1.3000*%
%ADD34R,2.1000X3.0000*%
%ADD35R,10.5000X8.6000*%
%ADD36R,1.1000X3.5000*%
%ADD37R,0.6500X0.5500*%
%ADD38R,0.6000X1.9000*%
%ADD39R,2.1000X2.8000*%
%ADD40R,1.9000X4.4000*%
%ADD41R,2.9000X5.4000*%
%ADD42R,1.5000X2.5000*%
%ADD43R,7.0000X7.0000*%
%ADD44R,1.7000X1.5400*%
%ADD45O,0.2000X0.7000*%
%ADD46O,0.7000X0.2000*%
%ADD47R,3.0000X2.1000*%
%ADD48R,1.3000X0.8000*%
%ADD88C,0.3810*%
%ADD89C,0.3998*%
%ADD90C,0.6424*%
%ADD91C,0.1778*%
%ADD92R,1.1620X1.1620*%
%ADD93C,1.2002*%
%ADD94C,5.1000*%
%ADD95R,5.1000X5.1000*%
%ADD96C,1.5000*%
%ADD97C,1.2700*%
%ADD98C,0.7996*%
G36*
X961210Y493420D02*
Y307340D01*
X648790D01*
X595450Y254000D01*
Y0D01*
X0D01*
Y545010D01*
X43000Y588010D01*
X148410Y693420D01*
Y1028700D01*
X275190D01*
X961210Y493420D01*
D02*
G37*
%LPC*%
G36*
X349126Y823662D02*
X347004Y823383D01*
X345027Y822564D01*
X343329Y821261D01*
X342026Y819563D01*
X341207Y817586D01*
X340928Y815464D01*
X341207Y813342D01*
X342026Y811365D01*
X343329Y809667D01*
X345027Y808364D01*
X347004Y807545D01*
X349126Y807266D01*
X351248Y807545D01*
X351496Y807648D01*
X373463Y785681D01*
Y782673D01*
X373316Y781464D01*
X369046D01*
Y769424D01*
Y757384D01*
X373316D01*
Y758146D01*
X382554D01*
Y780702D01*
X381165D01*
Y782117D01*
X382276Y783111D01*
X396998D01*
Y777146D01*
X421554D01*
Y808702D01*
X396998D01*
Y802737D01*
X382276D01*
X381582Y802599D01*
X380994Y802206D01*
X380601Y801618D01*
X380463Y800924D01*
Y791369D01*
X379193Y790843D01*
X356942Y813094D01*
X357045Y813342D01*
X357324Y815464D01*
X357045Y817586D01*
X356226Y819563D01*
X354923Y821261D01*
X353225Y822564D01*
X351248Y823383D01*
X349126Y823662D01*
D02*
G37*
G36*
X203200Y786356D02*
X201169Y786089D01*
X199277Y785305D01*
X197652Y784058D01*
X196405Y782433D01*
X195621Y780541D01*
X195354Y778510D01*
X195621Y776479D01*
X196405Y774587D01*
X197652Y772962D01*
X199277Y771715D01*
X201169Y770931D01*
X203200Y770664D01*
X205231Y770931D01*
X207123Y771715D01*
X208748Y772962D01*
X209995Y774587D01*
X210779Y776479D01*
X211046Y778510D01*
X210779Y780541D01*
X209995Y782433D01*
X208748Y784058D01*
X207123Y785305D01*
X205231Y786089D01*
X203200Y786356D01*
D02*
G37*
G36*
Y760956D02*
X201169Y760689D01*
X199277Y759905D01*
X197652Y758658D01*
X196405Y757033D01*
X195621Y755141D01*
X195354Y753110D01*
X195621Y751079D01*
X196405Y749187D01*
X197652Y747562D01*
X199277Y746315D01*
X201169Y745531D01*
X203200Y745264D01*
X205231Y745531D01*
X207123Y746315D01*
X208748Y747562D01*
X209995Y749187D01*
X210779Y751079D01*
X211046Y753110D01*
X210779Y755141D01*
X209995Y757033D01*
X208748Y758658D01*
X207123Y759905D01*
X205231Y760689D01*
X203200Y760956D01*
D02*
G37*
G36*
X265656Y743074D02*
X261786D01*
Y738204D01*
X265656D01*
Y743074D01*
D02*
G37*
G36*
X257686Y774132D02*
X255564Y773853D01*
X253587Y773034D01*
X251889Y771731D01*
X250586Y770033D01*
X249767Y768056D01*
X249488Y765934D01*
X249767Y763812D01*
X250586Y761835D01*
X251889Y760137D01*
X253587Y758834D01*
X255564Y758016D01*
X257686Y757736D01*
X259808Y758016D01*
X260515Y758309D01*
X267167Y751658D01*
X266681Y750484D01*
X261786D01*
Y745614D01*
X266926D01*
Y744344D01*
X268196D01*
Y738204D01*
X272066D01*
Y745099D01*
X273239Y745585D01*
X274548Y744276D01*
Y738966D01*
X283304D01*
Y739648D01*
X305139D01*
Y739154D01*
X305491Y737387D01*
X306491Y735890D01*
X307989Y734889D01*
X309756Y734538D01*
X311523Y734889D01*
X313020Y735890D01*
X314021Y737387D01*
X314373Y739154D01*
Y746154D01*
X314021Y747921D01*
X313020Y749419D01*
X311523Y750419D01*
X309756Y750771D01*
X307989Y750419D01*
X306491Y749419D01*
X305491Y747921D01*
X305377Y747350D01*
X283304D01*
Y749722D01*
X279994D01*
X265639Y764077D01*
X265884Y765934D01*
X265605Y768056D01*
X264786Y770033D01*
X263483Y771731D01*
X261785Y773034D01*
X259808Y773853D01*
X257686Y774132D01*
D02*
G37*
G36*
X211550Y736060D02*
X204470D01*
Y728980D01*
X211550D01*
Y736060D01*
D02*
G37*
G36*
X201930D02*
X194850D01*
Y728980D01*
X201930D01*
Y736060D01*
D02*
G37*
G36*
X398656Y750771D02*
X396889Y750419D01*
X395391Y749419D01*
X394391Y747921D01*
X394039Y746154D01*
Y739154D01*
X394391Y737387D01*
X395391Y735890D01*
X396889Y734889D01*
X398656Y734538D01*
X400423Y734889D01*
X401920Y735890D01*
X402921Y737387D01*
X403203Y738803D01*
X411636D01*
X413488Y736951D01*
X413442Y736600D01*
X413721Y734478D01*
X414540Y732501D01*
X415843Y730803D01*
X417541Y729500D01*
X419518Y728681D01*
X421640Y728402D01*
X423762Y728681D01*
X425739Y729500D01*
X427437Y730803D01*
X428740Y732501D01*
X429559Y734478D01*
X429838Y736600D01*
X429559Y738722D01*
X428740Y740699D01*
X427437Y742397D01*
X425739Y743700D01*
X423762Y744519D01*
X421640Y744798D01*
X419518Y744519D01*
X417605Y743726D01*
X415954Y745377D01*
X414705Y746212D01*
X413231Y746505D01*
X413231Y746505D01*
X403203D01*
X402921Y747921D01*
X401920Y749419D01*
X400423Y750419D01*
X398656Y750771D01*
D02*
G37*
G36*
X385956D02*
X384189Y750419D01*
X382691Y749419D01*
X381691Y747921D01*
X381339Y746154D01*
Y739154D01*
X381691Y737387D01*
X382167Y736674D01*
Y727267D01*
X381981Y727190D01*
X380283Y725887D01*
X378980Y724189D01*
X378377Y722732D01*
X377107Y722985D01*
Y736768D01*
X377521Y737387D01*
X377873Y739154D01*
Y746154D01*
X377521Y747921D01*
X376520Y749419D01*
X375023Y750419D01*
X373256Y750771D01*
X371489Y750419D01*
X369991Y749419D01*
X368991Y747921D01*
X368639Y746154D01*
Y739154D01*
X368991Y737387D01*
X369405Y736768D01*
Y713864D01*
X369405Y713864D01*
X369698Y712390D01*
X370533Y711141D01*
X378277Y703397D01*
X379526Y702562D01*
X381000Y702269D01*
X381000Y702269D01*
X414884D01*
X414991Y701458D01*
X415810Y699481D01*
X417113Y697783D01*
X418811Y696480D01*
X420788Y695661D01*
X422910Y695382D01*
X425032Y695661D01*
X427009Y696480D01*
X428707Y697783D01*
X430010Y699481D01*
X430829Y701458D01*
X431108Y703580D01*
X430829Y705702D01*
X430010Y707679D01*
X428707Y709377D01*
X427009Y710680D01*
X425032Y711499D01*
X422910Y711778D01*
X420788Y711499D01*
X418811Y710680D01*
X417887Y709971D01*
X382595D01*
X377107Y715459D01*
Y717195D01*
X378377Y717448D01*
X378980Y715991D01*
X380283Y714293D01*
X381981Y712990D01*
X383958Y712171D01*
X386080Y711892D01*
X388202Y712171D01*
X390179Y712990D01*
X391877Y714293D01*
X393180Y715991D01*
X393999Y717968D01*
X394278Y720090D01*
X393999Y722212D01*
X393180Y724189D01*
X391877Y725887D01*
X390179Y727190D01*
X389869Y727318D01*
Y736860D01*
X390221Y737387D01*
X390573Y739154D01*
Y746154D01*
X390221Y747921D01*
X389220Y749419D01*
X387723Y750419D01*
X385956Y750771D01*
D02*
G37*
G36*
X211550Y726440D02*
X204470D01*
Y719360D01*
X211550D01*
Y726440D01*
D02*
G37*
G36*
X201930D02*
X194850D01*
Y719360D01*
X201930D01*
Y726440D01*
D02*
G37*
G36*
X532032Y706918D02*
X531588D01*
Y706918D01*
X522858D01*
X522032Y706918D01*
Y706918D01*
X521588D01*
Y706918D01*
X512858D01*
X512032Y706918D01*
Y706918D01*
X511588D01*
Y706918D01*
X502858D01*
X502032Y706918D01*
Y706918D01*
X501588D01*
Y706918D01*
X492032Y706918D01*
X490762Y706918D01*
X482858D01*
X482032Y706918D01*
X480762Y706918D01*
X472032D01*
Y684362D01*
X480762D01*
X481588Y684362D01*
X482858Y684362D01*
X490762D01*
X491588Y684362D01*
X492858Y684362D01*
X497346D01*
X497832Y683189D01*
X491594Y676951D01*
X395643D01*
X394169Y676658D01*
X392920Y675823D01*
X392920Y675823D01*
X355275Y638178D01*
X350665D01*
Y629448D01*
X350665Y629122D01*
Y628178D01*
X350665Y627852D01*
Y619122D01*
X351842D01*
Y605347D01*
X351014Y605004D01*
X349076Y603517D01*
X347588Y601579D01*
X346654Y599322D01*
X346335Y596900D01*
X346654Y594478D01*
X347588Y592221D01*
X349076Y590283D01*
X351014Y588796D01*
X351795Y588472D01*
Y580028D01*
X351072D01*
Y572744D01*
X350310Y571790D01*
X350310Y571018D01*
Y568270D01*
X355600D01*
X360890D01*
X360890Y571790D01*
X360128Y572744D01*
Y580028D01*
X359497D01*
Y588434D01*
X360372Y588796D01*
X362310Y590283D01*
X363797Y592221D01*
X364732Y594478D01*
X365051Y596900D01*
X364732Y599322D01*
X363797Y601579D01*
X362310Y603517D01*
X360372Y605004D01*
X359544Y605347D01*
Y619122D01*
X360721D01*
Y627852D01*
X360721Y628178D01*
Y629122D01*
X360721Y629448D01*
Y632732D01*
X397238Y669249D01*
X492096D01*
X492622Y667979D01*
X491434Y666791D01*
X402590D01*
X402590Y666791D01*
X401116Y666498D01*
X399867Y665663D01*
X379324Y645120D01*
X378489Y643871D01*
X378196Y642397D01*
X378196Y642397D01*
Y638178D01*
X376265D01*
Y629448D01*
X376265Y629122D01*
Y628178D01*
X376265Y627852D01*
Y619122D01*
X377442D01*
Y605347D01*
X376614Y605004D01*
X374675Y603517D01*
X373188Y601579D01*
X372253Y599322D01*
X371935Y596900D01*
X372253Y594478D01*
X373188Y592221D01*
X374675Y590283D01*
X376614Y588796D01*
X377295Y588513D01*
Y580028D01*
X376472D01*
Y579050D01*
X375607Y578472D01*
X375607Y578472D01*
X362063Y564929D01*
X360890Y565415D01*
Y565730D01*
X355600D01*
X350310D01*
Y562651D01*
X221833D01*
X221730Y562899D01*
X220427Y564597D01*
X218729Y565900D01*
X216752Y566719D01*
X214630Y566998D01*
X212508Y566719D01*
X210531Y565900D01*
X208833Y564597D01*
X207530Y562899D01*
X206711Y560922D01*
X206432Y558800D01*
X206711Y556678D01*
X207530Y554701D01*
X208833Y553003D01*
X210400Y551801D01*
X210386Y551355D01*
X210041Y550531D01*
X150938D01*
X150578Y551652D01*
X150578Y551978D01*
Y559708D01*
X141522D01*
Y559531D01*
X85780D01*
X84306Y559238D01*
X83057Y558403D01*
X83057Y558403D01*
X69667Y545013D01*
X68832Y543764D01*
X68539Y542290D01*
X68539Y542290D01*
Y481132D01*
X68539Y481132D01*
X68832Y479658D01*
X69667Y478409D01*
X72009Y476067D01*
X72009Y476067D01*
X72606Y475668D01*
X97607Y450667D01*
X97607Y450667D01*
X98856Y449832D01*
X100330Y449539D01*
X100330Y449539D01*
X119570D01*
X119570Y449539D01*
X121044Y449832D01*
X122293Y450667D01*
X147320Y475694D01*
X157107Y465907D01*
X157107Y465907D01*
X158356Y465072D01*
X159830Y464779D01*
X169328D01*
X169430Y464531D01*
X170733Y462833D01*
X172431Y461530D01*
X174408Y460711D01*
X176530Y460432D01*
X178652Y460711D01*
X180629Y461530D01*
X182327Y462833D01*
X183630Y464531D01*
X184449Y466508D01*
X184728Y468630D01*
X184449Y470752D01*
X183630Y472729D01*
X182327Y474427D01*
X180904Y475519D01*
X181195Y476728D01*
X181229Y476789D01*
X431101D01*
X432781Y475500D01*
X434758Y474681D01*
X436880Y474402D01*
X439002Y474681D01*
X440979Y475500D01*
X442677Y476803D01*
X443980Y478501D01*
X444799Y480478D01*
X445078Y482600D01*
X444799Y484722D01*
X443980Y486699D01*
X442677Y488397D01*
X440979Y489700D01*
X439002Y490519D01*
X436880Y490798D01*
X434758Y490519D01*
X432781Y489700D01*
X431083Y488397D01*
X429780Y486699D01*
X428961Y484722D01*
X428931Y484491D01*
X153674D01*
X153308Y485140D01*
X153674Y485789D01*
X408569D01*
X408569Y485789D01*
X410043Y486082D01*
X411292Y486917D01*
X414710Y490335D01*
X415708Y489921D01*
X417830Y489642D01*
X419952Y489921D01*
X421929Y490740D01*
X423627Y492043D01*
X424930Y493741D01*
X425749Y495718D01*
X426028Y497840D01*
X425749Y499962D01*
X424930Y501939D01*
X423627Y503637D01*
X421929Y504940D01*
X419952Y505759D01*
X417830Y506038D01*
X415708Y505759D01*
X413731Y504940D01*
X412033Y503637D01*
X410730Y501939D01*
X409911Y499962D01*
X409632Y497840D01*
X409829Y496346D01*
X406974Y493491D01*
X151848D01*
Y493668D01*
X148238D01*
X143873Y498033D01*
X142624Y498868D01*
X141150Y499161D01*
X141150Y499161D01*
X116911D01*
Y500762D01*
X116911Y501088D01*
Y502032D01*
X116911Y502358D01*
Y503959D01*
X130779D01*
X130779Y503959D01*
X132253Y504252D01*
X133503Y505087D01*
X140624Y512208D01*
X141882D01*
X142792Y511338D01*
Y503282D01*
X147199D01*
X147571Y503208D01*
X147571Y503208D01*
X168665D01*
X169430Y501361D01*
X170733Y499663D01*
X172431Y498360D01*
X174408Y497541D01*
X176530Y497262D01*
X178652Y497541D01*
X180629Y498360D01*
X182327Y499663D01*
X183630Y501361D01*
X184449Y503338D01*
X184728Y505460D01*
X184449Y507582D01*
X183630Y509559D01*
X182327Y511257D01*
X182088Y511440D01*
X182519Y512710D01*
X354912D01*
X356153Y511093D01*
X357851Y509790D01*
X359828Y508971D01*
X361950Y508692D01*
X364072Y508971D01*
X366049Y509790D01*
X367747Y511093D01*
X369050Y512791D01*
X369869Y514768D01*
X370148Y516890D01*
X369869Y519012D01*
X369050Y520989D01*
X367747Y522687D01*
X366049Y523990D01*
X364072Y524809D01*
X361950Y525088D01*
X359828Y524809D01*
X357851Y523990D01*
X356153Y522687D01*
X354850Y520989D01*
X354611Y520412D01*
X147571D01*
X147571Y520412D01*
X147199Y520338D01*
X142792D01*
Y519910D01*
X139028D01*
X137555Y519617D01*
X136427Y520391D01*
X136468Y520700D01*
X136189Y522822D01*
X135370Y524799D01*
X134067Y526497D01*
X132513Y527689D01*
X132538Y528192D01*
X132869Y528959D01*
X382535D01*
X393376Y518118D01*
X393376Y518118D01*
X394625Y517283D01*
X396099Y516990D01*
X396099Y516990D01*
X508804D01*
X576487Y449307D01*
X576388Y449179D01*
X575453Y446922D01*
X575135Y444500D01*
X575453Y442078D01*
X576388Y439821D01*
X577876Y437883D01*
X579814Y436396D01*
X582071Y435461D01*
X584493Y435142D01*
X586915Y435461D01*
X589172Y436396D01*
X591110Y437883D01*
X592597Y439821D01*
X593532Y442078D01*
X593851Y444500D01*
X593532Y446922D01*
X592597Y449179D01*
X591110Y451117D01*
X589172Y452604D01*
X586915Y453539D01*
X584493Y453858D01*
X583022Y453665D01*
X513122Y523564D01*
X511873Y524399D01*
X510399Y524692D01*
X510399Y524692D01*
X415015D01*
X414763Y525962D01*
X415579Y526300D01*
X417277Y527603D01*
X418580Y529301D01*
X418683Y529549D01*
X467360D01*
X467360Y529549D01*
X468834Y529842D01*
X470083Y530677D01*
X485323Y545917D01*
X485323Y545917D01*
X486158Y547166D01*
X486451Y548640D01*
X486451Y548640D01*
Y588332D01*
X487572Y588796D01*
X489510Y590283D01*
X490997Y592221D01*
X491932Y594478D01*
X492251Y596900D01*
X491932Y599322D01*
X490997Y601579D01*
X489510Y603517D01*
X487572Y605004D01*
X485315Y605939D01*
X482893Y606258D01*
X480471Y605939D01*
X478214Y605004D01*
X476275Y603517D01*
X474788Y601579D01*
X473853Y599322D01*
X473535Y596900D01*
X473853Y594478D01*
X474788Y592221D01*
X476275Y590283D01*
X478214Y588796D01*
X478749Y588574D01*
Y550235D01*
X465765Y537251D01*
X418683D01*
X418580Y537499D01*
X417277Y539197D01*
X415579Y540500D01*
X413602Y541319D01*
X412678Y541441D01*
X412348Y542125D01*
X412301Y542771D01*
X412373Y542829D01*
X451421D01*
X453101Y541540D01*
X455078Y540721D01*
X457200Y540442D01*
X459322Y540721D01*
X461299Y541540D01*
X462997Y542843D01*
X464300Y544541D01*
X465119Y546518D01*
X465398Y548640D01*
X465119Y550762D01*
X464300Y552739D01*
X462997Y554437D01*
X461299Y555740D01*
X459322Y556559D01*
X457200Y556838D01*
X455078Y556559D01*
X453101Y555740D01*
X451403Y554437D01*
X450100Y552739D01*
X449281Y550762D01*
X449251Y550531D01*
X219219D01*
X218874Y551355D01*
X218860Y551801D01*
X220427Y553003D01*
X221730Y554701D01*
X221833Y554949D01*
X361381D01*
X361381Y554949D01*
X362855Y555242D01*
X364104Y556077D01*
X374537Y566510D01*
X375710Y566024D01*
Y562210D01*
X379730D01*
Y567000D01*
X381000D01*
Y568270D01*
X386290D01*
Y571790D01*
X385528Y571972D01*
Y580028D01*
X384997D01*
Y588392D01*
X385972Y588796D01*
X387910Y590283D01*
X389397Y592221D01*
X390332Y594478D01*
X390651Y596900D01*
X390332Y599322D01*
X389397Y601579D01*
X387910Y603517D01*
X385972Y605004D01*
X385144Y605347D01*
Y619122D01*
X386321D01*
Y627852D01*
X386321Y628178D01*
Y629122D01*
X386321Y629448D01*
Y638178D01*
X385898D01*
Y640802D01*
X404185Y659089D01*
X425526D01*
X426012Y657916D01*
X406274Y638178D01*
X401665D01*
Y629448D01*
X401665Y629122D01*
Y628178D01*
X401665Y627852D01*
Y619122D01*
X402842D01*
Y605347D01*
X402014Y605004D01*
X400075Y603517D01*
X398588Y601579D01*
X397654Y599322D01*
X397335Y596900D01*
X397654Y594478D01*
X398588Y592221D01*
X400075Y590283D01*
X402014Y588796D01*
X403330Y588250D01*
Y580028D01*
X403142D01*
Y572744D01*
X402380Y571790D01*
X402380Y571018D01*
Y568270D01*
X407670D01*
X412960D01*
Y571790D01*
X412198Y572744D01*
Y580028D01*
X411032D01*
Y588655D01*
X411372Y588796D01*
X413310Y590283D01*
X414797Y592221D01*
X415732Y594478D01*
X416051Y596900D01*
X415732Y599322D01*
X414797Y601579D01*
X413310Y603517D01*
X411372Y605004D01*
X410544Y605347D01*
Y619122D01*
X411721D01*
Y627852D01*
X411721Y628178D01*
Y629122D01*
X411721Y629448D01*
Y632732D01*
X431540Y652551D01*
X444388D01*
X444874Y651378D01*
X431674Y638178D01*
X427065D01*
Y629448D01*
X427065Y629122D01*
Y628178D01*
X427065Y627852D01*
Y619122D01*
X428242D01*
Y605347D01*
X427414Y605004D01*
X425476Y603517D01*
X423988Y601579D01*
X423054Y599322D01*
X422735Y596900D01*
X423054Y594478D01*
X423988Y592221D01*
X425476Y590283D01*
X427414Y588796D01*
X428095Y588513D01*
Y580028D01*
X427272D01*
Y572744D01*
X426510Y571790D01*
X426510Y571018D01*
Y568270D01*
X431800D01*
X437090D01*
Y571790D01*
X436328Y572744D01*
Y580028D01*
X435797D01*
Y588392D01*
X436772Y588796D01*
X438710Y590283D01*
X440197Y592221D01*
X441132Y594478D01*
X441451Y596900D01*
X441132Y599322D01*
X440197Y601579D01*
X438710Y603517D01*
X436772Y605004D01*
X435944Y605347D01*
Y619122D01*
X437121D01*
Y627852D01*
X437121Y628178D01*
Y629122D01*
X437121Y629448D01*
Y632732D01*
X450402Y646013D01*
X498860D01*
X499386Y644743D01*
X492144Y637501D01*
X462521D01*
Y638178D01*
X452465D01*
Y629448D01*
X452465Y629122D01*
Y628178D01*
X452465Y627852D01*
Y619122D01*
X453642D01*
Y605347D01*
X452814Y605004D01*
X450876Y603517D01*
X449388Y601579D01*
X448453Y599322D01*
X448135Y596900D01*
X448453Y594478D01*
X449388Y592221D01*
X450876Y590283D01*
X452814Y588796D01*
X454130Y588250D01*
Y580028D01*
X453942D01*
Y572744D01*
X453180Y571790D01*
X453180Y571018D01*
Y568270D01*
X458470D01*
X463760D01*
Y571790D01*
X462998Y572744D01*
Y580028D01*
X461832D01*
Y588655D01*
X462172Y588796D01*
X464110Y590283D01*
X465597Y592221D01*
X466532Y594478D01*
X466851Y596900D01*
X466532Y599322D01*
X465597Y601579D01*
X464110Y603517D01*
X462172Y605004D01*
X461344Y605347D01*
Y619122D01*
X462521D01*
Y627852D01*
X462521Y628178D01*
Y629122D01*
X463645Y629799D01*
X493739D01*
X493739Y629799D01*
X495213Y630092D01*
X496462Y630927D01*
X548532Y682997D01*
X548532Y682997D01*
X549367Y684246D01*
X549390Y684362D01*
X551588D01*
Y706918D01*
X542858D01*
X542032Y706918D01*
Y706918D01*
X541588D01*
Y706918D01*
X532858D01*
X532032Y706918D01*
Y706918D01*
D02*
G37*
G36*
X590588Y734918D02*
X566032D01*
Y728953D01*
X551310D01*
X550616Y728815D01*
X550028Y728422D01*
X549635Y727834D01*
X549497Y727140D01*
Y711140D01*
X549635Y710446D01*
X550028Y709858D01*
X550616Y709465D01*
X551310Y709327D01*
X566032D01*
Y703362D01*
X590588D01*
Y734918D01*
D02*
G37*
G36*
X457588D02*
X433032D01*
Y703362D01*
X457588D01*
Y709327D01*
X472310D01*
X473003Y709465D01*
X473592Y709858D01*
X473984Y710446D01*
X474123Y711140D01*
Y727140D01*
X473984Y727834D01*
X473592Y728422D01*
X473003Y728815D01*
X472310Y728953D01*
X457588D01*
Y734918D01*
D02*
G37*
G36*
X387226Y698795D02*
Y691424D01*
X391349D01*
Y693654D01*
X390939Y695718D01*
X389770Y697468D01*
X388020Y698637D01*
X387226Y698795D01*
D02*
G37*
G36*
X399926D02*
Y691424D01*
X404049D01*
Y693654D01*
X403639Y695718D01*
X402470Y697468D01*
X400720Y698637D01*
X399926Y698795D01*
D02*
G37*
G36*
X384686D02*
X383892Y698637D01*
X382142Y697468D01*
X380973Y695718D01*
X380562Y693654D01*
Y691424D01*
X384686D01*
Y698795D01*
D02*
G37*
G36*
X397386D02*
X396592Y698637D01*
X394842Y697468D01*
X393673Y695718D01*
X393262Y693654D01*
Y691424D01*
X397386D01*
Y698795D01*
D02*
G37*
G36*
X373256Y698271D02*
X371489Y697919D01*
X369991Y696919D01*
X368991Y695421D01*
X368639Y693654D01*
Y686654D01*
X368991Y684887D01*
X369991Y683390D01*
X371489Y682389D01*
X373256Y682038D01*
X375023Y682389D01*
X376520Y683390D01*
X377521Y684887D01*
X377873Y686654D01*
Y693654D01*
X377521Y695421D01*
X376520Y696919D01*
X375023Y697919D01*
X373256Y698271D01*
D02*
G37*
G36*
X360680Y716858D02*
X358558Y716579D01*
X356581Y715760D01*
X354883Y714457D01*
X353580Y712759D01*
X352761Y710782D01*
X352482Y708660D01*
X352761Y706538D01*
X353580Y704561D01*
X354883Y702863D01*
X356581Y701560D01*
X356767Y701483D01*
Y696134D01*
X356291Y695421D01*
X355939Y693654D01*
Y686654D01*
X356291Y684887D01*
X357291Y683390D01*
X358789Y682389D01*
X360556Y682038D01*
X362323Y682389D01*
X363820Y683390D01*
X364821Y684887D01*
X365173Y686654D01*
Y693654D01*
X364821Y695421D01*
X364469Y695948D01*
Y701432D01*
X364779Y701560D01*
X366477Y702863D01*
X367780Y704561D01*
X368599Y706538D01*
X368878Y708660D01*
X368599Y710782D01*
X367780Y712759D01*
X366477Y714457D01*
X364779Y715760D01*
X362802Y716579D01*
X360680Y716858D01*
D02*
G37*
G36*
X347856Y698271D02*
X346089Y697919D01*
X344591Y696919D01*
X343591Y695421D01*
X343239Y693654D01*
Y686654D01*
X343591Y684887D01*
X344591Y683390D01*
X346089Y682389D01*
X347856Y682038D01*
X349623Y682389D01*
X351120Y683390D01*
X352121Y684887D01*
X352473Y686654D01*
Y693654D01*
X352121Y695421D01*
X351120Y696919D01*
X349623Y697919D01*
X347856Y698271D01*
D02*
G37*
G36*
X335156D02*
X333389Y697919D01*
X331891Y696919D01*
X330891Y695421D01*
X330539Y693654D01*
Y686654D01*
X330891Y684887D01*
X331891Y683390D01*
X333389Y682389D01*
X335156Y682038D01*
X336923Y682389D01*
X338420Y683390D01*
X339421Y684887D01*
X339773Y686654D01*
Y693654D01*
X339421Y695421D01*
X338420Y696919D01*
X336923Y697919D01*
X335156Y698271D01*
D02*
G37*
G36*
X404049Y688884D02*
X399926D01*
Y681513D01*
X400720Y681671D01*
X402470Y682840D01*
X403639Y684590D01*
X404049Y686654D01*
Y688884D01*
D02*
G37*
G36*
X391349D02*
X387226D01*
Y681513D01*
X388020Y681671D01*
X389770Y682840D01*
X390939Y684590D01*
X391349Y686654D01*
Y688884D01*
D02*
G37*
G36*
X397386D02*
X393262D01*
Y686654D01*
X393673Y684590D01*
X394842Y682840D01*
X396592Y681671D01*
X397386Y681513D01*
Y688884D01*
D02*
G37*
G36*
X384686D02*
X380562D01*
Y686654D01*
X380973Y684590D01*
X382142Y682840D01*
X383892Y681671D01*
X384686Y681513D01*
Y688884D01*
D02*
G37*
G36*
X177800Y811756D02*
X175769Y811489D01*
X173877Y810705D01*
X172252Y809458D01*
X171005Y807833D01*
X170222Y805941D01*
X169954Y803910D01*
X170222Y801879D01*
X171005Y799987D01*
X172252Y798362D01*
X172712Y798009D01*
Y784411D01*
X172252Y784058D01*
X171005Y782433D01*
X170222Y780541D01*
X169954Y778510D01*
X170222Y776479D01*
X171005Y774587D01*
X172252Y772962D01*
X172712Y772609D01*
Y759011D01*
X172252Y758658D01*
X171005Y757033D01*
X170222Y755141D01*
X169954Y753110D01*
X170222Y751079D01*
X170855Y749550D01*
X161502Y740198D01*
X160400Y738547D01*
X160012Y736600D01*
Y668857D01*
X113800Y622645D01*
X113448Y622599D01*
X111471Y621780D01*
X109773Y620477D01*
X108470Y618779D01*
X107651Y616802D01*
X107372Y614680D01*
X107651Y612558D01*
X108470Y610581D01*
X109773Y608883D01*
X111471Y607580D01*
X113448Y606761D01*
X115570Y606482D01*
X117692Y606761D01*
X119669Y607580D01*
X121367Y608883D01*
X122670Y610581D01*
X123489Y612558D01*
X123768Y614680D01*
X123489Y616802D01*
X123154Y617609D01*
X168698Y663152D01*
X169800Y664803D01*
X170188Y666750D01*
Y722766D01*
X171458Y723198D01*
X172252Y722162D01*
X173877Y720915D01*
X175769Y720132D01*
X177800Y719864D01*
X179831Y720132D01*
X179903Y720161D01*
X257627Y642437D01*
X257627Y642437D01*
X258876Y641602D01*
X260350Y641309D01*
X312837D01*
X312940Y641061D01*
X314243Y639363D01*
X315941Y638060D01*
X317918Y637241D01*
X320040Y636962D01*
X322162Y637241D01*
X324139Y638060D01*
X325837Y639363D01*
X327140Y641061D01*
X327959Y643038D01*
X328238Y645160D01*
X327959Y647282D01*
X327140Y649259D01*
X325837Y650957D01*
X324139Y652260D01*
X322162Y653079D01*
X320040Y653358D01*
X317918Y653079D01*
X315941Y652260D01*
X314243Y650957D01*
X312940Y649259D01*
X312837Y649011D01*
X261945D01*
X185349Y725608D01*
X185379Y725679D01*
X185646Y727710D01*
X185379Y729741D01*
X184595Y731633D01*
X183348Y733258D01*
X181723Y734505D01*
X179831Y735289D01*
X177800Y735556D01*
X175769Y735289D01*
X173877Y734505D01*
X172252Y733258D01*
X171458Y732223D01*
X170188Y732654D01*
Y734493D01*
X181398Y745703D01*
X181896Y746448D01*
X183348Y747562D01*
X184595Y749187D01*
X185379Y751079D01*
X185646Y753110D01*
X185379Y755141D01*
X184595Y757033D01*
X183348Y758658D01*
X182888Y759011D01*
Y772609D01*
X183348Y772962D01*
X184595Y774587D01*
X185379Y776479D01*
X185646Y778510D01*
X185379Y780541D01*
X184595Y782433D01*
X183348Y784058D01*
X182888Y784411D01*
Y798009D01*
X183348Y798362D01*
X184595Y799987D01*
X185379Y801879D01*
X185646Y803910D01*
X185379Y805941D01*
X184595Y807833D01*
X183348Y809458D01*
X181723Y810705D01*
X179831Y811489D01*
X177800Y811756D01*
D02*
G37*
G36*
X671830Y697808D02*
X669708Y697529D01*
X667731Y696710D01*
X666033Y695407D01*
X664730Y693709D01*
X663911Y691732D01*
X663632Y689610D01*
X663911Y687488D01*
X664730Y685511D01*
X666033Y683813D01*
X667731Y682510D01*
X669708Y681691D01*
X670611Y681572D01*
X694649Y657535D01*
Y603076D01*
X693379Y602645D01*
X692710Y603517D01*
X690772Y605004D01*
X688515Y605939D01*
X686093Y606258D01*
X683671Y605939D01*
X681414Y605004D01*
X679475Y603517D01*
X677988Y601579D01*
X677853Y601251D01*
X676583Y601504D01*
Y654604D01*
X676290Y656077D01*
X676256Y656127D01*
X676390Y656301D01*
X677209Y658278D01*
X677488Y660400D01*
X677209Y662522D01*
X676390Y664499D01*
X675087Y666197D01*
X673389Y667500D01*
X671412Y668319D01*
X669290Y668598D01*
X667168Y668319D01*
X665191Y667500D01*
X663493Y666197D01*
X662190Y664499D01*
X661371Y662522D01*
X661092Y660400D01*
X661371Y658278D01*
X662190Y656301D01*
X663493Y654603D01*
X665191Y653300D01*
X667168Y652481D01*
X668881Y652256D01*
Y603556D01*
X667611Y603125D01*
X667310Y603517D01*
X665372Y605004D01*
X663115Y605939D01*
X660693Y606258D01*
X658271Y605939D01*
X656014Y605004D01*
X654075Y603517D01*
X652588Y601579D01*
X652453Y601251D01*
X651183Y601504D01*
Y641400D01*
X650890Y642874D01*
X650055Y644123D01*
X650055Y644123D01*
X633607Y660570D01*
X633710Y660818D01*
X633990Y662940D01*
X633710Y665062D01*
X632891Y667039D01*
X631588Y668737D01*
X629891Y670040D01*
X627913Y670859D01*
X625792Y671138D01*
X623670Y670859D01*
X621692Y670040D01*
X619995Y668737D01*
X618692Y667039D01*
X617873Y665062D01*
X617593Y662940D01*
X617873Y660818D01*
X618692Y658841D01*
X619995Y657143D01*
X621692Y655840D01*
X623670Y655021D01*
X625792Y654742D01*
X627913Y655021D01*
X628161Y655124D01*
X643481Y639805D01*
Y603556D01*
X642211Y603125D01*
X641910Y603517D01*
X639972Y605004D01*
X639144Y605347D01*
Y630897D01*
X638851Y632371D01*
X638016Y633620D01*
X638016Y633620D01*
X630116Y641520D01*
X630219Y641768D01*
X630498Y643890D01*
X630219Y646012D01*
X629400Y647989D01*
X628097Y649687D01*
X626399Y650990D01*
X624422Y651809D01*
X622300Y652088D01*
X620178Y651809D01*
X618201Y650990D01*
X616503Y649687D01*
X615200Y647989D01*
X614381Y646012D01*
X614102Y643890D01*
X614381Y641768D01*
X615200Y639791D01*
X616503Y638093D01*
X618201Y636790D01*
X620178Y635971D01*
X622300Y635692D01*
X624422Y635971D01*
X624670Y636074D01*
X631442Y629302D01*
Y605347D01*
X630614Y605004D01*
X628675Y603517D01*
X627188Y601579D01*
X626254Y599322D01*
X625935Y596900D01*
X626254Y594478D01*
X627188Y592221D01*
X628675Y590283D01*
X630614Y588796D01*
X632871Y587861D01*
X635293Y587542D01*
X637715Y587861D01*
X639972Y588796D01*
X641910Y590283D01*
X642211Y590675D01*
X643481Y590244D01*
Y529547D01*
X634675Y520741D01*
X553686D01*
X553167Y521417D01*
X551469Y522720D01*
X549492Y523539D01*
X547370Y523818D01*
X545248Y523539D01*
X543271Y522720D01*
X541573Y521417D01*
X540270Y519719D01*
X539451Y517742D01*
X539172Y515620D01*
X539451Y513498D01*
X540270Y511521D01*
X541573Y509823D01*
X543271Y508520D01*
X545248Y507701D01*
X547370Y507422D01*
X549492Y507701D01*
X551469Y508520D01*
X553167Y509823D01*
X554470Y511521D01*
X555099Y513039D01*
X636270D01*
X636270Y513039D01*
X637744Y513332D01*
X638993Y514167D01*
X650055Y525229D01*
X650055Y525229D01*
X650890Y526478D01*
X651183Y527952D01*
Y592296D01*
X652453Y592549D01*
X652588Y592221D01*
X654075Y590283D01*
X656014Y588796D01*
X658271Y587861D01*
X660693Y587542D01*
X663115Y587861D01*
X665372Y588796D01*
X667310Y590283D01*
X667611Y590675D01*
X668881Y590244D01*
Y508934D01*
X613143Y453196D01*
X612315Y453539D01*
X609893Y453858D01*
X607471Y453539D01*
X605214Y452604D01*
X603275Y451117D01*
X601788Y449179D01*
X600854Y446922D01*
X600535Y444500D01*
X600854Y442078D01*
X601788Y439821D01*
X603275Y437883D01*
X605214Y436396D01*
X607471Y435461D01*
X609893Y435142D01*
X612315Y435461D01*
X614572Y436396D01*
X616510Y437883D01*
X617997Y439821D01*
X618932Y442078D01*
X619251Y444500D01*
X618932Y446922D01*
X618589Y447750D01*
X675455Y504616D01*
X675455Y504616D01*
X675599Y504832D01*
X676869Y504447D01*
Y491523D01*
X638543Y453196D01*
X637715Y453539D01*
X635293Y453858D01*
X632871Y453539D01*
X630614Y452604D01*
X628675Y451117D01*
X627188Y449179D01*
X626254Y446922D01*
X625935Y444500D01*
X626254Y442078D01*
X627188Y439821D01*
X628675Y437883D01*
X630614Y436396D01*
X632871Y435461D01*
X635293Y435142D01*
X637715Y435461D01*
X639972Y436396D01*
X641910Y437883D01*
X643397Y439821D01*
X644332Y442078D01*
X644651Y444500D01*
X644332Y446922D01*
X643989Y447750D01*
X683443Y487204D01*
X683443Y487204D01*
X684278Y488454D01*
X684571Y489927D01*
X684571Y489928D01*
Y526725D01*
X701223Y543377D01*
X701223Y543377D01*
X702058Y544626D01*
X702351Y546100D01*
Y590235D01*
X703621Y590666D01*
X704332Y589739D01*
X706429Y588130D01*
X708872Y587118D01*
X710223Y586941D01*
Y596900D01*
Y606860D01*
X708872Y606682D01*
X706429Y605670D01*
X704332Y604061D01*
X703621Y603134D01*
X702351Y603565D01*
Y659130D01*
X702058Y660604D01*
X701223Y661853D01*
X701223Y661853D01*
X697350Y665726D01*
X698069Y666803D01*
X698918Y666451D01*
X701040Y666172D01*
X703162Y666451D01*
X703410Y666554D01*
X720049Y649915D01*
Y604217D01*
X718847Y603809D01*
X718653Y604061D01*
X716556Y605670D01*
X714114Y606682D01*
X712763Y606860D01*
Y596900D01*
Y586941D01*
X714114Y587118D01*
X716556Y588130D01*
X718653Y589739D01*
X718847Y589991D01*
X720049Y589583D01*
Y556585D01*
X690626Y527162D01*
X689791Y525913D01*
X689498Y524439D01*
X689498Y524439D01*
Y478751D01*
X663943Y453196D01*
X663115Y453539D01*
X660693Y453858D01*
X658271Y453539D01*
X656014Y452604D01*
X654075Y451117D01*
X652588Y449179D01*
X651654Y446922D01*
X651335Y444500D01*
X651654Y442078D01*
X652588Y439821D01*
X654075Y437883D01*
X656014Y436396D01*
X658271Y435461D01*
X660693Y435142D01*
X663115Y435461D01*
X665372Y436396D01*
X667310Y437883D01*
X668797Y439821D01*
X669732Y442078D01*
X670051Y444500D01*
X669732Y446922D01*
X669389Y447750D01*
X696072Y474433D01*
X696907Y475683D01*
X697200Y477156D01*
X697200Y477156D01*
Y522844D01*
X726623Y552267D01*
X727458Y553516D01*
X727751Y554990D01*
X727751Y554990D01*
Y590235D01*
X729021Y590666D01*
X729732Y589739D01*
X731829Y588130D01*
X734272Y587118D01*
X735623Y586941D01*
Y596900D01*
Y606860D01*
X734272Y606682D01*
X731829Y605670D01*
X729732Y604061D01*
X729021Y603134D01*
X727751Y603565D01*
Y651510D01*
X727458Y652984D01*
X726623Y654233D01*
X726623Y654233D01*
X708856Y672000D01*
X708959Y672248D01*
X709238Y674370D01*
X708959Y676492D01*
X708140Y678469D01*
X706837Y680167D01*
X705139Y681470D01*
X703162Y682289D01*
X701040Y682568D01*
X698918Y682289D01*
X696941Y681470D01*
X695243Y680167D01*
X693940Y678469D01*
X693121Y676492D01*
X692842Y674370D01*
X693121Y672248D01*
X693473Y671399D01*
X692396Y670680D01*
X678337Y684739D01*
X678930Y685511D01*
X679749Y687488D01*
X680028Y689610D01*
X679749Y691732D01*
X678930Y693709D01*
X677627Y695407D01*
X675929Y696710D01*
X673952Y697529D01*
X671830Y697808D01*
D02*
G37*
G36*
X738163Y606860D02*
Y598170D01*
X746852D01*
X746674Y599521D01*
X745663Y601963D01*
X744053Y604061D01*
X741956Y605670D01*
X739514Y606682D01*
X738163Y606860D01*
D02*
G37*
G36*
X508958Y841093D02*
X508958Y841093D01*
X263868D01*
X262394Y840800D01*
X261145Y839965D01*
X261145Y839965D01*
X228941Y807761D01*
X210788D01*
Y811498D01*
X195612D01*
Y796322D01*
X210788D01*
Y800059D01*
X230536D01*
X230536Y800059D01*
X230975Y800146D01*
X232245Y799104D01*
Y720214D01*
X232245Y720214D01*
X232538Y718740D01*
X233373Y717491D01*
X263433Y687431D01*
X263433Y687431D01*
X264682Y686596D01*
X266156Y686303D01*
X305209D01*
X305491Y684887D01*
X306491Y683390D01*
X307989Y682389D01*
X309756Y682038D01*
X311523Y682389D01*
X313020Y683390D01*
X314021Y684887D01*
X314373Y686654D01*
Y693654D01*
X314164Y694704D01*
X315334Y695330D01*
X317839Y692825D01*
Y686654D01*
X318191Y684887D01*
X319191Y683390D01*
X320689Y682389D01*
X322456Y682038D01*
X324223Y682389D01*
X325720Y683390D01*
X326721Y684887D01*
X327073Y686654D01*
Y693654D01*
X326721Y695421D01*
X325720Y696919D01*
X324223Y697919D01*
X323491Y698065D01*
X317669Y703887D01*
X316420Y704722D01*
X314946Y705015D01*
X314946Y705015D01*
X271981D01*
X247567Y729429D01*
Y797003D01*
X267714Y817150D01*
X286447D01*
X286692Y816986D01*
X288166Y816693D01*
X288166Y816693D01*
X288480D01*
X301263Y803910D01*
X300777Y802737D01*
X288554D01*
Y808702D01*
X263998D01*
Y777146D01*
X288554D01*
Y783111D01*
X303276D01*
X303964Y782547D01*
Y780702D01*
X302998D01*
Y758146D01*
X312554D01*
Y758146D01*
X312998D01*
Y758146D01*
X322554Y758146D01*
X322924Y757029D01*
Y756608D01*
X320020Y753705D01*
X319186Y752455D01*
X318892Y750982D01*
X318892Y750982D01*
Y748971D01*
X318191Y747921D01*
X317839Y746154D01*
Y739154D01*
X318191Y737387D01*
X319191Y735890D01*
X320689Y734889D01*
X322456Y734538D01*
X324223Y734889D01*
X325720Y735890D01*
X326721Y737387D01*
X327073Y739154D01*
Y746154D01*
X326721Y747921D01*
X326594Y748111D01*
Y749387D01*
X329498Y752290D01*
X329498Y752290D01*
X330194Y753332D01*
X331132Y753243D01*
X331464Y753120D01*
Y748779D01*
X330891Y747921D01*
X330539Y746154D01*
Y739154D01*
X330891Y737387D01*
X331891Y735890D01*
X333389Y734889D01*
X335156Y734538D01*
X336923Y734889D01*
X338420Y735890D01*
X339421Y737387D01*
X339773Y739154D01*
Y746154D01*
X339421Y747921D01*
X339166Y748303D01*
Y757248D01*
X340064Y758146D01*
X343067Y758146D01*
X343965Y757248D01*
Y748481D01*
X343591Y747921D01*
X343239Y746154D01*
Y739154D01*
X343591Y737387D01*
X344591Y735890D01*
X346089Y734889D01*
X347856Y734538D01*
X349623Y734889D01*
X351120Y735890D01*
X352121Y737387D01*
X352473Y739154D01*
Y746154D01*
X352121Y747921D01*
X351667Y748601D01*
Y757259D01*
X352554Y758146D01*
X354028Y758146D01*
X354926Y757248D01*
Y753927D01*
X354926Y753927D01*
X355219Y752454D01*
X356054Y751204D01*
X356418Y750841D01*
Y748111D01*
X356291Y747921D01*
X355939Y746154D01*
Y739154D01*
X356291Y737387D01*
X357291Y735890D01*
X358789Y734889D01*
X360556Y734538D01*
X362323Y734889D01*
X363820Y735890D01*
X364821Y737387D01*
X365173Y739154D01*
Y746154D01*
X364821Y747921D01*
X364119Y748971D01*
Y752436D01*
X364119Y752436D01*
X363826Y753909D01*
X362992Y755159D01*
X362991Y755159D01*
X362628Y755522D01*
Y757384D01*
X366506D01*
Y769424D01*
Y781464D01*
X362236D01*
Y780702D01*
X353824D01*
X352998Y780702D01*
X351728Y780702D01*
X343824D01*
X342998Y780702D01*
X341728Y780702D01*
X333824D01*
X332998Y780702D01*
Y780702D01*
X332554D01*
Y780702D01*
X322525Y780702D01*
X321627Y781600D01*
Y806174D01*
X321627Y806174D01*
X321334Y807648D01*
X320499Y808897D01*
X320499Y808897D01*
X297178Y832218D01*
X297664Y833391D01*
X507363D01*
X604479Y736275D01*
Y604594D01*
X603075Y603517D01*
X601588Y601579D01*
X600653Y599322D01*
X600335Y596900D01*
X600653Y594478D01*
X601588Y592221D01*
X603075Y590283D01*
X605014Y588796D01*
X607271Y587861D01*
X609693Y587542D01*
X612115Y587861D01*
X614372Y588796D01*
X616310Y590283D01*
X617797Y592221D01*
X618732Y594478D01*
X619051Y596900D01*
X618732Y599322D01*
X617797Y601579D01*
X616310Y603517D01*
X614372Y605004D01*
X612181Y605912D01*
Y737870D01*
X612181Y737870D01*
X611888Y739344D01*
X611053Y740593D01*
X611053Y740593D01*
X511681Y839965D01*
X510432Y840800D01*
X508958Y841093D01*
D02*
G37*
G36*
X305093Y606258D02*
X302671Y605939D01*
X300414Y605004D01*
X298475Y603517D01*
X296988Y601579D01*
X296054Y599322D01*
X295735Y596900D01*
X296054Y594478D01*
X296988Y592221D01*
X298475Y590283D01*
X300414Y588796D01*
X302671Y587861D01*
X305093Y587542D01*
X307515Y587861D01*
X309772Y588796D01*
X311710Y590283D01*
X313197Y592221D01*
X314132Y594478D01*
X314451Y596900D01*
X314132Y599322D01*
X313197Y601579D01*
X311710Y603517D01*
X309772Y605004D01*
X307515Y605939D01*
X305093Y606258D01*
D02*
G37*
G36*
X279693D02*
X277271Y605939D01*
X275014Y605004D01*
X273076Y603517D01*
X271588Y601579D01*
X270653Y599322D01*
X270335Y596900D01*
X270653Y594478D01*
X271588Y592221D01*
X273076Y590283D01*
X275014Y588796D01*
X277271Y587861D01*
X279693Y587542D01*
X282115Y587861D01*
X284372Y588796D01*
X286310Y590283D01*
X287797Y592221D01*
X288732Y594478D01*
X289051Y596900D01*
X288732Y599322D01*
X287797Y601579D01*
X286310Y603517D01*
X284372Y605004D01*
X282115Y605939D01*
X279693Y606258D01*
D02*
G37*
G36*
X254293D02*
X251871Y605939D01*
X249614Y605004D01*
X247675Y603517D01*
X246188Y601579D01*
X245254Y599322D01*
X244935Y596900D01*
X245254Y594478D01*
X246188Y592221D01*
X247675Y590283D01*
X249614Y588796D01*
X251871Y587861D01*
X254293Y587542D01*
X256715Y587861D01*
X258972Y588796D01*
X260910Y590283D01*
X262397Y592221D01*
X263332Y594478D01*
X263651Y596900D01*
X263332Y599322D01*
X262397Y601579D01*
X260910Y603517D01*
X258972Y605004D01*
X256715Y605939D01*
X254293Y606258D01*
D02*
G37*
G36*
X746852Y595630D02*
X738163D01*
Y586941D01*
X739514Y587118D01*
X741956Y588130D01*
X744053Y589739D01*
X745663Y591837D01*
X746674Y594279D01*
X746852Y595630D01*
D02*
G37*
G36*
X97911Y593588D02*
X64355D01*
Y569032D01*
X97911D01*
Y593588D01*
D02*
G37*
G36*
X330493Y606258D02*
X328071Y605939D01*
X325814Y605004D01*
X323876Y603517D01*
X322388Y601579D01*
X321454Y599322D01*
X321135Y596900D01*
X321454Y594478D01*
X322388Y592221D01*
X323876Y590283D01*
X325814Y588796D01*
X327481Y588105D01*
Y577900D01*
X326036Y576934D01*
X324759Y575024D01*
X324311Y572770D01*
X324759Y570516D01*
X326036Y568606D01*
X327946Y567329D01*
X330200Y566881D01*
X332454Y567329D01*
X334364Y568606D01*
X335641Y570516D01*
X336089Y572770D01*
X335641Y575024D01*
X334364Y576934D01*
X332919Y577900D01*
Y587863D01*
X335172Y588796D01*
X337110Y590283D01*
X338597Y592221D01*
X339532Y594478D01*
X339851Y596900D01*
X339532Y599322D01*
X338597Y601579D01*
X337110Y603517D01*
X335172Y605004D01*
X332915Y605939D01*
X330493Y606258D01*
D02*
G37*
G36*
X463760Y565730D02*
X459740D01*
Y562210D01*
X463760D01*
Y565730D01*
D02*
G37*
G36*
X457200D02*
X453180D01*
Y562210D01*
X457200D01*
Y565730D01*
D02*
G37*
G36*
X437090D02*
X433070D01*
Y562210D01*
X437090D01*
Y565730D01*
D02*
G37*
G36*
X430530D02*
X426510D01*
Y562210D01*
X430530D01*
Y565730D01*
D02*
G37*
G36*
X412960D02*
X408940D01*
Y562210D01*
X412960D01*
Y565730D01*
D02*
G37*
G36*
X406400D02*
X402380D01*
Y562210D01*
X406400D01*
Y565730D01*
D02*
G37*
G36*
X386290D02*
X382270D01*
Y562210D01*
X386290D01*
Y565730D01*
D02*
G37*
G36*
X559093Y606258D02*
X556671Y605939D01*
X554414Y605004D01*
X552476Y603517D01*
X550988Y601579D01*
X550053Y599322D01*
X549735Y596900D01*
X550053Y594478D01*
X550988Y592221D01*
X552476Y590283D01*
X554414Y588796D01*
X556671Y587861D01*
X559093Y587542D01*
X561515Y587861D01*
X562688Y588347D01*
X588965Y562070D01*
X588702Y560070D01*
X588981Y557948D01*
X589800Y555971D01*
X591103Y554273D01*
X592801Y552970D01*
X594778Y552151D01*
X596900Y551872D01*
X599022Y552151D01*
X600999Y552970D01*
X602697Y554273D01*
X604000Y555971D01*
X604819Y557948D01*
X605098Y560070D01*
X604819Y562192D01*
X604000Y564169D01*
X602697Y565867D01*
X600999Y567170D01*
X599022Y567989D01*
X596900Y568268D01*
X594778Y567989D01*
X594185Y567743D01*
X567932Y593996D01*
X568132Y594478D01*
X568451Y596900D01*
X568132Y599322D01*
X567197Y601579D01*
X565710Y603517D01*
X563772Y605004D01*
X561515Y605939D01*
X559093Y606258D01*
D02*
G37*
G36*
X533693D02*
X531271Y605939D01*
X529014Y605004D01*
X527076Y603517D01*
X525588Y601579D01*
X524654Y599322D01*
X524335Y596900D01*
X524654Y594478D01*
X525588Y592221D01*
X527076Y590283D01*
X529014Y588796D01*
X529842Y588453D01*
Y557720D01*
X528873Y556977D01*
X527570Y555279D01*
X526751Y553302D01*
X526472Y551180D01*
X526751Y549058D01*
X527570Y547081D01*
X528873Y545383D01*
X530571Y544080D01*
X532548Y543261D01*
X534670Y542982D01*
X536792Y543261D01*
X538769Y544080D01*
X540467Y545383D01*
X541770Y547081D01*
X542589Y549058D01*
X542868Y551180D01*
X542589Y553302D01*
X541770Y555279D01*
X540467Y556977D01*
X538769Y558280D01*
X537544Y558787D01*
Y588453D01*
X538372Y588796D01*
X540310Y590283D01*
X541797Y592221D01*
X542732Y594478D01*
X543051Y596900D01*
X542732Y599322D01*
X541797Y601579D01*
X540310Y603517D01*
X538372Y605004D01*
X536115Y605939D01*
X533693Y606258D01*
D02*
G37*
G36*
X584493D02*
X582071Y605939D01*
X579814Y605004D01*
X577876Y603517D01*
X576388Y601579D01*
X575453Y599322D01*
X575135Y596900D01*
X575453Y594478D01*
X576388Y592221D01*
X577876Y590283D01*
X579814Y588796D01*
X582071Y587861D01*
X584493Y587542D01*
X586915Y587861D01*
X587743Y588204D01*
X619719Y556228D01*
Y546425D01*
X613085Y539791D01*
X578703D01*
X578600Y540039D01*
X577297Y541737D01*
X575599Y543040D01*
X573622Y543859D01*
X571500Y544138D01*
X569378Y543859D01*
X567401Y543040D01*
X565703Y541737D01*
X564400Y540039D01*
X563581Y538062D01*
X563302Y535940D01*
X563581Y533818D01*
X564400Y531841D01*
X565703Y530143D01*
X567401Y528840D01*
X569378Y528021D01*
X571500Y527742D01*
X573622Y528021D01*
X575599Y528840D01*
X577297Y530143D01*
X578600Y531841D01*
X578703Y532089D01*
X614680D01*
X614680Y532089D01*
X616154Y532382D01*
X617403Y533217D01*
X626293Y542107D01*
X627128Y543356D01*
X627421Y544830D01*
X627421Y544830D01*
Y557823D01*
X627128Y559296D01*
X626293Y560546D01*
X626293Y560546D01*
X593189Y593650D01*
X593532Y594478D01*
X593851Y596900D01*
X593532Y599322D01*
X592597Y601579D01*
X591110Y603517D01*
X589172Y605004D01*
X586915Y605939D01*
X584493Y606258D01*
D02*
G37*
G36*
X46990Y555568D02*
X44868Y555289D01*
X42891Y554470D01*
X41193Y553167D01*
X39890Y551469D01*
X39071Y549492D01*
X38792Y547370D01*
X38909Y546484D01*
X10742Y518318D01*
X9640Y516667D01*
X9252Y514720D01*
Y408348D01*
X7812D01*
Y394292D01*
X9242D01*
Y382460D01*
X8882Y380650D01*
Y335280D01*
Y322571D01*
X8173Y322027D01*
X6870Y320329D01*
X6051Y318352D01*
X5772Y316230D01*
X6051Y314108D01*
X6870Y312131D01*
X8173Y310433D01*
X9871Y309130D01*
X11848Y308311D01*
X13970Y308032D01*
X16092Y308311D01*
X18069Y309130D01*
X19767Y310433D01*
X21070Y312131D01*
X21889Y314108D01*
X22168Y316230D01*
X21889Y318352D01*
X21876Y318383D01*
X22953Y319102D01*
X29302Y312753D01*
X30952Y311651D01*
X32899Y311263D01*
X72511D01*
X74458Y311651D01*
X76108Y312753D01*
X83608Y320252D01*
X84110Y321004D01*
X85380Y320619D01*
Y315170D01*
X89250D01*
Y321310D01*
Y327450D01*
X85380Y327450D01*
X85098Y328603D01*
Y333122D01*
X86538D01*
Y353178D01*
X73482D01*
Y333122D01*
X74922D01*
Y325957D01*
X70403Y321439D01*
X35007D01*
X19058Y337388D01*
Y379200D01*
X19418Y381010D01*
Y393394D01*
X20149Y394125D01*
X20688Y394218D01*
X21550Y393530D01*
X21822Y393530D01*
X27570D01*
Y401320D01*
Y409110D01*
X21550Y409110D01*
X20698Y408429D01*
X20144Y408530D01*
X19428Y409246D01*
Y512613D01*
X46104Y539289D01*
X46990Y539172D01*
X49112Y539451D01*
X51089Y540270D01*
X52787Y541573D01*
X54090Y543271D01*
X54909Y545248D01*
X55188Y547370D01*
X54909Y549492D01*
X54090Y551469D01*
X52787Y553167D01*
X51089Y554470D01*
X49112Y555289D01*
X46990Y555568D01*
D02*
G37*
G36*
X508293Y606258D02*
X505871Y605939D01*
X503614Y605004D01*
X501675Y603517D01*
X500188Y601579D01*
X499254Y599322D01*
X498935Y596900D01*
X499254Y594478D01*
X500188Y592221D01*
X501675Y590283D01*
X503025Y589247D01*
Y543729D01*
X501361Y543040D01*
X499663Y541737D01*
X498360Y540039D01*
X497541Y538062D01*
X497262Y535940D01*
X497541Y533818D01*
X498360Y531841D01*
X499663Y530143D01*
X501361Y528840D01*
X503338Y528021D01*
X505460Y527742D01*
X507582Y528021D01*
X509559Y528840D01*
X511257Y530143D01*
X512560Y531841D01*
X513379Y533818D01*
X513658Y535940D01*
X513379Y538062D01*
X512560Y540039D01*
X511257Y541737D01*
X510727Y542143D01*
Y587866D01*
X512972Y588796D01*
X514910Y590283D01*
X516397Y592221D01*
X517332Y594478D01*
X517651Y596900D01*
X517332Y599322D01*
X516397Y601579D01*
X514910Y603517D01*
X512972Y605004D01*
X510715Y605939D01*
X508293Y606258D01*
D02*
G37*
G36*
X612140Y503498D02*
X610018Y503219D01*
X608041Y502400D01*
X606343Y501097D01*
X605040Y499399D01*
X604938Y499151D01*
X569813D01*
X569710Y499399D01*
X568407Y501097D01*
X566709Y502400D01*
X564732Y503219D01*
X562610Y503498D01*
X560488Y503219D01*
X558511Y502400D01*
X556813Y501097D01*
X555510Y499399D01*
X554691Y497422D01*
X554412Y495300D01*
X554691Y493178D01*
X555510Y491201D01*
X556813Y489503D01*
X558511Y488200D01*
X560488Y487381D01*
X562610Y487102D01*
X564732Y487381D01*
X566709Y488200D01*
X568407Y489503D01*
X569710Y491201D01*
X569813Y491449D01*
X604938D01*
X605040Y491201D01*
X606343Y489503D01*
X608041Y488200D01*
X610018Y487381D01*
X612140Y487102D01*
X614262Y487381D01*
X616239Y488200D01*
X617937Y489503D01*
X619240Y491201D01*
X620059Y493178D01*
X620338Y495300D01*
X620059Y497422D01*
X619240Y499399D01*
X617937Y501097D01*
X616239Y502400D01*
X614262Y503219D01*
X612140Y503498D01*
D02*
G37*
G36*
X201930Y474288D02*
X199808Y474009D01*
X197831Y473190D01*
X196133Y471887D01*
X194830Y470189D01*
X194011Y468212D01*
X193732Y466090D01*
X194011Y463968D01*
X194114Y463720D01*
X185095Y454701D01*
X165738D01*
Y455878D01*
X157008D01*
X156682Y455878D01*
X155738D01*
X155412Y455878D01*
X146682D01*
Y445822D01*
X147319D01*
Y437545D01*
X146602Y436828D01*
X145658D01*
X145332Y436828D01*
X136602D01*
Y432218D01*
X116657Y412273D01*
X115822Y411024D01*
X115529Y409550D01*
X115529Y409550D01*
Y344076D01*
X109538D01*
Y353178D01*
X96482D01*
Y333122D01*
X97922D01*
Y321698D01*
X98142Y320593D01*
Y315932D01*
X106898D01*
Y318535D01*
X107711Y319751D01*
X108098Y321698D01*
Y333122D01*
X109538D01*
Y333900D01*
X124154D01*
X125052Y333002D01*
X125052Y331194D01*
X124290Y330240D01*
X124290Y329968D01*
Y324220D01*
X132080D01*
X139870D01*
X139870Y330240D01*
X139108Y331194D01*
X139108Y331510D01*
Y343978D01*
X137168D01*
Y385243D01*
X160857Y408932D01*
X183040D01*
X183340Y408992D01*
X187568D01*
Y408992D01*
X188512D01*
Y408992D01*
X190873D01*
X243042Y356823D01*
Y340401D01*
X216753D01*
X216650Y340649D01*
X215347Y342347D01*
X213649Y343650D01*
X211672Y344469D01*
X209550Y344748D01*
X207428Y344469D01*
X205451Y343650D01*
X203753Y342347D01*
X202450Y340649D01*
X201631Y338672D01*
X201352Y336550D01*
X201631Y334428D01*
X202450Y332451D01*
X203753Y330753D01*
X205451Y329450D01*
X207428Y328631D01*
X209550Y328352D01*
X211672Y328631D01*
X213649Y329450D01*
X215347Y330753D01*
X216650Y332451D01*
X216753Y332699D01*
X243042D01*
Y300152D01*
X253992D01*
Y256108D01*
X231341Y233456D01*
X214568D01*
X214076Y233358D01*
X197002D01*
Y213368D01*
X191770D01*
X189823Y212980D01*
X188172Y211878D01*
X109653Y133358D01*
X103708D01*
X92956Y144109D01*
Y162562D01*
X92858Y163054D01*
Y184128D01*
X78302D01*
Y145572D01*
X82780D01*
Y142002D01*
X83168Y140055D01*
X84270Y138405D01*
X98003Y124672D01*
X99653Y123570D01*
X101600Y123182D01*
X111760D01*
X113707Y123570D01*
X115358Y124672D01*
X128813Y138127D01*
X129889Y137408D01*
X129876Y137377D01*
X129597Y135255D01*
X129876Y133133D01*
X130695Y131156D01*
X131998Y129458D01*
X133696Y128155D01*
X133944Y128053D01*
Y123118D01*
X121840D01*
X119893Y122731D01*
X118243Y121628D01*
X113463Y116848D01*
X54557D01*
X41026Y130379D01*
X40516Y130720D01*
Y145572D01*
X41858D01*
Y184128D01*
X27302D01*
Y145572D01*
X30340D01*
Y128782D01*
X30728Y126835D01*
X31035Y126375D01*
X31240Y125347D01*
X31462Y125014D01*
Y121792D01*
X35223D01*
X48853Y108162D01*
X50503Y107060D01*
X52450Y106672D01*
X115570D01*
X117517Y107060D01*
X119168Y108162D01*
X123947Y112942D01*
X131021D01*
X132132Y112558D01*
Y108330D01*
X132072Y108030D01*
Y81279D01*
X130802Y80403D01*
X127000Y80702D01*
X122720Y80365D01*
X118545Y79363D01*
X114578Y77720D01*
X110917Y75477D01*
X107652Y72688D01*
X104863Y69423D01*
X102620Y65762D01*
X100977Y61796D01*
X99975Y57621D01*
X99638Y53340D01*
X99975Y49060D01*
X100977Y44885D01*
X102620Y40918D01*
X104863Y37257D01*
X107652Y33992D01*
X110917Y31203D01*
X114578Y28960D01*
X118545Y27317D01*
X122720Y26315D01*
X127000Y25978D01*
X131280Y26315D01*
X135456Y27317D01*
X139422Y28960D01*
X142375Y30770D01*
X151952Y21193D01*
X153603Y20090D01*
X155550Y19702D01*
X209662D01*
Y17821D01*
X209662Y17762D01*
X209520Y16551D01*
X30805D01*
X17821Y29535D01*
Y99478D01*
X18069Y99580D01*
X19767Y100883D01*
X21070Y102581D01*
X21889Y104558D01*
X22168Y106680D01*
X21889Y108802D01*
X21070Y110779D01*
X19767Y112477D01*
X18069Y113780D01*
X16092Y114599D01*
X13970Y114878D01*
X11848Y114599D01*
X9871Y113780D01*
X8173Y112477D01*
X6870Y110779D01*
X6051Y108802D01*
X5772Y106680D01*
X6051Y104558D01*
X6870Y102581D01*
X8173Y100883D01*
X9871Y99580D01*
X10119Y99478D01*
Y27940D01*
X10119Y27940D01*
X10412Y26466D01*
X11247Y25217D01*
X26487Y9977D01*
X26487Y9977D01*
X27736Y9142D01*
X29210Y8849D01*
X290830D01*
X290830Y8849D01*
X479207D01*
X479310Y8601D01*
X480613Y6903D01*
X482311Y5600D01*
X484288Y4781D01*
X486410Y4502D01*
X488532Y4781D01*
X490509Y5600D01*
X492207Y6903D01*
X493510Y8601D01*
X494329Y10578D01*
X494608Y12700D01*
X494329Y14822D01*
X493510Y16799D01*
X492207Y18497D01*
X490509Y19800D01*
X489352Y20279D01*
X489605Y21549D01*
X541437D01*
X541540Y21301D01*
X542843Y19603D01*
X544541Y18300D01*
X546518Y17481D01*
X548640Y17202D01*
X550762Y17481D01*
X552739Y18300D01*
X554437Y19603D01*
X555740Y21301D01*
X556559Y23278D01*
X556838Y25400D01*
X556559Y27522D01*
X555740Y29499D01*
X554437Y31197D01*
X552739Y32500D01*
X550762Y33319D01*
X548640Y33598D01*
X546518Y33319D01*
X544541Y32500D01*
X542843Y31197D01*
X541540Y29499D01*
X541437Y29251D01*
X362275D01*
X360904Y30622D01*
X361530Y31793D01*
X361950Y31709D01*
X361950Y31709D01*
X487680D01*
X487680Y31709D01*
X489154Y32002D01*
X490403Y32837D01*
X509533Y51967D01*
X509533Y51967D01*
X510368Y53216D01*
X510661Y54690D01*
Y74504D01*
X511559Y75402D01*
X512858Y75402D01*
X521270D01*
Y74640D01*
X525540D01*
Y86680D01*
Y98720D01*
X521270D01*
X520661Y99738D01*
Y202738D01*
X521931Y202991D01*
X522490Y201641D01*
X523793Y199943D01*
X525491Y198640D01*
X527468Y197821D01*
X529590Y197542D01*
X531712Y197821D01*
X533689Y198640D01*
X535387Y199943D01*
X536690Y201641D01*
X537509Y203618D01*
X537788Y205740D01*
X537509Y207862D01*
X536690Y209839D01*
X535387Y211537D01*
X534076Y212543D01*
Y350675D01*
X534959Y351040D01*
X536657Y352343D01*
X537960Y354041D01*
X538779Y356018D01*
X539058Y358140D01*
X538779Y360262D01*
X537960Y362239D01*
X536657Y363937D01*
X534959Y365240D01*
X532982Y366059D01*
X530860Y366338D01*
X528738Y366059D01*
X526761Y365240D01*
X525063Y363937D01*
X523760Y362239D01*
X522941Y360262D01*
X522662Y358140D01*
X522941Y356018D01*
X523760Y354041D01*
X525063Y352343D01*
X526374Y351337D01*
Y213206D01*
X525491Y212840D01*
X523793Y211537D01*
X522490Y209839D01*
X521931Y208489D01*
X520661Y208742D01*
Y388700D01*
X520368Y390174D01*
X519533Y391423D01*
X519533Y391423D01*
X495496Y415460D01*
X495599Y415708D01*
X495873Y417794D01*
X496253Y418082D01*
X497009Y418454D01*
X542249Y373214D01*
Y118963D01*
X542001Y118860D01*
X540303Y117557D01*
X539000Y115859D01*
X538181Y113882D01*
X537902Y111760D01*
X538181Y109638D01*
X539000Y107661D01*
X540303Y105963D01*
X542001Y104660D01*
X543978Y103841D01*
X546100Y103562D01*
X548222Y103841D01*
X550199Y104660D01*
X551897Y105963D01*
X553200Y107661D01*
X554019Y109638D01*
X554298Y111760D01*
X554019Y113882D01*
X553200Y115859D01*
X551897Y117557D01*
X550199Y118860D01*
X549951Y118963D01*
Y373134D01*
X551221Y373813D01*
X551492Y373632D01*
X552966Y373339D01*
X607477D01*
X607580Y373091D01*
X608883Y371393D01*
X610581Y370090D01*
X612558Y369271D01*
X614680Y368992D01*
X616802Y369271D01*
X618779Y370090D01*
X620477Y371393D01*
X621780Y373091D01*
X622599Y375068D01*
X622878Y377190D01*
X622599Y379312D01*
X621780Y381289D01*
X620477Y382987D01*
X618779Y384290D01*
X616802Y385109D01*
X614680Y385388D01*
X612558Y385109D01*
X610581Y384290D01*
X608883Y382987D01*
X607580Y381289D01*
X607477Y381041D01*
X554561D01*
X492117Y443485D01*
X492251Y444500D01*
X491932Y446922D01*
X490997Y449179D01*
X489510Y451117D01*
X487572Y452604D01*
X485315Y453539D01*
X482893Y453858D01*
X480471Y453539D01*
X478214Y452604D01*
X476275Y451117D01*
X474788Y449179D01*
X473853Y446922D01*
X473535Y444500D01*
X473853Y442078D01*
X474788Y439821D01*
X476275Y437883D01*
X478214Y436396D01*
X480471Y435461D01*
X482893Y435142D01*
X485315Y435461D01*
X487572Y436396D01*
X487991Y436718D01*
X490425Y434284D01*
X489939Y433111D01*
X448928D01*
X440789Y441250D01*
X441132Y442078D01*
X441451Y444500D01*
X441132Y446922D01*
X440197Y449179D01*
X438710Y451117D01*
X436772Y452604D01*
X434515Y453539D01*
X432093Y453858D01*
X429671Y453539D01*
X427414Y452604D01*
X425476Y451117D01*
X423988Y449179D01*
X423054Y446922D01*
X422735Y444500D01*
X423054Y442078D01*
X423988Y439821D01*
X425476Y437883D01*
X427414Y436396D01*
X429671Y435461D01*
X432093Y435142D01*
X434515Y435461D01*
X435343Y435804D01*
X444610Y426537D01*
X444610Y426537D01*
X445859Y425702D01*
X447333Y425409D01*
X482119D01*
X482551Y424139D01*
X481883Y423627D01*
X480580Y421929D01*
X479761Y419952D01*
X479482Y417830D01*
X479761Y415708D01*
X480113Y414859D01*
X479036Y414140D01*
X472623Y420553D01*
X471374Y421388D01*
X469900Y421681D01*
X469900Y421681D01*
X434958D01*
X415389Y441250D01*
X415732Y442078D01*
X416051Y444500D01*
X415732Y446922D01*
X414797Y449179D01*
X413310Y451117D01*
X411372Y452604D01*
X409115Y453539D01*
X406693Y453858D01*
X404271Y453539D01*
X402014Y452604D01*
X400075Y451117D01*
X398588Y449179D01*
X397654Y446922D01*
X397335Y444500D01*
X397654Y442078D01*
X398588Y439821D01*
X400075Y437883D01*
X402014Y436396D01*
X404271Y435461D01*
X406693Y435142D01*
X409115Y435461D01*
X409943Y435804D01*
X430640Y415107D01*
X430640Y415107D01*
X431889Y414272D01*
X433363Y413979D01*
X468305D01*
X500339Y381945D01*
Y358993D01*
X500091Y358890D01*
X498393Y357587D01*
X497090Y355889D01*
X496271Y353912D01*
X495992Y351790D01*
X496271Y349668D01*
X497090Y347691D01*
X498393Y345993D01*
X500091Y344690D01*
X502068Y343871D01*
X504190Y343592D01*
X506312Y343871D01*
X508289Y344690D01*
X509987Y345993D01*
X511290Y347691D01*
X511689Y348655D01*
X512959Y348402D01*
Y160868D01*
X511689Y160615D01*
X511290Y161579D01*
X509987Y163277D01*
X508289Y164580D01*
X508041Y164683D01*
Y321662D01*
X508041Y321662D01*
X507748Y323135D01*
X506913Y324385D01*
X506913Y324385D01*
X390006Y441292D01*
X390332Y442078D01*
X390651Y444500D01*
X390332Y446922D01*
X389397Y449179D01*
X387910Y451117D01*
X385972Y452604D01*
X383715Y453539D01*
X381293Y453858D01*
X378871Y453539D01*
X376614Y452604D01*
X374675Y451117D01*
X373188Y449179D01*
X372253Y446922D01*
X371019Y447131D01*
Y458420D01*
X372464Y459386D01*
X373741Y461296D01*
X374189Y463550D01*
X373741Y465804D01*
X372464Y467714D01*
X370554Y468991D01*
X368300Y469439D01*
X366046Y468991D01*
X364136Y467714D01*
X362859Y465804D01*
X362411Y463550D01*
X362859Y461296D01*
X364136Y459386D01*
X365581Y458420D01*
Y448191D01*
X364311Y447939D01*
X363797Y449179D01*
X362310Y451117D01*
X360372Y452604D01*
X358115Y453539D01*
X355693Y453858D01*
X353271Y453539D01*
X351014Y452604D01*
X349076Y451117D01*
X347588Y449179D01*
X346654Y446922D01*
X346335Y444500D01*
X346654Y442078D01*
X347588Y439821D01*
X349076Y437883D01*
X351014Y436396D01*
X351795Y436072D01*
Y428796D01*
X351547Y428694D01*
X349849Y427391D01*
X348547Y425693D01*
X347728Y423716D01*
X347448Y421594D01*
X347728Y419472D01*
X348547Y417495D01*
X349849Y415797D01*
X351547Y414494D01*
X353525Y413675D01*
X355646Y413396D01*
X357768Y413675D01*
X359745Y414494D01*
X361443Y415797D01*
X362746Y417495D01*
X363565Y419472D01*
X363844Y421594D01*
X363565Y423716D01*
X362746Y425693D01*
X361443Y427391D01*
X359745Y428694D01*
X359497Y428796D01*
Y436034D01*
X360372Y436396D01*
X362310Y437883D01*
X363797Y439821D01*
X364311Y441062D01*
X365581Y440809D01*
Y440690D01*
X365788Y439649D01*
X366377Y438767D01*
X405930Y399215D01*
X405591Y397510D01*
X406039Y395256D01*
X407316Y393346D01*
X409226Y392069D01*
X411480Y391621D01*
X413734Y392069D01*
X415644Y393346D01*
X416921Y395256D01*
X417369Y397510D01*
X416921Y399764D01*
X415644Y401674D01*
X413734Y402951D01*
X411480Y403399D01*
X409776Y403060D01*
X378548Y434288D01*
X378563Y434342D01*
X379216Y435415D01*
X381293Y435142D01*
X383715Y435461D01*
X384585Y435821D01*
X489687Y330719D01*
X489232Y329378D01*
X488098Y329229D01*
X486121Y328410D01*
X484423Y327107D01*
X483120Y325409D01*
X483017Y325161D01*
X393700D01*
X393700Y325161D01*
X392226Y324868D01*
X390977Y324033D01*
X374091Y307147D01*
X373256Y305898D01*
X372963Y304424D01*
X372963Y304424D01*
Y217449D01*
X359572Y204058D01*
X346462D01*
Y194318D01*
X340351D01*
X339807Y195027D01*
X338109Y196330D01*
X336132Y197149D01*
X334010Y197428D01*
X331888Y197149D01*
X329911Y196330D01*
X328213Y195027D01*
X326910Y193329D01*
X326091Y191352D01*
X325812Y189230D01*
X326091Y187108D01*
X326910Y185131D01*
X328213Y183433D01*
X329911Y182130D01*
X331888Y181311D01*
X334010Y181032D01*
X336132Y181311D01*
X338109Y182130D01*
X339807Y183433D01*
X340351Y184142D01*
X346462D01*
Y175502D01*
X350582D01*
Y171588D01*
X341760D01*
X339813Y171201D01*
X338162Y170098D01*
X332952Y164888D01*
X331850Y163237D01*
X331462Y161290D01*
Y152208D01*
X331172D01*
Y143452D01*
X334120D01*
X334603Y143130D01*
X336550Y142742D01*
X338497Y143130D01*
X338980Y143452D01*
X341928D01*
Y152208D01*
X341638D01*
Y159183D01*
X343867Y161412D01*
X350582D01*
Y154748D01*
X348572D01*
X348572Y141964D01*
X347810Y141010D01*
X347810Y140738D01*
Y134990D01*
X355600D01*
X363390D01*
X363390Y141010D01*
X362628Y141964D01*
X362628Y142280D01*
Y154748D01*
X360758D01*
Y166500D01*
Y175502D01*
X365018D01*
Y198612D01*
X379537Y213131D01*
X380372Y214380D01*
X380665Y215854D01*
X380665Y215854D01*
Y302829D01*
X395295Y317459D01*
X459085D01*
X459711Y316189D01*
X458990Y315249D01*
X458887Y315001D01*
X411480D01*
X411480Y315001D01*
X410006Y314708D01*
X408757Y313873D01*
X391706Y296822D01*
X390871Y295573D01*
X390578Y294099D01*
X390578Y294099D01*
Y209355D01*
X389780Y209084D01*
X389308Y209019D01*
X387639Y210300D01*
X385662Y211119D01*
X383540Y211398D01*
X381418Y211119D01*
X379441Y210300D01*
X377743Y208997D01*
X376440Y207299D01*
X375621Y205322D01*
X375342Y203200D01*
X375621Y201078D01*
X376440Y199101D01*
X377743Y197403D01*
X379441Y196100D01*
X379501Y196075D01*
Y163967D01*
X374467Y158933D01*
X373632Y157684D01*
X373339Y156210D01*
X373339Y156210D01*
Y131135D01*
X348925Y106721D01*
X322791D01*
X322791Y106721D01*
X321317Y106428D01*
X320068Y105593D01*
X320068Y105593D01*
X312528Y98053D01*
X311693Y96804D01*
X311670Y96688D01*
X309472D01*
Y74132D01*
X318202D01*
X319028Y74132D01*
Y74132D01*
X319129D01*
X320399Y73304D01*
Y63586D01*
X312736Y55923D01*
X311563Y56409D01*
Y69910D01*
X311425Y70604D01*
X311032Y71192D01*
X310444Y71585D01*
X309750Y71723D01*
X295028D01*
Y77688D01*
X270472D01*
Y46132D01*
X295028D01*
Y52097D01*
X307251D01*
X307737Y50924D01*
X287304Y30491D01*
X256468D01*
Y31918D01*
X243912D01*
Y21362D01*
X256468D01*
Y22789D01*
X288899D01*
X288899Y22789D01*
X290373Y23082D01*
X291622Y23917D01*
X319226Y51521D01*
X320399Y51035D01*
Y47715D01*
X289235Y16551D01*
X227360D01*
X227218Y17762D01*
X227218Y17821D01*
Y31818D01*
X209662D01*
Y29878D01*
X157657D01*
X149571Y37965D01*
X151380Y40918D01*
X153023Y44885D01*
X154025Y49060D01*
X154362Y53340D01*
X154025Y57621D01*
X153023Y61796D01*
X151380Y65762D01*
X149137Y69423D01*
X146348Y72688D01*
X143083Y75477D01*
X142248Y75989D01*
Y102942D01*
X146403D01*
X150072Y99272D01*
X151723Y98170D01*
X153670Y97782D01*
X279409D01*
X279953Y97073D01*
X281651Y95770D01*
X283628Y94951D01*
X285750Y94672D01*
X287872Y94951D01*
X289849Y95770D01*
X291547Y97073D01*
X292850Y98771D01*
X293669Y100748D01*
X293948Y102870D01*
X293669Y104992D01*
X292850Y106969D01*
X291547Y108667D01*
X289849Y109970D01*
X287872Y110789D01*
X285750Y111068D01*
X283628Y110789D01*
X281651Y109970D01*
X279953Y108667D01*
X279409Y107958D01*
X220320D01*
Y130810D01*
X196240D01*
Y107958D01*
X155777D01*
X152107Y111628D01*
X150457Y112731D01*
X148510Y113118D01*
X146076D01*
X145691Y114388D01*
X145758Y114432D01*
X193877Y162552D01*
X270817D01*
X287992Y145377D01*
Y142592D01*
X291276D01*
X291423Y142493D01*
X293370Y142106D01*
X295317Y142493D01*
X295318Y142494D01*
X304254D01*
X304630Y141380D01*
X304630Y141108D01*
Y135360D01*
X312420D01*
X320210D01*
X320210Y141380D01*
X319448Y142334D01*
X319448Y142650D01*
Y155118D01*
X316168D01*
Y175502D01*
X319018D01*
Y204058D01*
X300462D01*
Y175502D01*
X305992D01*
Y155118D01*
X305392D01*
Y152670D01*
X295089D01*
X276522Y171238D01*
X274871Y172340D01*
X272924Y172728D01*
X191770D01*
X189823Y172340D01*
X188172Y171238D01*
X142819Y125884D01*
X141646Y126370D01*
Y128053D01*
X141894Y128155D01*
X143592Y129458D01*
X144895Y131156D01*
X145714Y133133D01*
X145993Y135255D01*
X145714Y137377D01*
X144895Y139354D01*
X143592Y141052D01*
X141894Y142355D01*
X139917Y143174D01*
X137795Y143453D01*
X135673Y143174D01*
X135642Y143161D01*
X134923Y144238D01*
X193877Y203192D01*
X197002D01*
Y185802D01*
X219558D01*
Y205729D01*
X234980D01*
X234980Y205729D01*
X236454Y206022D01*
X237703Y206857D01*
X268022Y237176D01*
X269292Y236650D01*
Y234060D01*
X269232Y233760D01*
X269232Y233760D01*
Y220308D01*
X268542D01*
Y210752D01*
X272763D01*
X274320Y210442D01*
X275877Y210752D01*
X280098D01*
Y220308D01*
X279408D01*
Y233760D01*
X279348Y234060D01*
Y237962D01*
X279348Y238288D01*
Y239232D01*
X279348Y239558D01*
Y248288D01*
X269292D01*
X269160Y247611D01*
X267686Y247318D01*
X266437Y246483D01*
X266437Y246483D01*
X233385Y213431D01*
X219558D01*
Y223280D01*
X233448D01*
X235395Y223668D01*
X237046Y224771D01*
X262678Y250403D01*
X263780Y252053D01*
X264168Y254000D01*
Y300152D01*
X275598D01*
Y357708D01*
X256547D01*
X206496Y407759D01*
X206982Y408932D01*
X227763D01*
X324659Y312036D01*
X324542Y311150D01*
X324821Y309028D01*
X325640Y307051D01*
X326943Y305353D01*
X328641Y304050D01*
X330618Y303231D01*
X332740Y302952D01*
X334862Y303231D01*
X336839Y304050D01*
X338537Y305353D01*
X339840Y307051D01*
X340659Y309028D01*
X340938Y311150D01*
X340659Y313272D01*
X339840Y315249D01*
X338537Y316947D01*
X336839Y318250D01*
X334862Y319069D01*
X332740Y319348D01*
X331854Y319231D01*
X305435Y345650D01*
X305961Y346920D01*
X308040D01*
Y351790D01*
X304170D01*
Y348711D01*
X302900Y348185D01*
X233468Y417618D01*
X231817Y418721D01*
X229870Y419108D01*
X193040D01*
X192740Y419048D01*
X188512D01*
Y419048D01*
X187568D01*
Y419048D01*
X183340D01*
X183040Y419108D01*
X158750D01*
X156803Y418721D01*
X155153Y417618D01*
X128483Y390948D01*
X127380Y389297D01*
X126992Y387350D01*
Y344076D01*
X123231D01*
Y407955D01*
X142048Y426772D01*
X145332D01*
X145658Y426772D01*
X146602D01*
X146928Y426772D01*
X155658D01*
Y427949D01*
X162977D01*
X163080Y427701D01*
X164383Y426003D01*
X166081Y424700D01*
X168058Y423881D01*
X170180Y423602D01*
X172302Y423881D01*
X174279Y424700D01*
X175977Y426003D01*
X177280Y427701D01*
X178099Y429678D01*
X178378Y431800D01*
X178099Y433922D01*
X177280Y435899D01*
X175977Y437597D01*
X174279Y438900D01*
X172302Y439719D01*
X170180Y439998D01*
X168058Y439719D01*
X166081Y438900D01*
X164383Y437597D01*
X163080Y435899D01*
X162977Y435651D01*
X155658D01*
Y436828D01*
X155021D01*
Y445105D01*
X155738Y445822D01*
X156682D01*
X157008Y445822D01*
X165738D01*
Y446999D01*
X186690D01*
X186690Y446999D01*
X188164Y447292D01*
X189413Y448127D01*
X199560Y458274D01*
X199808Y458171D01*
X201930Y457892D01*
X204052Y458171D01*
X206029Y458990D01*
X207727Y460293D01*
X209030Y461991D01*
X209849Y463968D01*
X210128Y466090D01*
X209849Y468212D01*
X209030Y470189D01*
X207727Y471887D01*
X206029Y473190D01*
X204052Y474009D01*
X201930Y474288D01*
D02*
G37*
G36*
X712763Y454459D02*
Y445770D01*
X721452D01*
X721274Y447121D01*
X720263Y449563D01*
X718653Y451661D01*
X716556Y453270D01*
X714114Y454282D01*
X712763Y454459D01*
D02*
G37*
G36*
X710223D02*
X708872Y454282D01*
X706429Y453270D01*
X704332Y451661D01*
X702723Y449563D01*
X701711Y447121D01*
X701533Y445770D01*
X710223D01*
Y454459D01*
D02*
G37*
G36*
X712470Y503498D02*
X710348Y503219D01*
X708371Y502400D01*
X706673Y501097D01*
X705370Y499399D01*
X704551Y497422D01*
X704272Y495300D01*
X704551Y493178D01*
X705370Y491201D01*
X706673Y489503D01*
X708371Y488200D01*
X710348Y487381D01*
X712470Y487102D01*
X714592Y487381D01*
X714840Y487484D01*
X733042Y469282D01*
Y452947D01*
X732214Y452604D01*
X730275Y451117D01*
X728788Y449179D01*
X727853Y446922D01*
X727535Y444500D01*
X727853Y442078D01*
X728788Y439821D01*
X730275Y437883D01*
X732214Y436396D01*
X734471Y435461D01*
X736893Y435142D01*
X739315Y435461D01*
X741572Y436396D01*
X743510Y437883D01*
X744997Y439821D01*
X745932Y442078D01*
X746251Y444500D01*
X745932Y446922D01*
X744997Y449179D01*
X743510Y451117D01*
X741572Y452604D01*
X740744Y452947D01*
Y470877D01*
X740744Y470877D01*
X740451Y472351D01*
X739616Y473601D01*
X739616Y473601D01*
X720286Y492930D01*
X720389Y493178D01*
X720668Y495300D01*
X720389Y497422D01*
X719570Y499399D01*
X718267Y501097D01*
X716569Y502400D01*
X714592Y503219D01*
X712470Y503498D01*
D02*
G37*
G36*
X457200Y513658D02*
X455078Y513379D01*
X453101Y512560D01*
X451403Y511257D01*
X450100Y509559D01*
X449281Y507582D01*
X449002Y505460D01*
X449281Y503338D01*
X450100Y501361D01*
X451403Y499663D01*
X453101Y498360D01*
X453495Y498197D01*
Y452887D01*
X452814Y452604D01*
X450876Y451117D01*
X449388Y449179D01*
X448453Y446922D01*
X448135Y444500D01*
X448453Y442078D01*
X449388Y439821D01*
X450876Y437883D01*
X452814Y436396D01*
X455071Y435461D01*
X457493Y435142D01*
X459915Y435461D01*
X462172Y436396D01*
X464110Y437883D01*
X465597Y439821D01*
X466532Y442078D01*
X466851Y444500D01*
X466532Y446922D01*
X465597Y449179D01*
X464110Y451117D01*
X462172Y452604D01*
X461197Y453008D01*
Y498318D01*
X461299Y498360D01*
X462997Y499663D01*
X464300Y501361D01*
X465119Y503338D01*
X465398Y505460D01*
X465119Y507582D01*
X464300Y509559D01*
X462997Y511257D01*
X461299Y512560D01*
X459322Y513379D01*
X457200Y513658D01*
D02*
G37*
G36*
X721452Y443230D02*
X712763D01*
Y434541D01*
X714114Y434719D01*
X716556Y435730D01*
X718653Y437340D01*
X720263Y439437D01*
X721274Y441879D01*
X721452Y443230D01*
D02*
G37*
G36*
X710223D02*
X701533D01*
X701711Y441879D01*
X702723Y439437D01*
X704332Y437340D01*
X706429Y435730D01*
X708872Y434719D01*
X710223Y434541D01*
Y443230D01*
D02*
G37*
G36*
X97911Y446588D02*
X64355D01*
Y422032D01*
X97911D01*
Y446588D01*
D02*
G37*
G36*
X686093Y453858D02*
X683671Y453539D01*
X681414Y452604D01*
X679475Y451117D01*
X677988Y449179D01*
X677054Y446922D01*
X676735Y444500D01*
X677054Y442078D01*
X677988Y439821D01*
X678404Y439280D01*
X671847Y432723D01*
X671012Y431474D01*
X670719Y430000D01*
X670719Y430000D01*
Y415462D01*
X669449Y415209D01*
X668770Y416849D01*
X667467Y418547D01*
X665769Y419850D01*
X663792Y420669D01*
X661670Y420948D01*
X659548Y420669D01*
X657571Y419850D01*
X655873Y418547D01*
X654570Y416849D01*
X653751Y414872D01*
X653472Y412750D01*
X653751Y410628D01*
X654570Y408651D01*
X655873Y406953D01*
X657571Y405650D01*
X658219Y405382D01*
Y372768D01*
X656618D01*
X656292Y372768D01*
X655348D01*
X655022Y372768D01*
X653421D01*
Y401990D01*
X653421Y401990D01*
X653128Y403464D01*
X652293Y404713D01*
X630103Y426903D01*
X628854Y427738D01*
X627380Y428031D01*
X627380Y428031D01*
X581008D01*
X567789Y441250D01*
X568132Y442078D01*
X568451Y444500D01*
X568132Y446922D01*
X567197Y449179D01*
X565710Y451117D01*
X563772Y452604D01*
X561515Y453539D01*
X559093Y453858D01*
X556671Y453539D01*
X554414Y452604D01*
X552476Y451117D01*
X550988Y449179D01*
X550053Y446922D01*
X549735Y444500D01*
X550053Y442078D01*
X550988Y439821D01*
X552476Y437883D01*
X554414Y436396D01*
X556671Y435461D01*
X559093Y435142D01*
X561515Y435461D01*
X562343Y435804D01*
X576690Y421457D01*
X576690Y421457D01*
X577939Y420622D01*
X579413Y420329D01*
X579413Y420329D01*
X625785D01*
X645719Y400395D01*
Y372768D01*
X644118D01*
X643792Y372768D01*
X642848D01*
X642522Y372768D01*
X631292D01*
Y356212D01*
X633219D01*
Y330055D01*
X630128Y326964D01*
X630128Y326964D01*
X627420Y324256D01*
X626110Y324428D01*
X623988Y324149D01*
X622011Y323330D01*
X620313Y322027D01*
X619010Y320329D01*
X618191Y318352D01*
X617912Y316230D01*
X618191Y314108D01*
X619010Y312131D01*
X620313Y310433D01*
X622011Y309130D01*
X623988Y308311D01*
X626110Y308032D01*
X628232Y308311D01*
X630209Y309130D01*
X631907Y310433D01*
X633210Y312131D01*
X634029Y314108D01*
X634308Y316230D01*
X634029Y318352D01*
X633554Y319498D01*
X634446Y320390D01*
X712470D01*
X712470Y320390D01*
X713944Y320683D01*
X715193Y321518D01*
X725847Y332172D01*
X726423Y332557D01*
X727258Y333806D01*
X727551Y335280D01*
Y382470D01*
X727551Y382470D01*
X727258Y383944D01*
X726423Y385193D01*
X726423Y385193D01*
X689797Y421819D01*
Y435992D01*
X690772Y436396D01*
X692710Y437883D01*
X694197Y439821D01*
X695132Y442078D01*
X695451Y444500D01*
X695132Y446922D01*
X694197Y449179D01*
X692710Y451117D01*
X690772Y452604D01*
X688515Y453539D01*
X686093Y453858D01*
D02*
G37*
G36*
X254293D02*
X251871Y453539D01*
X249614Y452604D01*
X247675Y451117D01*
X246188Y449179D01*
X245254Y446922D01*
X244935Y444500D01*
X245254Y442078D01*
X246188Y439821D01*
X247675Y437883D01*
X249614Y436396D01*
X251871Y435461D01*
X254293Y435142D01*
X256715Y435461D01*
X258972Y436396D01*
X259729Y436977D01*
X286258Y410448D01*
X286211Y410210D01*
X286659Y407956D01*
X287936Y406046D01*
X289846Y404769D01*
X292100Y404321D01*
X294354Y404769D01*
X296264Y406046D01*
X297541Y407956D01*
X297989Y410210D01*
X297541Y412464D01*
X296264Y414374D01*
X294354Y415651D01*
X292100Y416099D01*
X289846Y415651D01*
X289187Y415210D01*
X263035Y441362D01*
X263332Y442078D01*
X263651Y444500D01*
X263332Y446922D01*
X262397Y449179D01*
X260910Y451117D01*
X258972Y452604D01*
X256715Y453539D01*
X254293Y453858D01*
D02*
G37*
G36*
X279693D02*
X277271Y453539D01*
X275014Y452604D01*
X273076Y451117D01*
X271588Y449179D01*
X270653Y446922D01*
X270335Y444500D01*
X270653Y442078D01*
X271588Y439821D01*
X273076Y437883D01*
X275014Y436396D01*
X277271Y435461D01*
X279693Y435142D01*
X280938Y435306D01*
X305600Y410644D01*
X305261Y408940D01*
X305709Y406686D01*
X306986Y404776D01*
X308896Y403499D01*
X311150Y403051D01*
X313404Y403499D01*
X315314Y404776D01*
X316591Y406686D01*
X317039Y408940D01*
X316591Y411194D01*
X315314Y413104D01*
X313404Y414381D01*
X311150Y414829D01*
X309445Y414490D01*
X286294Y437642D01*
X286310Y437883D01*
X287797Y439821D01*
X288732Y442078D01*
X289051Y444500D01*
X288732Y446922D01*
X287797Y449179D01*
X286310Y451117D01*
X284372Y452604D01*
X282115Y453539D01*
X279693Y453858D01*
D02*
G37*
G36*
X30110Y409110D02*
Y402590D01*
X36130D01*
Y409110D01*
X30110D01*
D02*
G37*
G36*
X533693Y453858D02*
X531271Y453539D01*
X529014Y452604D01*
X527076Y451117D01*
X525588Y449179D01*
X524654Y446922D01*
X524335Y444500D01*
X524654Y442078D01*
X525588Y439821D01*
X527076Y437883D01*
X529014Y436396D01*
X531271Y435461D01*
X533693Y435142D01*
X536115Y435461D01*
X536943Y435804D01*
X565354Y407393D01*
X565354Y407393D01*
X566603Y406558D01*
X568077Y406265D01*
X607571D01*
X607674Y406017D01*
X608977Y404319D01*
X610675Y403016D01*
X612652Y402197D01*
X614774Y401918D01*
X616896Y402197D01*
X618873Y403016D01*
X620571Y404319D01*
X621874Y406017D01*
X622693Y407994D01*
X622972Y410116D01*
X622693Y412238D01*
X621874Y414215D01*
X620571Y415913D01*
X618873Y417216D01*
X616896Y418035D01*
X614774Y418314D01*
X612652Y418035D01*
X610675Y417216D01*
X608977Y415913D01*
X607674Y414215D01*
X607571Y413967D01*
X569672D01*
X542389Y441250D01*
X542732Y442078D01*
X543051Y444500D01*
X542732Y446922D01*
X541797Y449179D01*
X540310Y451117D01*
X538372Y452604D01*
X536115Y453539D01*
X533693Y453858D01*
D02*
G37*
G36*
X98038Y416178D02*
X61982D01*
Y396122D01*
X98038D01*
Y416178D01*
D02*
G37*
G36*
X36130Y400050D02*
X30110D01*
Y393530D01*
X36130D01*
Y400050D01*
D02*
G37*
G36*
X347640Y396700D02*
X343270D01*
Y392430D01*
X347640D01*
Y396700D01*
D02*
G37*
G36*
X340730D02*
X336360D01*
Y392430D01*
X340730D01*
Y396700D01*
D02*
G37*
G36*
X508293Y453858D02*
X505871Y453539D01*
X503614Y452604D01*
X501675Y451117D01*
X500188Y449179D01*
X499254Y446922D01*
X498935Y444500D01*
X499254Y442078D01*
X500188Y439821D01*
X501675Y437883D01*
X503614Y436396D01*
X505871Y435461D01*
X508293Y435142D01*
X510715Y435461D01*
X511543Y435804D01*
X558910Y388437D01*
X558910Y388437D01*
X560159Y387602D01*
X561633Y387309D01*
X561633Y387309D01*
X618907D01*
X619010Y387061D01*
X620313Y385363D01*
X622011Y384060D01*
X623988Y383241D01*
X626110Y382962D01*
X628232Y383241D01*
X630209Y384060D01*
X631907Y385363D01*
X633210Y387061D01*
X634029Y389038D01*
X634308Y391160D01*
X634029Y393282D01*
X633210Y395259D01*
X631907Y396957D01*
X630209Y398260D01*
X628232Y399079D01*
X626110Y399358D01*
X623988Y399079D01*
X622011Y398260D01*
X620313Y396957D01*
X619010Y395259D01*
X618907Y395011D01*
X563228D01*
X516989Y441250D01*
X517332Y442078D01*
X517651Y444500D01*
X517332Y446922D01*
X516397Y449179D01*
X514910Y451117D01*
X512972Y452604D01*
X510715Y453539D01*
X508293Y453858D01*
D02*
G37*
G36*
X31460Y387140D02*
X27590D01*
Y382270D01*
X31460D01*
Y387140D01*
D02*
G37*
G36*
X25050D02*
X21180D01*
Y382270D01*
X25050D01*
Y387140D01*
D02*
G37*
G36*
X330493Y453858D02*
X328071Y453539D01*
X325814Y452604D01*
X323876Y451117D01*
X322388Y449179D01*
X321454Y446922D01*
X321135Y444500D01*
X321454Y442078D01*
X322388Y439821D01*
X323876Y437883D01*
X325814Y436396D01*
X327773Y435584D01*
Y426628D01*
X327980Y425587D01*
X328570Y424705D01*
X368168Y385107D01*
Y381133D01*
X364133D01*
X363494Y381772D01*
X362612Y382361D01*
X361571Y382568D01*
X346878D01*
Y385620D01*
X347640D01*
Y389890D01*
X342000D01*
X336360D01*
Y385620D01*
X337122D01*
Y377182D01*
X338911D01*
Y367080D01*
X337466Y366114D01*
X336189Y364204D01*
X335741Y361950D01*
X336189Y359696D01*
X337466Y357786D01*
X339376Y356509D01*
X340308Y356324D01*
Y353674D01*
X339038Y353148D01*
X324029Y368156D01*
Y428283D01*
X323822Y429323D01*
X323233Y430205D01*
X313320Y440118D01*
X314132Y442078D01*
X314451Y444500D01*
X314132Y446922D01*
X313197Y449179D01*
X311710Y451117D01*
X309772Y452604D01*
X307515Y453539D01*
X305093Y453858D01*
X302671Y453539D01*
X300414Y452604D01*
X298475Y451117D01*
X296988Y449179D01*
X296054Y446922D01*
X295735Y444500D01*
X296054Y442078D01*
X296988Y439821D01*
X298475Y437883D01*
X300414Y436396D01*
X302671Y435461D01*
X305093Y435142D01*
X307515Y435461D01*
X309475Y436273D01*
X318591Y427156D01*
Y367030D01*
X318798Y365989D01*
X319387Y365107D01*
X324786Y359708D01*
X324260Y358438D01*
X316932D01*
Y347682D01*
X322842D01*
X339707Y330817D01*
X340589Y330228D01*
X341630Y330021D01*
X377190D01*
X378231Y330228D01*
X379113Y330817D01*
X384923Y336627D01*
X385512Y337509D01*
X385719Y338550D01*
Y346124D01*
X385730Y346133D01*
Y349963D01*
X385833Y350480D01*
Y352980D01*
X388167D01*
Y350480D01*
X388270Y349963D01*
Y347123D01*
X388381Y347146D01*
X389552Y347928D01*
X389635Y348051D01*
X389916Y347863D01*
X391000Y347648D01*
X392084Y347863D01*
X392196Y347938D01*
X406777Y333357D01*
X407339Y332982D01*
X408586Y331116D01*
X410496Y329839D01*
X412750Y329391D01*
X415004Y329839D01*
X416914Y331116D01*
X418191Y333026D01*
X418639Y335280D01*
X418191Y337534D01*
X416914Y339444D01*
X415004Y340721D01*
X412750Y341169D01*
X410496Y340721D01*
X408586Y339444D01*
X408400Y339426D01*
X393833Y353993D01*
Y355468D01*
X398820D01*
X399603Y355623D01*
X416262D01*
Y355382D01*
X422257D01*
X422428Y355126D01*
X426541Y351014D01*
Y342950D01*
X425096Y341984D01*
X423819Y340074D01*
X423371Y337820D01*
X423819Y335566D01*
X425096Y333656D01*
X427006Y332379D01*
X429260Y331931D01*
X431514Y332379D01*
X433424Y333656D01*
X434701Y335566D01*
X435149Y337820D01*
X434701Y340074D01*
X433424Y341984D01*
X431979Y342950D01*
Y352140D01*
X431979Y352140D01*
X431772Y353181D01*
X431183Y354063D01*
X427039Y358207D01*
X427018Y358312D01*
Y364138D01*
X416262D01*
Y361062D01*
X402701D01*
X401652Y362300D01*
X401437Y363384D01*
X400825Y364300D01*
X401437Y365216D01*
X401652Y366300D01*
X401437Y367384D01*
X400825Y368300D01*
X401437Y369216D01*
X401652Y370300D01*
X401437Y371384D01*
X400825Y372300D01*
X401437Y373216D01*
X401652Y374300D01*
X401437Y375384D01*
X401249Y375665D01*
X401372Y375748D01*
X402155Y376919D01*
X402177Y377030D01*
X399338D01*
X398820Y377133D01*
X396320D01*
Y378300D01*
X395050D01*
Y381909D01*
X393833D01*
Y386120D01*
X393617Y387204D01*
X393003Y388123D01*
X392084Y388737D01*
X391000Y388952D01*
X389916Y388737D01*
X389635Y388549D01*
X389552Y388672D01*
X388381Y389455D01*
X388270Y389477D01*
Y386638D01*
X388167Y386120D01*
Y383620D01*
X385833D01*
Y386120D01*
X385730Y386637D01*
Y389477D01*
X385619Y389455D01*
X384448Y388672D01*
X384365Y388549D01*
X384084Y388737D01*
X383000Y388952D01*
X382915Y388936D01*
X381934Y389741D01*
Y393135D01*
X383379Y394100D01*
X384655Y396011D01*
X385103Y398264D01*
X384655Y400518D01*
X383379Y402429D01*
X381468Y403705D01*
X379214Y404154D01*
X376961Y403705D01*
X375050Y402429D01*
X373774Y400518D01*
X373325Y398264D01*
X373774Y396011D01*
X375050Y394100D01*
X376495Y393135D01*
Y391316D01*
X375322Y390830D01*
X368479Y397672D01*
Y402540D01*
X369924Y403506D01*
X371201Y405416D01*
X371649Y407670D01*
X371201Y409924D01*
X369924Y411834D01*
X368014Y413111D01*
X365760Y413559D01*
X363506Y413111D01*
X361596Y411834D01*
X360319Y409924D01*
X359871Y407670D01*
X360319Y405416D01*
X361596Y403506D01*
X363041Y402540D01*
Y399584D01*
X361867Y399098D01*
X333212Y427754D01*
Y435584D01*
X335172Y436396D01*
X337110Y437883D01*
X338597Y439821D01*
X339532Y442078D01*
X339851Y444500D01*
X339532Y446922D01*
X338597Y449179D01*
X337110Y451117D01*
X335172Y452604D01*
X332915Y453539D01*
X330493Y453858D01*
D02*
G37*
G36*
X398820Y381909D02*
X397590D01*
Y379570D01*
X402177D01*
X402155Y379681D01*
X401372Y380852D01*
X400201Y381635D01*
X398820Y381909D01*
D02*
G37*
G36*
X31460Y379730D02*
X27590D01*
Y374860D01*
X31460D01*
Y379730D01*
D02*
G37*
G36*
X25050D02*
X21180D01*
Y374860D01*
X25050D01*
Y379730D01*
D02*
G37*
G36*
X427780Y376900D02*
X422910D01*
Y373030D01*
X427780D01*
Y376900D01*
D02*
G37*
G36*
X420370D02*
X415500D01*
Y373030D01*
X420370D01*
Y376900D01*
D02*
G37*
G36*
X427780Y370490D02*
X422910D01*
Y366620D01*
X427780D01*
Y370490D01*
D02*
G37*
G36*
X420370D02*
X415500D01*
Y366620D01*
X420370D01*
Y370490D01*
D02*
G37*
G36*
X314450Y359200D02*
X310580D01*
Y354330D01*
X314450D01*
Y359200D01*
D02*
G37*
G36*
X308040D02*
X304170D01*
Y354330D01*
X308040D01*
Y359200D01*
D02*
G37*
G36*
X314450Y351790D02*
X310580D01*
Y346920D01*
X314450D01*
Y351790D01*
D02*
G37*
G36*
X64300Y353940D02*
X58280D01*
Y344420D01*
X64300D01*
Y353940D01*
D02*
G37*
G36*
X55740D02*
X49720D01*
Y344420D01*
X55740D01*
Y353940D01*
D02*
G37*
G36*
X64300Y341880D02*
X58280D01*
Y332360D01*
X64300D01*
Y341880D01*
D02*
G37*
G36*
X55740D02*
X49720D01*
Y332360D01*
X55740D01*
Y341880D01*
D02*
G37*
G36*
X91790Y327450D02*
Y322580D01*
X95660D01*
Y327450D01*
X91790D01*
D02*
G37*
G36*
X760348Y353768D02*
X735792D01*
Y320212D01*
X760348D01*
Y353768D01*
D02*
G37*
G36*
X613348D02*
X588792D01*
Y320212D01*
X613348D01*
Y353768D01*
D02*
G37*
G36*
X139870Y321680D02*
X133350D01*
Y315660D01*
X139870D01*
Y321680D01*
D02*
G37*
G36*
X130810D02*
X124290D01*
Y315660D01*
X130810D01*
Y321680D01*
D02*
G37*
G36*
X95660Y320040D02*
X91790D01*
Y315170D01*
X95660D01*
Y320040D01*
D02*
G37*
G36*
X190500Y389198D02*
X188378Y388919D01*
X186401Y388100D01*
X184703Y386797D01*
X183400Y385099D01*
X182581Y383122D01*
X182302Y381000D01*
X182581Y378878D01*
X183400Y376901D01*
X184703Y375203D01*
X186401Y373900D01*
X186649Y373797D01*
Y291683D01*
X186401Y291580D01*
X184703Y290277D01*
X183400Y288579D01*
X182581Y286602D01*
X182302Y284480D01*
X182581Y282358D01*
X183400Y280381D01*
X184703Y278683D01*
X186401Y277380D01*
X188378Y276561D01*
X190500Y276282D01*
X192622Y276561D01*
X194599Y277380D01*
X196297Y278683D01*
X197600Y280381D01*
X198419Y282358D01*
X198698Y284480D01*
X198419Y286602D01*
X197600Y288579D01*
X196297Y290277D01*
X194599Y291580D01*
X194351Y291683D01*
Y373797D01*
X194599Y373900D01*
X196297Y375203D01*
X197600Y376901D01*
X198419Y378878D01*
X198698Y381000D01*
X198419Y383122D01*
X197600Y385099D01*
X196297Y386797D01*
X194599Y388100D01*
X192622Y388919D01*
X190500Y389198D01*
D02*
G37*
G36*
X370280Y296320D02*
X334010D01*
Y260050D01*
X370280D01*
Y296320D01*
D02*
G37*
G36*
X331470D02*
X295200D01*
Y260050D01*
X331470D01*
Y296320D01*
D02*
G37*
G36*
X178598Y357708D02*
X146042D01*
Y300152D01*
X157232D01*
Y275000D01*
X157620Y273053D01*
X158722Y271402D01*
X174944Y255181D01*
X174458Y254008D01*
X144771D01*
X144227Y254717D01*
X142529Y256020D01*
X140552Y256839D01*
X138430Y257118D01*
X136308Y256839D01*
X134331Y256020D01*
X132633Y254717D01*
X131330Y253019D01*
X130511Y251042D01*
X130232Y248920D01*
X130511Y246798D01*
X131330Y244821D01*
X132633Y243123D01*
X134331Y241820D01*
X136308Y241001D01*
X138430Y240722D01*
X140552Y241001D01*
X142529Y241820D01*
X144227Y243123D01*
X144771Y243832D01*
X180522D01*
Y241042D01*
X193178D01*
Y256798D01*
X187717D01*
X167408Y277108D01*
Y300152D01*
X178598D01*
Y357708D01*
D02*
G37*
G36*
X226640Y257560D02*
X220820D01*
Y250190D01*
X226640D01*
Y257560D01*
D02*
G37*
G36*
X218280D02*
X212460D01*
Y250190D01*
X218280D01*
Y257560D01*
D02*
G37*
G36*
X226640Y247650D02*
X220820D01*
Y240280D01*
X226640D01*
Y247650D01*
D02*
G37*
G36*
X218280D02*
X212460D01*
Y240280D01*
X218280D01*
Y247650D01*
D02*
G37*
G36*
X370280Y257510D02*
X334010D01*
Y221240D01*
X370280D01*
Y257510D01*
D02*
G37*
G36*
X331470D02*
X295200D01*
Y221240D01*
X331470D01*
Y257510D01*
D02*
G37*
G36*
X122858Y305128D02*
X14302D01*
Y215572D01*
X122858D01*
Y305128D01*
D02*
G37*
G36*
X280860Y206570D02*
X275590D01*
Y202300D01*
X280860D01*
Y206570D01*
D02*
G37*
G36*
X273050D02*
X267780D01*
Y202300D01*
X273050D01*
Y206570D01*
D02*
G37*
G36*
X280860Y199760D02*
X275590D01*
Y195490D01*
X280860D01*
Y199760D01*
D02*
G37*
G36*
X273050D02*
X267780D01*
Y195490D01*
X273050D01*
Y199760D01*
D02*
G37*
G36*
X110620Y184890D02*
X103850D01*
Y166120D01*
X110620D01*
Y184890D01*
D02*
G37*
G36*
X76620D02*
X69850D01*
Y166120D01*
X76620D01*
Y184890D01*
D02*
G37*
G36*
X101310D02*
X94540D01*
Y166120D01*
X101310D01*
Y184890D01*
D02*
G37*
G36*
X67310D02*
X60540D01*
Y166120D01*
X67310D01*
Y184890D01*
D02*
G37*
G36*
X579120Y340938D02*
X576998Y340659D01*
X575021Y339840D01*
X573323Y338537D01*
X572020Y336839D01*
X571201Y334862D01*
X570922Y332740D01*
X571201Y330618D01*
X572020Y328641D01*
X573323Y326943D01*
X575021Y325640D01*
X575269Y325537D01*
Y169763D01*
X575021Y169660D01*
X573323Y168357D01*
X572020Y166659D01*
X571201Y164682D01*
X570922Y162560D01*
X571201Y160438D01*
X572020Y158461D01*
X573323Y156763D01*
X575021Y155460D01*
X576998Y154641D01*
X579120Y154362D01*
X581242Y154641D01*
X583219Y155460D01*
X584917Y156763D01*
X586220Y158461D01*
X587039Y160438D01*
X587318Y162560D01*
X587039Y164682D01*
X586220Y166659D01*
X584917Y168357D01*
X583219Y169660D01*
X582971Y169763D01*
Y325537D01*
X583219Y325640D01*
X584917Y326943D01*
X586220Y328641D01*
X587039Y330618D01*
X587318Y332740D01*
X587039Y334862D01*
X586220Y336839D01*
X584917Y338537D01*
X583219Y339840D01*
X581242Y340659D01*
X579120Y340938D01*
D02*
G37*
G36*
X110620Y163580D02*
X103850D01*
Y144810D01*
X110620D01*
Y163580D01*
D02*
G37*
G36*
X101310D02*
X94540D01*
Y144810D01*
X101310D01*
Y163580D01*
D02*
G37*
G36*
X76620D02*
X69850D01*
Y144810D01*
X76620D01*
Y163580D01*
D02*
G37*
G36*
X67310D02*
X60540D01*
Y144810D01*
X67310D01*
Y163580D01*
D02*
G37*
G36*
X342690Y140970D02*
X337820D01*
Y137100D01*
X342690D01*
Y140970D01*
D02*
G37*
G36*
X335280D02*
X330410D01*
Y137100D01*
X335280D01*
Y140970D01*
D02*
G37*
G36*
X299510Y140110D02*
X294640D01*
Y136240D01*
X299510D01*
Y140110D01*
D02*
G37*
G36*
X292100D02*
X287230D01*
Y136240D01*
X292100D01*
Y140110D01*
D02*
G37*
G36*
X220320Y156620D02*
X209550D01*
Y133350D01*
X220320D01*
Y156620D01*
D02*
G37*
G36*
X207010D02*
X196240D01*
Y133350D01*
X207010D01*
Y156620D01*
D02*
G37*
G36*
X342690Y134560D02*
X337820D01*
Y130690D01*
X342690D01*
Y134560D01*
D02*
G37*
G36*
X335280D02*
X330410D01*
Y130690D01*
X335280D01*
Y134560D01*
D02*
G37*
G36*
X299510Y133700D02*
X294640D01*
Y129830D01*
X299510D01*
Y133700D01*
D02*
G37*
G36*
X292100D02*
X287230D01*
Y129830D01*
X292100D01*
Y133700D01*
D02*
G37*
G36*
X25180Y135510D02*
X21210D01*
Y129540D01*
X25180D01*
Y135510D01*
D02*
G37*
G36*
X18670D02*
X14700D01*
Y129540D01*
X18670D01*
Y135510D01*
D02*
G37*
G36*
X320210Y132820D02*
X313690D01*
Y126800D01*
X320210D01*
Y132820D01*
D02*
G37*
G36*
X311150D02*
X304630D01*
Y126800D01*
X311150D01*
Y132820D01*
D02*
G37*
G36*
X363390Y132450D02*
X356870D01*
Y126430D01*
X363390D01*
Y132450D01*
D02*
G37*
G36*
X354330D02*
X347810D01*
Y126430D01*
X354330D01*
Y132450D01*
D02*
G37*
G36*
X58858Y184128D02*
X44302D01*
Y145572D01*
X46492D01*
Y136808D01*
X46880Y134861D01*
X47983Y133211D01*
X49319Y131874D01*
X49231Y131662D01*
X48952Y129540D01*
X49231Y127418D01*
X50050Y125441D01*
X51353Y123743D01*
X53051Y122440D01*
X55028Y121621D01*
X57150Y121342D01*
X59272Y121621D01*
X61249Y122440D01*
X62947Y123743D01*
X64250Y125441D01*
X65069Y127418D01*
X65348Y129540D01*
X65069Y131662D01*
X64250Y133639D01*
X62947Y135337D01*
X61249Y136640D01*
X59272Y137459D01*
X57951Y137633D01*
X56668Y138916D01*
Y145572D01*
X58858D01*
Y184128D01*
D02*
G37*
G36*
X25180Y127000D02*
X21210D01*
Y121030D01*
X25180D01*
Y127000D01*
D02*
G37*
G36*
X18670D02*
X14700D01*
Y121030D01*
X18670D01*
Y127000D01*
D02*
G37*
G36*
X256730Y81370D02*
X251460D01*
Y77100D01*
X256730D01*
Y81370D01*
D02*
G37*
G36*
X224980D02*
X219710D01*
Y77100D01*
X224980D01*
Y81370D01*
D02*
G37*
G36*
X248920D02*
X243650D01*
Y77100D01*
X248920D01*
Y81370D01*
D02*
G37*
G36*
X217170D02*
X211900D01*
Y77100D01*
X217170D01*
Y81370D01*
D02*
G37*
G36*
X528080Y98720D02*
Y86680D01*
Y74640D01*
X532350D01*
Y75402D01*
X540762D01*
X541588Y75402D01*
X542858Y75402D01*
X551588D01*
Y97958D01*
X542858D01*
X542032Y97958D01*
X540762Y97958D01*
X532350D01*
Y98720D01*
X528080D01*
D02*
G37*
G36*
X256730Y74560D02*
X251460D01*
Y70290D01*
X256730D01*
Y74560D01*
D02*
G37*
G36*
X248920D02*
X243650D01*
Y70290D01*
X248920D01*
Y74560D01*
D02*
G37*
G36*
X224980D02*
X219710D01*
Y70290D01*
X224980D01*
Y74560D01*
D02*
G37*
G36*
X217170D02*
X211900D01*
Y70290D01*
X217170D01*
Y74560D01*
D02*
G37*
G36*
X83410Y81380D02*
X56640D01*
Y54610D01*
X83410D01*
Y81380D01*
D02*
G37*
G36*
X54100D02*
X27330D01*
Y54610D01*
X54100D01*
Y81380D01*
D02*
G37*
G36*
X590588Y78958D02*
X566032D01*
Y72993D01*
X551310D01*
X550616Y72855D01*
X550028Y72462D01*
X549635Y71874D01*
X549497Y71180D01*
Y55180D01*
X549635Y54486D01*
X550028Y53898D01*
X550616Y53505D01*
X551310Y53367D01*
X566032D01*
Y47402D01*
X590588D01*
Y78958D01*
D02*
G37*
G36*
X224218Y66108D02*
X212662D01*
Y56552D01*
X214685D01*
Y50818D01*
X209662D01*
Y36762D01*
X227218D01*
Y50818D01*
X222195D01*
Y56552D01*
X224218D01*
Y66108D01*
D02*
G37*
G36*
X255968D02*
X244412D01*
Y56552D01*
X246339D01*
Y55290D01*
X246339Y55290D01*
X246339Y55290D01*
Y45918D01*
X243912D01*
Y35362D01*
X256468D01*
Y45918D01*
X254041D01*
Y55290D01*
X254041Y55290D01*
Y56552D01*
X255968D01*
Y66108D01*
D02*
G37*
G36*
X83410Y52070D02*
X56640D01*
Y25300D01*
X83410D01*
Y52070D01*
D02*
G37*
G36*
X54100D02*
X27330D01*
Y25300D01*
X54100D01*
Y52070D01*
D02*
G37*
%LPD*%
G36*
X100355Y551088D02*
X100355Y550559D01*
Y539858D01*
X100355Y539532D01*
Y538588D01*
X100355Y538262D01*
Y527358D01*
X100355Y527032D01*
Y526088D01*
X100355Y525762D01*
Y524161D01*
X96130D01*
X94656Y523868D01*
X93407Y523033D01*
X93407Y523033D01*
X85196Y514822D01*
X84361Y513573D01*
X84068Y512099D01*
X84068Y512099D01*
Y508103D01*
X83820Y508000D01*
X82122Y506697D01*
X80819Y504999D01*
X80000Y503022D01*
X79721Y500900D01*
X80000Y498778D01*
X80819Y496801D01*
X82122Y495103D01*
X83820Y493801D01*
X85797Y492981D01*
X87919Y492702D01*
X90041Y492981D01*
X92018Y493801D01*
X93716Y495103D01*
X95019Y496801D01*
X95838Y498778D01*
X96117Y500900D01*
X95838Y503022D01*
X95019Y504999D01*
X93716Y506697D01*
X92018Y508000D01*
X91770Y508103D01*
Y510504D01*
X97725Y516459D01*
X100355D01*
Y514532D01*
X100355D01*
Y513588D01*
X100355D01*
Y502358D01*
X100355Y502032D01*
Y501088D01*
X100355Y500762D01*
Y490304D01*
X99593Y489350D01*
X99593Y488578D01*
Y484080D01*
X117673D01*
Y488578D01*
X117673Y489350D01*
X117003Y490189D01*
X117114Y490764D01*
X117809Y491459D01*
X139555D01*
X142792Y488222D01*
Y485938D01*
X142792Y485612D01*
Y484668D01*
X142792Y484342D01*
Y482058D01*
X117975Y457241D01*
X101925D01*
X77653Y481513D01*
X77056Y481912D01*
X76241Y482727D01*
Y528341D01*
X76497Y528477D01*
X77511Y528674D01*
X78750Y527060D01*
X80607Y525635D01*
X82769Y524739D01*
X83820Y524600D01*
Y533400D01*
Y542200D01*
X82769Y542061D01*
X80607Y541165D01*
X78750Y539740D01*
X77511Y538126D01*
X76497Y538323D01*
X76241Y538459D01*
Y540695D01*
X87375Y551829D01*
X99392D01*
X100355Y551088D01*
D02*
G37*
%LPC*%
G36*
X86360Y542200D02*
Y534670D01*
X93890D01*
X93751Y535721D01*
X92855Y537883D01*
X91430Y539740D01*
X89573Y541165D01*
X87411Y542061D01*
X86360Y542200D01*
D02*
G37*
G36*
X93890Y532130D02*
X86360D01*
Y524600D01*
X87411Y524739D01*
X89573Y525635D01*
X91430Y527060D01*
X92855Y528917D01*
X93751Y531079D01*
X93890Y532130D01*
D02*
G37*
G36*
X117673Y481540D02*
X99593D01*
Y476270D01*
Y471580D01*
X117673D01*
Y476270D01*
Y481540D01*
D02*
G37*
G36*
Y469040D02*
X109903D01*
Y463770D01*
X117673D01*
Y469040D01*
D02*
G37*
G36*
X107363D02*
X99593D01*
Y463770D01*
X107363D01*
Y469040D01*
D02*
G37*
%LPD*%
G36*
X500339Y319839D02*
Y164683D01*
X500091Y164580D01*
X498393Y163277D01*
X497090Y161579D01*
X496271Y159602D01*
X495992Y157480D01*
X496271Y155358D01*
X497090Y153381D01*
X498393Y151683D01*
X500091Y150380D01*
X502068Y149561D01*
X504190Y149282D01*
X506312Y149561D01*
X508289Y150380D01*
X509987Y151683D01*
X511290Y153381D01*
X511689Y154345D01*
X512959Y154092D01*
Y98856D01*
X512061Y97958D01*
X511559D01*
X510661Y98856D01*
Y132000D01*
X510661Y132000D01*
X510368Y133474D01*
X509533Y134723D01*
X509533Y134723D01*
X494563Y149693D01*
X493314Y150528D01*
X491840Y150821D01*
X491840Y150821D01*
X482898D01*
Y151348D01*
X481371D01*
Y157480D01*
X481371Y157480D01*
X481078Y158954D01*
X480243Y160203D01*
X480243Y160203D01*
X473753Y166693D01*
X472504Y167528D01*
X471030Y167821D01*
X471030Y167821D01*
X466271D01*
Y175802D01*
X471698D01*
Y204358D01*
X453142D01*
Y175802D01*
X458569D01*
Y165565D01*
X455747Y162743D01*
X454912Y161494D01*
X454619Y160020D01*
X454619Y160020D01*
Y154748D01*
X451442D01*
X451442Y141964D01*
X450680Y141010D01*
X450680Y140738D01*
Y134990D01*
X458470D01*
X466260D01*
X466260Y141010D01*
X465498Y141964D01*
X465498Y142280D01*
Y154748D01*
X462321D01*
Y158425D01*
X464015Y160119D01*
X469435D01*
X473669Y155885D01*
Y151348D01*
X472142D01*
Y142592D01*
X482898D01*
Y143119D01*
X490245D01*
X502959Y130405D01*
Y126106D01*
X501689Y125675D01*
X501097Y126447D01*
X499399Y127750D01*
X497422Y128569D01*
X495300Y128848D01*
X493178Y128569D01*
X491201Y127750D01*
X489503Y126447D01*
X488200Y124749D01*
X487381Y122772D01*
X487102Y120650D01*
X487381Y118528D01*
X488200Y116551D01*
X489503Y114853D01*
X491201Y113550D01*
X492959Y112822D01*
Y98856D01*
X492061Y97958D01*
X490762Y97958D01*
X482858D01*
X482032Y97958D01*
X480999Y97958D01*
X480101Y98856D01*
Y102017D01*
X480349Y102120D01*
X482047Y103423D01*
X483350Y105121D01*
X484169Y107098D01*
X484448Y109220D01*
X484169Y111342D01*
X483350Y113319D01*
X482047Y115017D01*
X480349Y116320D01*
X478372Y117139D01*
X476250Y117418D01*
X474128Y117139D01*
X472151Y116320D01*
X470453Y115017D01*
X469150Y113319D01*
X468331Y111342D01*
X468052Y109220D01*
X468331Y107098D01*
X469150Y105121D01*
X470453Y103423D01*
X472151Y102120D01*
X472399Y102017D01*
Y97958D01*
X472032D01*
Y75402D01*
X480762D01*
X481588Y75402D01*
X482759Y75163D01*
Y66975D01*
X482311Y66790D01*
X480613Y65487D01*
X479310Y63789D01*
X478491Y61812D01*
X478212Y59690D01*
X478491Y57568D01*
X479310Y55591D01*
X480613Y53893D01*
X482311Y52590D01*
X484288Y51771D01*
X486410Y51492D01*
X488532Y51771D01*
X490509Y52590D01*
X492207Y53893D01*
X493510Y55591D01*
X494329Y57568D01*
X494608Y59690D01*
X494329Y61812D01*
X493510Y63789D01*
X492207Y65487D01*
X490509Y66790D01*
X490461Y66810D01*
Y74504D01*
X491359Y75402D01*
X492858Y75402D01*
X501588D01*
Y75402D01*
X501689D01*
X502959Y74574D01*
Y56285D01*
X486085Y39411D01*
X363545D01*
X348021Y54935D01*
Y73234D01*
X348919Y74132D01*
X350298Y74132D01*
X358710D01*
Y73370D01*
X362980D01*
Y85410D01*
Y97450D01*
X360374D01*
X359888Y98623D01*
X383303Y122038D01*
X384260Y121199D01*
X384060Y120939D01*
X383241Y118962D01*
X382962Y116840D01*
X383241Y114718D01*
X384060Y112741D01*
X385363Y111043D01*
X387061Y109740D01*
X389038Y108921D01*
X391160Y108642D01*
X393282Y108921D01*
X395259Y109740D01*
X396957Y111043D01*
X398260Y112741D01*
X399079Y114718D01*
X399358Y116840D01*
X399079Y118962D01*
X398260Y120939D01*
X396957Y122637D01*
X396248Y123181D01*
Y143943D01*
X399849Y147544D01*
X401022Y147058D01*
Y141322D01*
X403970D01*
X404453Y141000D01*
X406400Y140612D01*
X408347Y141000D01*
X408830Y141322D01*
X411778D01*
Y150078D01*
X411488D01*
Y153670D01*
X411416Y154031D01*
X416560Y159175D01*
X418324Y157411D01*
Y149758D01*
X418422Y149267D01*
X418422Y141964D01*
X417660Y141010D01*
X417660Y140738D01*
Y134990D01*
X425450D01*
X433240D01*
X433240Y141010D01*
X432478Y141964D01*
X432478Y142280D01*
Y154748D01*
X428500D01*
Y159518D01*
X428112Y161465D01*
X427010Y163116D01*
X421648Y168477D01*
Y175802D01*
X425698D01*
Y204358D01*
X407142D01*
Y175802D01*
X411472D01*
Y168477D01*
X405563Y162568D01*
X402590D01*
X400643Y162181D01*
X399448Y161382D01*
X398541Y161877D01*
X398280Y162123D01*
Y292504D01*
X400707Y294931D01*
X401880Y294445D01*
Y260350D01*
X438150D01*
Y296620D01*
X404056D01*
X403569Y297793D01*
X413075Y307299D01*
X458887D01*
X458990Y307051D01*
X460293Y305353D01*
X461991Y304050D01*
X463968Y303231D01*
X466090Y302952D01*
X468212Y303231D01*
X470189Y304050D01*
X471887Y305353D01*
X473190Y307051D01*
X474009Y309028D01*
X474288Y311150D01*
X474009Y313272D01*
X473190Y315249D01*
X472469Y316189D01*
X473095Y317459D01*
X483017D01*
X483120Y317211D01*
X484423Y315513D01*
X486121Y314210D01*
X488098Y313391D01*
X490220Y313112D01*
X492342Y313391D01*
X494319Y314210D01*
X496017Y315513D01*
X497320Y317211D01*
X498139Y319188D01*
X498266Y320154D01*
X499434Y320578D01*
X500339Y319839D01*
D02*
G37*
%LPC*%
G36*
X476960Y296620D02*
X440690D01*
Y260350D01*
X476960D01*
Y296620D01*
D02*
G37*
G36*
Y257810D02*
X440690D01*
Y221540D01*
X476960D01*
Y257810D01*
D02*
G37*
G36*
X438150D02*
X401880D01*
Y221540D01*
X438150D01*
Y257810D01*
D02*
G37*
G36*
X483660Y140110D02*
X478790D01*
Y136240D01*
X483660D01*
Y140110D01*
D02*
G37*
G36*
X476250D02*
X471380D01*
Y136240D01*
X476250D01*
Y140110D01*
D02*
G37*
G36*
X412540Y138840D02*
X407670D01*
Y134970D01*
X412540D01*
Y138840D01*
D02*
G37*
G36*
X405130D02*
X400260D01*
Y134970D01*
X405130D01*
Y138840D01*
D02*
G37*
G36*
X483660Y133700D02*
X478790D01*
Y129830D01*
X483660D01*
Y133700D01*
D02*
G37*
G36*
X476250D02*
X471380D01*
Y129830D01*
X476250D01*
Y133700D01*
D02*
G37*
G36*
X412540Y132430D02*
X407670D01*
Y128560D01*
X412540D01*
Y132430D01*
D02*
G37*
G36*
X405130D02*
X400260D01*
Y128560D01*
X405130D01*
Y132430D01*
D02*
G37*
G36*
X466260Y132450D02*
X459740D01*
Y126430D01*
X466260D01*
Y132450D01*
D02*
G37*
G36*
X457200D02*
X450680D01*
Y126430D01*
X457200D01*
Y132450D01*
D02*
G37*
G36*
X433240D02*
X426720D01*
Y126430D01*
X433240D01*
Y132450D01*
D02*
G37*
G36*
X424180D02*
X417660D01*
Y126430D01*
X424180D01*
Y132450D01*
D02*
G37*
G36*
X369790Y97450D02*
X365520D01*
Y85410D01*
Y73370D01*
X369790D01*
Y74132D01*
X378202D01*
X379028Y74132D01*
X380298Y74132D01*
X389028D01*
Y96688D01*
X380298D01*
X379472Y96688D01*
X378202Y96688D01*
X369790D01*
Y97450D01*
D02*
G37*
G36*
X368300Y67220D02*
Y59690D01*
X375830D01*
X375691Y60741D01*
X374795Y62903D01*
X373370Y64760D01*
X371513Y66185D01*
X369351Y67081D01*
X368300Y67220D01*
D02*
G37*
G36*
X365760D02*
X364709Y67081D01*
X362547Y66185D01*
X360690Y64760D01*
X359265Y62903D01*
X358369Y60741D01*
X358231Y59690D01*
X365760D01*
Y67220D01*
D02*
G37*
G36*
X375830Y57150D02*
X368300D01*
Y49620D01*
X369351Y49759D01*
X371513Y50655D01*
X373370Y52080D01*
X374795Y53937D01*
X375691Y56099D01*
X375830Y57150D01*
D02*
G37*
G36*
X365760D02*
X358231D01*
X358369Y56099D01*
X359265Y53937D01*
X360690Y52080D01*
X362547Y50655D01*
X364709Y49759D01*
X365760Y49620D01*
Y57150D01*
D02*
G37*
G36*
X457588Y78958D02*
X433032D01*
Y47402D01*
X457588D01*
Y53367D01*
X472310D01*
X473004Y53505D01*
X473592Y53898D01*
X473985Y54486D01*
X474123Y55180D01*
Y71180D01*
X473985Y71874D01*
X473592Y72462D01*
X473004Y72855D01*
X472310Y72993D01*
X457588D01*
Y78958D01*
D02*
G37*
G36*
X428028Y77688D02*
X403472D01*
Y71723D01*
X388750D01*
X388056Y71585D01*
X387468Y71192D01*
X387075Y70604D01*
X386937Y69910D01*
Y53910D01*
X387075Y53216D01*
X387468Y52628D01*
X388056Y52235D01*
X388750Y52097D01*
X403472D01*
Y46132D01*
X428028D01*
Y77688D01*
D02*
G37*
%LPD*%
G36*
X719849Y380875D02*
Y373605D01*
X718610Y373530D01*
X718579Y373530D01*
X713340D01*
Y364490D01*
Y355450D01*
X718579D01*
X718610Y355450D01*
X719849Y355375D01*
Y337066D01*
X710875Y328092D01*
X641223D01*
X640921Y328460D01*
X640921Y328460D01*
Y356212D01*
X642522D01*
X642848Y356212D01*
X643792D01*
X644118Y356212D01*
X655022D01*
X655348Y356212D01*
X656292D01*
X656618Y356212D01*
X667522D01*
X667848Y356212D01*
X668792D01*
X669118Y356212D01*
X680022D01*
X680348Y356212D01*
X681292D01*
X681618Y356212D01*
X692522D01*
X692848Y356212D01*
X693792D01*
X694118Y356212D01*
X704576D01*
X705530Y355450D01*
X706302Y355450D01*
X710800D01*
Y364490D01*
Y373530D01*
X706302D01*
X705530Y373530D01*
X704576Y372768D01*
X703784D01*
X702886Y373666D01*
Y378573D01*
X703869Y378980D01*
X705567Y380283D01*
X706870Y381981D01*
X707689Y383958D01*
X707968Y386080D01*
X707689Y388202D01*
X706870Y390179D01*
X705567Y391877D01*
X703869Y393180D01*
X701892Y393999D01*
X699770Y394278D01*
X697648Y393999D01*
X695671Y393180D01*
X693973Y391877D01*
X692670Y390179D01*
X692191Y389022D01*
X690921Y389275D01*
Y394118D01*
X691169Y394220D01*
X692867Y395523D01*
X694170Y397221D01*
X694989Y399198D01*
X695268Y401320D01*
X694989Y403442D01*
X694637Y404291D01*
X695714Y405010D01*
X719849Y380875D01*
D02*
G37*
%LPC*%
G36*
X670560Y347890D02*
Y340360D01*
X678090D01*
X677951Y341411D01*
X677055Y343573D01*
X675630Y345430D01*
X673773Y346855D01*
X671611Y347751D01*
X670560Y347890D01*
D02*
G37*
G36*
X668020D02*
X666969Y347751D01*
X664807Y346855D01*
X662950Y345430D01*
X661525Y343573D01*
X660629Y341411D01*
X660490Y340360D01*
X668020D01*
Y347890D01*
D02*
G37*
G36*
X678090Y337820D02*
X670560D01*
Y330290D01*
X671611Y330429D01*
X673773Y331325D01*
X675630Y332750D01*
X677055Y334607D01*
X677951Y336769D01*
X678090Y337820D01*
D02*
G37*
G36*
X668020D02*
X660490D01*
X660629Y336769D01*
X661525Y334607D01*
X662950Y332750D01*
X664807Y331325D01*
X666969Y330429D01*
X668020Y330290D01*
Y337820D01*
D02*
G37*
%LPD*%
D10*
X344170Y85330D02*
X344250Y85410D01*
D17*
X342000Y381960D02*
D03*
Y391160D02*
D03*
D18*
X250190Y40640D02*
D03*
Y26640D02*
D03*
D19*
X28840Y401320D02*
D03*
X14340D02*
D03*
D20*
X14320Y381000D02*
D03*
X26320D02*
D03*
X266926Y744344D02*
D03*
X278926D02*
D03*
X102520Y321310D02*
D03*
X90520D02*
D03*
X309310Y353060D02*
D03*
X321310D02*
D03*
D21*
X458470Y576000D02*
D03*
Y567000D02*
D03*
X431800Y576000D02*
D03*
Y567000D02*
D03*
X407670Y576000D02*
D03*
Y567000D02*
D03*
X381000Y576000D02*
D03*
Y567000D02*
D03*
X355600Y576000D02*
D03*
Y567000D02*
D03*
X146050Y546680D02*
D03*
Y555680D02*
D03*
X147320Y489640D02*
D03*
Y480640D02*
D03*
Y507310D02*
D03*
Y516310D02*
D03*
D22*
X309756Y690154D02*
D03*
X322456D02*
D03*
X335156D02*
D03*
X347856D02*
D03*
X360556D02*
D03*
X373256D02*
D03*
X385956D02*
D03*
X398656D02*
D03*
X309756Y742654D02*
D03*
X322456D02*
D03*
X335156D02*
D03*
X347856D02*
D03*
X360556D02*
D03*
X373256D02*
D03*
X385956D02*
D03*
X398656D02*
D03*
D23*
X477520Y146970D02*
D03*
Y134970D02*
D03*
X406400Y145700D02*
D03*
Y133700D02*
D03*
X336550Y147830D02*
D03*
Y135830D02*
D03*
X421640Y371760D02*
D03*
Y359760D02*
D03*
X293370Y134970D02*
D03*
Y146970D02*
D03*
D24*
X458470Y133720D02*
D03*
Y148220D02*
D03*
X425450Y133720D02*
D03*
Y148220D02*
D03*
X355600Y133720D02*
D03*
Y148220D02*
D03*
X312420Y134090D02*
D03*
Y148590D02*
D03*
X132080Y337450D02*
D03*
Y322950D02*
D03*
D25*
X274320Y201030D02*
D03*
Y215530D02*
D03*
D26*
X19940Y128270D02*
D03*
X35940D02*
D03*
D27*
X250190Y61330D02*
D03*
Y75830D02*
D03*
X218440Y61330D02*
D03*
Y75830D02*
D03*
D28*
X218440Y43790D02*
D03*
Y24790D02*
D03*
D29*
X186850Y248920D02*
D03*
X219550D02*
D03*
D30*
X151210Y450850D02*
D03*
X161210D02*
D03*
X193040Y414020D02*
D03*
X183040D02*
D03*
X151130Y431800D02*
D03*
X141130D02*
D03*
D31*
X57010Y343150D02*
D03*
X80010D02*
D03*
X103010D02*
D03*
D32*
X80010Y406150D02*
D03*
D33*
X637070Y364490D02*
D03*
X649570D02*
D03*
X662070D02*
D03*
X674570D02*
D03*
X687070D02*
D03*
X699570D02*
D03*
X712070D02*
D03*
D34*
X601070Y336990D02*
D03*
X748070D02*
D03*
D35*
X68580Y260350D02*
D03*
D36*
X102580Y164850D02*
D03*
X85580D02*
D03*
X68580D02*
D03*
X51580D02*
D03*
X34580D02*
D03*
D37*
X137160Y118030D02*
D03*
Y108030D02*
D03*
X355693Y623650D02*
D03*
Y633650D02*
D03*
X381293Y623650D02*
D03*
Y633650D02*
D03*
X406693Y623650D02*
D03*
Y633650D02*
D03*
X432093Y623650D02*
D03*
Y633650D02*
D03*
X457493Y623650D02*
D03*
Y633650D02*
D03*
X274320Y233760D02*
D03*
Y243760D02*
D03*
D38*
X546810Y86680D02*
D03*
X536810D02*
D03*
X526810D02*
D03*
X516810D02*
D03*
X506810D02*
D03*
X496810D02*
D03*
X486810D02*
D03*
X476810D02*
D03*
X384250Y85410D02*
D03*
X374250D02*
D03*
X364250D02*
D03*
X354250D02*
D03*
X344250D02*
D03*
X334250D02*
D03*
X324250D02*
D03*
X314250D02*
D03*
X546810Y695640D02*
D03*
X536810D02*
D03*
X526810D02*
D03*
X516810D02*
D03*
X506810D02*
D03*
X496810D02*
D03*
X486810D02*
D03*
X476810D02*
D03*
X377776Y769424D02*
D03*
X367776D02*
D03*
X357776D02*
D03*
X347776D02*
D03*
X337776D02*
D03*
X327776D02*
D03*
X317776D02*
D03*
X307776D02*
D03*
D39*
X578310Y63180D02*
D03*
X445310D02*
D03*
X415750Y61910D02*
D03*
X282750D02*
D03*
X578310Y719140D02*
D03*
X445310D02*
D03*
X409276Y792924D02*
D03*
X276276D02*
D03*
D40*
X208280Y132080D02*
D03*
Y209580D02*
D03*
D41*
X162320Y328930D02*
D03*
X259320D02*
D03*
D42*
X309740Y189780D02*
D03*
X355740D02*
D03*
X416420Y190080D02*
D03*
X462420D02*
D03*
D43*
X332740Y258780D02*
D03*
X439420Y259080D02*
D03*
D44*
X381000Y368300D02*
D03*
D45*
X371000Y383620D02*
D03*
X375000D02*
D03*
X379000D02*
D03*
X383000D02*
D03*
X387000D02*
D03*
X391000D02*
D03*
Y352980D02*
D03*
X387000D02*
D03*
X383000D02*
D03*
X379000D02*
D03*
X375000D02*
D03*
X371000D02*
D03*
D46*
X396320Y378300D02*
D03*
Y374300D02*
D03*
Y370300D02*
D03*
Y366300D02*
D03*
Y362300D02*
D03*
Y358300D02*
D03*
X365680D02*
D03*
Y362300D02*
D03*
Y366300D02*
D03*
Y370300D02*
D03*
Y374300D02*
D03*
Y378300D02*
D03*
D47*
X81133Y434310D02*
D03*
Y581310D02*
D03*
D48*
X108633Y470310D02*
D03*
Y482810D02*
D03*
Y495310D02*
D03*
Y507810D02*
D03*
Y520310D02*
D03*
Y532810D02*
D03*
Y545310D02*
D03*
D88*
X314250Y85410D02*
Y91910D01*
X218440Y43790D02*
Y61330D01*
Y43790D02*
X218440Y43790D01*
D89*
X315251Y95330D02*
X322791Y102870D01*
X334250Y51830D02*
Y85410D01*
X377190Y156210D02*
X383352Y162372D01*
X334250Y51830D02*
X360680Y25400D01*
X383352Y162372D02*
Y203012D01*
X350520Y102870D02*
X377190Y129540D01*
X314250Y85410D02*
X315251Y86411D01*
X360680Y25400D02*
X548640D01*
X383352Y203012D02*
X383540Y203200D01*
X377190Y129540D02*
Y156210D01*
X322791Y102870D02*
X350520D01*
X315251Y86411D02*
Y95330D01*
X476250Y87240D02*
Y109220D01*
Y87240D02*
X476810Y86680D01*
X486610Y86480D02*
X486810Y86680D01*
X486410Y59690D02*
X486610Y59890D01*
X495300Y120650D02*
X496810Y119140D01*
X486610Y59890D02*
Y86480D01*
X496810Y86680D02*
Y119140D01*
X584493Y596900D02*
X623570Y557823D01*
Y544830D02*
Y557823D01*
X614680Y535940D02*
X623570Y544830D01*
X248680Y339090D02*
X259080Y328690D01*
X453390Y548640D02*
X457200D01*
X451430Y546680D02*
X453390Y548640D01*
X146050Y546680D02*
X451430D01*
X482600Y548640D02*
Y596608D01*
X467360Y533400D02*
X482600Y548640D01*
X411480Y533400D02*
X467360D01*
X147320Y516310D02*
X147571Y516561D01*
X147069Y516059D02*
X147320Y516310D01*
X137795Y135255D02*
X137795Y135255D01*
X137795Y118665D02*
Y135255D01*
X137160Y118030D02*
X137795Y118665D01*
X190500Y284480D02*
Y381000D01*
X151130Y431800D02*
X170180D01*
X394429Y294099D02*
X411480Y311150D01*
X394429Y162019D02*
Y294099D01*
X209550Y336550D02*
X246140D01*
X248680Y339090D01*
X250190Y55290D02*
Y61330D01*
X250190Y61330D02*
X250190Y61330D01*
X250190Y55290D02*
X250190Y55290D01*
X250190Y40640D02*
Y55290D01*
Y26640D02*
X288899D01*
X487680Y35560D02*
X506810Y54690D01*
X361950Y35560D02*
X487680D01*
X344170Y53340D02*
X361950Y35560D01*
X290830Y12700D02*
X486410D01*
X290830Y12700D02*
X290830Y12700D01*
X384171Y151761D02*
X394429Y162019D01*
X384171Y128353D02*
Y151761D01*
X354250Y98432D02*
X384171Y128353D01*
X354250Y85410D02*
Y98432D01*
X269160Y243760D02*
X274320D01*
X234980Y209580D02*
X269160Y243760D01*
X208280Y209580D02*
X234980D01*
X355646Y421594D02*
Y444454D01*
X698500Y546100D02*
Y659130D01*
X671830Y685800D02*
X698500Y659130D01*
X671830Y685800D02*
Y689610D01*
X626110Y316230D02*
Y317500D01*
X632851Y324241D01*
X393700Y321310D02*
X490220D01*
X376814Y304424D02*
X393700Y321310D01*
X504190Y157480D02*
Y321662D01*
X506810Y86680D02*
Y132000D01*
X491840Y146970D02*
X506810Y132000D01*
X477520Y146970D02*
X491840D01*
X381352Y444500D02*
X504190Y321662D01*
X516810Y86680D02*
Y388700D01*
X487680Y417830D02*
X516810Y388700D01*
X87919Y500900D02*
Y512099D01*
X96130Y520310D01*
X108633D01*
X632851Y324241D02*
X712470D01*
X723700Y335280D02*
Y382470D01*
X723509Y335280D02*
X723700D01*
X712470Y324241D02*
X723509Y335280D01*
X674570Y364490D02*
Y430000D01*
X687070Y364490D02*
Y401320D01*
X687070Y401320D02*
X687070Y401320D01*
X355646Y444454D02*
X355693Y444500D01*
X420370Y706120D02*
X422910Y703580D01*
X381000Y706120D02*
X420370D01*
X373256Y713864D02*
X381000Y706120D01*
X373256Y713864D02*
Y742654D01*
X177800Y727710D02*
X260350Y645160D01*
X320040D01*
X635293Y596900D02*
Y630897D01*
X622300Y643890D02*
X635293Y630897D01*
X608330Y598263D02*
Y737870D01*
X508958Y837242D02*
X608330Y737870D01*
Y598263D02*
X609693Y596900D01*
X685800Y420370D02*
X723700Y382470D01*
X699035Y365025D02*
Y385345D01*
X699770Y386080D01*
X568077Y410116D02*
X614774D01*
X533693Y444500D02*
X568077Y410116D01*
X508293Y444500D02*
X561633Y391160D01*
X626110D01*
X485655Y444500D02*
X552966Y377190D01*
X614680D01*
X376814Y215854D02*
Y304424D01*
X434525Y482600D02*
X436880D01*
X432565Y480640D02*
X434525Y482600D01*
X147820Y480640D02*
X432565D01*
X457200Y505460D02*
X457346Y505314D01*
Y444646D02*
Y505314D01*
X361621Y516561D02*
X361950Y516890D01*
X147571Y516561D02*
X361621D01*
X108633Y532810D02*
X384130D01*
X396099Y520841D01*
X214630Y558800D02*
X361381D01*
X378330Y575749D01*
X147320Y489640D02*
X408569D01*
X416769Y497840D02*
X417830D01*
X146820Y489640D02*
X147320D01*
X408569D02*
X416769Y497840D01*
X139028Y516059D02*
X147069D01*
X108633Y545310D02*
X111133D01*
X378330Y575749D02*
X380749D01*
X381000Y576000D02*
X381146Y576146D01*
X380749Y575749D02*
X381000Y576000D01*
X381293Y444500D02*
X381352D01*
X406693D02*
X433363Y417830D01*
X469900D01*
X355740Y194780D02*
X376814Y215854D01*
X29210Y12700D02*
X290830D01*
X13970Y27940D02*
X29210Y12700D01*
X13970Y27940D02*
Y106680D01*
X685946Y420516D02*
Y441377D01*
Y444354D01*
X674570Y430000D02*
X685946Y441377D01*
X632851Y324241D02*
X637070Y328460D01*
Y364490D01*
X649570D02*
Y401990D01*
X627380Y424180D02*
X649570Y401990D01*
X579413Y424180D02*
X627380D01*
X559093Y444500D02*
X579413Y424180D01*
X662070Y364490D02*
Y412350D01*
X661670Y412750D02*
X662070Y412350D01*
X699035Y365025D02*
X699570Y364490D01*
X108633Y507810D02*
X130779D01*
X128075Y520505D02*
X128270Y520700D01*
X108828Y520505D02*
X128075D01*
X108633Y520310D02*
X108828Y520505D01*
X130779Y507810D02*
X139028Y516059D01*
X72390Y481132D02*
Y542290D01*
X74732Y478790D02*
X74930D01*
X85780Y555680D02*
X146050D01*
X72390Y481132D02*
X74732Y478790D01*
X72390Y542290D02*
X85780Y555680D01*
X74930Y478790D02*
X100330Y453390D01*
X119570D01*
X396099Y520841D02*
X510399D01*
X584493Y446748D01*
X360618Y708598D02*
X360680Y708660D01*
X360618Y690216D02*
Y708598D01*
X360556Y690154D02*
X360618Y690216D01*
X669290Y658045D02*
Y660400D01*
Y658045D02*
X672732Y654604D01*
Y507339D02*
Y654604D01*
X609893Y444500D02*
X672732Y507339D01*
X419285Y736600D02*
X421640D01*
X413231Y742654D02*
X419285Y736600D01*
X398656Y742654D02*
X413231D01*
X625792Y662940D02*
X647332Y641400D01*
X635293Y444500D02*
X680720Y489927D01*
Y528320D01*
X698500Y546100D01*
X660693Y444500D02*
X693349Y477156D01*
X723900Y554990D02*
Y651510D01*
X693349Y524439D02*
X723900Y554990D01*
X701040Y674370D02*
X723900Y651510D01*
X693349Y477156D02*
Y524439D01*
X736893Y444500D02*
Y470877D01*
X712470Y495300D02*
X736893Y470877D01*
X647332Y527952D02*
Y641400D01*
X636270Y516890D02*
X647332Y527952D01*
X263868Y837242D02*
X508958D01*
X230536Y803910D02*
X263868Y837242D01*
X203200Y803910D02*
X230536D01*
X607060Y596900D02*
X609693D01*
X535809Y685720D02*
Y694639D01*
X499953Y649864D02*
X535809Y685720D01*
X493739Y633650D02*
X545809Y685720D01*
X546810Y689140D02*
Y695640D01*
X448807Y649864D02*
X499953D01*
X545809Y694639D02*
X546810Y695640D01*
X545809Y685720D02*
Y694639D01*
X515809Y685720D02*
Y694639D01*
X493029Y662940D02*
X515809Y685720D01*
X496491Y656402D02*
X525809Y685720D01*
X402590Y662940D02*
X493029D01*
X535809Y694639D02*
X536810Y695640D01*
X395643Y673100D02*
X493189D01*
X429945Y656402D02*
X496491D01*
X457493Y633650D02*
X493739D01*
X525809Y685720D02*
Y694639D01*
X562610Y495300D02*
X612140D01*
X493189Y673100D02*
X505809Y685720D01*
Y694639D01*
X548640Y516890D02*
X636270D01*
X547370Y515620D02*
X548640Y516890D01*
X382047Y642397D02*
X402590Y662940D01*
X356193Y633650D02*
X395643Y673100D01*
X407193Y633650D02*
X429945Y656402D01*
X432593Y633650D02*
X448807Y649864D01*
X515809Y694639D02*
X516810Y695640D01*
X525809Y694639D02*
X526810Y695640D01*
X505809Y694639D02*
X506810Y695640D01*
X386018Y720152D02*
X386080Y720090D01*
X386018Y720152D02*
Y742592D01*
X385956Y742654D02*
X386018Y742592D01*
X457493Y596900D02*
X457981Y596411D01*
X457493Y596900D02*
Y623650D01*
X431946Y596754D02*
X432093Y596900D01*
Y623650D01*
X406693Y596900D02*
X407181Y596411D01*
X406693Y596900D02*
Y623650D01*
X381146Y596754D02*
X381293Y596900D01*
Y623650D01*
X355646Y596854D02*
X355693Y596900D01*
Y623650D01*
X432093Y633650D02*
X432593D01*
X406693D02*
X407193D01*
X382047Y634401D02*
Y642397D01*
X381296Y633650D02*
X382047Y634401D01*
X381293Y633650D02*
X381296D01*
X355693D02*
X356193D01*
X579120Y162560D02*
Y332740D01*
X411480Y311150D02*
X466090D01*
X447333Y429260D02*
X491649D01*
X432093Y444500D02*
X447333Y429260D01*
X491649D02*
X546100Y374809D01*
Y111760D02*
Y374809D01*
X482893Y444500D02*
X485655D01*
X506810Y54690D02*
Y86680D01*
X344170Y53340D02*
Y85330D01*
X571500Y535940D02*
X614680D01*
X530225Y357505D02*
X530860Y358140D01*
X530225Y206375D02*
Y357505D01*
X529590Y205740D02*
X530225Y206375D01*
X324250Y61991D02*
Y85410D01*
X469900Y417830D02*
X504190Y383540D01*
Y351790D02*
Y383540D01*
X355646Y576046D02*
Y596854D01*
X596411Y560070D02*
X596900D01*
X559581Y596900D02*
X596411Y560070D01*
X559093Y596900D02*
X559581D01*
X584493Y444500D02*
Y446748D01*
X462420Y163970D02*
X471030D01*
X477520Y157480D01*
Y146970D02*
Y157480D01*
X324250Y46120D02*
Y61991D01*
X290830Y12700D02*
X324250Y46120D01*
X685800Y420370D02*
X685946Y420516D01*
Y444354D02*
X686093Y444500D01*
X377314Y769886D02*
X377776Y769424D01*
X349126Y815464D02*
X377314Y787276D01*
Y769886D02*
Y787276D01*
X257686Y765934D02*
X258336D01*
X278926Y745344D01*
Y744344D02*
Y745344D01*
Y744100D02*
Y744344D01*
Y744100D02*
X279527Y743499D01*
X309062D01*
X309756Y742805D01*
Y742654D02*
Y742805D01*
X355740Y189780D02*
Y194780D01*
X119380Y338988D02*
Y409550D01*
X141130Y431300D01*
Y431800D01*
X151130D02*
X151170Y431840D01*
Y450810D01*
X151210Y450850D01*
X161210D02*
X186690D01*
X201930Y466090D01*
X458232Y576000D02*
X458470D01*
X457981Y576251D02*
X458232Y576000D01*
X457981Y576251D02*
Y596411D01*
X431800Y576000D02*
X431946Y576146D01*
Y596754D01*
X407432Y576000D02*
X407670D01*
X407181Y576251D02*
X407432Y576000D01*
X407181Y576251D02*
Y596411D01*
X381146Y576146D02*
Y596754D01*
X355600Y576000D02*
X355646Y576046D01*
X147820Y480640D02*
X159830Y468630D01*
X147320Y480640D02*
X147820D01*
X159830Y468630D02*
X176530D01*
X174931Y507059D02*
X176530Y505460D01*
X147571Y507059D02*
X174931D01*
X147320Y507310D02*
X147571Y507059D01*
X119570Y453390D02*
X146820Y480640D01*
X147320D01*
X482600Y596608D02*
X482893Y596900D01*
X108633Y545310D02*
X109752Y546429D01*
X145799D02*
X146050Y546680D01*
X109752Y546429D02*
X145799D01*
X505460Y535940D02*
X506876Y537356D01*
Y595484D01*
X508293Y596900D01*
X141150Y495310D02*
X146820Y489640D01*
X108633Y495310D02*
X141150D01*
X533693Y552158D02*
X534670Y551180D01*
X533693Y552158D02*
Y596900D01*
X288899Y26640D02*
X324250Y61991D01*
X457346Y444646D02*
X457493Y444500D01*
X288166Y820544D02*
X290075D01*
X307815Y802804D01*
Y769463D02*
Y802804D01*
X307776Y769424D02*
X307815Y769463D01*
X287709Y821001D02*
X288166Y820544D01*
X266119Y821001D02*
X287709D01*
X243716Y798598D02*
X266119Y821001D01*
X243716Y727834D02*
Y798598D01*
Y727834D02*
X270386Y701164D01*
X314946D01*
X322456Y693654D01*
Y690154D02*
Y693654D01*
X293246Y830704D02*
X317776Y806174D01*
Y769424D02*
Y806174D01*
X266576Y830704D02*
X293246D01*
X236096Y800224D02*
X266576Y830704D01*
X236096Y720214D02*
Y800224D01*
Y720214D02*
X266156Y690154D01*
X309756D01*
Y693654D01*
X357776Y769424D02*
X358777Y768423D01*
Y753927D02*
Y768423D01*
Y753927D02*
X360269Y752436D01*
Y742942D02*
Y752436D01*
Y742942D02*
X360556Y742654D01*
X347776Y769424D02*
X347816Y769384D01*
Y742694D02*
Y769384D01*
Y742694D02*
X347856Y742654D01*
X337776Y762924D02*
Y769424D01*
X335315Y760463D02*
X337776Y762924D01*
X335315Y742813D02*
Y760463D01*
X335156Y742654D02*
X335315Y742813D01*
X322743Y742942D02*
Y750982D01*
X322456Y742654D02*
X322743Y742942D01*
Y750982D02*
X326775Y755013D01*
Y768423D01*
X327776Y769424D01*
X458470Y148220D02*
Y160020D01*
X462420Y163970D01*
Y190080D01*
D90*
X205740Y208280D02*
X208280Y205740D01*
X259320Y328930D02*
Y347740D01*
X193040Y414020D02*
X259320Y347740D01*
X137160Y118030D02*
X142160D01*
X191770Y208280D02*
X205740D01*
X111760Y128270D02*
X191770Y208280D01*
X101600Y128270D02*
X111760D01*
X115570Y111760D02*
X121840Y118030D01*
X52450Y111760D02*
X115570D01*
X37428Y126782D02*
X52450Y111760D01*
X208280Y205740D02*
Y209580D01*
X121840Y118030D02*
X137160D01*
X191770Y167640D02*
X272924D01*
X142160Y118030D02*
X191770Y167640D01*
X138430Y248920D02*
X138430Y248920D01*
X186850D01*
X186850Y248920D01*
X57150Y129540D02*
Y131238D01*
X51580Y136808D02*
X57150Y131238D01*
X51580Y136808D02*
Y164850D01*
X36452Y126782D02*
X37428D01*
X35940Y127294D02*
X36452Y126782D01*
X391160Y116840D02*
Y146050D01*
X402590Y157480D01*
X407670D01*
X153670Y102870D02*
X285750D01*
X148510Y108030D02*
X153670Y102870D01*
X477520Y134746D02*
Y134970D01*
X477132Y134358D02*
X477520Y134746D01*
X458470Y133720D02*
X459108Y134358D01*
X425440Y133710D02*
X425450Y133720D01*
X406400Y133700D02*
X406410Y133710D01*
X293370Y134918D02*
Y134970D01*
Y134918D02*
X293758Y134530D01*
X311980D02*
X312420Y134090D01*
X354102Y135218D02*
X355600Y133720D01*
X336550Y135606D02*
X336938Y135218D01*
X336550Y135606D02*
Y135830D01*
X336162Y135218D02*
X336550Y135606D01*
X312420Y134090D02*
X313548Y135218D01*
X355100Y133720D02*
X355600D01*
X137160Y108030D02*
X148510D01*
X193040Y414020D02*
X229870D01*
X272924Y167640D02*
X293370Y147194D01*
X355190Y189230D02*
X355740Y189780D01*
X334010Y189230D02*
X355190D01*
X355670Y166500D02*
Y184710D01*
Y148290D02*
Y166500D01*
X336550Y147830D02*
Y161290D01*
X341760Y166500D01*
X355670D01*
X416560Y166370D02*
X423412Y159518D01*
Y149758D02*
Y159518D01*
Y149758D02*
X424950Y148220D01*
X425450D01*
X407670Y157480D02*
X416560Y166370D01*
Y189940D01*
X355670Y184710D02*
X355740Y184780D01*
X229870Y414020D02*
X332740Y311150D01*
X355740Y184780D02*
Y189780D01*
X355600Y148220D02*
X355670Y148290D01*
X13970Y335280D02*
X32899Y316351D01*
X13970Y335280D02*
Y380650D01*
Y316230D02*
Y335280D01*
Y380650D02*
X14320Y381000D01*
X165100Y736600D02*
X177800Y749300D01*
X165100Y666750D02*
Y736600D01*
X115570Y617220D02*
X165100Y666750D01*
X177800Y749300D02*
Y753110D01*
X115570Y614680D02*
Y617220D01*
X14340Y401320D02*
Y514720D01*
X14330Y401310D02*
X14340Y401320D01*
X14330Y381010D02*
Y401310D01*
X14320Y381000D02*
X14330Y381010D01*
X14340Y514720D02*
X46990Y547370D01*
X259080Y254000D02*
Y328690D01*
X259320Y328930D01*
X233448Y228368D02*
X259080Y254000D01*
X214568Y228368D02*
X233448D01*
X208280Y222080D02*
X214568Y228368D01*
X208280Y209580D02*
Y222080D01*
X87868Y142002D02*
X101600Y128270D01*
X87868Y142002D02*
Y162562D01*
X85580Y164850D02*
X87868Y162562D01*
X127000Y53340D02*
Y65402D01*
X137160Y75562D01*
Y108030D01*
X127000Y53340D02*
X155550Y24790D01*
X218440D01*
X162320Y275000D02*
X186850Y250470D01*
Y248920D02*
Y250470D01*
X162320Y275000D02*
Y328930D01*
X177800Y778510D02*
Y803910D01*
Y753110D02*
Y778510D01*
X32899Y316351D02*
X72511D01*
X80010Y323850D01*
Y343150D01*
X274320Y215530D02*
Y233760D01*
X274320Y233760D02*
X274320Y233760D01*
X309740Y189780D02*
X311080Y188440D01*
Y149930D02*
Y188440D01*
Y149930D02*
X312420Y148590D01*
X311412Y147582D02*
X312420Y148590D01*
X293758Y147582D02*
X311412D01*
X119380Y338988D02*
X130542D01*
X104548D02*
X119380D01*
X132080Y387350D02*
X158750Y414020D01*
X103010Y321698D02*
Y340526D01*
X104548Y338988D01*
X130542D02*
X132080Y337450D01*
Y387350D01*
X158750Y414020D02*
X183040D01*
X162320Y328930D02*
X172720Y318530D01*
X34580Y164850D02*
X35428Y164002D01*
Y128782D02*
Y164002D01*
Y128782D02*
X35940Y128270D01*
Y127294D02*
Y128270D01*
X406400Y145700D02*
Y153670D01*
X402590Y157480D02*
X406400Y153670D01*
X416420Y190080D02*
X416560Y189940D01*
D91*
X279693Y440397D02*
X311150Y408940D01*
X279693Y440397D02*
Y444500D01*
X379214Y383834D02*
Y398264D01*
X365760Y396546D02*
X374958Y387349D01*
Y383663D02*
Y387349D01*
Y383663D02*
X375000Y383620D01*
X379000D02*
X379214Y383834D01*
X365760Y396546D02*
Y407670D01*
X391000Y352980D02*
X408700Y335280D01*
X412750D01*
X368300Y440690D02*
X411480Y397510D01*
X368300Y440690D02*
Y463550D01*
X341630Y332740D02*
X377190D01*
X321310Y353060D02*
X341630Y332740D01*
X377190D02*
X383000Y338550D01*
Y352980D01*
X374650Y337820D02*
X379000Y342170D01*
X350520Y337820D02*
X374650D01*
X321310Y367030D02*
X350520Y337820D01*
X379000Y342170D02*
Y352980D01*
X351790Y344170D02*
X369876D01*
X374958Y349252D01*
Y352938D01*
X375000Y352980D01*
X343027Y352933D02*
X351790Y344170D01*
X343027Y352933D02*
Y360553D01*
X341630Y361950D02*
X343027Y360553D01*
X396320Y358300D02*
X396362Y358343D01*
X420223D01*
X421640Y359760D01*
X424351Y357049D02*
X429260Y352140D01*
X424351Y357049D02*
Y358049D01*
X422640Y359760D02*
X424351Y358049D01*
X421640Y359760D02*
X422640D01*
X429260Y337820D02*
Y352140D01*
X363120Y378300D02*
X365680D01*
X361571Y379849D02*
X363120Y378300D01*
X344111Y379849D02*
X361571D01*
X342000Y381960D02*
X344111Y379849D01*
X341630Y381590D02*
X342000Y381960D01*
X341630Y361950D02*
Y381590D01*
X321310Y367030D02*
Y428283D01*
X305093Y444500D02*
X321310Y428283D01*
X330200Y572770D02*
Y596608D01*
X330493Y596900D01*
Y426628D02*
Y444500D01*
Y426628D02*
X371000Y386120D01*
Y383620D02*
Y386120D01*
X254293Y444500D02*
X256051D01*
X290341Y410210D02*
X292100D01*
X256051Y444500D02*
X290341Y410210D01*
D92*
X203200Y727710D02*
D03*
Y803910D02*
D03*
D93*
Y753110D02*
D03*
Y778510D02*
D03*
X177800D02*
D03*
Y753110D02*
D03*
Y727710D02*
D03*
Y803910D02*
D03*
D94*
X127000Y53340D02*
D03*
D95*
X55370D02*
D03*
D96*
X482893Y444500D02*
D03*
X457493D02*
D03*
X432093D02*
D03*
X381293D02*
D03*
X406693D02*
D03*
X355693D02*
D03*
X330493D02*
D03*
X305093D02*
D03*
X279693D02*
D03*
X254293D02*
D03*
Y596900D02*
D03*
X279693D02*
D03*
X305093D02*
D03*
X330493D02*
D03*
X355693D02*
D03*
X406693D02*
D03*
X381293D02*
D03*
X432093D02*
D03*
X457493D02*
D03*
X482893D02*
D03*
X508293Y444500D02*
D03*
X533693D02*
D03*
X559093D02*
D03*
X584493D02*
D03*
X609893D02*
D03*
X660693D02*
D03*
X635293D02*
D03*
X686093D02*
D03*
X711493D02*
D03*
X736893D02*
D03*
Y596900D02*
D03*
X711493D02*
D03*
X686093D02*
D03*
X635293D02*
D03*
X660693D02*
D03*
X609693D02*
D03*
X584493D02*
D03*
X559093D02*
D03*
X533693D02*
D03*
X508293D02*
D03*
D97*
X383540Y203200D02*
D03*
X548640Y25400D02*
D03*
X476250Y109220D02*
D03*
X486410Y59690D02*
D03*
X495300Y120650D02*
D03*
X457200Y548640D02*
D03*
X137795Y135255D02*
D03*
X190500Y284480D02*
D03*
Y381000D02*
D03*
X170180Y431800D02*
D03*
X209550Y336550D02*
D03*
X138430Y248920D02*
D03*
X57150Y129540D02*
D03*
X486410Y12700D02*
D03*
X391160Y116840D02*
D03*
X285750Y102870D02*
D03*
X334010Y189230D02*
D03*
X355646Y421594D02*
D03*
X332740Y311150D02*
D03*
X669290Y339090D02*
D03*
X115570Y614680D02*
D03*
X46990Y547370D02*
D03*
X626110Y316230D02*
D03*
X490220Y321310D02*
D03*
X504190Y157480D02*
D03*
X87919Y500900D02*
D03*
X85090Y533400D02*
D03*
X367030Y58420D02*
D03*
X687070Y401320D02*
D03*
X422910Y703580D02*
D03*
X320040Y645160D02*
D03*
X622300Y643890D02*
D03*
X699770Y386080D02*
D03*
X614774Y410116D02*
D03*
X626110Y391160D02*
D03*
X614680Y377190D02*
D03*
X436880Y482600D02*
D03*
X457200Y505460D02*
D03*
X411480Y533400D02*
D03*
X361950Y516890D02*
D03*
X13970Y106680D02*
D03*
X661670Y412750D02*
D03*
X128270Y520700D02*
D03*
X360680Y708660D02*
D03*
X669290Y660400D02*
D03*
X421640Y736600D02*
D03*
X625792Y662940D02*
D03*
X671830Y689610D02*
D03*
X712470Y495300D02*
D03*
X701040Y674370D02*
D03*
X612140Y495300D02*
D03*
X386080Y720090D02*
D03*
X579120Y332740D02*
D03*
Y162560D02*
D03*
X546100Y111760D02*
D03*
X571500Y535940D02*
D03*
X530860Y358140D02*
D03*
X529590Y205740D02*
D03*
X466090Y311150D02*
D03*
X504190Y351790D02*
D03*
X562610Y495300D02*
D03*
X596900Y560070D02*
D03*
X487680Y417830D02*
D03*
X13970Y316230D02*
D03*
X349126Y815464D02*
D03*
X257686Y765934D02*
D03*
X201930Y466090D02*
D03*
X214630Y558800D02*
D03*
X176530Y468630D02*
D03*
Y505460D02*
D03*
X505460Y535940D02*
D03*
X417830Y497840D02*
D03*
X534670Y551180D02*
D03*
X547370Y515620D02*
D03*
D98*
X311150Y408940D02*
D03*
X379214Y398264D02*
D03*
X365760Y407670D02*
D03*
X412750Y335280D02*
D03*
X411480Y397510D02*
D03*
X341630Y361950D02*
D03*
X429260Y337820D02*
D03*
X330200Y572770D02*
D03*
X368300Y463550D02*
D03*
X292100Y410210D02*
D03*
M02*
