G04*
G04 #@! TF.GenerationSoftware,Altium Limited,Altium Designer,19.1.5 (86)*
G04*
G04 Layer_Color=8421504*
%FSLAX44Y44*%
%MOMM*%
G71*
G01*
G75*
%ADD17R,0.6200X0.6000*%
%ADD18R,0.9000X0.7000*%
%ADD19R,0.9500X1.0500*%
%ADD20R,0.5200X0.7200*%
%ADD21R,0.5500X0.4500*%
%ADD22O,0.5500X1.2500*%
%ADD23R,0.7200X0.5200*%
%ADD24R,1.0500X0.9500*%
%ADD25R,0.8000X0.6000*%
%ADD26R,0.5400X0.9400*%
%ADD27R,0.8000X0.6000*%
%ADD28R,1.4000X1.0500*%
%ADD29R,0.9100X1.2200*%
%ADD30R,0.5500X0.6500*%
%ADD31R,0.9500X1.6500*%
%ADD32R,3.2500X1.6500*%
%ADD33R,0.8000X1.3000*%
%ADD34R,2.1000X3.0000*%
%ADD35R,10.5000X8.6000*%
%ADD36R,1.1000X3.5000*%
%ADD37R,0.6500X0.5500*%
%ADD38R,0.6000X1.9000*%
%ADD39R,2.1000X2.8000*%
%ADD40R,1.9000X4.4000*%
%ADD41R,2.9000X5.4000*%
%ADD42R,1.5000X2.5000*%
%ADD43R,7.0000X7.0000*%
%ADD44R,1.7000X1.5400*%
%ADD45O,0.2000X0.7000*%
%ADD46O,0.7000X0.2000*%
%ADD47R,3.0000X2.1000*%
%ADD48R,1.3000X0.8000*%
D17*
X342000Y381960D02*
D03*
Y391160D02*
D03*
D18*
X250190Y40640D02*
D03*
Y26640D02*
D03*
D19*
X28840Y401320D02*
D03*
X14340D02*
D03*
D20*
X14320Y381000D02*
D03*
X26320D02*
D03*
X266926Y744344D02*
D03*
X278926D02*
D03*
X102520Y321310D02*
D03*
X90520D02*
D03*
X309310Y353060D02*
D03*
X321310D02*
D03*
D21*
X458470Y576000D02*
D03*
Y567000D02*
D03*
X431800Y576000D02*
D03*
Y567000D02*
D03*
X407670Y576000D02*
D03*
Y567000D02*
D03*
X381000Y576000D02*
D03*
Y567000D02*
D03*
X355600Y576000D02*
D03*
Y567000D02*
D03*
X146050Y546680D02*
D03*
Y555680D02*
D03*
X147320Y489640D02*
D03*
Y480640D02*
D03*
Y507310D02*
D03*
Y516310D02*
D03*
D22*
X309756Y690154D02*
D03*
X322456D02*
D03*
X335156D02*
D03*
X347856D02*
D03*
X360556D02*
D03*
X373256D02*
D03*
X385956D02*
D03*
X398656D02*
D03*
X309756Y742654D02*
D03*
X322456D02*
D03*
X335156D02*
D03*
X347856D02*
D03*
X360556D02*
D03*
X373256D02*
D03*
X385956D02*
D03*
X398656D02*
D03*
D23*
X477520Y146970D02*
D03*
Y134970D02*
D03*
X406400Y145700D02*
D03*
Y133700D02*
D03*
X336550Y147830D02*
D03*
Y135830D02*
D03*
X421640Y371760D02*
D03*
Y359760D02*
D03*
X293370Y134970D02*
D03*
Y146970D02*
D03*
D24*
X458470Y133720D02*
D03*
Y148220D02*
D03*
X425450Y133720D02*
D03*
Y148220D02*
D03*
X355600Y133720D02*
D03*
Y148220D02*
D03*
X312420Y134090D02*
D03*
Y148590D02*
D03*
X132080Y337450D02*
D03*
Y322950D02*
D03*
D25*
X274320Y201030D02*
D03*
Y215530D02*
D03*
D26*
X19940Y128270D02*
D03*
X35940D02*
D03*
D27*
X250190Y61330D02*
D03*
Y75830D02*
D03*
X218440Y61330D02*
D03*
Y75830D02*
D03*
D28*
X218440Y43790D02*
D03*
Y24790D02*
D03*
D29*
X186850Y248920D02*
D03*
X219550D02*
D03*
D30*
X151210Y450850D02*
D03*
X161210D02*
D03*
X193040Y414020D02*
D03*
X183040D02*
D03*
X151130Y431800D02*
D03*
X141130D02*
D03*
D31*
X57010Y343150D02*
D03*
X80010D02*
D03*
X103010D02*
D03*
D32*
X80010Y406150D02*
D03*
D33*
X637070Y364490D02*
D03*
X649570D02*
D03*
X662070D02*
D03*
X674570D02*
D03*
X687070D02*
D03*
X699570D02*
D03*
X712070D02*
D03*
D34*
X601070Y336990D02*
D03*
X748070D02*
D03*
D35*
X68580Y260350D02*
D03*
D36*
X102580Y164850D02*
D03*
X85580D02*
D03*
X68580D02*
D03*
X51580D02*
D03*
X34580D02*
D03*
D37*
X137160Y118030D02*
D03*
Y108030D02*
D03*
X355693Y623650D02*
D03*
Y633650D02*
D03*
X381293Y623650D02*
D03*
Y633650D02*
D03*
X406693Y623650D02*
D03*
Y633650D02*
D03*
X432093Y623650D02*
D03*
Y633650D02*
D03*
X457493Y623650D02*
D03*
Y633650D02*
D03*
X274320Y233760D02*
D03*
Y243760D02*
D03*
D38*
X546810Y86680D02*
D03*
X536810D02*
D03*
X526810D02*
D03*
X516810D02*
D03*
X506810D02*
D03*
X496810D02*
D03*
X486810D02*
D03*
X476810D02*
D03*
X384250Y85410D02*
D03*
X374250D02*
D03*
X364250D02*
D03*
X354250D02*
D03*
X344250D02*
D03*
X334250D02*
D03*
X324250D02*
D03*
X314250D02*
D03*
X546810Y695640D02*
D03*
X536810D02*
D03*
X526810D02*
D03*
X516810D02*
D03*
X506810D02*
D03*
X496810D02*
D03*
X486810D02*
D03*
X476810D02*
D03*
X377776Y769424D02*
D03*
X367776D02*
D03*
X357776D02*
D03*
X347776D02*
D03*
X337776D02*
D03*
X327776D02*
D03*
X317776D02*
D03*
X307776D02*
D03*
D39*
X578310Y63180D02*
D03*
X445310D02*
D03*
X415750Y61910D02*
D03*
X282750D02*
D03*
X578310Y719140D02*
D03*
X445310D02*
D03*
X409276Y792924D02*
D03*
X276276D02*
D03*
D40*
X208280Y132080D02*
D03*
Y209580D02*
D03*
D41*
X162320Y328930D02*
D03*
X259320D02*
D03*
D42*
X309740Y189780D02*
D03*
X355740D02*
D03*
X416420Y190080D02*
D03*
X462420D02*
D03*
D43*
X332740Y258780D02*
D03*
X439420Y259080D02*
D03*
D44*
X381000Y368300D02*
D03*
D45*
X371000Y383620D02*
D03*
X375000D02*
D03*
X379000D02*
D03*
X383000D02*
D03*
X387000D02*
D03*
X391000D02*
D03*
Y352980D02*
D03*
X387000D02*
D03*
X383000D02*
D03*
X379000D02*
D03*
X375000D02*
D03*
X371000D02*
D03*
D46*
X396320Y378300D02*
D03*
Y374300D02*
D03*
Y370300D02*
D03*
Y366300D02*
D03*
Y362300D02*
D03*
Y358300D02*
D03*
X365680D02*
D03*
Y362300D02*
D03*
Y366300D02*
D03*
Y370300D02*
D03*
Y374300D02*
D03*
Y378300D02*
D03*
D47*
X81133Y434310D02*
D03*
Y581310D02*
D03*
D48*
X108633Y470310D02*
D03*
Y482810D02*
D03*
Y495310D02*
D03*
Y507810D02*
D03*
Y520310D02*
D03*
Y532810D02*
D03*
Y545310D02*
D03*
M02*
