G04*
G04 #@! TF.GenerationSoftware,Altium Limited,Altium Designer,19.1.5 (86)*
G04*
G04 Layer_Color=16711935*
%FSLAX44Y44*%
%MOMM*%
G71*
G01*
G75*
G36*
X351214Y586355D02*
X349612D01*
Y583488D01*
X349179D01*
Y586740D01*
X351214D01*
Y586355D01*
D02*
G37*
G36*
X348686D02*
X347084D01*
Y583488D01*
X346651D01*
Y586740D01*
X348686D01*
Y586355D01*
D02*
G37*
G36*
X345909Y583488D02*
X345476D01*
Y586740D01*
X345909D01*
Y583488D01*
D02*
G37*
G36*
X342808Y585420D02*
X343639D01*
X343761Y585415D01*
X343879Y585406D01*
X343982Y585392D01*
X344076Y585373D01*
X344165Y585354D01*
X344241Y585330D01*
X344311Y585302D01*
X344372Y585274D01*
X344424Y585251D01*
X344471Y585222D01*
X344509Y585199D01*
X344537Y585175D01*
X344560Y585161D01*
X344574Y585147D01*
X344584Y585138D01*
X344588Y585133D01*
X344635Y585077D01*
X344678Y585020D01*
X344711Y584964D01*
X344743Y584903D01*
X344772Y584842D01*
X344790Y584785D01*
X344823Y584677D01*
X344833Y584626D01*
X344842Y584579D01*
X344847Y584536D01*
X344851Y584503D01*
X344856Y584470D01*
Y584452D01*
Y584438D01*
Y584433D01*
X344851Y584344D01*
X344842Y584259D01*
X344823Y584184D01*
X344809Y584118D01*
X344790Y584062D01*
X344772Y584019D01*
X344762Y583996D01*
X344758Y583987D01*
X344720Y583916D01*
X344673Y583855D01*
X344631Y583798D01*
X344588Y583756D01*
X344551Y583723D01*
X344523Y583695D01*
X344504Y583681D01*
X344494Y583676D01*
X344433Y583639D01*
X344363Y583606D01*
X344297Y583578D01*
X344236Y583554D01*
X344180Y583540D01*
X344137Y583531D01*
X344104Y583521D01*
X344095D01*
X344025Y583512D01*
X343945Y583503D01*
X343860Y583498D01*
X343780Y583493D01*
X343710Y583488D01*
X342375D01*
Y586740D01*
X342808D01*
Y585420D01*
D02*
G37*
G36*
X340514Y586355D02*
X338517D01*
Y585251D01*
X340317D01*
Y584865D01*
X338517D01*
Y583874D01*
X340439D01*
Y583488D01*
X338085D01*
Y586740D01*
X340514D01*
Y586355D01*
D02*
G37*
G36*
X336257Y586787D02*
X336332Y586778D01*
X336403Y586768D01*
X336473Y586754D01*
X336534Y586740D01*
X336591Y586726D01*
X336642Y586707D01*
X336689Y586688D01*
X336727Y586674D01*
X336765Y586660D01*
X336793Y586646D01*
X336816Y586632D01*
X336830Y586627D01*
X336840Y586618D01*
X336844D01*
X336948Y586547D01*
X337032Y586468D01*
X337098Y586392D01*
X337155Y586317D01*
X337197Y586251D01*
X337225Y586200D01*
X337234Y586181D01*
X337244Y586167D01*
X337249Y586157D01*
Y586153D01*
X337267Y586096D01*
X337286Y586035D01*
X337314Y585908D01*
X337333Y585777D01*
X337347Y585650D01*
X337352Y585593D01*
X337357Y585537D01*
Y585490D01*
X337361Y585448D01*
Y585415D01*
Y585392D01*
Y585373D01*
Y585368D01*
Y583488D01*
X336929D01*
Y585368D01*
Y585476D01*
X336920Y585579D01*
X336910Y585669D01*
X336896Y585753D01*
X336882Y585829D01*
X336863Y585899D01*
X336849Y585960D01*
X336830Y586012D01*
X336811Y586054D01*
X336793Y586096D01*
X336774Y586124D01*
X336760Y586153D01*
X336746Y586171D01*
X336736Y586186D01*
X336732Y586190D01*
X336727Y586195D01*
X336685Y586233D01*
X336638Y586265D01*
X336534Y586317D01*
X336426Y586355D01*
X336313Y586378D01*
X336210Y586397D01*
X336168Y586402D01*
X336125D01*
X336097Y586406D01*
X336050D01*
X335952Y586402D01*
X335862Y586388D01*
X335778Y586374D01*
X335712Y586350D01*
X335656Y586331D01*
X335613Y586317D01*
X335590Y586303D01*
X335580Y586298D01*
X335515Y586256D01*
X335458Y586204D01*
X335411Y586153D01*
X335378Y586106D01*
X335350Y586059D01*
X335327Y586026D01*
X335317Y586002D01*
X335313Y585993D01*
X335299Y585951D01*
X335289Y585908D01*
X335270Y585810D01*
X335256Y585706D01*
X335247Y585603D01*
X335242Y585514D01*
Y585471D01*
X335237Y585438D01*
Y585410D01*
Y585387D01*
Y585373D01*
Y585368D01*
Y583488D01*
X334805D01*
Y585368D01*
Y585462D01*
X334810Y585551D01*
X334814Y585636D01*
X334824Y585716D01*
X334833Y585786D01*
X334843Y585852D01*
X334857Y585913D01*
X334866Y585969D01*
X334876Y586021D01*
X334890Y586063D01*
X334899Y586101D01*
X334908Y586129D01*
X334918Y586153D01*
X334922Y586171D01*
X334927Y586181D01*
Y586186D01*
X334979Y586289D01*
X335045Y586383D01*
X335111Y586458D01*
X335181Y586524D01*
X335242Y586576D01*
X335294Y586613D01*
X335313Y586623D01*
X335327Y586632D01*
X335336Y586641D01*
X335341D01*
X335458Y586693D01*
X335580Y586731D01*
X335707Y586759D01*
X335825Y586778D01*
X335876Y586782D01*
X335928Y586787D01*
X335975Y586792D01*
X336013D01*
X336046Y586796D01*
X336088D01*
X336257Y586787D01*
D02*
G37*
G36*
X334288Y586355D02*
X332686D01*
Y583488D01*
X332253D01*
Y586740D01*
X334288D01*
Y586355D01*
D02*
G37*
G36*
X330576Y586735D02*
X330675Y586731D01*
X330764Y586721D01*
X330839Y586712D01*
X330900Y586702D01*
X330947Y586698D01*
X330975Y586688D01*
X330985D01*
X331065Y586665D01*
X331130Y586641D01*
X331191Y586613D01*
X331243Y586585D01*
X331286Y586566D01*
X331318Y586547D01*
X331337Y586533D01*
X331342Y586529D01*
X331394Y586486D01*
X331441Y586435D01*
X331478Y586383D01*
X331516Y586336D01*
X331544Y586289D01*
X331563Y586256D01*
X331577Y586233D01*
X331582Y586223D01*
X331614Y586148D01*
X331638Y586073D01*
X331657Y586002D01*
X331666Y585937D01*
X331675Y585880D01*
X331680Y585833D01*
Y585805D01*
Y585800D01*
Y585796D01*
X331675Y585692D01*
X331657Y585598D01*
X331628Y585518D01*
X331600Y585443D01*
X331572Y585387D01*
X331544Y585345D01*
X331525Y585316D01*
X331521Y585307D01*
X331455Y585232D01*
X331384Y585171D01*
X331304Y585119D01*
X331234Y585077D01*
X331168Y585044D01*
X331112Y585025D01*
X331093Y585015D01*
X331079Y585011D01*
X331069Y585006D01*
X331065D01*
X331144Y584959D01*
X331215Y584912D01*
X331271Y584860D01*
X331318Y584813D01*
X331356Y584776D01*
X331384Y584738D01*
X331398Y584720D01*
X331403Y584710D01*
X331441Y584640D01*
X331469Y584574D01*
X331492Y584508D01*
X331506Y584447D01*
X331516Y584395D01*
X331521Y584353D01*
Y584329D01*
Y584320D01*
X331516Y584240D01*
X331502Y584160D01*
X331478Y584090D01*
X331455Y584024D01*
X331431Y583968D01*
X331408Y583930D01*
X331394Y583902D01*
X331389Y583893D01*
X331337Y583822D01*
X331281Y583756D01*
X331220Y583704D01*
X331163Y583662D01*
X331116Y583629D01*
X331074Y583606D01*
X331046Y583592D01*
X331041Y583587D01*
X331036D01*
X330947Y583554D01*
X330849Y583531D01*
X330750Y583512D01*
X330656Y583503D01*
X330571Y583493D01*
X330534D01*
X330501Y583488D01*
X329223D01*
Y586740D01*
X330463D01*
X330576Y586735D01*
D02*
G37*
%LPC*%
G36*
X343681Y585034D02*
X342808D01*
Y583874D01*
X343738D01*
X343823Y583878D01*
X343893Y583883D01*
X343949Y583888D01*
X343987Y583897D01*
X344015Y583902D01*
X344034Y583907D01*
X344039D01*
X344100Y583930D01*
X344151Y583958D01*
X344198Y583987D01*
X344241Y584019D01*
X344269Y584052D01*
X344292Y584076D01*
X344306Y584095D01*
X344311Y584099D01*
X344344Y584156D01*
X344372Y584212D01*
X344391Y584273D01*
X344400Y584325D01*
X344410Y584372D01*
X344414Y584414D01*
Y584438D01*
Y584442D01*
Y584447D01*
X344405Y584546D01*
X344386Y584630D01*
X344358Y584705D01*
X344325Y584767D01*
X344292Y584813D01*
X344264Y584851D01*
X344245Y584870D01*
X344236Y584879D01*
X344203Y584907D01*
X344161Y584931D01*
X344072Y584969D01*
X343973Y584997D01*
X343874Y585015D01*
X343785Y585025D01*
X343747Y585030D01*
X343714D01*
X343681Y585034D01*
D02*
G37*
G36*
X330581Y586355D02*
X329655D01*
Y585236D01*
X330510D01*
X330609Y585246D01*
X330689Y585255D01*
X330755Y585265D01*
X330806Y585274D01*
X330849Y585283D01*
X330867Y585288D01*
X330877Y585293D01*
X330938Y585316D01*
X330989Y585345D01*
X331036Y585377D01*
X331074Y585410D01*
X331102Y585438D01*
X331121Y585462D01*
X331135Y585481D01*
X331140Y585485D01*
X331173Y585537D01*
X331196Y585589D01*
X331215Y585640D01*
X331224Y585687D01*
X331234Y585730D01*
X331239Y585767D01*
Y585786D01*
Y585796D01*
X331234Y585852D01*
X331229Y585908D01*
X331220Y585955D01*
X331206Y585993D01*
X331191Y586026D01*
X331182Y586054D01*
X331177Y586068D01*
X331173Y586073D01*
X331144Y586115D01*
X331121Y586153D01*
X331088Y586181D01*
X331065Y586209D01*
X331041Y586228D01*
X331022Y586242D01*
X331008Y586251D01*
X331004Y586256D01*
X330924Y586294D01*
X330844Y586322D01*
X330811Y586331D01*
X330783Y586336D01*
X330764Y586341D01*
X330759D01*
X330722Y586345D01*
X330679Y586350D01*
X330581Y586355D01*
D02*
G37*
G36*
X330454Y584851D02*
X329655D01*
Y583874D01*
X330426D01*
X330529Y583883D01*
X330609Y583888D01*
X330679Y583897D01*
X330731Y583907D01*
X330764Y583911D01*
X330787Y583921D01*
X330792D01*
X330844Y583940D01*
X330891Y583968D01*
X330928Y583996D01*
X330961Y584024D01*
X330985Y584048D01*
X331004Y584071D01*
X331013Y584085D01*
X331018Y584090D01*
X331046Y584137D01*
X331065Y584184D01*
X331079Y584231D01*
X331088Y584278D01*
X331093Y584315D01*
X331098Y584344D01*
Y584362D01*
Y584372D01*
X331093Y584433D01*
X331083Y584489D01*
X331069Y584536D01*
X331055Y584574D01*
X331041Y584607D01*
X331027Y584635D01*
X331018Y584649D01*
X331013Y584654D01*
X330980Y584691D01*
X330938Y584729D01*
X330896Y584757D01*
X330858Y584776D01*
X330820Y584795D01*
X330792Y584809D01*
X330773Y584813D01*
X330764Y584818D01*
X330712Y584828D01*
X330647Y584837D01*
X330581Y584842D01*
X330515Y584846D01*
X330454Y584851D01*
D02*
G37*
%LPD*%
M02*
