solid
 facet normal -1.000000e+00  0.000000e+00  4.440892e-14
   outer loop
     vertex -3.650000e+00  3.500000e+00  2.485000e+00
     vertex -3.650000e+00 -3.500000e+00  2.485000e+00
     vertex -3.650000e+00 -3.500000e+00  2.495000e+00
   endloop
 endfacet
 facet normal -1.000000e+00 -6.344132e-17 -0.000000e+00
   outer loop
     vertex -3.650000e+00  3.500000e+00  2.495000e+00
     vertex -3.650000e+00  3.500000e+00  2.485000e+00
     vertex -3.650000e+00 -3.500000e+00  2.495000e+00
   endloop
 endfacet
 facet normal  0.000000e+00 -1.000000e+00  0.000000e+00
   outer loop
     vertex -3.650000e+00 -3.500000e+00  2.485000e+00
     vertex  3.650000e+00 -3.500000e+00  2.485000e+00
     vertex  3.650000e+00 -3.500000e+00  2.495000e+00
   endloop
 endfacet
 facet normal  0.000000e+00 -1.000000e+00 -0.000000e+00
   outer loop
     vertex -3.650000e+00 -3.500000e+00  2.495000e+00
     vertex -3.650000e+00 -3.500000e+00  2.485000e+00
     vertex  3.650000e+00 -3.500000e+00  2.495000e+00
   endloop
 endfacet
 facet normal -9.984604e-01 -0.000000e+00 -5.547002e-02
   outer loop
     vertex -3.517500e+00  3.367500e+00  1.000000e-01
     vertex -3.517500e+00 -3.367500e+00  1.000000e-01
     vertex -3.650000e+00 -3.500000e+00  2.485000e+00
   endloop
 endfacet
 facet normal -9.984604e-01  0.000000e+00 -5.547002e-02
   outer loop
     vertex -3.517500e+00  3.367500e+00  1.000000e-01
     vertex -3.650000e+00 -3.500000e+00  2.485000e+00
     vertex -3.650000e+00  3.500000e+00  2.485000e+00
   endloop
 endfacet
 facet normal -9.989614e-01  0.000000e+00  4.556365e-02
   outer loop
     vertex -3.650000e+00 -3.500000e+00  2.495000e+00
     vertex -3.517500e+00 -3.367500e+00  5.400000e+00
     vertex -3.517500e+00  3.367500e+00  5.400000e+00
   endloop
 endfacet
 facet normal -9.989614e-01 -6.337543e-17  4.556365e-02
   outer loop
     vertex -3.650000e+00  3.500000e+00  2.495000e+00
     vertex -3.650000e+00 -3.500000e+00  2.495000e+00
     vertex -3.517500e+00  3.367500e+00  5.400000e+00
   endloop
 endfacet
 facet normal  0.000000e+00  1.000000e+00  0.000000e+00
   outer loop
     vertex  3.650000e+00  3.500000e+00  2.495000e+00
     vertex  3.650000e+00  3.500000e+00  2.485000e+00
     vertex -3.650000e+00  3.500000e+00  2.485000e+00
   endloop
 endfacet
 facet normal  0.000000e+00  1.000000e+00 -0.000000e+00
   outer loop
     vertex  3.650000e+00  3.500000e+00  2.495000e+00
     vertex -3.650000e+00  3.500000e+00  2.485000e+00
     vertex -3.650000e+00  3.500000e+00  2.495000e+00
   endloop
 endfacet
 facet normal  1.000000e+00 -0.000000e+00  8.881784e-14
   outer loop
     vertex  3.650000e+00 -3.500000e+00  2.495000e+00
     vertex  3.650000e+00 -3.500000e+00  2.485000e+00
     vertex  3.650000e+00  3.500000e+00  2.485000e+00
   endloop
 endfacet
 facet normal  1.000000e+00 -1.268826e-16  0.000000e+00
   outer loop
     vertex  3.650000e+00 -3.500000e+00  2.495000e+00
     vertex  3.650000e+00  3.500000e+00  2.485000e+00
     vertex  3.650000e+00  3.500000e+00  2.495000e+00
   endloop
 endfacet
 facet normal  0.000000e+00 -9.984604e-01 -5.547002e-02
   outer loop
     vertex -3.650000e+00 -3.500000e+00  2.485000e+00
     vertex -3.517500e+00 -3.367500e+00  1.000000e-01
     vertex  3.650000e+00 -3.500000e+00  2.485000e+00
   endloop
 endfacet
 facet normal  0.000000e+00 -9.984604e-01 -5.547002e-02
   outer loop
     vertex  3.650000e+00 -3.500000e+00  2.485000e+00
     vertex -3.517500e+00 -3.367500e+00  1.000000e-01
     vertex  3.517500e+00 -3.367500e+00  1.000000e-01
   endloop
 endfacet
 facet normal  0.000000e+00 -9.989614e-01  4.556365e-02
   outer loop
     vertex  3.650000e+00 -3.500000e+00  2.495000e+00
     vertex -3.517500e+00 -3.367500e+00  5.400000e+00
     vertex -3.650000e+00 -3.500000e+00  2.495000e+00
   endloop
 endfacet
 facet normal  0.000000e+00 -9.989614e-01  4.556365e-02
   outer loop
     vertex  3.517500e+00 -3.367500e+00  5.400000e+00
     vertex -3.517500e+00 -3.367500e+00  5.400000e+00
     vertex  3.650000e+00 -3.500000e+00  2.495000e+00
   endloop
 endfacet
 facet normal  0.000000e+00  0.000000e+00 -1.000000e+00
   outer loop
     vertex -3.517500e+00 -3.367500e+00  1.000000e-01
     vertex -3.517500e+00  3.367500e+00  1.000000e-01
     vertex  3.517500e+00  3.367500e+00  1.000000e-01
   endloop
 endfacet
 facet normal  0.000000e+00  0.000000e+00 -1.000000e+00
   outer loop
     vertex  3.517500e+00 -3.367500e+00  1.000000e-01
     vertex -3.517500e+00 -3.367500e+00  1.000000e-01
     vertex  3.517500e+00  3.367500e+00  1.000000e-01
   endloop
 endfacet
 facet normal  0.000000e+00  9.984604e-01 -5.547002e-02
   outer loop
     vertex  3.650000e+00  3.500000e+00  2.485000e+00
     vertex -3.517500e+00  3.367500e+00  1.000000e-01
     vertex -3.650000e+00  3.500000e+00  2.485000e+00
   endloop
 endfacet
 facet normal  0.000000e+00  9.984604e-01 -5.547002e-02
   outer loop
     vertex  3.517500e+00  3.367500e+00  1.000000e-01
     vertex -3.517500e+00  3.367500e+00  1.000000e-01
     vertex  3.650000e+00  3.500000e+00  2.485000e+00
   endloop
 endfacet
 facet normal  0.000000e+00  0.000000e+00  1.000000e+00
   outer loop
     vertex  3.517500e+00  3.367500e+00  5.400000e+00
     vertex -3.517500e+00  3.367500e+00  5.400000e+00
     vertex -3.517500e+00 -3.367500e+00  5.400000e+00
   endloop
 endfacet
 facet normal -0.000000e+00  0.000000e+00  1.000000e+00
   outer loop
     vertex  3.517500e+00  3.367500e+00  5.400000e+00
     vertex -3.517500e+00 -3.367500e+00  5.400000e+00
     vertex  3.517500e+00 -3.367500e+00  5.400000e+00
   endloop
 endfacet
 facet normal  0.000000e+00  9.989614e-01  4.556365e-02
   outer loop
     vertex -3.650000e+00  3.500000e+00  2.495000e+00
     vertex -3.517500e+00  3.367500e+00  5.400000e+00
     vertex  3.650000e+00  3.500000e+00  2.495000e+00
   endloop
 endfacet
 facet normal -0.000000e+00  9.989614e-01  4.556365e-02
   outer loop
     vertex  3.650000e+00  3.500000e+00  2.495000e+00
     vertex -3.517500e+00  3.367500e+00  5.400000e+00
     vertex  3.517500e+00  3.367500e+00  5.400000e+00
   endloop
 endfacet
 facet normal  9.984604e-01  0.000000e+00 -5.547002e-02
   outer loop
     vertex  3.650000e+00 -3.500000e+00  2.485000e+00
     vertex  3.517500e+00 -3.367500e+00  1.000000e-01
     vertex  3.517500e+00  3.367500e+00  1.000000e-01
   endloop
 endfacet
 facet normal  9.984604e-01  0.000000e+00 -5.547002e-02
   outer loop
     vertex  3.650000e+00  3.500000e+00  2.485000e+00
     vertex  3.650000e+00 -3.500000e+00  2.485000e+00
     vertex  3.517500e+00  3.367500e+00  1.000000e-01
   endloop
 endfacet
 facet normal  9.989614e-01 -6.272095e-17  4.556365e-02
   outer loop
     vertex  3.650000e+00  3.500000e+00  2.495000e+00
     vertex  3.517500e+00 -3.367500e+00  5.400000e+00
     vertex  3.650000e+00 -3.500000e+00  2.495000e+00
   endloop
 endfacet
 facet normal  9.989614e-01  0.000000e+00  4.556365e-02
   outer loop
     vertex  3.517500e+00  3.367500e+00  5.400000e+00
     vertex  3.517500e+00 -3.367500e+00  5.400000e+00
     vertex  3.650000e+00  3.500000e+00  2.495000e+00
   endloop
 endfacet
 facet normal  0.000000e+00 -1.000000e+00  0.000000e+00
   outer loop
     vertex -3.675882e+00 -1.500000e+00  3.407417e-03
     vertex -3.650000e+00 -1.500000e+00 -1.387779e-17
     vertex -3.650000e+00 -1.500000e+00  1.000000e-01
   endloop
 endfacet
 facet normal  0.000000e+00 -1.000000e+00  0.000000e+00
   outer loop
     vertex -3.700000e+00 -1.500000e+00  1.339746e-02
     vertex -3.675882e+00 -1.500000e+00  3.407417e-03
     vertex -3.650000e+00 -1.500000e+00  1.000000e-01
   endloop
 endfacet
 facet normal  0.000000e+00 -1.000000e+00  0.000000e+00
   outer loop
     vertex -3.720711e+00 -1.500000e+00  2.928932e-02
     vertex -3.700000e+00 -1.500000e+00  1.339746e-02
     vertex -3.650000e+00 -1.500000e+00  1.000000e-01
   endloop
 endfacet
 facet normal  0.000000e+00 -1.000000e+00  0.000000e+00
   outer loop
     vertex -3.736603e+00 -1.500000e+00  5.000000e-02
     vertex -3.720711e+00 -1.500000e+00  2.928932e-02
     vertex -3.650000e+00 -1.500000e+00  1.000000e-01
   endloop
 endfacet
 facet normal  0.000000e+00 -1.000000e+00  0.000000e+00
   outer loop
     vertex -3.746593e+00 -1.500000e+00  7.411810e-02
     vertex -3.736603e+00 -1.500000e+00  5.000000e-02
     vertex -3.650000e+00 -1.500000e+00  1.000000e-01
   endloop
 endfacet
 facet normal  0.000000e+00 -1.000000e+00  0.000000e+00
   outer loop
     vertex -3.750000e+00 -1.500000e+00  1.000000e-01
     vertex -3.746593e+00 -1.500000e+00  7.411810e-02
     vertex -3.650000e+00 -1.500000e+00  1.000000e-01
   endloop
 endfacet
 facet normal  0.000000e+00 -1.000000e+00  0.000000e+00
   outer loop
     vertex -3.650000e+00 -1.500000e+00 -1.387779e-17
     vertex -1.750000e+00 -1.500000e+00  0.000000e+00
     vertex -1.750000e+00 -1.500000e+00  1.000000e-01
   endloop
 endfacet
 facet normal  0.000000e+00 -1.000000e+00  0.000000e+00
   outer loop
     vertex -3.650000e+00 -1.500000e+00  1.000000e-01
     vertex -3.650000e+00 -1.500000e+00 -1.387779e-17
     vertex -1.750000e+00 -1.500000e+00  1.000000e-01
   endloop
 endfacet
 facet normal  0.000000e+00 -1.000000e+00 -0.000000e+00
   outer loop
     vertex -3.746593e+00 -1.500000e+00  2.410882e+00
     vertex -3.750000e+00 -1.500000e+00  2.385000e+00
     vertex -3.650000e+00 -1.500000e+00  2.385000e+00
   endloop
 endfacet
 facet normal  0.000000e+00 -1.000000e+00 -0.000000e+00
   outer loop
     vertex -3.736603e+00 -1.500000e+00  2.435000e+00
     vertex -3.746593e+00 -1.500000e+00  2.410882e+00
     vertex -3.650000e+00 -1.500000e+00  2.385000e+00
   endloop
 endfacet
 facet normal  0.000000e+00 -1.000000e+00  0.000000e+00
   outer loop
     vertex -3.750000e+00 -1.500000e+00  2.385000e+00
     vertex -3.750000e+00 -1.500000e+00  1.000000e-01
     vertex -3.650000e+00 -1.500000e+00  2.385000e+00
   endloop
 endfacet
 facet normal  0.000000e+00 -1.000000e+00  0.000000e+00
   outer loop
     vertex -3.750000e+00 -1.500000e+00  1.000000e-01
     vertex -3.650000e+00 -1.500000e+00  1.000000e-01
     vertex -3.650000e+00 -1.500000e+00  2.385000e+00
   endloop
 endfacet
 facet normal  0.000000e+00 -1.000000e+00  0.000000e+00
   outer loop
     vertex -3.736603e+00 -1.500000e+00  2.435000e+00
     vertex -3.650000e+00 -1.500000e+00  2.385000e+00
     vertex -3.720711e+00 -1.500000e+00  2.455711e+00
   endloop
 endfacet
 facet normal  0.000000e+00 -1.000000e+00  0.000000e+00
   outer loop
     vertex -3.720711e+00 -1.500000e+00  2.455711e+00
     vertex -3.650000e+00 -1.500000e+00  2.385000e+00
     vertex -3.700000e+00 -1.500000e+00  2.471603e+00
   endloop
 endfacet
 facet normal  0.000000e+00 -1.000000e+00  0.000000e+00
   outer loop
     vertex -3.700000e+00 -1.500000e+00  2.471603e+00
     vertex -3.650000e+00 -1.500000e+00  2.385000e+00
     vertex -3.675882e+00 -1.500000e+00  2.481593e+00
   endloop
 endfacet
 facet normal  0.000000e+00 -1.000000e+00  0.000000e+00
   outer loop
     vertex -3.675882e+00 -1.500000e+00  2.481593e+00
     vertex -3.650000e+00 -1.500000e+00  2.385000e+00
     vertex -3.650000e+00 -1.500000e+00  2.485000e+00
   endloop
 endfacet
 facet normal  0.000000e+00 -1.000000e+00  0.000000e+00
   outer loop
     vertex -3.650000e+00 -1.500000e+00  2.485000e+00
     vertex -3.650000e+00 -1.500000e+00  2.385000e+00
     vertex -1.850000e+00 -1.500000e+00  2.385000e+00
   endloop
 endfacet
 facet normal  0.000000e+00 -1.000000e+00  0.000000e+00
   outer loop
     vertex -3.650000e+00 -1.500000e+00  2.485000e+00
     vertex -1.850000e+00 -1.500000e+00  2.385000e+00
     vertex -1.850000e+00 -1.500000e+00  2.485000e+00
   endloop
 endfacet
 facet normal -0.000000e+00  0.000000e+00  1.000000e+00
   outer loop
     vertex -1.850000e+00  1.500000e+00  2.485000e+00
     vertex -3.650000e+00 -1.500000e+00  2.485000e+00
     vertex -1.850000e+00 -1.500000e+00  2.485000e+00
   endloop
 endfacet
 facet normal  0.000000e+00  0.000000e+00  1.000000e+00
   outer loop
     vertex -1.850000e+00  1.500000e+00  2.485000e+00
     vertex -3.650000e+00  1.500000e+00  2.485000e+00
     vertex -3.650000e+00 -1.500000e+00  2.485000e+00
   endloop
 endfacet
 facet normal -9.914449e-01  0.000000e+00  1.305262e-01
   outer loop
     vertex -3.750000e+00  1.500000e+00  2.385000e+00
     vertex -3.750000e+00 -1.500000e+00  2.385000e+00
     vertex -3.746593e+00 -1.500000e+00  2.410882e+00
   endloop
 endfacet
 facet normal -9.238795e-01  0.000000e+00  3.826834e-01
   outer loop
     vertex -3.746593e+00  1.500000e+00  2.410882e+00
     vertex -3.746593e+00 -1.500000e+00  2.410882e+00
     vertex -3.736603e+00 -1.500000e+00  2.435000e+00
   endloop
 endfacet
 facet normal -9.914449e-01  0.000000e+00  1.305262e-01
   outer loop
     vertex -3.746593e+00  1.500000e+00  2.410882e+00
     vertex -3.750000e+00  1.500000e+00  2.385000e+00
     vertex -3.746593e+00 -1.500000e+00  2.410882e+00
   endloop
 endfacet
 facet normal -9.238795e-01  0.000000e+00  3.826834e-01
   outer loop
     vertex -3.736603e+00  1.500000e+00  2.435000e+00
     vertex -3.746593e+00  1.500000e+00  2.410882e+00
     vertex -3.736603e+00 -1.500000e+00  2.435000e+00
   endloop
 endfacet
 facet normal -7.933533e-01  0.000000e+00  6.087614e-01
   outer loop
     vertex -3.720711e+00  1.500000e+00  2.455711e+00
     vertex -3.736603e+00 -1.500000e+00  2.435000e+00
     vertex -3.720711e+00 -1.500000e+00  2.455711e+00
   endloop
 endfacet
 facet normal -7.933533e-01  0.000000e+00  6.087614e-01
   outer loop
     vertex -3.720711e+00  1.500000e+00  2.455711e+00
     vertex -3.736603e+00  1.500000e+00  2.435000e+00
     vertex -3.736603e+00 -1.500000e+00  2.435000e+00
   endloop
 endfacet
 facet normal -6.087614e-01  0.000000e+00  7.933533e-01
   outer loop
     vertex -3.700000e+00  1.500000e+00  2.471603e+00
     vertex -3.720711e+00 -1.500000e+00  2.455711e+00
     vertex -3.700000e+00 -1.500000e+00  2.471603e+00
   endloop
 endfacet
 facet normal -3.826834e-01  0.000000e+00  9.238795e-01
   outer loop
     vertex -3.700000e+00  1.500000e+00  2.471603e+00
     vertex -3.700000e+00 -1.500000e+00  2.471603e+00
     vertex -3.675882e+00 -1.500000e+00  2.481593e+00
   endloop
 endfacet
 facet normal -6.087614e-01  0.000000e+00  7.933533e-01
   outer loop
     vertex -3.700000e+00  1.500000e+00  2.471603e+00
     vertex -3.720711e+00  1.500000e+00  2.455711e+00
     vertex -3.720711e+00 -1.500000e+00  2.455711e+00
   endloop
 endfacet
 facet normal -1.305262e-01  0.000000e+00  9.914449e-01
   outer loop
     vertex -3.675882e+00  1.500000e+00  2.481593e+00
     vertex -3.675882e+00 -1.500000e+00  2.481593e+00
     vertex -3.650000e+00 -1.500000e+00  2.485000e+00
   endloop
 endfacet
 facet normal -3.826834e-01  0.000000e+00  9.238795e-01
   outer loop
     vertex -3.675882e+00  1.500000e+00  2.481593e+00
     vertex -3.700000e+00  1.500000e+00  2.471603e+00
     vertex -3.675882e+00 -1.500000e+00  2.481593e+00
   endloop
 endfacet
 facet normal -1.305262e-01  0.000000e+00  9.914449e-01
   outer loop
     vertex -3.650000e+00  1.500000e+00  2.485000e+00
     vertex -3.675882e+00  1.500000e+00  2.481593e+00
     vertex -3.650000e+00 -1.500000e+00  2.485000e+00
   endloop
 endfacet
 facet normal  1.000000e+00 -0.000000e+00  0.000000e+00
   outer loop
     vertex -1.850000e+00 -1.500000e+00  2.485000e+00
     vertex -1.850000e+00  1.500000e+00  2.385000e+00
     vertex -1.850000e+00  1.500000e+00  2.485000e+00
   endloop
 endfacet
 facet normal  1.000000e+00 -0.000000e+00  0.000000e+00
   outer loop
     vertex -1.850000e+00 -1.500000e+00  2.485000e+00
     vertex -1.850000e+00 -1.500000e+00  2.385000e+00
     vertex -1.850000e+00  1.500000e+00  2.385000e+00
   endloop
 endfacet
 facet normal -1.000000e+00  0.000000e+00  0.000000e+00
   outer loop
     vertex -3.750000e+00  1.500000e+00  1.000000e-01
     vertex -3.750000e+00 -1.500000e+00  1.000000e-01
     vertex -3.750000e+00 -1.500000e+00  2.385000e+00
   endloop
 endfacet
 facet normal -1.000000e+00 -0.000000e+00 -0.000000e+00
   outer loop
     vertex -3.750000e+00  1.500000e+00  2.385000e+00
     vertex -3.750000e+00  1.500000e+00  1.000000e-01
     vertex -3.750000e+00 -1.500000e+00  2.385000e+00
   endloop
 endfacet
 facet normal  0.000000e+00  0.000000e+00 -1.000000e+00
   outer loop
     vertex -1.850000e+00 -1.500000e+00  2.385000e+00
     vertex -3.650000e+00 -1.500000e+00  2.385000e+00
     vertex -1.850000e+00  1.500000e+00  2.385000e+00
   endloop
 endfacet
 facet normal  0.000000e+00  0.000000e+00 -1.000000e+00
   outer loop
     vertex -3.650000e+00 -1.500000e+00  2.385000e+00
     vertex -3.650000e+00  1.500000e+00  2.385000e+00
     vertex -1.850000e+00  1.500000e+00  2.385000e+00
   endloop
 endfacet
 facet normal -1.305262e-01  0.000000e+00 -9.914449e-01
   outer loop
     vertex -3.675882e+00  1.500000e+00  3.407417e-03
     vertex -3.650000e+00 -1.500000e+00 -1.387779e-17
     vertex -3.675882e+00 -1.500000e+00  3.407417e-03
   endloop
 endfacet
 facet normal -1.305262e-01 -0.000000e+00 -9.914449e-01
   outer loop
     vertex -3.675882e+00  1.500000e+00  3.407417e-03
     vertex -3.650000e+00  1.500000e+00 -1.387779e-17
     vertex -3.650000e+00 -1.500000e+00 -1.387779e-17
   endloop
 endfacet
 facet normal -3.826834e-01  0.000000e+00 -9.238795e-01
   outer loop
     vertex -3.700000e+00  1.500000e+00  1.339746e-02
     vertex -3.675882e+00 -1.500000e+00  3.407417e-03
     vertex -3.700000e+00 -1.500000e+00  1.339746e-02
   endloop
 endfacet
 facet normal -6.087614e-01 -0.000000e+00 -7.933533e-01
   outer loop
     vertex -3.700000e+00  1.500000e+00  1.339746e-02
     vertex -3.700000e+00 -1.500000e+00  1.339746e-02
     vertex -3.720711e+00 -1.500000e+00  2.928932e-02
   endloop
 endfacet
 facet normal -3.826834e-01 -0.000000e+00 -9.238795e-01
   outer loop
     vertex -3.700000e+00  1.500000e+00  1.339746e-02
     vertex -3.675882e+00  1.500000e+00  3.407417e-03
     vertex -3.675882e+00 -1.500000e+00  3.407417e-03
   endloop
 endfacet
 facet normal -6.087614e-01  0.000000e+00 -7.933533e-01
   outer loop
     vertex -3.720711e+00  1.500000e+00  2.928932e-02
     vertex -3.700000e+00  1.500000e+00  1.339746e-02
     vertex -3.720711e+00 -1.500000e+00  2.928932e-02
   endloop
 endfacet
 facet normal -7.933533e-01  0.000000e+00 -6.087614e-01
   outer loop
     vertex -3.736603e+00  1.500000e+00  5.000000e-02
     vertex -3.720711e+00 -1.500000e+00  2.928932e-02
     vertex -3.736603e+00 -1.500000e+00  5.000000e-02
   endloop
 endfacet
 facet normal -9.238795e-01 -0.000000e+00 -3.826834e-01
   outer loop
     vertex -3.736603e+00  1.500000e+00  5.000000e-02
     vertex -3.736603e+00 -1.500000e+00  5.000000e-02
     vertex -3.746593e+00 -1.500000e+00  7.411810e-02
   endloop
 endfacet
 facet normal -7.933533e-01 -0.000000e+00 -6.087614e-01
   outer loop
     vertex -3.736603e+00  1.500000e+00  5.000000e-02
     vertex -3.720711e+00  1.500000e+00  2.928932e-02
     vertex -3.720711e+00 -1.500000e+00  2.928932e-02
   endloop
 endfacet
 facet normal -9.914449e-01 -0.000000e+00 -1.305262e-01
   outer loop
     vertex -3.746593e+00  1.500000e+00  7.411810e-02
     vertex -3.746593e+00 -1.500000e+00  7.411810e-02
     vertex -3.750000e+00 -1.500000e+00  1.000000e-01
   endloop
 endfacet
 facet normal -9.238795e-01  0.000000e+00 -3.826834e-01
   outer loop
     vertex -3.746593e+00  1.500000e+00  7.411810e-02
     vertex -3.736603e+00  1.500000e+00  5.000000e-02
     vertex -3.746593e+00 -1.500000e+00  7.411810e-02
   endloop
 endfacet
 facet normal -9.914449e-01  0.000000e+00 -1.305262e-01
   outer loop
     vertex -3.750000e+00  1.500000e+00  1.000000e-01
     vertex -3.746593e+00  1.500000e+00  7.411810e-02
     vertex -3.750000e+00 -1.500000e+00  1.000000e-01
   endloop
 endfacet
 facet normal  1.000000e+00 -0.000000e+00  0.000000e+00
   outer loop
     vertex -3.650000e+00 -1.500000e+00  2.385000e+00
     vertex -3.650000e+00  1.500000e+00  1.000000e-01
     vertex -3.650000e+00  1.500000e+00  2.385000e+00
   endloop
 endfacet
 facet normal  1.000000e+00 -0.000000e+00  0.000000e+00
   outer loop
     vertex -3.650000e+00 -1.500000e+00  2.385000e+00
     vertex -3.650000e+00 -1.500000e+00  1.000000e-01
     vertex -3.650000e+00  1.500000e+00  1.000000e-01
   endloop
 endfacet
 facet normal  7.304099e-18  0.000000e+00 -1.000000e+00
   outer loop
     vertex -3.650000e+00 -1.500000e+00 -1.387779e-17
     vertex -3.650000e+00  1.500000e+00 -1.387779e-17
     vertex -1.750000e+00  1.500000e+00  0.000000e+00
   endloop
 endfacet
 facet normal  7.304099e-18  0.000000e+00 -1.000000e+00
   outer loop
     vertex -1.750000e+00 -1.500000e+00  0.000000e+00
     vertex -3.650000e+00 -1.500000e+00 -1.387779e-17
     vertex -1.750000e+00  1.500000e+00  0.000000e+00
   endloop
 endfacet
 facet normal -0.000000e+00  0.000000e+00  1.000000e+00
   outer loop
     vertex -1.750000e+00  1.500000e+00  1.000000e-01
     vertex -3.650000e+00 -1.500000e+00  1.000000e-01
     vertex -1.750000e+00 -1.500000e+00  1.000000e-01
   endloop
 endfacet
 facet normal  0.000000e+00  0.000000e+00  1.000000e+00
   outer loop
     vertex -1.750000e+00  1.500000e+00  1.000000e-01
     vertex -3.650000e+00  1.500000e+00  1.000000e-01
     vertex -3.650000e+00 -1.500000e+00  1.000000e-01
   endloop
 endfacet
 facet normal  1.000000e+00 -0.000000e+00  0.000000e+00
   outer loop
     vertex -1.750000e+00 -1.500000e+00  1.000000e-01
     vertex -1.750000e+00  1.500000e+00  0.000000e+00
     vertex -1.750000e+00  1.500000e+00  1.000000e-01
   endloop
 endfacet
 facet normal  1.000000e+00 -0.000000e+00  0.000000e+00
   outer loop
     vertex -1.750000e+00 -1.500000e+00  1.000000e-01
     vertex -1.750000e+00 -1.500000e+00  0.000000e+00
     vertex -1.750000e+00  1.500000e+00  0.000000e+00
   endloop
 endfacet
 facet normal  0.000000e+00  1.000000e+00  0.000000e+00
   outer loop
     vertex -3.650000e+00  1.500000e+00  1.000000e-01
     vertex -3.650000e+00  1.500000e+00 -1.387779e-17
     vertex -3.675882e+00  1.500000e+00  3.407417e-03
   endloop
 endfacet
 facet normal  0.000000e+00  1.000000e+00  0.000000e+00
   outer loop
     vertex -3.650000e+00  1.500000e+00  1.000000e-01
     vertex -3.675882e+00  1.500000e+00  3.407417e-03
     vertex -3.700000e+00  1.500000e+00  1.339746e-02
   endloop
 endfacet
 facet normal  0.000000e+00  1.000000e+00  0.000000e+00
   outer loop
     vertex -3.650000e+00  1.500000e+00  1.000000e-01
     vertex -3.700000e+00  1.500000e+00  1.339746e-02
     vertex -3.720711e+00  1.500000e+00  2.928932e-02
   endloop
 endfacet
 facet normal  0.000000e+00  1.000000e+00  0.000000e+00
   outer loop
     vertex -3.650000e+00  1.500000e+00  1.000000e-01
     vertex -3.720711e+00  1.500000e+00  2.928932e-02
     vertex -3.736603e+00  1.500000e+00  5.000000e-02
   endloop
 endfacet
 facet normal  0.000000e+00  1.000000e+00  0.000000e+00
   outer loop
     vertex -3.650000e+00  1.500000e+00  1.000000e-01
     vertex -3.736603e+00  1.500000e+00  5.000000e-02
     vertex -3.746593e+00  1.500000e+00  7.411810e-02
   endloop
 endfacet
 facet normal  0.000000e+00  1.000000e+00  0.000000e+00
   outer loop
     vertex -3.650000e+00  1.500000e+00  1.000000e-01
     vertex -3.746593e+00  1.500000e+00  7.411810e-02
     vertex -3.750000e+00  1.500000e+00  1.000000e-01
   endloop
 endfacet
 facet normal  0.000000e+00  1.000000e+00  0.000000e+00
   outer loop
     vertex -1.750000e+00  1.500000e+00  1.000000e-01
     vertex -1.750000e+00  1.500000e+00  0.000000e+00
     vertex -3.650000e+00  1.500000e+00 -1.387779e-17
   endloop
 endfacet
 facet normal  0.000000e+00  1.000000e+00 -0.000000e+00
   outer loop
     vertex -1.750000e+00  1.500000e+00  1.000000e-01
     vertex -3.650000e+00  1.500000e+00 -1.387779e-17
     vertex -3.650000e+00  1.500000e+00  1.000000e-01
   endloop
 endfacet
 facet normal  0.000000e+00  1.000000e+00 -0.000000e+00
   outer loop
     vertex -3.650000e+00  1.500000e+00  2.385000e+00
     vertex -3.750000e+00  1.500000e+00  1.000000e-01
     vertex -3.750000e+00  1.500000e+00  2.385000e+00
   endloop
 endfacet
 facet normal  0.000000e+00  1.000000e+00 -0.000000e+00
   outer loop
     vertex -3.650000e+00  1.500000e+00  2.385000e+00
     vertex -3.750000e+00  1.500000e+00  2.385000e+00
     vertex -3.746593e+00  1.500000e+00  2.410882e+00
   endloop
 endfacet
 facet normal  0.000000e+00  1.000000e+00 -0.000000e+00
   outer loop
     vertex -3.650000e+00  1.500000e+00  2.385000e+00
     vertex -3.746593e+00  1.500000e+00  2.410882e+00
     vertex -3.736603e+00  1.500000e+00  2.435000e+00
   endloop
 endfacet
 facet normal  0.000000e+00  1.000000e+00  0.000000e+00
   outer loop
     vertex -3.650000e+00  1.500000e+00  2.385000e+00
     vertex -3.650000e+00  1.500000e+00  1.000000e-01
     vertex -3.750000e+00  1.500000e+00  1.000000e-01
   endloop
 endfacet
 facet normal  0.000000e+00  1.000000e+00  0.000000e+00
   outer loop
     vertex -3.720711e+00  1.500000e+00  2.455711e+00
     vertex -3.650000e+00  1.500000e+00  2.385000e+00
     vertex -3.736603e+00  1.500000e+00  2.435000e+00
   endloop
 endfacet
 facet normal  0.000000e+00  1.000000e+00  0.000000e+00
   outer loop
     vertex -3.700000e+00  1.500000e+00  2.471603e+00
     vertex -3.650000e+00  1.500000e+00  2.385000e+00
     vertex -3.720711e+00  1.500000e+00  2.455711e+00
   endloop
 endfacet
 facet normal  0.000000e+00  1.000000e+00  0.000000e+00
   outer loop
     vertex -3.675882e+00  1.500000e+00  2.481593e+00
     vertex -3.650000e+00  1.500000e+00  2.385000e+00
     vertex -3.700000e+00  1.500000e+00  2.471603e+00
   endloop
 endfacet
 facet normal  0.000000e+00  1.000000e+00  0.000000e+00
   outer loop
     vertex -3.650000e+00  1.500000e+00  2.485000e+00
     vertex -3.650000e+00  1.500000e+00  2.385000e+00
     vertex -3.675882e+00  1.500000e+00  2.481593e+00
   endloop
 endfacet
 facet normal  0.000000e+00  1.000000e+00 -0.000000e+00
   outer loop
     vertex -1.850000e+00  1.500000e+00  2.385000e+00
     vertex -3.650000e+00  1.500000e+00  2.385000e+00
     vertex -3.650000e+00  1.500000e+00  2.485000e+00
   endloop
 endfacet
 facet normal  0.000000e+00  1.000000e+00  0.000000e+00
   outer loop
     vertex -1.850000e+00  1.500000e+00  2.485000e+00
     vertex -1.850000e+00  1.500000e+00  2.385000e+00
     vertex -3.650000e+00  1.500000e+00  2.485000e+00
   endloop
 endfacet
 facet normal  1.000000e+00 -0.000000e+00  0.000000e+00
   outer loop
     vertex  3.750000e+00 -1.500000e+00  2.385000e+00
     vertex  3.750000e+00 -1.500000e+00  1.000000e-01
     vertex  3.750000e+00  1.500000e+00  1.000000e-01
   endloop
 endfacet
 facet normal  1.000000e+00 -0.000000e+00  0.000000e+00
   outer loop
     vertex  3.750000e+00 -1.500000e+00  2.385000e+00
     vertex  3.750000e+00  1.500000e+00  1.000000e-01
     vertex  3.750000e+00  1.500000e+00  2.385000e+00
   endloop
 endfacet
 facet normal  0.000000e+00 -1.000000e+00  0.000000e+00
   outer loop
     vertex  1.650000e+00 -1.500000e+00  0.000000e+00
     vertex  3.650000e+00 -1.500000e+00 -1.387779e-17
     vertex  3.650000e+00 -1.500000e+00  1.000000e-01
   endloop
 endfacet
 facet normal  0.000000e+00 -1.000000e+00  0.000000e+00
   outer loop
     vertex  3.700000e+00 -1.500000e+00  1.339746e-02
     vertex  3.720711e+00 -1.500000e+00  2.928932e-02
     vertex  3.650000e+00 -1.500000e+00  1.000000e-01
   endloop
 endfacet
 facet normal  0.000000e+00 -1.000000e+00  0.000000e+00
   outer loop
     vertex  3.675882e+00 -1.500000e+00  3.407417e-03
     vertex  3.700000e+00 -1.500000e+00  1.339746e-02
     vertex  3.650000e+00 -1.500000e+00  1.000000e-01
   endloop
 endfacet
 facet normal  0.000000e+00 -1.000000e+00  0.000000e+00
   outer loop
     vertex  3.650000e+00 -1.500000e+00 -1.387779e-17
     vertex  3.675882e+00 -1.500000e+00  3.407417e-03
     vertex  3.650000e+00 -1.500000e+00  1.000000e-01
   endloop
 endfacet
 facet normal  0.000000e+00 -1.000000e+00  0.000000e+00
   outer loop
     vertex  1.650000e+00 -1.500000e+00  1.000000e-01
     vertex  1.650000e+00 -1.500000e+00  0.000000e+00
     vertex  3.650000e+00 -1.500000e+00  1.000000e-01
   endloop
 endfacet
 facet normal  0.000000e+00 -1.000000e+00  0.000000e+00
   outer loop
     vertex  3.650000e+00 -1.500000e+00  1.000000e-01
     vertex  3.720711e+00 -1.500000e+00  2.928932e-02
     vertex  3.736603e+00 -1.500000e+00  5.000000e-02
   endloop
 endfacet
 facet normal  0.000000e+00 -1.000000e+00  0.000000e+00
   outer loop
     vertex  3.650000e+00 -1.500000e+00  1.000000e-01
     vertex  3.736603e+00 -1.500000e+00  5.000000e-02
     vertex  3.746593e+00 -1.500000e+00  7.411810e-02
   endloop
 endfacet
 facet normal  0.000000e+00 -1.000000e+00  0.000000e+00
   outer loop
     vertex  3.650000e+00 -1.500000e+00  1.000000e-01
     vertex  3.746593e+00 -1.500000e+00  7.411810e-02
     vertex  3.750000e+00 -1.500000e+00  1.000000e-01
   endloop
 endfacet
 facet normal  0.000000e+00 -1.000000e+00  0.000000e+00
   outer loop
     vertex  1.750000e+00 -1.500000e+00  2.485000e+00
     vertex  1.750000e+00 -1.500000e+00  2.385000e+00
     vertex  3.650000e+00 -1.500000e+00  2.385000e+00
   endloop
 endfacet
 facet normal  0.000000e+00 -1.000000e+00  0.000000e+00
   outer loop
     vertex  3.650000e+00 -1.500000e+00  2.385000e+00
     vertex  3.650000e+00 -1.500000e+00  1.000000e-01
     vertex  3.750000e+00 -1.500000e+00  2.385000e+00
   endloop
 endfacet
 facet normal  0.000000e+00 -1.000000e+00  0.000000e+00
   outer loop
     vertex  3.650000e+00 -1.500000e+00  1.000000e-01
     vertex  3.750000e+00 -1.500000e+00  1.000000e-01
     vertex  3.750000e+00 -1.500000e+00  2.385000e+00
   endloop
 endfacet
 facet normal  0.000000e+00 -1.000000e+00  0.000000e+00
   outer loop
     vertex  1.750000e+00 -1.500000e+00  2.485000e+00
     vertex  3.650000e+00 -1.500000e+00  2.385000e+00
     vertex  3.650000e+00 -1.500000e+00  2.485000e+00
   endloop
 endfacet
 facet normal  0.000000e+00 -1.000000e+00  0.000000e+00
   outer loop
     vertex  3.650000e+00 -1.500000e+00  2.485000e+00
     vertex  3.650000e+00 -1.500000e+00  2.385000e+00
     vertex  3.675882e+00 -1.500000e+00  2.481593e+00
   endloop
 endfacet
 facet normal  0.000000e+00 -1.000000e+00  0.000000e+00
   outer loop
     vertex  3.650000e+00 -1.500000e+00  2.385000e+00
     vertex  3.750000e+00 -1.500000e+00  2.385000e+00
     vertex  3.746593e+00 -1.500000e+00  2.410882e+00
   endloop
 endfacet
 facet normal  0.000000e+00 -1.000000e+00 -0.000000e+00
   outer loop
     vertex  3.675882e+00 -1.500000e+00  2.481593e+00
     vertex  3.650000e+00 -1.500000e+00  2.385000e+00
     vertex  3.700000e+00 -1.500000e+00  2.471603e+00
   endloop
 endfacet
 facet normal  0.000000e+00 -1.000000e+00  0.000000e+00
   outer loop
     vertex  3.650000e+00 -1.500000e+00  2.385000e+00
     vertex  3.746593e+00 -1.500000e+00  2.410882e+00
     vertex  3.736603e+00 -1.500000e+00  2.435000e+00
   endloop
 endfacet
 facet normal  0.000000e+00 -1.000000e+00  0.000000e+00
   outer loop
     vertex  3.650000e+00 -1.500000e+00  2.385000e+00
     vertex  3.736603e+00 -1.500000e+00  2.435000e+00
     vertex  3.720711e+00 -1.500000e+00  2.455711e+00
   endloop
 endfacet
 facet normal  0.000000e+00 -1.000000e+00 -0.000000e+00
   outer loop
     vertex  3.700000e+00 -1.500000e+00  2.471603e+00
     vertex  3.650000e+00 -1.500000e+00  2.385000e+00
     vertex  3.720711e+00 -1.500000e+00  2.455711e+00
   endloop
 endfacet
 facet normal  9.914449e-01  0.000000e+00 -1.305262e-01
   outer loop
     vertex  3.746593e+00  1.500000e+00  7.411810e-02
     vertex  3.750000e+00 -1.500000e+00  1.000000e-01
     vertex  3.746593e+00 -1.500000e+00  7.411810e-02
   endloop
 endfacet
 facet normal  9.914449e-01  0.000000e+00 -1.305262e-01
   outer loop
     vertex  3.746593e+00  1.500000e+00  7.411810e-02
     vertex  3.750000e+00  1.500000e+00  1.000000e-01
     vertex  3.750000e+00 -1.500000e+00  1.000000e-01
   endloop
 endfacet
 facet normal  9.238795e-01  0.000000e+00 -3.826834e-01
   outer loop
     vertex  3.736603e+00  1.500000e+00  5.000000e-02
     vertex  3.746593e+00 -1.500000e+00  7.411810e-02
     vertex  3.736603e+00 -1.500000e+00  5.000000e-02
   endloop
 endfacet
 facet normal  7.933533e-01  0.000000e+00 -6.087614e-01
   outer loop
     vertex  3.736603e+00  1.500000e+00  5.000000e-02
     vertex  3.736603e+00 -1.500000e+00  5.000000e-02
     vertex  3.720711e+00 -1.500000e+00  2.928932e-02
   endloop
 endfacet
 facet normal  9.238795e-01  0.000000e+00 -3.826834e-01
   outer loop
     vertex  3.736603e+00  1.500000e+00  5.000000e-02
     vertex  3.746593e+00  1.500000e+00  7.411810e-02
     vertex  3.746593e+00 -1.500000e+00  7.411810e-02
   endloop
 endfacet
 facet normal  7.933533e-01  0.000000e+00 -6.087614e-01
   outer loop
     vertex  3.720711e+00  1.500000e+00  2.928932e-02
     vertex  3.736603e+00  1.500000e+00  5.000000e-02
     vertex  3.720711e+00 -1.500000e+00  2.928932e-02
   endloop
 endfacet
 facet normal  6.087614e-01  0.000000e+00 -7.933533e-01
   outer loop
     vertex  3.700000e+00  1.500000e+00  1.339746e-02
     vertex  3.720711e+00 -1.500000e+00  2.928932e-02
     vertex  3.700000e+00 -1.500000e+00  1.339746e-02
   endloop
 endfacet
 facet normal  3.826834e-01  0.000000e+00 -9.238795e-01
   outer loop
     vertex  3.700000e+00  1.500000e+00  1.339746e-02
     vertex  3.700000e+00 -1.500000e+00  1.339746e-02
     vertex  3.675882e+00 -1.500000e+00  3.407417e-03
   endloop
 endfacet
 facet normal  6.087614e-01  0.000000e+00 -7.933533e-01
   outer loop
     vertex  3.700000e+00  1.500000e+00  1.339746e-02
     vertex  3.720711e+00  1.500000e+00  2.928932e-02
     vertex  3.720711e+00 -1.500000e+00  2.928932e-02
   endloop
 endfacet
 facet normal  1.305262e-01  0.000000e+00 -9.914449e-01
   outer loop
     vertex  3.675882e+00  1.500000e+00  3.407417e-03
     vertex  3.675882e+00 -1.500000e+00  3.407417e-03
     vertex  3.650000e+00 -1.500000e+00 -1.387779e-17
   endloop
 endfacet
 facet normal  3.826834e-01  0.000000e+00 -9.238795e-01
   outer loop
     vertex  3.675882e+00  1.500000e+00  3.407417e-03
     vertex  3.700000e+00  1.500000e+00  1.339746e-02
     vertex  3.675882e+00 -1.500000e+00  3.407417e-03
   endloop
 endfacet
 facet normal  1.305262e-01  0.000000e+00 -9.914449e-01
   outer loop
     vertex  3.650000e+00  1.500000e+00 -1.387779e-17
     vertex  3.675882e+00  1.500000e+00  3.407417e-03
     vertex  3.650000e+00 -1.500000e+00 -1.387779e-17
   endloop
 endfacet
 facet normal  9.914449e-01 -0.000000e+00  1.305262e-01
   outer loop
     vertex  3.746593e+00 -1.500000e+00  2.410882e+00
     vertex  3.750000e+00 -1.500000e+00  2.385000e+00
     vertex  3.750000e+00  1.500000e+00  2.385000e+00
   endloop
 endfacet
 facet normal  9.238795e-01 -0.000000e+00  3.826834e-01
   outer loop
     vertex  3.736603e+00 -1.500000e+00  2.435000e+00
     vertex  3.746593e+00 -1.500000e+00  2.410882e+00
     vertex  3.746593e+00  1.500000e+00  2.410882e+00
   endloop
 endfacet
 facet normal  9.914449e-01  0.000000e+00  1.305262e-01
   outer loop
     vertex  3.746593e+00 -1.500000e+00  2.410882e+00
     vertex  3.750000e+00  1.500000e+00  2.385000e+00
     vertex  3.746593e+00  1.500000e+00  2.410882e+00
   endloop
 endfacet
 facet normal  9.238795e-01  0.000000e+00  3.826834e-01
   outer loop
     vertex  3.736603e+00 -1.500000e+00  2.435000e+00
     vertex  3.746593e+00  1.500000e+00  2.410882e+00
     vertex  3.736603e+00  1.500000e+00  2.435000e+00
   endloop
 endfacet
 facet normal  7.933533e-01  0.000000e+00  6.087614e-01
   outer loop
     vertex  3.720711e+00 -1.500000e+00  2.455711e+00
     vertex  3.736603e+00 -1.500000e+00  2.435000e+00
     vertex  3.720711e+00  1.500000e+00  2.455711e+00
   endloop
 endfacet
 facet normal  7.933533e-01 -0.000000e+00  6.087614e-01
   outer loop
     vertex  3.736603e+00 -1.500000e+00  2.435000e+00
     vertex  3.736603e+00  1.500000e+00  2.435000e+00
     vertex  3.720711e+00  1.500000e+00  2.455711e+00
   endloop
 endfacet
 facet normal  6.087614e-01  0.000000e+00  7.933533e-01
   outer loop
     vertex  3.700000e+00 -1.500000e+00  2.471603e+00
     vertex  3.720711e+00 -1.500000e+00  2.455711e+00
     vertex  3.700000e+00  1.500000e+00  2.471603e+00
   endloop
 endfacet
 facet normal  3.826834e-01 -0.000000e+00  9.238795e-01
   outer loop
     vertex  3.675882e+00 -1.500000e+00  2.481593e+00
     vertex  3.700000e+00 -1.500000e+00  2.471603e+00
     vertex  3.700000e+00  1.500000e+00  2.471603e+00
   endloop
 endfacet
 facet normal  6.087614e-01 -0.000000e+00  7.933533e-01
   outer loop
     vertex  3.720711e+00 -1.500000e+00  2.455711e+00
     vertex  3.720711e+00  1.500000e+00  2.455711e+00
     vertex  3.700000e+00  1.500000e+00  2.471603e+00
   endloop
 endfacet
 facet normal  1.305262e-01 -0.000000e+00  9.914449e-01
   outer loop
     vertex  3.650000e+00 -1.500000e+00  2.485000e+00
     vertex  3.675882e+00 -1.500000e+00  2.481593e+00
     vertex  3.675882e+00  1.500000e+00  2.481593e+00
   endloop
 endfacet
 facet normal  3.826834e-01  0.000000e+00  9.238795e-01
   outer loop
     vertex  3.675882e+00 -1.500000e+00  2.481593e+00
     vertex  3.700000e+00  1.500000e+00  2.471603e+00
     vertex  3.675882e+00  1.500000e+00  2.481593e+00
   endloop
 endfacet
 facet normal  1.305262e-01  0.000000e+00  9.914449e-01
   outer loop
     vertex  3.650000e+00 -1.500000e+00  2.485000e+00
     vertex  3.675882e+00  1.500000e+00  2.481593e+00
     vertex  3.650000e+00  1.500000e+00  2.485000e+00
   endloop
 endfacet
 facet normal  0.000000e+00  1.000000e+00  0.000000e+00
   outer loop
     vertex  3.650000e+00  1.500000e+00  1.000000e-01
     vertex  3.720711e+00  1.500000e+00  2.928932e-02
     vertex  3.700000e+00  1.500000e+00  1.339746e-02
   endloop
 endfacet
 facet normal  0.000000e+00  1.000000e+00  0.000000e+00
   outer loop
     vertex  3.650000e+00  1.500000e+00  1.000000e-01
     vertex  3.700000e+00  1.500000e+00  1.339746e-02
     vertex  3.675882e+00  1.500000e+00  3.407417e-03
   endloop
 endfacet
 facet normal  0.000000e+00  1.000000e+00  0.000000e+00
   outer loop
     vertex  3.650000e+00  1.500000e+00  1.000000e-01
     vertex  3.675882e+00  1.500000e+00  3.407417e-03
     vertex  3.650000e+00  1.500000e+00 -1.387779e-17
   endloop
 endfacet
 facet normal  0.000000e+00  1.000000e+00  0.000000e+00
   outer loop
     vertex  3.650000e+00  1.500000e+00  1.000000e-01
     vertex  3.650000e+00  1.500000e+00 -1.387779e-17
     vertex  1.650000e+00  1.500000e+00  0.000000e+00
   endloop
 endfacet
 facet normal  0.000000e+00  1.000000e+00 -0.000000e+00
   outer loop
     vertex  3.650000e+00  1.500000e+00  1.000000e-01
     vertex  1.650000e+00  1.500000e+00  0.000000e+00
     vertex  1.650000e+00  1.500000e+00  1.000000e-01
   endloop
 endfacet
 facet normal  0.000000e+00  1.000000e+00  0.000000e+00
   outer loop
     vertex  3.736603e+00  1.500000e+00  5.000000e-02
     vertex  3.720711e+00  1.500000e+00  2.928932e-02
     vertex  3.650000e+00  1.500000e+00  1.000000e-01
   endloop
 endfacet
 facet normal  0.000000e+00  1.000000e+00  0.000000e+00
   outer loop
     vertex  3.746593e+00  1.500000e+00  7.411810e-02
     vertex  3.736603e+00  1.500000e+00  5.000000e-02
     vertex  3.650000e+00  1.500000e+00  1.000000e-01
   endloop
 endfacet
 facet normal  0.000000e+00  1.000000e+00  0.000000e+00
   outer loop
     vertex  3.750000e+00  1.500000e+00  1.000000e-01
     vertex  3.746593e+00  1.500000e+00  7.411810e-02
     vertex  3.650000e+00  1.500000e+00  1.000000e-01
   endloop
 endfacet
 facet normal  0.000000e+00  1.000000e+00 -0.000000e+00
   outer loop
     vertex  3.650000e+00  1.500000e+00  2.385000e+00
     vertex  1.750000e+00  1.500000e+00  2.385000e+00
     vertex  1.750000e+00  1.500000e+00  2.485000e+00
   endloop
 endfacet
 facet normal  0.000000e+00  1.000000e+00  0.000000e+00
   outer loop
     vertex  3.650000e+00  1.500000e+00  2.485000e+00
     vertex  3.650000e+00  1.500000e+00  2.385000e+00
     vertex  1.750000e+00  1.500000e+00  2.485000e+00
   endloop
 endfacet
 facet normal  0.000000e+00  1.000000e+00 -0.000000e+00
   outer loop
     vertex  3.750000e+00  1.500000e+00  2.385000e+00
     vertex  3.650000e+00  1.500000e+00  1.000000e-01
     vertex  3.650000e+00  1.500000e+00  2.385000e+00
   endloop
 endfacet
 facet normal  0.000000e+00  1.000000e+00  0.000000e+00
   outer loop
     vertex  3.750000e+00  1.500000e+00  2.385000e+00
     vertex  3.750000e+00  1.500000e+00  1.000000e-01
     vertex  3.650000e+00  1.500000e+00  1.000000e-01
   endloop
 endfacet
 facet normal  0.000000e+00  1.000000e+00  0.000000e+00
   outer loop
     vertex  3.746593e+00  1.500000e+00  2.410882e+00
     vertex  3.750000e+00  1.500000e+00  2.385000e+00
     vertex  3.650000e+00  1.500000e+00  2.385000e+00
   endloop
 endfacet
 facet normal  0.000000e+00  1.000000e+00 -0.000000e+00
   outer loop
     vertex  3.675882e+00  1.500000e+00  2.481593e+00
     vertex  3.650000e+00  1.500000e+00  2.385000e+00
     vertex  3.650000e+00  1.500000e+00  2.485000e+00
   endloop
 endfacet
 facet normal  0.000000e+00  1.000000e+00  0.000000e+00
   outer loop
     vertex  3.736603e+00  1.500000e+00  2.435000e+00
     vertex  3.746593e+00  1.500000e+00  2.410882e+00
     vertex  3.650000e+00  1.500000e+00  2.385000e+00
   endloop
 endfacet
 facet normal  0.000000e+00  1.000000e+00 -0.000000e+00
   outer loop
     vertex  3.700000e+00  1.500000e+00  2.471603e+00
     vertex  3.650000e+00  1.500000e+00  2.385000e+00
     vertex  3.675882e+00  1.500000e+00  2.481593e+00
   endloop
 endfacet
 facet normal  0.000000e+00  1.000000e+00  0.000000e+00
   outer loop
     vertex  3.720711e+00  1.500000e+00  2.455711e+00
     vertex  3.736603e+00  1.500000e+00  2.435000e+00
     vertex  3.650000e+00  1.500000e+00  2.385000e+00
   endloop
 endfacet
 facet normal  0.000000e+00  1.000000e+00 -0.000000e+00
   outer loop
     vertex  3.720711e+00  1.500000e+00  2.455711e+00
     vertex  3.650000e+00  1.500000e+00  2.385000e+00
     vertex  3.700000e+00  1.500000e+00  2.471603e+00
   endloop
 endfacet
 facet normal -6.938894e-18  0.000000e+00 -1.000000e+00
   outer loop
     vertex  1.650000e+00 -1.500000e+00  0.000000e+00
     vertex  1.650000e+00  1.500000e+00  0.000000e+00
     vertex  3.650000e+00  1.500000e+00 -1.387779e-17
   endloop
 endfacet
 facet normal -6.938894e-18  0.000000e+00 -1.000000e+00
   outer loop
     vertex  3.650000e+00 -1.500000e+00 -1.387779e-17
     vertex  1.650000e+00 -1.500000e+00  0.000000e+00
     vertex  3.650000e+00  1.500000e+00 -1.387779e-17
   endloop
 endfacet
 facet normal -1.000000e+00 -0.000000e+00 -0.000000e+00
   outer loop
     vertex  1.650000e+00  1.500000e+00  1.000000e-01
     vertex  1.650000e+00  1.500000e+00  0.000000e+00
     vertex  1.650000e+00 -1.500000e+00  1.000000e-01
   endloop
 endfacet
 facet normal -1.000000e+00  0.000000e+00  0.000000e+00
   outer loop
     vertex  1.650000e+00  1.500000e+00  0.000000e+00
     vertex  1.650000e+00 -1.500000e+00  0.000000e+00
     vertex  1.650000e+00 -1.500000e+00  1.000000e-01
   endloop
 endfacet
 facet normal  0.000000e+00  0.000000e+00  1.000000e+00
   outer loop
     vertex  3.650000e+00  1.500000e+00  1.000000e-01
     vertex  1.650000e+00  1.500000e+00  1.000000e-01
     vertex  1.650000e+00 -1.500000e+00  1.000000e-01
   endloop
 endfacet
 facet normal -0.000000e+00  0.000000e+00  1.000000e+00
   outer loop
     vertex  3.650000e+00  1.500000e+00  1.000000e-01
     vertex  1.650000e+00 -1.500000e+00  1.000000e-01
     vertex  3.650000e+00 -1.500000e+00  1.000000e-01
   endloop
 endfacet
 facet normal -1.000000e+00 -0.000000e+00 -0.000000e+00
   outer loop
     vertex  3.650000e+00  1.500000e+00  2.385000e+00
     vertex  3.650000e+00  1.500000e+00  1.000000e-01
     vertex  3.650000e+00 -1.500000e+00  2.385000e+00
   endloop
 endfacet
 facet normal -1.000000e+00  0.000000e+00  0.000000e+00
   outer loop
     vertex  3.650000e+00  1.500000e+00  1.000000e-01
     vertex  3.650000e+00 -1.500000e+00  1.000000e-01
     vertex  3.650000e+00 -1.500000e+00  2.385000e+00
   endloop
 endfacet
 facet normal  0.000000e+00 -0.000000e+00  1.000000e+00
   outer loop
     vertex  1.750000e+00 -1.500000e+00  2.485000e+00
     vertex  3.650000e+00 -1.500000e+00  2.485000e+00
     vertex  1.750000e+00  1.500000e+00  2.485000e+00
   endloop
 endfacet
 facet normal  0.000000e+00 -0.000000e+00  1.000000e+00
   outer loop
     vertex  3.650000e+00 -1.500000e+00  2.485000e+00
     vertex  3.650000e+00  1.500000e+00  2.485000e+00
     vertex  1.750000e+00  1.500000e+00  2.485000e+00
   endloop
 endfacet
 facet normal  0.000000e+00  0.000000e+00 -1.000000e+00
   outer loop
     vertex  1.750000e+00 -1.500000e+00  2.385000e+00
     vertex  1.750000e+00  1.500000e+00  2.385000e+00
     vertex  3.650000e+00  1.500000e+00  2.385000e+00
   endloop
 endfacet
 facet normal  0.000000e+00  0.000000e+00 -1.000000e+00
   outer loop
     vertex  3.650000e+00 -1.500000e+00  2.385000e+00
     vertex  1.750000e+00 -1.500000e+00  2.385000e+00
     vertex  3.650000e+00  1.500000e+00  2.385000e+00
   endloop
 endfacet
 facet normal -1.000000e+00 -0.000000e+00 -0.000000e+00
   outer loop
     vertex  1.750000e+00  1.500000e+00  2.485000e+00
     vertex  1.750000e+00  1.500000e+00  2.385000e+00
     vertex  1.750000e+00 -1.500000e+00  2.485000e+00
   endloop
 endfacet
 facet normal -1.000000e+00  0.000000e+00  0.000000e+00
   outer loop
     vertex  1.750000e+00  1.500000e+00  2.385000e+00
     vertex  1.750000e+00 -1.500000e+00  2.385000e+00
     vertex  1.750000e+00 -1.500000e+00  2.485000e+00
   endloop
 endfacet
endsolid
